<svg width="491" height="342" viewBox="0 0 491 342" fill="none" xmlns="http://www.w3.org/2000/svg">
<path d="M277.869 27.153C182.986 -1.69709 194.846 74.6709 147.405 188.374C254.035 215.98 323.992 191.957 345.642 176.495C355.13 133.955 304.413 96.5442 277.869 83.1562C414.319 84.0613 379.905 28.0959 345.642 0C361.455 31.6786 372.751 56.0031 277.869 27.153Z" fill="#7C4B27"/>
<path d="M253.5 78C266.5 82.5 285.5 78.5 293 78C277.8 84 312.333 81.5 331.5 79.5C308.3 83.5 286.167 83.5 278 83L291.642 90.6953C293.643 91.3081 295.636 92.3431 297.5 94L291.642 90.6953C284.947 88.6454 278.154 91.3186 275.752 91.2325C278.86 92.9926 289.027 100.359 280 102C269 104 195 102 191 102C187.8 102 183.667 91.6667 182 86.5L190 64.5C191.833 64.5 197 64 199 64C201.5 64 240.5 73.5 253.5 78Z" fill="#55351D"/>
<path d="M339 69C377 72 369.5 40.5 370 39C357.5 60 349 56 345 57C341 58 314 35.5 303 47C294.2 56.2 277.667 51.8333 270.5 48.5C270.667 52.5 276.3 60.4 297.5 60C318.7 59.6 334 65.8333 339 69Z" fill="#9F6336"/>
<path d="M202.5 48.5C217 42 234.5 32 248 35C261.5 38 205 41.5 226.5 54C241.826 62.9104 256.389 63.1826 264.215 62.0608C268.101 60.7727 270.627 60.0297 270 60.5C269.426 60.9308 267.367 61.6089 264.215 62.0608C258.184 64.0598 248.878 67.3716 243 69.5C246 70.5 257 72.2 277 71C302 69.5 320.5 67.5 323 71C308.833 71.3333 277.4 72.7 265 75.5C252.6 78.3 258.833 76.6667 263.5 75.5L229 71L190.5 64.5L202.5 48.5Z" fill="#55351D"/>
<path d="M266 85.5C281.2 90.3 308.333 105.833 320 113C300.4 118.2 213.833 117.167 173 116L181.5 85.5L186.5 79L219.5 80.5C227.833 82.8333 245 87.6 247 88C249 88.4 258.833 90.1667 263.5 91C259.667 91.8333 251.6 93.5 250 93.5C248 93.5 225 85.5 201.5 85.5C182.7 85.5 190.667 92.8333 197 96.5C193.5 97.8333 188.9 99.7 198.5 96.5C208.1 93.3 233.167 95.1667 244.5 96.5C291.3 103.7 278.333 92.1667 266 85.5Z" fill="#2B1A0E"/>
<path d="M490.405 231.46C490.405 272.627 380.715 306 245.405 306C110.096 306 0.405304 272.627 0.405304 231.46C0.405304 190.293 110.096 105 245.405 105C380.715 105 490.405 190.293 490.405 231.46Z" fill="#7C4B27"/>
<path d="M77 286.5C99 292.5 135.833 298 151.5 300H338C372.5 295 424.5 286 444 273.5C458 264.526 432.5 273.5 410.5 269.5C341.616 256.976 372.833 251 397.5 237C366.5 224 357 202 357 196.5C357 191 356 176 355 154.5C354.2 137.3 346.667 134 343 134.5C341.8 138.9 336.167 140.333 333.5 140.5C331.9 130.5 322.167 127.333 317.5 127C311.1 128.2 308.833 138.833 308.5 144C309.3 131.6 301.167 122.5 297 119.5L287.5 132L259.5 114C257.833 117.833 254.3 125.8 253.5 127C252.7 128.2 241.167 118.833 235.5 114C230.3 122.8 213 126.333 205 127L180.5 112L166.5 129L161.5 121.5C154 129 139.6 147.9 142 163.5C145 183 119.5 178 133 198C143.8 214 137.5 235.667 133 244.5C124 291 49.5 279 77 286.5Z" fill="#55351D"/>
<path d="M344.5 271C350.736 317.585 306.19 342 245.065 342C187.458 342 146 319 146 278.5C151.5 215.5 151 154 245.065 134C327 142.5 336 207.5 344.5 271Z" fill="#FDCAA5"/>
<path d="M303.405 263.528C277.376 252.895 222.942 248.908 190.405 263.529C192.164 286.124 197.88 293.213 210.191 309.163C238.771 314.922 254.6 313.593 283.619 309.163C293.293 296.757 301.793 276.968 303.405 263.528Z" fill="#8E4141"/>
<path d="M246.026 264C210.333 264 211.163 298.513 210.405 300.431C239.963 324.398 282.405 308.1 282.405 300.431C282.405 292.761 282.405 264 246.026 264Z" fill="#592929"/>
<path d="M245.174 289C223.361 289 223.868 303.087 223.405 303.87C241.468 313.652 267.405 307 267.405 303.87C267.405 300.739 267.405 289 245.174 289Z" fill="#C03434"/>
<path d="M303.405 263.675C272.187 250.334 210.554 251.223 190.405 263.675C193.043 269.457 194.802 273.014 198.759 277.017C227.228 278.493 263.507 278.152 292.413 277.017C298.569 271.235 301.799 267.119 303.405 263.675Z" fill="white"/>
<path d="M283.234 309.095C257.551 315.739 221.855 312.638 210.536 309.095C209.23 305.994 209.23 302.893 209.666 299.559C228.091 298.579 263.656 299.037 282.364 299.792C283.235 303.336 283.67 306.437 283.234 309.095Z" fill="white"/>
<path d="M311.128 224.822C312.471 218.443 308.495 208.341 308.495 208.341C291.996 183.705 273.243 192.293 265.929 199.666C265.929 199.666 259.347 208.341 264.174 216.581C270.245 226.945 307.336 242.844 311.128 224.822Z" fill="#F1F1F1"/>
<path d="M184.682 224.822C183.34 218.443 187.315 208.341 187.315 208.341C203.815 183.705 222.567 192.293 229.881 199.666C229.881 199.666 236.463 208.341 231.636 216.581C225.566 226.945 188.475 242.844 184.682 224.822Z" fill="#F1F1F1"/>
<path d="M165.788 133.938C158.721 137.987 155.188 157.75 154.304 167.125C139.464 220.675 139.288 238.562 149.446 247L162.905 191.5C219.905 157.5 299.905 175 326.905 191.5L340.245 241.375C349.785 219.325 347.017 205 340.245 175C343.425 164.65 341.57 152.312 340.245 147.438C336.358 156.438 328.909 156.062 325.67 154.75C329.203 144.85 324.198 138.25 321.253 136.188C314.187 142.037 306.237 144.625 303.145 145.188C306.325 134.388 300.053 129.812 296.52 128.875C292.28 139.675 280.62 138.25 275.32 136.188C275.674 125.387 265.751 115.563 260.745 112C261.452 119.65 254.856 127.938 251.47 131.125C252.884 121.675 244.404 114.438 239.987 112C238.927 117.85 233.068 125.688 230.271 128.875C218.257 129.325 200.532 120.062 193.171 115.375C193.171 121.225 196.115 130.188 197.587 133.938C190.167 131.688 183.601 118.375 181.246 112C170.999 121.45 170.204 141.062 171.088 149.688C165.081 147.438 165.052 138.25 165.788 133.938Z" fill="black"/>
<circle cx="288.405" cy="217" r="14" fill="url(#paint0_linear_49_37)"/>
<circle cx="208.405" cy="217" r="14" fill="url(#paint1_linear_49_37)"/>
<circle cx="288.405" cy="222" r="7" fill="black"/>
<circle cx="208.405" cy="222" r="7" fill="black"/>
<ellipse cx="276.489" cy="208.05" rx="8" ry="5" transform="rotate(16.3544 276.489 208.05)" fill="#F1F1F1"/>
<ellipse cx="221.49" cy="209.05" rx="8" ry="5" transform="rotate(-2.357 221.49 209.05)" fill="#F1F1F1"/>
<ellipse cx="280.289" cy="221.517" rx="3.79506" ry="2.37191" transform="rotate(-2.22181 280.289 221.517)" fill="#F1F1F1"/>
<ellipse cx="214.49" cy="222.05" rx="3.79506" ry="2.37191" transform="rotate(-2.22181 214.49 222.05)" fill="#F1F1F1"/>
<path d="M177.405 229C157.805 217.4 147.239 260.167 144.405 283L148.905 246L162.405 191.5C225.605 154.7 298.739 176.167 327.405 191.5C333.405 200.3 342.239 254.833 345.905 281C337.905 227.8 324.239 228.167 318.405 235C319.605 191.4 286.239 188.833 269.405 193C258.638 196.845 258.407 210.549 259.738 217.674C259.798 217.949 259.854 218.225 259.905 218.5C259.847 218.236 259.791 217.96 259.738 217.674C257.424 207.159 248.291 196.898 243.905 193C241.505 206.2 236.572 215.5 234.405 218.5C237.605 212.5 234.572 203.5 231.405 197C189.405 177.4 182.905 208.5 177.405 229Z" fill="#913F34" fill-opacity="0.5"/>
<path d="M246.405 235C240.805 235 236.072 240 234.405 242.5C237.605 228.9 244.405 226.167 247.405 226.5C255.005 230.9 258.239 239 258.905 242.5C257.072 240 252.005 235 246.405 235Z" fill="#913F34" fill-opacity="0.5"/>
<path d="M179.377 198.027C192.177 181.227 218.377 180.027 229.877 181.527L227.877 176.027C217.077 167.227 190.377 179.693 178.377 187.027C174.377 192.627 177.377 196.693 179.377 198.027Z" fill="black"/>
<path d="M312.905 198.027C300.105 181.227 273.905 180.027 262.405 181.527L264.405 176.027C275.205 167.227 301.905 179.693 313.905 187.027C317.905 192.627 314.905 196.693 312.905 198.027Z" fill="black"/>
<path d="M13 239.5C-4.20001 194.7 87.5 149.833 135.5 133C135.5 189.8 100.167 209 82.5 211.5C103.7 177.5 64.6667 204.333 42.5 222C13.7 231.6 39.5 249.333 56 257C31.6 256.6 17.1667 245.167 13 239.5Z" fill="#9F6336"/>
<path d="M479.5 240.5C496.7 195.7 405 150.833 357 134C357 190.8 392.333 210 410 212.5C388.8 178.5 427.833 205.333 450 223C478.8 232.6 453 250.333 436.5 258C460.9 257.6 475.333 246.167 479.5 240.5Z" fill="#9F6336"/>
<defs>
<linearGradient id="paint0_linear_49_37" x1="288.405" y1="203" x2="288.405" y2="231" gradientUnits="userSpaceOnUse">
<stop stop-color="#8E5434"/>
<stop offset="1" stop-color="#26180B"/>
</linearGradient>
<linearGradient id="paint1_linear_49_37" x1="208.405" y1="203" x2="208.405" y2="231" gradientUnits="userSpaceOnUse">
<stop stop-color="#8E5434"/>
<stop offset="1" stop-color="#26180B"/>
</linearGradient>
</defs>
</svg>
