<svg width="481" height="609" viewBox="0 0 481 609" fill="none" xmlns="http://www.w3.org/2000/svg">
<path d="M414.452 104.504C400.112 68.7697 367.651 57.4189 351.935 52.9759L240.326 187.549L114.09 228.641L129.044 362.666L122.316 370.778L154.406 397.392L163.113 386.893L287.74 379.907L312.128 237.433L414.452 104.504Z" fill="#D9D9D9"/>
<path d="M84.7414 446.522C139.457 343.35 122.279 357.67 227.343 397.341C295.465 396.422 290.132 357.929 317.018 387.471C338.19 410.734 283.294 472.564 219.152 488.871C155.011 505.178 56.0294 494.147 84.7414 446.522Z" fill="#FDCAA5"/>
<circle cx="333.239" cy="372.783" r="27.7432" transform="rotate(137.418 333.239 372.783)" fill="#FDCAA5"/>
<circle cx="283.098" cy="418.86" r="27.7432" transform="rotate(137.418 283.098 418.86)" fill="#FDCAA5"/>
<rect x="352.011" y="393.21" width="68.097" height="55.4864" transform="rotate(137.418 352.011 393.21)" fill="#FDCAA5"/>
<circle cx="348.679" cy="301.291" r="27.7432" transform="rotate(99.8773 348.679 301.291)" fill="#FDCAA5"/>
<circle cx="336.998" cy="368.379" r="27.7432" transform="rotate(99.8773 336.998 368.379)" fill="#FDCAA5"/>
<rect x="376.011" y="306.05" width="68.097" height="55.4864" transform="rotate(99.8773 376.011 306.05)" fill="#FDCAA5"/>
<path d="M323.289 290.608C328.401 316.086 331.46 371.123 302.801 387.45C274.143 403.777 304.519 329.692 323.289 290.608Z" fill="#E2A97F"/>
<ellipse cx="24.5875" cy="27.4062" rx="24.5875" ry="27.4062" transform="matrix(0.113705 0.993515 -0.980802 0.195006 313.795 248.424)" fill="#FDCAA5"/>
<ellipse cx="24.5875" cy="27.4062" rx="24.5875" ry="27.4062" transform="matrix(0.113705 0.993515 -0.980802 0.195006 320.657 308.384)" fill="#FDCAA5"/>
<rect width="60.3512" height="54.8123" transform="matrix(0.113705 0.993515 -0.980802 0.195006 316.59 272.853)" fill="#FDCAA5"/>
<circle cx="294.4" cy="340.157" r="27.7432" transform="rotate(132.081 294.4 340.157)" fill="#FDCAA5"/>
<circle cx="248.763" cy="390.698" r="27.7432" transform="rotate(132.081 248.763 390.698)" fill="#FDCAA5"/>
<rect x="314.991" y="358.75" width="68.097" height="55.4864" transform="rotate(132.081 314.991 358.75)" fill="#FDCAA5"/>
<path d="M268.028 328.029C266.217 347.309 256.793 386.983 233.59 391.443C210.386 395.903 246.88 351.025 268.028 328.029Z" fill="#E2A97F"/>
<circle cx="231.671" cy="343.393" r="27.7432" transform="rotate(132.081 231.671 343.393)" fill="#FDCAA5"/>
<circle cx="186.033" cy="393.934" r="27.7432" transform="rotate(132.081 186.033 393.934)" fill="#FDCAA5"/>
<rect x="252.262" y="361.986" width="68.097" height="55.4864" transform="rotate(132.081 252.262 361.986)" fill="#FDCAA5"/>
<ellipse cx="24.5875" cy="27.4062" rx="24.5875" ry="27.4062" transform="matrix(0.113705 0.993515 -0.980802 0.195006 250.153 256.431)" fill="#FDCAA5"/>
<ellipse cx="24.5875" cy="27.4062" rx="24.5875" ry="27.4062" transform="matrix(0.113705 0.993515 -0.980802 0.195006 257.015 316.391)" fill="#FDCAA5"/>
<rect width="60.3512" height="54.8123" transform="matrix(0.113705 0.993515 -0.980802 0.195006 252.949 280.859)" fill="#FDCAA5"/>
<path d="M204.153 332.892C201.942 349.86 191.517 386.011 167.505 394.872C143.492 403.733 181.931 357.244 204.153 332.892Z" fill="#E2A97F"/>
<circle cx="168.678" cy="339.919" r="23.0193" transform="rotate(118.441 168.678 339.919)" fill="#FDCAA5"/>
<circle cx="141.769" cy="389.602" r="23.0193" transform="rotate(118.441 141.769 389.602)" fill="#FDCAA5"/>
<rect x="188.92" y="350.882" width="56.502" height="46.0387" transform="rotate(118.441 188.92 350.882)" fill="#FDCAA5"/>
<ellipse cx="166.921" cy="301.932" rx="16.1081" ry="23.0193" transform="rotate(85.2574 166.921 301.932)" fill="#FDCAA5"/>
<ellipse cx="170.19" cy="341.334" rx="16.1081" ry="23.0193" transform="rotate(85.2574 170.19 341.334)" fill="#FDCAA5"/>
<rect x="189.862" y="300.028" width="39.538" height="46.0387" transform="rotate(85.2574 189.862 300.028)" fill="#FDCAA5"/>
</svg>
