<svg width="308" height="538" viewBox="0 0 308 538" fill="none" xmlns="http://www.w3.org/2000/svg">
<mask id="mask0_89_408" style="mask-type:alpha" maskUnits="userSpaceOnUse" x="0" y="0" width="308" height="538">
<rect width="308" height="538" fill="#D9D9D9"/>
</mask>
<g mask="url(#mask0_89_408)">
<path d="M144.806 8.25472C103.515 11.3982 110.302 56.5672 118.857 78.7588L104.73 89.759L101.665 115.361L112.773 125.505C119.377 181.297 94.9431 224.326 81.9006 238.866C65.6067 253.411 43.2995 285.837 34.1826 300.232L26.3694 296.808C-8.95721 418.148 88.67 453.66 141.9 456.248C284.835 457.712 282.756 350.515 268.547 296.502L263.439 302.58C256.058 278.877 226.781 251.124 213.065 240.21C181.482 214.922 176.765 153.651 178.355 126.177L186.866 116.233L187.128 90.6029L172.079 82.0902C195.076 26.1556 163.479 9.56046 144.806 8.25472Z" fill="#D9D9D9"/>
<path d="M296.5 449.5C229.35 349.783 273.47 401.357 170.193 453.31C100.355 459.721 101.659 419.739 77.3232 452.884C58.1595 478.984 97.0757 519.229 164.5 529C231.925 538.771 331.034 495.156 296.5 449.5Z" fill="#FDCAA5"/>
<circle cx="28.5594" cy="28.5594" r="28.5594" transform="matrix(0.803193 0.595719 0.595719 -0.803193 19.1797 445.523)" fill="#FDCAA5"/>
<circle cx="28.5594" cy="28.5594" r="28.5594" transform="matrix(0.803193 0.595719 0.595719 -0.803193 75.4836 487.283)" fill="#FDCAA5"/>
<rect width="70.1003" height="57.1187" transform="matrix(0.803193 0.595719 0.595719 -0.803193 42.1184 462.537)" fill="#FDCAA5"/>
<circle cx="28.5594" cy="28.5594" r="28.5594" transform="matrix(0.273885 0.961762 0.961762 -0.273885 0.319336 348.43)" fill="#FDCAA5"/>
<circle cx="28.5594" cy="28.5594" r="28.5594" transform="matrix(0.273885 0.961762 0.961762 -0.273885 19.5188 415.849)" fill="#FDCAA5"/>
<rect width="70.1003" height="57.1187" transform="matrix(0.273885 0.961762 0.961762 -0.273885 8.14136 375.897)" fill="#FDCAA5"/>
<path d="M60.4482 354.398C57.965 381.033 60.774 437.707 91.8751 451.329C122.976 464.95 83.8826 392.384 60.4482 354.398Z" fill="#E2A97F"/>
<ellipse cx="25.3109" cy="28.2124" rx="25.3109" ry="28.2124" transform="matrix(-0.00891263 0.99996 0.995842 0.0910977 65.6155 310.188)" fill="#FDCAA5"/>
<ellipse cx="25.3109" cy="28.2124" rx="25.3109" ry="28.2124" transform="matrix(-0.00891262 0.99996 0.995842 0.0910977 65.0618 372.312)" fill="#FDCAA5"/>
<rect width="62.1266" height="56.4248" transform="matrix(-0.00891262 0.99996 0.995842 0.0910977 65.3899 335.498)" fill="#FDCAA5"/>
<circle cx="28.5594" cy="28.5594" r="28.5594" transform="matrix(0.744307 0.667838 0.667838 -0.744307 55.0413 404.19)" fill="#FDCAA5"/>
<circle cx="28.5594" cy="28.5594" r="28.5594" transform="matrix(0.744307 0.667838 0.667838 -0.744307 107.217 451.005)" fill="#FDCAA5"/>
<rect width="70.1003" height="57.1187" transform="matrix(0.744307 0.667838 0.667838 -0.744307 76.2981 423.263)" fill="#FDCAA5"/>
<path d="M121.061 386.743C124.996 406.285 138.925 445.885 163.161 447.946C187.397 450.007 145.193 408.003 121.061 386.743Z" fill="#E2A97F"/>
<circle cx="28.5594" cy="28.5594" r="28.5594" transform="matrix(0.744307 0.667838 0.667838 -0.744307 119.61 400.733)" fill="#FDCAA5"/>
<circle cx="28.5594" cy="28.5594" r="28.5594" transform="matrix(0.744307 0.667838 0.667838 -0.744307 171.786 447.548)" fill="#FDCAA5"/>
<rect width="70.1003" height="57.1187" transform="matrix(0.744307 0.667838 0.667838 -0.744307 140.866 419.806)" fill="#FDCAA5"/>
<ellipse cx="25.3109" cy="28.2124" rx="25.3109" ry="28.2124" transform="matrix(-0.00891263 0.99996 0.995842 0.0910977 131.632 311.516)" fill="#FDCAA5"/>
<ellipse cx="25.3109" cy="28.2124" rx="25.3109" ry="28.2124" transform="matrix(-0.00891262 0.99996 0.995842 0.0910977 131.079 373.641)" fill="#FDCAA5"/>
<rect width="62.1266" height="56.4248" transform="matrix(-0.00891262 0.99996 0.995842 0.0910977 131.407 336.826)" fill="#FDCAA5"/>
<path d="M186.978 384.828C191.072 401.96 205.646 437.845 231.185 444.324C256.724 450.804 212.355 407.36 186.978 384.828Z" fill="#E2A97F"/>
<circle cx="23.6965" cy="23.6965" r="23.6965" transform="matrix(0.565825 0.824526 0.824526 -0.565825 191.106 382.063)" fill="#FDCAA5"/>
<circle cx="23.6965" cy="23.6965" r="23.6965" transform="matrix(0.565825 0.824526 0.824526 -0.565825 224.017 430.02)" fill="#FDCAA5"/>
<rect width="58.1642" height="47.393" transform="matrix(0.565825 0.824526 0.824526 -0.565825 204.514 401.601)" fill="#FDCAA5"/>
<ellipse cx="16.5819" cy="23.6965" rx="16.5819" ry="23.6965" transform="matrix(0.0222634 0.999752 0.999752 -0.0222634 197.692 333.064)" fill="#FDCAA5"/>
<ellipse cx="16.5819" cy="23.6965" rx="16.5819" ry="23.6965" transform="matrix(0.0222634 0.999752 0.999752 -0.0222634 198.598 373.755)" fill="#FDCAA5"/>
<rect width="40.7011" height="47.393" transform="matrix(0.0222634 0.999752 0.999752 -0.0222634 198.061 349.641)" fill="#FDCAA5"/>
</g>
</svg>
