<svg width="309" height="472" viewBox="0 0 309 472" fill="none" xmlns="http://www.w3.org/2000/svg">
<mask id="mask0_84_63" style="mask-type:alpha" maskUnits="userSpaceOnUse" x="0" y="0" width="309" height="472">
<rect width="309" height="472" fill="#D9D9D9"/>
</mask>
<g mask="url(#mask0_84_63)">
<path d="M20.3411 34.2842C29.6958 16.3459 60.5038 5.82074 74.7385 2.80045C84.3263 0.182517 89.9366 16.1529 91.5432 24.4653L104.284 25.7186L108.566 35.2289L115.855 35.7598L123.706 53.1954L119.748 60.0613L146.393 119.236C208.812 115.533 254.411 168.885 269.408 196.023C297.058 260.846 280.989 304.77 269.498 318.628L271.64 323.383C235.598 368.589 172.795 383.777 145.898 385.72L141.616 376.21C125.253 382.095 83.9081 377.284 49.4301 310.96C14.952 244.636 46.0663 179.662 65.9331 155.465L43.0947 104.743L33.9598 98.6891L21.0089 78.4663L29.5344 74.6276L23.8248 61.9472L28.6677 52.7764L20.3411 34.2842Z" fill="#D9D9D9"/>
<path d="M301.75 419.659C245.424 313.451 263.108 328.192 154.953 369.031C84.8273 368.084 90.3166 328.459 62.6398 358.87C40.8451 382.817 97.3562 446.467 163.385 463.253C229.413 480.039 331.306 468.684 301.75 419.659Z" fill="#FDCAA5"/>
<circle cx="28.5594" cy="28.5594" r="28.5594" transform="matrix(0.736307 0.676647 0.676647 -0.736307 5.58862 345.454)" fill="#FDCAA5"/>
<circle cx="28.5594" cy="28.5594" r="28.5594" transform="matrix(0.736307 0.676647 0.676647 -0.736307 57.204 392.887)" fill="#FDCAA5"/>
<rect width="70.1003" height="57.1187" transform="matrix(0.736307 0.676647 0.676647 -0.736307 26.6171 364.778)" fill="#FDCAA5"/>
<circle cx="28.5594" cy="28.5594" r="28.5594" transform="matrix(0.171539 0.985177 0.985177 -0.171539 -2.98792 246.918)" fill="#FDCAA5"/>
<circle cx="28.5594" cy="28.5594" r="28.5594" transform="matrix(0.171539 0.985177 0.985177 -0.171539 9.03699 315.979)" fill="#FDCAA5"/>
<rect width="70.1003" height="57.1187" transform="matrix(0.171539 0.985177 0.985177 -0.171539 1.91113 275.054)" fill="#FDCAA5"/>
<path d="M56.1838 259.158C50.9218 285.385 47.7733 342.041 77.2748 358.849C106.776 375.656 75.5064 299.391 56.1838 259.158Z" fill="#E2A97F"/>
<ellipse cx="25.3109" cy="28.2124" rx="25.3109" ry="28.2124" transform="matrix(-0.113705 0.993515 0.980802 0.195006 65.9578 215.733)" fill="#FDCAA5"/>
<ellipse cx="25.3109" cy="28.2124" rx="25.3109" ry="28.2124" transform="matrix(-0.113705 0.993515 0.980802 0.195006 58.8937 277.457)" fill="#FDCAA5"/>
<rect width="62.1266" height="56.4248" transform="matrix(-0.113705 0.993515 0.980802 0.195006 63.0798 240.88)" fill="#FDCAA5"/>
<circle cx="28.5594" cy="28.5594" r="28.5594" transform="matrix(0.670185 0.742194 0.742194 -0.670185 45.5863 308.108)" fill="#FDCAA5"/>
<circle cx="28.5594" cy="28.5594" r="28.5594" transform="matrix(0.670185 0.742194 0.742194 -0.670185 92.5664 360.136)" fill="#FDCAA5"/>
<rect width="70.1003" height="57.1187" transform="matrix(0.670185 0.742194 0.742194 -0.670185 64.7263 329.305)" fill="#FDCAA5"/>
<path d="M113.071 297.679C114.936 317.526 124.636 358.368 148.522 362.959C172.409 367.55 134.841 321.352 113.071 297.679Z" fill="#E2A97F"/>
<circle cx="28.5594" cy="28.5594" r="28.5594" transform="matrix(0.670185 0.742194 0.742194 -0.670185 110.161 311.44)" fill="#FDCAA5"/>
<circle cx="28.5594" cy="28.5594" r="28.5594" transform="matrix(0.670185 0.742194 0.742194 -0.670185 157.141 363.468)" fill="#FDCAA5"/>
<rect width="70.1003" height="57.1187" transform="matrix(0.670185 0.742194 0.742194 -0.670185 129.301 332.637)" fill="#FDCAA5"/>
<ellipse cx="25.3109" cy="28.2124" rx="25.3109" ry="28.2124" transform="matrix(-0.113705 0.993515 0.980802 0.195006 131.472 223.976)" fill="#FDCAA5"/>
<ellipse cx="25.3109" cy="28.2124" rx="25.3109" ry="28.2124" transform="matrix(-0.113705 0.993515 0.980802 0.195006 124.407 285.699)" fill="#FDCAA5"/>
<rect width="62.1266" height="56.4248" transform="matrix(-0.113705 0.993515 0.980802 0.195006 128.594 249.122)" fill="#FDCAA5"/>
<path d="M178.825 302.686C181.101 320.153 191.832 357.368 216.551 366.49C241.27 375.611 201.7 327.755 178.825 302.686Z" fill="#E2A97F"/>
<circle cx="23.6965" cy="23.6965" r="23.6965" transform="matrix(0.476258 0.879306 0.879306 -0.476258 183.221 300.369)" fill="#FDCAA5"/>
<circle cx="23.6965" cy="23.6965" r="23.6965" transform="matrix(0.476258 0.879306 0.879306 -0.476258 210.922 351.513)" fill="#FDCAA5"/>
<rect width="58.1642" height="47.393" transform="matrix(0.476258 0.879306 0.879306 -0.476258 194.507 321.205)" fill="#FDCAA5"/>
<ellipse cx="16.5819" cy="23.6965" rx="16.5819" ry="23.6965" transform="matrix(-0.0826792 0.996576 0.996576 0.0826792 194.907 252.33)" fill="#FDCAA5"/>
<ellipse cx="16.5819" cy="23.6965" rx="16.5819" ry="23.6965" transform="matrix(-0.0826792 0.996576 0.996576 0.0826792 191.542 292.892)" fill="#FDCAA5"/>
<rect width="40.7011" height="47.393" transform="matrix(-0.0826792 0.996576 0.996576 0.0826792 193.536 268.855)" fill="#FDCAA5"/>
</g>
</svg>
