<svg width="657" height="474" viewBox="0 0 657 474" fill="none" xmlns="http://www.w3.org/2000/svg">
<mask id="mask0_89_409" style="mask-type:alpha" maskUnits="userSpaceOnUse" x="0" y="0" width="657" height="474">
<rect width="657" height="474" fill="#D9D9D9"/>
</mask>
<g mask="url(#mask0_89_409)">
<path fill-rule="evenodd" clip-rule="evenodd" d="M282.883 15.1477L282.446 63.4283C275 63.3609 269.55 74.1706 267.756 79.5839C256.147 76.6864 245.179 67.3567 241.145 63.0541L236.926 79.3046C212.241 81.4078 206.246 62.5438 206.333 52.8489C190.016 55.9588 195.904 69.6249 200.887 76.0693C164.162 71.5479 192.73 141.732 211.604 177.389C221.157 193.183 245.478 226.912 266.343 235.478C287.208 244.044 284.563 257.749 280.632 263.531L289.971 260.125L289.729 286.883L280.49 279.237C283.339 285.856 288.304 302.81 285.377 317.676C282.45 332.542 283.972 344.424 285.098 348.506L272.935 342.578C266.98 383.479 292.249 393.947 305.628 394.068L311.921 405.76L337.744 444.97L352.64 406.129C364.282 405.303 367.256 398.117 367.287 394.627C394.362 385.564 399.068 354.193 398.036 339.64L389.274 343.633C388.361 337.419 385.499 323.703 381.357 318.546C377.215 313.389 379.842 293.129 381.673 283.644L375.195 292.312L375.506 257.992L381.958 252.233C382.114 235.015 402.438 217.708 412.58 211.207C468.752 175.415 472.411 114.016 467.219 87.7906C470.675 65.9485 459.161 56.8853 452.972 55.084C453.734 73.7066 434.164 76.2441 424.284 75.185L418.562 64.6618C397.918 83.0906 386.668 74.8441 383.624 68.4174L384.098 16.0649C355.863 -0.945101 304.857 8.36594 282.883 15.1477ZM418.766 116.569L437.596 92.8879C467.904 86.647 454.128 130.269 443.452 152.86C419.318 196.854 401.295 204.253 395.3 202.454C391.021 195.908 393.223 188.127 394.633 183.145C395.114 181.447 395.503 180.074 395.511 179.186C424.519 162.229 423.101 130.376 418.766 116.569ZM221.493 90.9295L239.891 114.948C235.306 128.674 233.311 160.497 262.007 177.976C261.999 178.864 262.363 180.244 262.813 181.951C264.132 186.957 266.193 194.777 261.797 201.244C255.77 202.935 237.884 195.21 214.551 150.786C204.286 128.005 191.303 84.1405 221.493 90.9295Z" fill="#D9D9D9"/>
<path d="M234.02 436.195C229.742 316.052 239.211 337.037 124.081 326.533C61.4117 295.051 83.6574 261.803 45.4773 277.071C15.4115 289.093 38.4455 371.033 90.51 414.974C142.575 458.915 239.194 493.206 234.02 436.195Z" fill="#FDCAA5"/>
<circle cx="28.5594" cy="28.5594" r="28.5594" transform="matrix(0.366802 0.930299 0.930299 -0.366802 0.0161133 240.083)" fill="#FDCAA5"/>
<circle cx="28.5594" cy="28.5594" r="28.5594" transform="matrix(0.366802 0.930299 0.930299 -0.366802 25.729 305.297)" fill="#FDCAA5"/>
<rect width="70.1003" height="57.1187" transform="matrix(0.366802 0.930299 0.930299 -0.366802 10.4917 266.652)" fill="#FDCAA5"/>
<circle cx="28.5594" cy="28.5594" r="28.5594" transform="matrix(-0.276006 0.961156 0.961156 0.276006 35.3406 147.697)" fill="#FDCAA5"/>
<circle cx="28.5594" cy="28.5594" r="28.5594" transform="matrix(-0.276006 0.961156 0.961156 0.276006 15.9924 215.075)" fill="#FDCAA5"/>
<rect width="70.1003" height="57.1187" transform="matrix(-0.276006 0.961156 0.961156 0.276006 27.458 175.147)" fill="#FDCAA5"/>
<path d="M83.223 184.554C67.0337 205.848 39.4544 255.439 58.6515 283.444C77.8486 311.45 83.0313 229.186 83.223 184.554Z" fill="#E2A97F"/>
<ellipse cx="25.3109" cy="28.2124" rx="25.3109" ry="28.2124" transform="matrix(-0.536243 0.844064 0.797117 0.603825 110.983 149.759)" fill="#FDCAA5"/>
<ellipse cx="25.3109" cy="28.2124" rx="25.3109" ry="28.2124" transform="matrix(-0.536243 0.844064 0.797117 0.603825 77.668 202.198)" fill="#FDCAA5"/>
<rect width="62.1266" height="56.4248" transform="matrix(-0.536243 0.844064 0.797117 0.603825 97.4102 171.123)" fill="#FDCAA5"/>
<circle cx="28.5594" cy="28.5594" r="28.5594" transform="matrix(0.27869 0.960381 0.960381 -0.27869 52.3088 223.959)" fill="#FDCAA5"/>
<circle cx="28.5594" cy="28.5594" r="28.5594" transform="matrix(0.27869 0.960381 0.960381 -0.27869 71.8452 291.282)" fill="#FDCAA5"/>
<rect width="70.1003" height="57.1187" transform="matrix(0.27869 0.960381 0.960381 -0.27869 60.2681 251.386)" fill="#FDCAA5"/>
<path d="M117.571 244.054C110.579 262.722 101.466 303.699 120.948 318.262C140.43 332.825 126.814 274.858 117.571 244.054Z" fill="#E2A97F"/>
<circle cx="28.5594" cy="28.5594" r="28.5594" transform="matrix(0.27869 0.960381 0.960381 -0.27869 108.943 255.161)" fill="#FDCAA5"/>
<circle cx="28.5594" cy="28.5594" r="28.5594" transform="matrix(0.27869 0.960381 0.960381 -0.27869 128.479 322.484)" fill="#FDCAA5"/>
<rect width="70.1003" height="57.1187" transform="matrix(0.27869 0.960381 0.960381 -0.27869 116.902 282.589)" fill="#FDCAA5"/>
<ellipse cx="25.3109" cy="28.2124" rx="25.3109" ry="28.2124" transform="matrix(-0.536243 0.844064 0.797117 0.603825 166.316 185.79)" fill="#FDCAA5"/>
<ellipse cx="25.3109" cy="28.2124" rx="25.3109" ry="28.2124" transform="matrix(-0.536243 0.844064 0.797117 0.603825 133.001 238.229)" fill="#FDCAA5"/>
<rect width="62.1266" height="56.4248" transform="matrix(-0.536243 0.844064 0.797117 0.603825 152.743 207.154)" fill="#FDCAA5"/>
<path d="M174.534 277.279C168.952 293.986 162.35 332.15 180.602 351.152C198.854 370.155 184.162 309.821 174.534 277.279Z" fill="#E2A97F"/>
<circle cx="23.6965" cy="23.6965" r="23.6965" transform="matrix(0.0443518 0.999016 0.999016 -0.0443518 179.5 277.114)" fill="#FDCAA5"/>
<circle cx="23.6965" cy="23.6965" r="23.6965" transform="matrix(0.0443518 0.999016 0.999016 -0.0443518 182.08 335.221)" fill="#FDCAA5"/>
<rect width="58.1642" height="47.393" transform="matrix(0.0443518 0.999016 0.999016 -0.0443518 180.552 300.787)" fill="#FDCAA5"/>
<ellipse cx="16.5819" cy="23.6965" rx="16.5819" ry="23.6965" transform="matrix(-0.50967 0.86037 0.86037 0.50967 210.996 239.005)" fill="#FDCAA5"/>
<ellipse cx="16.5819" cy="23.6965" rx="16.5819" ry="23.6965" transform="matrix(-0.50967 0.86037 0.86037 0.50967 190.252 274.023)" fill="#FDCAA5"/>
<rect width="40.7011" height="47.393" transform="matrix(-0.50967 0.86037 0.86037 0.50967 202.545 253.271)" fill="#FDCAA5"/>
<path d="M424.382 434.594C427.711 314.421 418.409 335.479 533.452 324.067C595.871 292.092 573.363 259.021 611.663 273.987C641.823 285.772 619.436 367.891 567.72 412.241C516.004 456.592 419.658 491.644 424.382 434.594Z" fill="#FDCAA5"/>
<circle cx="619.914" cy="253.026" r="28.5594" transform="rotate(111.066 619.914 253.026)" fill="#FDCAA5"/>
<circle cx="594.717" cy="318.441" r="28.5594" transform="rotate(111.066 594.717 318.441)" fill="#FDCAA5"/>
<rect x="646.565" y="263.292" width="70.1003" height="57.1187" transform="rotate(111.066 646.565 263.292)" fill="#FDCAA5"/>
<circle cx="601.49" cy="180.023" r="28.5594" transform="rotate(73.5259 601.49 180.023)" fill="#FDCAA5"/>
<circle cx="621.369" cy="247.245" r="28.5594" transform="rotate(73.5259 621.369 247.245)" fill="#FDCAA5"/>
<rect x="628.877" y="171.924" width="70.1003" height="57.1187" transform="rotate(73.5259 628.877 171.924)" fill="#FDCAA5"/>
<path d="M573.188 181.77C589.545 202.936 617.515 252.308 598.539 280.464C579.564 308.62 573.732 226.4 573.188 181.77Z" fill="#E2A97F"/>
<ellipse cx="25.3109" cy="28.2124" rx="25.3109" ry="28.2124" transform="matrix(0.542887 0.839806 -0.792327 0.610097 545.155 147.196)" fill="#FDCAA5"/>
<ellipse cx="25.3109" cy="28.2124" rx="25.3109" ry="28.2124" transform="matrix(0.542887 0.839806 -0.792327 0.610097 578.882 199.37)" fill="#FDCAA5"/>
<rect width="62.1266" height="56.4248" transform="matrix(0.542887 0.839806 -0.792327 0.610097 558.896 168.452)" fill="#FDCAA5"/>
<circle cx="569.18" cy="240.677" r="28.5594" transform="rotate(105.73 569.18 240.677)" fill="#FDCAA5"/>
<circle cx="550.176" cy="308.152" r="28.5594" transform="rotate(105.73 550.176 308.152)" fill="#FDCAA5"/>
<rect x="596.67" y="248.42" width="70.1003" height="57.1187" transform="rotate(105.73 596.67 248.42)" fill="#FDCAA5"/>
<path d="M539.311 241.539C546.45 260.152 555.886 301.056 536.52 315.772C517.153 330.488 530.311 272.415 539.311 241.539Z" fill="#E2A97F"/>
<circle cx="512.794" cy="272.326" r="28.5594" transform="rotate(105.73 512.794 272.326)" fill="#FDCAA5"/>
<circle cx="493.79" cy="339.801" r="28.5594" transform="rotate(105.73 493.79 339.801)" fill="#FDCAA5"/>
<rect x="540.284" y="280.069" width="70.1003" height="57.1187" transform="rotate(105.73 540.284 280.069)" fill="#FDCAA5"/>
<ellipse cx="25.3109" cy="28.2124" rx="25.3109" ry="28.2124" transform="matrix(0.542887 0.839806 -0.792327 0.610097 490.107 183.662)" fill="#FDCAA5"/>
<ellipse cx="25.3109" cy="28.2124" rx="25.3109" ry="28.2124" transform="matrix(0.542887 0.839806 -0.792327 0.610097 523.835 235.837)" fill="#FDCAA5"/>
<rect width="62.1266" height="56.4248" transform="matrix(0.542887 0.839806 -0.792327 0.610097 503.848 204.918)" fill="#FDCAA5"/>
<path d="M482.612 275.213C488.326 291.875 495.228 329.986 477.127 349.132C459.025 368.278 473.241 307.83 482.612 275.213Z" fill="#E2A97F"/>
<circle cx="453.099" cy="297.904" r="23.6965" transform="rotate(92.0898 453.099 297.904)" fill="#FDCAA5"/>
<circle cx="450.978" cy="356.03" r="23.6965" transform="rotate(92.0898 450.978 356.03)" fill="#FDCAA5"/>
<rect x="476.78" y="298.768" width="58.1642" height="47.393" transform="rotate(92.0898 476.78 298.768)" fill="#FDCAA5"/>
<ellipse cx="434.121" cy="263.665" rx="16.5819" ry="23.6965" transform="rotate(58.906 434.121 263.665)" fill="#FDCAA5"/>
<ellipse cx="455.141" cy="298.519" rx="16.5819" ry="23.6965" transform="rotate(58.906 455.141 298.519)" fill="#FDCAA5"/>
<rect x="454.413" y="251.427" width="40.7011" height="47.393" transform="rotate(58.906 454.413 251.427)" fill="#FDCAA5"/>
</g>
</svg>
