<svg width="366" height="500" viewBox="0 0 366 500" fill="none" xmlns="http://www.w3.org/2000/svg">
<mask id="mask0_189_1410" style="mask-type:alpha" maskUnits="userSpaceOnUse" x="0" y="0" width="366" height="500">
<rect width="366" height="500" fill="#FA3838"/>
</mask>
<g mask="url(#mask0_189_1410)">
<path d="M32.9102 43.4651C42.6199 23.5681 75.9947 11.246 91.4684 7.57213C101.874 4.45802 108.467 21.8157 110.462 30.8839L124.426 31.9314L129.381 42.2438L137.364 42.6391L146.448 61.5451L142.319 69.1705L173.149 133.336C241.277 127.681 292.659 184.98 309.834 214.337C341.926 284.667 325.625 333.211 313.463 348.692L315.94 353.848C277.842 404.309 209.626 422.559 180.28 425.376L175.325 415.064C157.608 421.932 112.273 417.717 72.6738 345.917C33.0748 274.118 65.2169 202.12 86.2378 175.095L59.8117 120.096L49.6517 113.695L34.9121 91.8652L44.1212 87.4404L37.5147 73.6906L42.5447 63.5169L32.9102 43.4651Z" fill="#D9D9D9" fill-opacity="0.75"/>
<g filter="url(#filter0_i_189_1410)">
<path d="M62.8629 263.73L62.8629 263.73C61.2104 264.524 57.5712 287.352 84.4223 343.236C117.986 413.091 184.41 412.795 247.054 382.696C309.699 352.596 323.034 306.662 313.178 259.395C303.821 214.521 291.5 202.5 286.5 202.5C221 240.5 179.453 216.217 160.209 216.957C62.863 216.957 62.863 240 62.8629 263.73Z" fill="#A91C1C"/>
</g>
<ellipse cx="116.929" cy="244.107" rx="37" ry="57.5" transform="rotate(3.32568 116.929 244.107)" fill="white"/>
<ellipse cx="141.072" cy="338.554" rx="17.1144" ry="26.5967" transform="rotate(-45.3957 141.072 338.554)" fill="white"/>
<path d="M27.3294 37.3803L40.7162 65.2416L112.936 30.5412C108.436 15.2932 100.223 6.5329 96.6798 4.05874C81.9361 -3.10219 44.303 23.2894 27.3294 37.3803Z" fill="#C76E48"/>
<path d="M149.134 68.0661L56.5873 122.518L58.3954 135.517L155.198 80.685L149.134 68.0661Z" fill="#8F480A"/>
<path d="M61.0643 136.454L161.407 98.2262L170.426 107.761L67.1275 149.073L61.0643 136.454Z" fill="#8F480A"/>
<path d="M168.822 110.196L76.275 164.648L78.0831 177.647L174.885 122.815L168.822 110.196Z" fill="#8F480A"/>
<g filter="url(#filter1_d_189_1410)">
<path d="M54.5857 121.816L154.928 83.588L163.947 93.1226L60.6488 134.435L54.5857 121.816Z" fill="#8F480A"/>
</g>
<g filter="url(#filter2_d_189_1410)">
<path d="M161.858 98.0097L69.3104 152.462L71.1185 165.461L167.921 110.629L161.858 98.0097Z" fill="#8F480A"/>
</g>
<g filter="url(#filter3_d_189_1410)">
<path d="M74.3085 161.709L174.651 123.482L183.67 133.016L80.3716 174.328L74.3085 161.709Z" fill="#8F480A"/>
</g>
<path d="M108.808 19.9262C88.5162 20.4411 51.0471 41.4264 34.8489 51.8547L40.2479 66.576L77.6541 48.6031L114.159 31.0632L108.808 19.9262Z" fill="#974826"/>
<path d="M50.3992 25.3597C58.8191 15.2478 79.6206 -3.23983 95.4669 3.70559C91.0964 10.6229 75.9642 24.638 50.3992 25.3597Z" fill="#F19973"/>
<mask id="mask1_189_1410" style="mask-type:alpha" maskUnits="userSpaceOnUse" x="-20" y="183" width="387" height="410">
<rect width="322.213" height="267.933" transform="matrix(0.460042 0.887897 0.887897 -0.460042 -19.9999 306.26)" fill="#D9D9D9"/>
</mask>
<g mask="url(#mask1_189_1410)">
<path d="M337.52 444.127C276.969 338.387 295.367 352.739 187.146 397.666C116.076 399.012 120.334 358.69 93.2961 390.407C72.0048 415.384 131.345 478.004 198.785 492.838C266.226 507.672 369.074 492.819 337.52 444.127Z" fill="#FDCAA5"/>
<circle cx="28.9467" cy="28.9467" r="28.9467" transform="matrix(0.757869 0.652406 0.652406 -0.757869 35.0605 378.692)" fill="#FDCAA5"/>
<circle cx="28.9467" cy="28.9467" r="28.9467" transform="matrix(0.757869 0.652406 0.652406 -0.757869 88.9081 425.046)" fill="#FDCAA5"/>
<rect width="71.051" height="57.8934" transform="matrix(0.757869 0.652406 0.652406 -0.757869 56.9984 397.577)" fill="#FDCAA5"/>
<circle cx="28.9467" cy="28.9467" r="28.9467" transform="matrix(0.203406 0.979094 0.979094 -0.203406 23.1324 279.154)" fill="#FDCAA5"/>
<circle cx="28.9467" cy="28.9467" r="28.9467" transform="matrix(0.203406 0.979094 0.979094 -0.203406 37.5847 348.72)" fill="#FDCAA5"/>
<rect width="71.051" height="57.8934" transform="matrix(0.203406 0.979094 0.979094 -0.203406 29.0204 307.496)" fill="#FDCAA5"/>
<path d="M83.4776 289.608C79.0093 316.35 77.6825 373.848 108.121 389.905C138.56 405.961 104.375 329.731 83.4776 289.608Z" fill="#E2A97F"/>
<ellipse cx="25.6541" cy="28.595" rx="25.6541" ry="28.595" transform="matrix(-0.0814171 0.99668 0.986612 0.163087 91.9513 245.296)" fill="#FDCAA5"/>
<ellipse cx="25.6541" cy="28.595" rx="25.6541" ry="28.595" transform="matrix(-0.0814171 0.99668 0.986612 0.163087 86.8245 308.056)" fill="#FDCAA5"/>
<rect width="62.9693" height="57.1901" transform="matrix(-0.0814171 0.99668 0.986612 0.163087 89.8625 270.865)" fill="#FDCAA5"/>
<circle cx="28.9467" cy="28.9467" r="28.9467" transform="matrix(0.693908 0.720064 0.720064 -0.693908 74.3516 339.545)" fill="#FDCAA5"/>
<circle cx="28.9467" cy="28.9467" r="28.9467" transform="matrix(0.693908 0.720064 0.720064 -0.693908 123.655 390.706)" fill="#FDCAA5"/>
<rect width="71.051" height="57.8934" transform="matrix(0.693908 0.720064 0.720064 -0.693908 94.438 360.388)" fill="#FDCAA5"/>
<path d="M142.373 326.761C144.914 346.806 156.084 387.861 180.432 391.726C204.781 395.591 165.204 350.027 142.373 326.761Z" fill="#E2A97F"/>
<circle cx="28.9467" cy="28.9467" r="28.9467" transform="matrix(0.693908 0.720064 0.720064 -0.693908 139.877 340.797)" fill="#FDCAA5"/>
<circle cx="28.9467" cy="28.9467" r="28.9467" transform="matrix(0.693908 0.720064 0.720064 -0.693908 189.18 391.958)" fill="#FDCAA5"/>
<rect width="71.051" height="57.8934" transform="matrix(0.693908 0.720064 0.720064 -0.693908 159.964 361.641)" fill="#FDCAA5"/>
<ellipse cx="25.6541" cy="28.595" rx="25.6541" ry="28.595" transform="matrix(-0.0814171 0.99668 0.986612 0.163087 158.59 251.493)" fill="#FDCAA5"/>
<ellipse cx="25.6541" cy="28.595" rx="25.6541" ry="28.595" transform="matrix(-0.0814171 0.99668 0.986612 0.163087 153.463 314.253)" fill="#FDCAA5"/>
<rect width="62.9693" height="57.1901" transform="matrix(-0.0814171 0.99668 0.986612 0.163087 156.501 277.062)" fill="#FDCAA5"/>
<path d="M209.156 329.305C212.036 346.925 224.123 384.638 249.464 393.066C274.804 401.493 233.153 353.948 209.156 329.305Z" fill="#E2A97F"/>
<circle cx="24.0179" cy="24.0179" r="24.0179" transform="matrix(0.504531 0.863394 0.863394 -0.504531 213.525 327.179)" fill="#FDCAA5"/>
<circle cx="24.0179" cy="24.0179" r="24.0179" transform="matrix(0.504531 0.863394 0.863394 -0.504531 243.269 378.079)" fill="#FDCAA5"/>
<rect width="58.9531" height="48.0358" transform="matrix(0.504531 0.863394 0.863394 -0.504531 225.643 347.916)" fill="#FDCAA5"/>
<ellipse cx="16.8068" cy="24.0179" rx="16.8068" ry="24.0179" transform="matrix(-0.050308 0.998734 0.998734 0.050308 223.784 278.131)" fill="#FDCAA5"/>
<ellipse cx="16.8068" cy="24.0179" rx="16.8068" ry="24.0179" transform="matrix(-0.050308 0.998734 0.998734 0.050308 221.709 319.331)" fill="#FDCAA5"/>
<rect width="41.2531" height="48.0358" transform="matrix(-0.050308 0.998734 0.998734 0.050308 222.939 294.916)" fill="#FDCAA5"/>
</g>
<g filter="url(#filter4_d_189_1410)">
<path d="M87.9906 351.534C70.1244 379.289 50.0701 363.835 35.6254 355.904L45.3861 382.857C75.105 399.522 94.169 386.864 102.527 374.569L87.9906 351.534Z" fill="#252524"/>
</g>
<path d="M27.3361 387.262C29.9112 408.193 49.7217 413.979 50.2633 414.331C80.9255 421.967 88.2884 404.483 79.905 396.927C62.2615 381.025 64.4992 365.554 67.8235 359.806C68.8968 351.137 60.9627 350.212 56.8614 350.834L55.3715 346.014L52.9127 344.109L51.4228 339.289C38.4684 334.568 30.1292 338.393 27.5788 340.895C26.4874 343.144 28.1173 345.045 29.0687 345.715C27.8256 347.249 28.0205 350.015 28.2734 351.206C26.4324 353.091 26.8283 357.302 27.2564 359.172C25.5324 361.256 24.6794 364.482 24.4683 365.834L25.9309 368.325L28.7804 376.03C28.7804 376.03 25.2658 375.749 24.8384 379.015C24.411 382.28 27.3361 387.262 27.3361 387.262Z" fill="#D9D9D9"/>
<path d="M49.5056 371.855C45.7142 376.59 37.3392 374.138 33.6255 372.321C31.2548 370.309 35.7746 366.767 38.3309 365.247C50.1998 360.045 50.7261 367.485 49.5056 371.855Z" fill="#8C8A8A"/>
<path d="M31.5278 347.621L28.7604 346.901C28.3272 346.619 28.7856 345.993 29.0689 345.715C31.3176 346.806 30.5757 341.815 29.9237 339.184L32.0627 338.263C31.4997 340.156 30.9186 343.959 33.0978 344.019C35.277 344.079 35.4349 339.632 35.2414 337.401L37.0285 337.022L35.984 342.659C36.357 345.12 38.1504 344.067 39.0005 343.233L40.3969 337.054L42.0811 337.07L40.9932 342.063C40.7683 344.875 43.6037 343.657 45.0495 342.696L46.2401 337.308L47.5724 337.865C46.1043 342.211 46.918 344.167 47.5084 344.602C50.1889 344.033 48.5802 341.293 51.5258 338.894L52.7666 343.859L55.6208 345.868L56.8617 350.834L53.6281 347.038L50.4814 344.531L48.0339 346.638L44.6381 344.277L41.1075 345.681L35.4698 344.636L31.5278 347.621Z" fill="#8C8C8C"/>
<path d="M29.8664 355.63C33.349 359.28 26.2122 364.81 25.3621 365.644C22.3858 366.052 25.385 361.499 27.2566 359.172C26.1817 355.516 28.5486 355.287 29.8664 355.63Z" fill="#8C8C8C"/>
<path d="M55.9154 361.773C52.3231 356.111 61.4038 354.196 66.3932 353.947C68.4079 354.64 68.1862 358.141 67.8235 359.806C61.4832 376.391 73.1386 391.298 79.7588 396.678C87.437 406.104 80.371 412.173 75.8783 414.029C62.9512 418.94 50.5558 414.829 45.974 412.16C82.5574 420.157 54.3458 394.851 35.7184 381.001C32.4258 381.326 31.7505 379.758 31.8244 378.933C33.8737 380.141 34.3785 377.768 34.3747 376.43C37.1581 375.466 36.6874 378.087 43.9771 382.516C49.809 386.059 51.782 377.934 52.0395 373.428C55.4271 371.439 56.0349 364.829 55.9154 361.773Z" fill="#C2C2C2"/>
<path d="M45.7005 352.363L57.2569 350.937L54.1696 347.39L50.335 344.282L48.0338 346.638C54.2989 350.463 49.123 351.916 45.7005 352.363Z" fill="#B6B2B2"/>
<path d="M26.9004 356.932C26.895 357.172 26.8909 357.332 26.8772 357.385C26.8753 357.224 26.8832 357.073 26.9004 356.932C26.9355 355.371 27.0227 350.444 30.12 349.787C33.694 349.028 35.7142 350.187 36.5369 347.024C37.5622 346.869 34.3066 352.353 44.325 351.161C38.6555 353.485 39.683 361.054 34.7132 356.469C32.1965 355.276 27.2817 353.793 26.9004 356.932Z" fill="#B6B2B2"/>
<path d="M37.7973 363.549C33.5798 365.489 31.8188 370.853 31.4654 373.293L30.2319 378.035L27.957 367.318C33.6035 365.074 32.9503 359.475 31.9179 356.957L33.3798 359.446C35.0865 363.265 42.6002 361.845 46.1438 360.657L37.7973 363.549Z" fill="#B6B2B2"/>
<path d="M61.2695 373.874C59.6141 364.667 64.9229 357.667 67.7843 355.317C68.486 356.512 67.7019 360.499 67.2222 362.343C63.275 377.517 74.5952 392.388 80.7487 397.926C90.1302 411.167 75.23 415.898 66.7099 416.213C74.7092 408.168 57.5258 390.307 56.6598 389.972C67.3132 394.431 64.1719 381.098 61.2695 373.874Z" fill="#969696"/>
<path d="M128.238 263.859C114.863 252.082 100.355 257.284 94.7727 261.357C88.3006 283.418 98.9955 292.002 105.152 293.537C123.938 300.101 133.032 268.081 128.238 263.859Z" fill="#FFE0CA"/>
<path d="M96.467 287.538C99.8975 286.628 108.949 286.274 117.711 292.139C112.85 295.309 102.175 296.547 96.467 287.538Z" fill="#FFB884"/>
<path d="M50.9937 300.418C38.486 285.361 28.6217 287.807 25.2531 290.912C24.9183 312.623 34.7479 323.793 39.7045 326.664C55.2173 337.39 55.4767 305.815 50.9937 300.418Z" fill="#FFE0CA"/>
<path d="M31.9225 318.609C34.3208 318.365 41.0706 319.859 48.8834 327.791C45.8717 330.1 38.0807 329.195 31.9225 318.609Z" fill="#FFB884"/>
<path d="M189.852 272.257C177.489 259.955 165.374 263.917 160.862 267.436C156.881 288.206 166.707 297.241 172.117 299.162C188.763 306.836 194.283 276.666 189.852 272.257Z" fill="#FFE0CA"/>
<path d="M164.208 292.761C167.096 292.132 174.862 292.444 182.828 298.722C178.872 301.423 169.772 301.845 164.208 292.761Z" fill="#FFB884"/>
<path d="M249.651 292.224C239.53 282.185 229.583 285.448 225.874 288.334C222.57 305.33 230.615 312.701 235.051 314.263C248.695 320.509 253.279 295.823 249.651 292.224Z" fill="#FFE0CA"/>
<path d="M228.573 309.042C230.944 308.522 237.316 308.763 243.84 313.884C240.589 316.099 233.122 316.462 228.573 309.042Z" fill="#FFB884"/>
<path d="M259.172 317.89C264.553 304.177 262.801 288.912 261.252 282.995C274.922 285.277 272.992 314.439 269.57 327.919L291.811 365.822L283.416 374.724C275.622 365.538 253.791 331.604 259.172 317.89Z" fill="#E8AF85"/>
<path d="M320.666 445.363L292.164 390.352L300.221 382.055C331.223 425.824 339.001 445.185 342.25 455.641C347.446 475.711 334.172 486.491 309.166 489.692C319.048 458.558 325.188 454.509 320.666 445.363Z" fill="#E8AF85"/>
<path d="M198.796 309.309C195.085 324.239 198.95 343.915 201.213 351.63C206.606 349.487 211.891 345.881 212.987 344.229C208.114 335.828 211.537 303.358 213.726 287.916C214.871 267.032 199.096 258.426 191.066 256.734C209.257 271.762 203.799 298.046 198.796 309.309Z" fill="#E8AF85"/>
<g filter="url(#filter5_d_189_1410)">
<path d="M291.792 364.531C276.839 387.887 251.137 381.043 238.988 374.33L249.824 391.478C274.821 405.581 294.322 390.752 301.318 380.406L291.792 364.531Z" fill="#A7A7A7"/>
</g>
<path d="M294.695 368.879C276.727 394.448 254.117 384.701 242.689 380.217L248.249 389.693C277.147 400.568 291.754 386.106 299.863 378.077L300.018 377.924L294.695 368.879Z" fill="#DBDBDB"/>
<ellipse cx="268.84" cy="391.997" rx="8.59789" ry="10.1292" transform="rotate(-84.2948 268.84 391.997)" fill="#AE0097"/>
<ellipse cx="266.814" cy="392.634" rx="5.7266" ry="6.74656" transform="rotate(-84.2948 266.814 392.634)" fill="#FF8BFD"/>
<ellipse cx="266.964" cy="397.56" rx="2.51507" ry="3.53682" transform="rotate(-84.2948 266.964 397.56)" fill="#FFCECE"/>
<path d="M278.036 395.721L282.101 391.014L277.603 383.589L272.705 384.176L270.141 385.504C274.09 387.1 277.227 393.322 278.036 395.721Z" fill="#D9D9D9"/>
<path d="M264.693 383.774C263.332 384.913 260.507 387.244 260.097 387.456C259.344 388.011 258.795 390.801 258.615 392.126L253.586 383.676L264.693 383.774Z" fill="#D9D9D9"/>
<g filter="url(#filter6_d_189_1410)">
<path d="M174.68 391.781L163.256 368.387C162.785 368.966 162.304 361.906 152.871 361.439C152.991 364.514 154.038 365.748 153.654 366.115C136.331 382.642 113.526 380.336 100.272 373.854C98.8883 373.177 96.6311 384.005 95.5316 383.318L109.199 405.157C134.132 417.954 166.019 401.903 174.68 391.781Z" fill="#F90000"/>
</g>
<path d="M108.678 400.225L97.497 394.962L90.8558 382.145L97.3909 369.654L110.11 374.119L112.235 378.221L107.751 389.649L110.445 397.359L108.678 400.225Z" fill="#682A2A"/>
<path d="M104.879 405.445L107.159 402.313L115.455 404.518L113.595 400.929L123.961 403.362L127.415 410.028L124.128 414.982C120.224 416.484 112.124 412.314 108.561 410.041L104.879 405.445Z" fill="#682A2A"/>
<path d="M133.983 410.886L134.514 407.049L138.13 406.329L139.535 402.79L149.822 400.042L156.013 404.288L155.454 410.207C152.722 413.374 143.612 413.522 139.398 413.2L133.983 410.886Z" fill="#682A2A"/>
<path d="M158.983 404.981L157.494 401.405L160.246 398.95L159.662 395.188L167.133 387.602L174.622 388.121L177.143 393.505C176.395 397.621 168.618 402.369 164.824 404.228L158.983 404.981Z" fill="#682A2A"/>
<path d="M136.058 401.015L123.8 399.446L113.54 389.291L115.917 375.396L129.394 375.734L132.677 378.984L131.924 391.237L136.858 397.745L136.058 401.015Z" fill="#682A2A"/>
<path d="M164.567 389.162L154.322 395.436L139.187 389.802L134.542 376.493L146.498 370.266L152.21 365.313L162.056 376.471L163.683 385.913L164.567 389.162Z" fill="#682A2A"/>
<path d="M162.807 366.195L158.945 368.561L153.239 366.437L151.488 361.419L155.995 359.072L158.149 357.205L161.86 361.411L162.474 364.971L162.807 366.195Z" fill="#682A2A"/>
<g filter="url(#filter7_d_189_1410)">
<path d="M112.854 403.264C113.082 404.707 109.14 402.371 107.14 401.022L109.722 400.985L112.002 397.853L112.421 391.132L117.697 398.804L125.215 400.762L135.334 403.974L138.867 398.241L136.21 393.114L135.568 384.342L140.084 393.058L154.854 396.461L160.494 393.539L157.702 396.937L155.954 401.094L151.778 398.055L139.929 400.292L137.156 404.98L133.567 406.84L129.181 407.161L123.164 401.824L112.286 399.657L112.854 403.264Z" fill="#FF9C67"/>
</g>
<g filter="url(#filter8_d_189_1410)">
<path d="M234.17 362.519L223.05 343.568C222.581 344.21 224.723 334.246 214.66 334.907L217.317 340.034C199.831 358.824 170.041 361.379 155.569 356.419C154.058 355.901 154.517 361.405 153.308 360.842L168.32 381.029C195.581 390.968 225.532 373.793 234.17 362.519Z" fill="#F7A800"/>
</g>
<path d="M222.271 343.321C191.41 370.366 166.876 364.435 153.308 360.842L155.303 355.907C182.716 365.636 209.865 348.665 217.317 340.034L214.66 334.907C221.465 333.983 221.291 341.01 222.271 343.321Z" fill="#9F7000"/>
<g filter="url(#filter9_d_189_1410)">
<path d="M225.137 396.465C213.373 397.636 189.584 399.867 188.54 399.419L166.907 360.13L181.185 357.842L160.135 331.975L216.818 372.038L186.279 370.274L225.137 396.465Z" fill="#FFF954"/>
</g>
</g>
<defs>
<filter id="filter0_i_189_1410" x="61.7156" y="202.5" width="254.39" height="203.428" filterUnits="userSpaceOnUse" color-interpolation-filters="sRGB">
<feFlood flood-opacity="0" result="BackgroundImageFix"/>
<feBlend mode="normal" in="SourceGraphic" in2="BackgroundImageFix" result="shape"/>
<feColorMatrix in="SourceAlpha" type="matrix" values="0 0 0 0 0 0 0 0 0 0 0 0 0 0 0 0 0 0 127 0" result="hardAlpha"/>
<feOffset dy="4"/>
<feGaussianBlur stdDeviation="10.9"/>
<feComposite in2="hardAlpha" operator="arithmetic" k2="-1" k3="1"/>
<feColorMatrix type="matrix" values="0 0 0 0 0 0 0 0 0 0 0 0 0 0 0 0 0 0 0.25 0"/>
<feBlend mode="normal" in2="shape" result="effect1_innerShadow_189_1410"/>
</filter>
<filter id="filter1_d_189_1410" x="50.5857" y="83.5881" width="117.362" height="58.8466" filterUnits="userSpaceOnUse" color-interpolation-filters="sRGB">
<feFlood flood-opacity="0" result="BackgroundImageFix"/>
<feColorMatrix in="SourceAlpha" type="matrix" values="0 0 0 0 0 0 0 0 0 0 0 0 0 0 0 0 0 0 127 0" result="hardAlpha"/>
<feOffset dy="4"/>
<feGaussianBlur stdDeviation="2"/>
<feComposite in2="hardAlpha" operator="out"/>
<feColorMatrix type="matrix" values="0 0 0 0 0 0 0 0 0 0 0 0 0 0 0 0 0 0 0.25 0"/>
<feBlend mode="normal" in2="BackgroundImageFix" result="effect1_dropShadow_189_1410"/>
<feBlend mode="normal" in="SourceGraphic" in2="effect1_dropShadow_189_1410" result="shape"/>
</filter>
<filter id="filter2_d_189_1410" x="65.3104" y="98.0097" width="106.61" height="75.4513" filterUnits="userSpaceOnUse" color-interpolation-filters="sRGB">
<feFlood flood-opacity="0" result="BackgroundImageFix"/>
<feColorMatrix in="SourceAlpha" type="matrix" values="0 0 0 0 0 0 0 0 0 0 0 0 0 0 0 0 0 0 127 0" result="hardAlpha"/>
<feOffset dy="4"/>
<feGaussianBlur stdDeviation="2"/>
<feComposite in2="hardAlpha" operator="out"/>
<feColorMatrix type="matrix" values="0 0 0 0 0 0 0 0 0 0 0 0 0 0 0 0 0 0 0.25 0"/>
<feBlend mode="normal" in2="BackgroundImageFix" result="effect1_dropShadow_189_1410"/>
<feBlend mode="normal" in="SourceGraphic" in2="effect1_dropShadow_189_1410" result="shape"/>
</filter>
<filter id="filter3_d_189_1410" x="70.3085" y="123.482" width="117.362" height="58.8466" filterUnits="userSpaceOnUse" color-interpolation-filters="sRGB">
<feFlood flood-opacity="0" result="BackgroundImageFix"/>
<feColorMatrix in="SourceAlpha" type="matrix" values="0 0 0 0 0 0 0 0 0 0 0 0 0 0 0 0 0 0 127 0" result="hardAlpha"/>
<feOffset dy="4"/>
<feGaussianBlur stdDeviation="2"/>
<feComposite in2="hardAlpha" operator="out"/>
<feColorMatrix type="matrix" values="0 0 0 0 0 0 0 0 0 0 0 0 0 0 0 0 0 0 0.25 0"/>
<feBlend mode="normal" in2="BackgroundImageFix" result="effect1_dropShadow_189_1410"/>
<feBlend mode="normal" in="SourceGraphic" in2="effect1_dropShadow_189_1410" result="shape"/>
</filter>
<filter id="filter4_d_189_1410" x="27.5412" y="345.76" width="76.1406" height="48.5584" filterUnits="userSpaceOnUse" color-interpolation-filters="sRGB">
<feFlood flood-opacity="0" result="BackgroundImageFix"/>
<feColorMatrix in="SourceAlpha" type="matrix" values="0 0 0 0 0 0 0 0 0 0 0 0 0 0 0 0 0 0 127 0" result="hardAlpha"/>
<feOffset dx="-3.46465" dy="-1.15488"/>
<feGaussianBlur stdDeviation="2.30977"/>
<feComposite in2="hardAlpha" operator="out"/>
<feColorMatrix type="matrix" values="0 0 0 0 0 0 0 0 0 0 0 0 0 0 0 0 0 0 0.25 0"/>
<feBlend mode="normal" in2="BackgroundImageFix" result="effect1_dropShadow_189_1410"/>
<feBlend mode="normal" in="SourceGraphic" in2="effect1_dropShadow_189_1410" result="shape"/>
</filter>
<filter id="filter5_d_189_1410" x="230.904" y="358.756" width="71.5688" height="41.972" filterUnits="userSpaceOnUse" color-interpolation-filters="sRGB">
<feFlood flood-opacity="0" result="BackgroundImageFix"/>
<feColorMatrix in="SourceAlpha" type="matrix" values="0 0 0 0 0 0 0 0 0 0 0 0 0 0 0 0 0 0 127 0" result="hardAlpha"/>
<feOffset dx="-3.46465" dy="-1.15488"/>
<feGaussianBlur stdDeviation="2.30977"/>
<feComposite in2="hardAlpha" operator="out"/>
<feColorMatrix type="matrix" values="0 0 0 0 0 0 0 0 0 0 0 0 0 0 0 0 0 0 0.25 0"/>
<feBlend mode="normal" in2="BackgroundImageFix" result="effect1_dropShadow_189_1410"/>
<feBlend mode="normal" in="SourceGraphic" in2="effect1_dropShadow_189_1410" result="shape"/>
</filter>
<filter id="filter6_d_189_1410" x="87.4474" y="355.664" width="88.3875" height="57.7011" filterUnits="userSpaceOnUse" color-interpolation-filters="sRGB">
<feFlood flood-opacity="0" result="BackgroundImageFix"/>
<feColorMatrix in="SourceAlpha" type="matrix" values="0 0 0 0 0 0 0 0 0 0 0 0 0 0 0 0 0 0 127 0" result="hardAlpha"/>
<feOffset dx="-3.46465" dy="-1.15488"/>
<feGaussianBlur stdDeviation="2.30977"/>
<feComposite in2="hardAlpha" operator="out"/>
<feColorMatrix type="matrix" values="0 0 0 0 0 0 0 0 0 0 0 0 0 0 0 0 0 0 0.25 0"/>
<feBlend mode="normal" in2="BackgroundImageFix" result="effect1_dropShadow_189_1410"/>
<feBlend mode="normal" in="SourceGraphic" in2="effect1_dropShadow_189_1410" result="shape"/>
</filter>
<filter id="filter7_d_189_1410" x="105.87" y="379.607" width="62.8236" height="32.2894" filterUnits="userSpaceOnUse" color-interpolation-filters="sRGB">
<feFlood flood-opacity="0" result="BackgroundImageFix"/>
<feColorMatrix in="SourceAlpha" type="matrix" values="0 0 0 0 0 0 0 0 0 0 0 0 0 0 0 0 0 0 127 0" result="hardAlpha"/>
<feOffset dx="3.46465"/>
<feGaussianBlur stdDeviation="2.36751"/>
<feComposite in2="hardAlpha" operator="out"/>
<feColorMatrix type="matrix" values="0 0 0 0 1 0 0 0 0 0.0416667 0 0 0 0 0.0416667 0 0 0 0.86 0"/>
<feBlend mode="normal" in2="BackgroundImageFix" result="effect1_dropShadow_189_1410"/>
<feBlend mode="normal" in="SourceGraphic" in2="effect1_dropShadow_189_1410" result="shape"/>
</filter>
<filter id="filter8_d_189_1410" x="145.224" y="329.101" width="90.1006" height="58.3725" filterUnits="userSpaceOnUse" color-interpolation-filters="sRGB">
<feFlood flood-opacity="0" result="BackgroundImageFix"/>
<feColorMatrix in="SourceAlpha" type="matrix" values="0 0 0 0 0 0 0 0 0 0 0 0 0 0 0 0 0 0 127 0" result="hardAlpha"/>
<feOffset dx="-3.46465" dy="-1.15488"/>
<feGaussianBlur stdDeviation="2.30977"/>
<feComposite in2="hardAlpha" operator="out"/>
<feColorMatrix type="matrix" values="0 0 0 0 0 0 0 0 0 0 0 0 0 0 0 0 0 0 0.25 0"/>
<feBlend mode="normal" in2="BackgroundImageFix" result="effect1_dropShadow_189_1410"/>
<feBlend mode="normal" in="SourceGraphic" in2="effect1_dropShadow_189_1410" result="shape"/>
</filter>
<filter id="filter9_d_189_1410" x="155.515" y="331.975" width="74.2414" height="76.7411" filterUnits="userSpaceOnUse" color-interpolation-filters="sRGB">
<feFlood flood-opacity="0" result="BackgroundImageFix"/>
<feColorMatrix in="SourceAlpha" type="matrix" values="0 0 0 0 0 0 0 0 0 0 0 0 0 0 0 0 0 0 127 0" result="hardAlpha"/>
<feOffset dy="4.61953"/>
<feGaussianBlur stdDeviation="2.30977"/>
<feComposite in2="hardAlpha" operator="out"/>
<feColorMatrix type="matrix" values="0 0 0 0 0.933334 0 0 0 0 1 0 0 0 0 0 0 0 0 0.25 0"/>
<feBlend mode="normal" in2="BackgroundImageFix" result="effect1_dropShadow_189_1410"/>
<feBlend mode="normal" in="SourceGraphic" in2="effect1_dropShadow_189_1410" result="shape"/>
</filter>
</defs>
</svg>
