<svg width="695" height="500" viewBox="0 0 695 500" fill="none" xmlns="http://www.w3.org/2000/svg">
<path d="M270.495 78.2801C281.562 82.7012 290.464 93.4604 295.897 104.359V108.746C298.264 108.161 301.455 106.639 303.871 107.608C311.403 110.63 319.337 111.788 327.261 113.092C335.507 114.449 342.833 115.015 351.183 114.757C355.326 114.63 359.417 115.619 363.485 115.57C366.23 115.536 370.382 112.701 372.712 111.995C379.573 109.916 384.333 109.251 391.546 108.339C396.063 107.769 400.799 108.25 405.101 106.674C406.96 105.993 404.797 101.216 405.177 99.7278C407.971 88.7887 420.608 79.6499 428.34 73.0807C429.975 71.6911 435.822 66.8456 438.668 65.6878C439.131 65.4991 439.773 65.5033 440.148 65.8503C441.479 67.0793 438.198 72.6515 437.794 73.8525C436.703 77.1022 436.358 80.4405 436.465 83.8858C436.566 87.1374 436.202 92.206 440.338 89.7351C445.045 86.9232 449.672 83.7057 454.236 80.6361C459.59 77.0342 464.618 73.1928 468.437 67.7188C471.498 63.3296 472.497 64.4123 474.968 69.8311C478.554 77.6971 478.963 85.6342 479.106 94.2034C479.124 95.2597 478.725 100.854 480.056 101.921C482.125 103.581 490.276 97.449 491.675 96.4781C495.25 93.9969 497.961 91.273 499.193 86.8104C500.168 83.2787 499.914 79.6379 499.269 76.0866C499.163 75.5012 498.83 73.8465 499.193 74.2993C511.36 89.4844 506.081 116.006 500.066 132.265C496.241 142.604 488.795 151.667 485.486 162.08C484.883 163.976 489.349 161.862 490.991 160.902C507.674 151.149 519.477 138.469 529.228 121.175C530.597 118.747 535.481 108.78 533.708 119.388C530.773 136.955 525.52 154.235 520.533 171.22C518.815 177.07 517.419 183.091 514.913 188.605C514.32 189.911 515.543 185.781 515.9 184.381C517.828 176.818 512.854 187.938 512.483 188.605C506.358 199.618 500.277 210.957 492.814 221.021C492.734 221.129 492.352 221.52 491.996 221.838C491.128 224.906 486.619 236.293 489.852 235.238C494.419 233.747 498.006 229.898 501.851 226.87C510.671 219.925 519.987 212.103 528.051 204.204C534.939 197.456 539.99 190.598 545.783 183.04C546.49 182.118 546.825 181.722 546.96 182.878C547.172 184.69 546.515 185.631 545.555 187.427C540.243 197.372 533.426 206.49 527.367 215.902C522.04 224.178 520.433 226.776 515.824 234.669C514.757 236.498 514.111 238.737 512.559 240.112C512.399 240.254 511.72 239.147 511.571 239.056C511.228 238.846 511.117 239.562 511.078 239.665C509.586 243.654 511.423 240.881 505.42 247.302C486.126 267.942 465.085 286.778 444.515 305.918C442.692 307.614 426.187 322.797 421.201 327.609C420.416 328.367 419.395 329.049 419.075 330.127C418.996 330.392 419.501 330.483 419.606 330.737C419.926 331.505 419.821 332.155 420.783 331.915C426.937 330.379 433.187 328.964 439.275 327.162C451.571 323.524 441.317 326.299 451.35 322.856C454.326 321.835 455.415 320.973 454.274 325.537C450.825 339.326 443.511 352.698 437.377 365.224C434.374 371.353 430.72 377.125 428.036 383.422C427.2 385.382 426.816 387.039 428.34 388.702C430.835 391.427 435.557 392.778 438.933 393.049C444.335 393.482 448.473 391.343 453.476 389.961C454.569 389.66 453.612 391.813 453.552 392.196C452.357 399.865 445.28 408.146 438.857 411.247C428.757 416.122 417.901 412.052 409.354 405.682C406.799 403.777 404.871 401.007 402.292 399.142C402.116 399.015 401.734 399.124 401.684 399.345C401.111 401.893 403.198 405.301 400.545 406.535C385.16 413.691 371.329 424.903 356.043 432.491C350.678 435.154 349.482 434.689 349.284 427.86C348.977 417.243 351.255 406.418 350.348 395.851C349.69 388.2 340.259 404.932 339.678 405.966L339.606 406.094C337.006 410.715 334.402 415.342 331.894 420.021C331.399 420.943 330.045 424.446 328.856 425.017C325.424 426.665 314.207 422.366 311.465 421.767C303.811 420.095 296.057 418.602 288.493 416.487C287.087 416.093 286.329 416.151 286.329 414.74C286.329 414.53 286.328 413.996 286.177 414.131C281.219 418.55 274.735 418.747 268.445 417.462C247.536 413.188 238.57 394.512 229.145 376.354C226.97 372.163 223.217 368.634 222.386 363.924C221.673 359.885 229.965 361.552 233.777 362.055C245.829 363.645 257.797 365.959 269.802 367.989C247.57 360.825 230.101 343.918 216.387 322.897C207.537 309.333 197.454 292.687 193.3 276.427C192.615 273.744 197.895 279.037 200.135 280.449C213.813 289.064 230.271 293.921 246.004 295.641C249.619 296.036 252.336 295.723 255.648 294.463C258.657 293.318 258.399 293.644 256.028 291.741C243.382 281.594 235.192 265.105 230.056 249.455C229.775 248.598 229.25 247.573 228.833 246.566C222.866 242.341 219.054 239.58 212.741 234.507C209.053 231.542 205.446 227.548 201.578 224.758C201.284 224.545 200.496 225.54 200.135 225.57C194.799 226.023 188.376 223.992 183.352 222.483C174.585 219.849 167.057 215.803 161.861 207.453C157.281 200.095 154.376 191.183 152.368 182.675C148.916 168.05 147.272 151.062 151.609 136.449C151.734 136.025 152.317 134.952 152.368 135.393C153.237 142.926 151.476 132.068 153.127 143.029C154.035 149.054 155.137 155.281 157.342 160.943C160.163 168.185 165.751 173.931 171.543 178.532C174.737 181.068 179.583 184.904 183.96 184.543C192.103 183.873 182.328 161.417 181.34 158.668C178.627 151.122 174.615 143.052 176.973 134.824C179.163 127.183 183.004 120.353 182.593 111.995C182.055 101.064 172.753 97.5659 165.886 91.7662C164.5 90.5961 163.871 90.7043 164.025 88.4759C164.2 85.951 164.076 83.0387 166.721 81.8954C174.7 78.4467 185.605 80.4698 193.452 82.9109C200.113 84.9828 204.518 87.6644 210.008 91.7662C210.047 91.7953 213.737 95.2063 214.792 95.8282C215.338 96.1501 215.718 94.6589 215.779 94.5283C218.559 88.5805 221.48 82.7007 224.512 76.899C227.132 71.8867 224.799 68.8314 230.588 73.7713C236.392 78.7247 242.559 83.3109 249.307 86.6886C251.881 87.977 254.608 89.2457 257.471 88.2728C260.385 87.2827 259.914 85.4516 260.661 82.7484C262.182 77.2374 265.399 76.2446 270.495 78.2801Z" fill="#CBD977"/>
<path d="M450.5 144.5L398 205.5L366 234L382.5 336L460 268.5L403 305.5L492.5 166.5L420 234L450.5 144.5Z" fill="#D6F712"/>
<path d="M233 144.5L285.5 205.5L317.5 234L301 336L223.5 268.5L280.5 305.5L191 166.5L263.5 234L233 144.5Z" fill="#D6F712"/>
<mask id="mask0_190_1420" style="mask-type:alpha" maskUnits="userSpaceOnUse" x="0" y="0" width="695" height="500">
<rect width="695" height="500" fill="#FA3838"/>
</mask>
<g mask="url(#mask0_190_1420)">
<g filter="url(#filter0_d_190_1420)">
<path fill-rule="evenodd" clip-rule="evenodd" d="M294.427 28.2971V76.8233C286.943 76.8233 281.565 87.7368 279.811 93.1935C268.118 90.3872 257.009 81.1108 252.917 76.8233L248.824 93.1935C224.035 95.5321 217.837 76.6284 217.837 66.8842C201.467 70.1582 207.509 83.8391 212.576 90.2703C175.625 86.0608 204.975 156.336 224.269 192C234.013 207.785 258.763 241.461 279.811 249.88C300.858 258.299 298.325 272.097 294.427 277.944L303.781 274.436V301.33L294.427 293.729C297.35 300.356 302.495 317.349 299.689 332.317C296.882 347.284 298.52 359.211 299.689 363.303L287.411 357.457C281.798 398.616 307.289 408.906 320.736 408.906L327.167 420.599L353.477 459.771L368.093 420.599C379.786 419.664 382.709 412.414 382.709 408.906C409.837 399.552 414.281 367.98 413.111 353.364L404.342 357.457C403.367 351.22 400.366 337.461 396.156 332.317C391.947 327.172 394.403 306.787 396.156 297.237L389.725 306.007V271.513L396.156 265.666C396.156 248.36 416.424 230.782 426.558 224.156C482.685 187.673 485.803 125.934 480.346 99.6247C483.621 77.6418 471.966 68.6381 465.73 66.8842C466.666 85.593 447.021 88.3214 437.082 87.347L431.236 76.8233C410.656 95.5323 399.275 87.347 396.156 80.9158V28.2971C367.625 11.4591 316.449 21.2813 294.427 28.2971ZM431.913 128.988L450.622 105.017C481.024 98.4688 467.577 142.435 457.053 165.236C433.2 209.67 415.153 217.27 409.112 215.516C404.752 208.977 406.895 201.137 408.266 196.117L408.266 196.117C408.734 194.406 409.112 193.022 409.112 192.13C438.111 174.824 436.396 142.824 431.913 128.988ZM233.419 105.017L252.128 128.988C247.646 142.824 245.931 174.824 274.93 192.13C274.93 193.022 275.308 194.406 275.776 196.117C277.147 201.137 279.29 208.977 274.93 215.516C268.888 217.27 250.842 209.67 226.988 165.236C216.464 142.435 203.017 98.4688 233.419 105.017Z" fill="#D2DBD3" fill-opacity="0.75"/>
<g filter="url(#filter1_i_190_1420)">
<path d="M299.009 239.617C290.228 223.565 291.358 180.585 293.022 161.102C335.73 137.373 380.335 151.215 397.299 161.102C399.693 187.972 393.972 224.641 390.812 239.617C382.43 259.159 380.002 298.649 379.836 315.951L384.825 378.327L349.9 425L311.981 378.327L315.972 315.951C317.569 296.759 305.329 257.065 299.009 239.617Z" fill="#B9CD39"/>
</g>
<ellipse cx="335.274" cy="342.272" rx="3.38682" ry="9.80251" transform="rotate(-1.22123 335.274 342.272)" fill="white"/>
<path d="M303.869 6.08949V37C330.869 42.5 366.869 41 383.993 37C386.54 21.307 382.932 9.85424 380.809 6.08949C370.621 -6.75026 325.271 0.739594 303.869 6.08949Z" fill="#C76E48"/>
<path d="M333.153 328.5L323.003 294.725C332.747 240.427 317.929 176.391 313.869 148L333.153 180.273L337.72 294.725L333.153 328.5Z" fill="white"/>
<path d="M384.869 36.3558C366.356 44.6797 321.986 39.8845 302.869 37.5L303.869 24L342.369 28.5C361.869 28.5 374.369 24 384.869 24V36.3558Z" fill="#974826"/>
<path d="M332.869 6.24591C344.598 0.777975 370.819 -6.87713 381.869 6.24591C375.073 10.5881 355.758 16.6671 332.869 6.24591Z" fill="#F19973"/>
<g filter="url(#filter2_d_190_1420)">
<path fill-rule="evenodd" clip-rule="evenodd" d="M398.141 262.5L390.141 269C378.941 281.4 379.975 297.5 380.641 301C373.441 280.2 379.475 250.667 384.641 241.5C401.141 194 382.641 199.5 371.641 211.5C362.841 221.1 359.975 251.833 359.641 266L348.641 253.5L336.641 266C342.641 250 338.641 234 324.141 211.5C309.641 189 300.641 209.5 313.141 241.5C323.141 267.1 319.308 291.833 316.141 301C314.541 283.8 307.141 276.5 303.641 275L293.141 277.5C298.341 265.1 287.975 256.333 282.141 253.5C220.641 214.5 196.141 148.5 193.141 114.5C190.741 87.3 204.808 86.1667 212.141 89C196.941 74.2 210.475 65.5 219.141 63C219.141 88.2 239.475 92.5 249.641 91.5C245.241 85.1 249.475 75.5 252.141 71.5C252.941 78.3 270.808 87.6667 279.641 91.5C283.241 78.7 290.475 75.8333 293.641 76L281.369 48C312.169 47.6 333.475 67 334.141 76L346.141 91.5L357.641 76C359.641 62.4 394.369 50.6667 406.369 47L398.141 79C402.541 91.8 423.975 79.3333 434.141 71.5L437.141 83C461.941 87 466.808 71.3333 466.141 63C485.341 66.2 485.475 89.6667 483.141 101C493.541 149.8 463.141 195 446.641 211.5C413.041 231.5 400.308 253.833 398.141 262.5ZM252.25 128.628L233.541 104.658C203.139 98.1095 216.586 142.075 227.11 164.877C250.964 209.31 269.01 216.911 275.051 215.157C279.411 208.617 277.269 200.777 275.897 195.758C275.43 194.046 275.051 192.663 275.051 191.771C246.053 174.465 247.768 142.465 252.25 128.628ZM450.978 104.658L432.269 128.628C436.751 142.465 438.466 174.465 409.468 191.771C409.468 192.663 409.09 194.046 408.622 195.758L408.622 195.758C407.25 200.777 405.108 208.617 409.468 215.157C415.509 216.911 433.555 209.31 457.409 164.877C467.933 142.075 481.38 98.1095 450.978 104.658ZM359.869 172L396.369 129.5C397.702 135.167 398.269 150.3 389.869 165.5C381.469 180.7 366.369 176.167 359.869 172ZM298.645 129L335.145 171.5C328.645 175.667 313.545 180.2 305.145 165C296.745 149.8 297.312 134.667 298.645 129Z" fill="#6E766E"/>
</g>
<path d="M406.369 49C392.536 49.5 358.669 57.1 347.869 91.5C359.702 80.6667 390.769 58.6 406.369 49Z" fill="#B6CBB0"/>
<path d="M285.869 47C299.702 47.5 333.569 55.1 344.369 89.5C332.536 78.6667 301.469 56.6 285.869 47Z" fill="#B6CBB0"/>
<path d="M280.869 92.5C280.069 78.5 287.869 76.6667 291.869 77.5C283.791 84.8092 301.579 98.2536 312.589 104.757C313.057 105.003 313.485 105.25 313.869 105.5C313.455 105.264 313.027 105.016 312.589 104.757C303.31 99.8935 278.269 95.928 266.369 94.5L269.369 104C264.969 102 242.202 96.8333 231.369 94.5C206.969 91.3 195.869 113.5 193.369 125C187.369 97.4 202.536 89.5 210.869 89C199.269 74.2 211.702 65.5 219.369 63C217.769 79.8 240.036 89.6667 251.369 92.5C245.369 83.7 248.869 74.8333 251.369 71.5C252.569 79.9 271.536 89 280.869 92.5Z" fill="#B6CBB0"/>
<path d="M404.869 89.5C405.669 75.5 397.869 73.6667 393.869 74.5C401.948 81.8092 384.159 95.2536 373.149 101.757C372.681 102.003 372.253 102.25 371.869 102.5C372.284 102.264 372.711 102.016 373.149 101.757C382.428 96.8935 407.469 92.928 419.369 91.5L416.369 101C420.769 99 443.536 93.8333 454.369 91.5C478.769 88.3 481.869 120 484.369 131.5C490.369 103.9 483.202 86.5 474.869 86C486.469 71.2 474.036 62.5 466.369 60C467.969 76.8 445.702 86.6667 434.369 89.5C440.369 80.7 436.869 71.8333 434.369 68.5C433.169 76.9 414.202 86 404.869 89.5Z" fill="#B6CBB0"/>
<path d="M293.419 278.452C293.326 273.433 291.809 267.59 289.375 263.229C279.409 254.21 272.24 252.862 261.069 246.887C255.097 243.693 250.592 238.231 247.034 232.567C245.732 230.494 244.053 227.694 243.871 225.146C243.802 224.177 245.843 225.227 246.178 225.336C251.904 227.206 256.305 232.055 261.544 234.97C266.5 237.726 271.931 240.339 277.624 240.964C280.825 241.316 284.243 241.265 286.045 238.205C289.367 232.563 290.377 225.882 290.421 219.461C290.459 213.947 290.387 208.362 289.518 202.905C289.005 199.685 288.192 196.53 287.924 193.272C287.84 192.258 287.428 190.781 288.733 190.632C291.769 190.285 294.883 190.458 297.914 190.727C303.106 191.187 307.966 192.173 312.852 193.985C315.281 194.887 317.918 196.249 320.535 195.222C324.559 193.645 325.396 188.198 328.433 185.446C330.471 183.599 334.697 188.003 336.258 189.299C339.668 192.13 342.085 197.401 343.87 201.312C346.519 207.113 347.626 213.541 350.649 219.176C351.464 220.694 356.663 214.056 357.69 213.158C362.22 209.194 368.064 205.936 373.675 203.762C378.572 201.864 383.972 201.938 388.851 200.051C393.836 198.123 398.261 194.617 402.695 191.726C404.731 190.398 403.884 194.961 403.884 196.198C403.884 202.937 403.549 211.515 410.354 215.227C412.632 216.469 415.211 217.569 417.728 216.654C423.209 214.661 428.639 212.456 434.188 210.66C437.192 209.688 440.611 208.201 443.774 207.829C444.549 207.738 443.474 208.614 443.417 208.662C442.259 209.655 441.476 210.788 440.515 211.968C438.474 214.477 435.95 216.416 433.594 218.605C430.286 221.676 427.511 225.206 423.984 228.072C420.531 230.877 416.36 232.598 412.852 235.327C407.71 239.326 404.12 244.981 401.339 250.788C400.144 253.282 398.983 259.806 396.415 261.207C395.569 261.668 395.299 262.196 394.679 263.038C392.477 266.026 389.978 268.784 387.899 271.863C385.458 275.479 383.58 279.411 382.191 283.542C382.131 283.72 381.078 288.608 380.573 288.68C380.095 288.749 378.359 281.918 378.289 281.306C377.748 276.542 378.851 271.693 379.907 267.082C381.766 258.963 386.527 252.569 389.469 244.913C392.283 237.592 392.89 226.022 388.946 218.938C382.876 208.035 373.58 218.043 367.562 222.958C358.014 230.755 359.529 245.451 357.904 256.568C357.501 259.329 357.349 262.071 357.119 264.846C357.102 265.055 357.044 266.512 356.691 266.892C356.271 267.345 355.162 265.83 354.979 265.655C352.091 262.89 349.315 260.668 347.034 257.282C344.968 254.215 344.452 256.222 342.99 258.804C342.649 259.407 336.557 267.395 335.806 264.608C335.451 263.288 335.939 261.507 336.235 260.231C337.099 256.505 337.367 252.618 338.138 248.861C339.433 242.542 340.424 235.826 339.47 229.356C338.606 223.499 334.423 215.572 330.145 211.469C326.011 207.504 319.859 204.444 314.684 202.144C313.304 201.531 310.821 200.383 309.308 201.431C306.798 203.168 307.076 206.716 307.358 209.328C308.508 220.014 309.653 230.701 310.759 241.392C312.103 254.384 314.048 267.369 314.375 280.45C314.495 285.265 315.078 290.746 314.113 295.483C313.83 296.873 312.237 300.854 311.449 297.505C310.949 295.381 310.983 293.281 310.022 291.249C308.222 287.446 306.295 283.664 304.027 280.117C303.563 279.391 301.019 274.417 300.079 275.407C298.008 277.587 296.626 280.351 294.322 282.353C292.916 283.575 293.436 279.378 293.419 278.452Z" fill="#343434"/>
<path d="M365.334 174.011C363.459 173.707 361.977 172.304 360.171 171.917L358.807 171.079C359.058 169.379 360.029 167.75 360.775 166.228C363.364 160.951 364.798 154.984 366.405 149.357C366.533 148.91 365.932 150.16 365.646 150.525C364.744 151.677 364.119 153.029 363.249 154.208C360.738 157.611 357.385 159.84 354.346 162.702C352.937 164.029 351.653 165.467 350.411 166.949C349.948 167.501 349.645 165.48 349.553 165.117C348.987 162.869 349.431 160.455 349.125 158.162C348.488 153.386 347.992 148.662 347.898 143.833C347.839 140.861 347.831 137.825 347.216 134.901C347.074 134.23 346.833 136.551 346.826 136.596C346.217 140.772 345.618 144.748 345.618 148.977C345.618 153.189 345.289 157.37 345.014 161.572C344.945 162.633 344.801 163.693 344.771 164.757C344.764 165.001 344.938 165.655 344.761 165.488C343.756 164.533 342.836 163.508 341.917 162.468C339.33 159.544 336.856 156.53 334.163 153.701C332.188 151.627 330.157 149.606 328.221 147.496C327.778 147.014 327.206 146.178 326.682 145.694C326.546 145.568 326.752 146.058 326.789 146.239C326.948 147.02 327.103 147.802 327.286 148.577C327.767 150.625 328.408 152.597 329.214 154.539C330.91 158.624 333.124 162.417 335.488 166.15C336.029 167.006 337.638 169.385 335.887 170.163C335.407 170.376 334.966 170.651 334.484 170.865C334.152 171.012 333.682 171.404 333.422 171.663C332.244 172.842 331.28 173.458 329.76 174.099C327.632 174.996 325.762 175.759 323.428 175.91C321.343 176.045 318.613 176.12 316.687 175.209C311.782 172.888 308.01 169.416 304.667 165.156C302.355 162.21 300.452 159.054 298.365 155.951C294.783 150.626 290.446 145.841 286.753 140.59C286.127 139.698 284.671 136.809 284.951 137.862C286.348 143.101 287.395 148.507 289.549 153.506C290.509 155.734 291.382 158.144 292.705 160.189C294.17 162.453 296.067 164.654 297.887 166.637C298.469 167.271 306.273 174.08 304.92 174.897C303.555 175.723 300.671 175.248 299.193 175.248C297.077 175.248 294.956 175.295 292.842 175.209C291.681 175.162 292.26 175.219 292.958 175.618C298.331 178.688 304.676 181.034 310.921 181.034C316.462 181.034 322.097 181.447 327.617 180.937C329.515 180.761 331.131 180.336 332.848 179.524C333.671 179.135 334.458 178.706 335.234 178.229C335.66 177.967 336.324 177.366 336.851 177.274C337.52 177.158 336.076 180.643 335.838 180.898C335.59 181.163 336.976 180.786 337.095 180.771C338.601 180.583 340.043 180.418 341.478 179.895C342.649 179.467 343.759 178.995 344.849 178.385C345.486 178.028 346.68 176.866 347.206 177.82C348.996 181.063 352.13 183.678 354.989 185.963C357.78 188.194 361.102 189.425 364.165 191.204C364.529 191.415 365.83 192.528 365.1 191.496C364.093 190.071 363.283 188.468 362.528 186.898C362.088 185.982 360.899 183.633 361.243 182.573C361.352 182.237 361.863 182.925 362.129 183.158C362.658 183.621 363.198 184.032 363.795 184.405C365.344 185.372 366.891 186.352 368.47 187.268C369.786 188.032 370.986 188.806 372.484 189.139C373.892 189.452 375.294 189.753 376.721 189.967C383.798 191.025 391.591 190.304 398.288 187.687C402.123 186.188 405.415 183.867 407.814 180.508C410.99 176.062 413.548 171.107 415.578 166.033C416.714 163.194 417.125 160.134 417.896 157.188C418.833 153.61 419.292 149.965 419.747 146.298C419.987 144.367 420.791 138.64 420.137 140.473C419.289 142.847 418.427 145.206 417.643 147.603C416.583 150.845 414.98 154.055 413.26 156.993C411.074 160.727 409.258 164.48 406.733 168.02C403.7 172.274 398.915 175.66 394.323 178.112C393.895 178.34 392.211 179.705 392.794 178.541C393.303 177.522 393.787 176.472 394.255 175.433C397.323 168.616 400.873 162.106 402.077 154.617C402.439 152.362 402.592 150.119 402.603 147.837C402.607 146.96 402.761 144.353 402.564 145.207C402.052 147.426 401.339 149.579 400.733 151.772C399.699 155.51 397.686 158.664 395.804 162C394.21 164.825 392.159 167.745 389.755 169.949C387.571 171.951 385.541 173.993 382.575 174.712C379.327 175.5 375.712 175.393 372.416 175.073C370.06 174.844 367.675 174.391 365.334 174.011Z" fill="#343434"/>
<path d="M353.114 157.286C353.672 154.497 353.783 151.911 353.805 149.074L355.093 134.142C355.764 132.445 356.541 131.036 357.825 129.73C359.501 128.025 361.259 126.388 362.975 124.721C364.353 123.383 365.277 121.529 367.057 120.639C368.167 120.084 367.952 126.516 367.795 127.673C367.629 128.903 367.654 130.124 367.654 131.363C367.654 131.962 367.381 133.36 367.654 133.907C367.824 134.246 368.387 133.71 368.753 133.608C369.069 133.521 369.469 133.498 369.758 133.342C371.606 132.342 372.999 130.014 374.28 128.396C375.904 126.345 377.865 124.611 379.524 122.602C381.46 120.257 383.803 118.295 386.339 116.619C389.575 114.481 392.531 111.559 395.901 109.711C396.772 109.233 395.106 111.442 394.943 111.689C394.22 112.789 393.634 113.962 393.09 115.159C392.356 116.777 391.716 118.444 391.175 120.137C391.047 120.536 391.517 120.134 391.74 119.995C397.332 116.516 403.124 113.412 408.76 110.009C409.659 109.467 411.61 107.242 411.383 108.266C411.173 109.211 409.896 110.294 409.263 110.951C407.533 112.749 406.3 114.888 404.521 116.667C402.826 118.361 401.299 120.202 399.591 121.879C398.375 123.073 396.911 123.704 395.634 124.769C393.673 126.402 391.686 127.945 389.683 129.526C387.101 131.565 384.871 134.182 382.539 136.513C380.26 138.793 377.677 140.716 375.41 142.982C373.126 145.267 371.379 148.068 369.789 150.864C369.287 151.748 368.502 154.644 368.502 153.628C368.502 152.811 368.889 152.042 369.193 151.304C370.086 149.131 371.159 146.777 370.983 144.364C370.932 143.673 370.682 143.565 370.182 143.94C369.196 144.679 368.072 145.202 367.089 145.95C365.775 146.949 364.742 148.247 363.415 149.231C361.213 150.864 359.919 152.894 358.045 154.821C356.68 156.225 355.602 157.705 354.37 159.218C354.347 159.247 353.121 160.677 352.973 160.16C352.738 159.336 352.954 158.089 353.114 157.286Z" fill="#A0A9A0"/>
<path d="M341.156 155.286C340.598 152.497 340.487 149.911 340.465 147.074L339.177 132.142C338.506 130.445 337.729 129.036 336.445 127.73C334.769 126.025 333.011 124.388 331.295 122.721C329.917 121.383 328.993 119.529 327.213 118.639C326.103 118.084 326.318 124.516 326.475 125.673C326.641 126.903 326.616 128.124 326.616 129.363C326.616 129.962 326.889 131.36 326.616 131.907C326.446 132.246 325.883 131.71 325.517 131.608C325.201 131.521 324.801 131.498 324.512 131.342C322.664 130.342 321.272 128.014 319.99 126.396C318.366 124.345 316.405 122.611 314.746 120.602C312.81 118.257 310.467 116.295 307.931 114.619C304.695 112.481 301.739 109.559 298.369 107.711C297.498 107.233 299.164 109.442 299.327 109.689C300.05 110.789 300.636 111.962 301.18 113.159C301.914 114.777 302.554 116.444 303.095 118.137C303.223 118.536 302.753 118.134 302.53 117.995C296.938 114.516 291.146 111.412 285.51 108.009C284.611 107.467 282.66 105.242 282.887 106.266C283.097 107.211 284.374 108.294 285.007 108.951C286.737 110.749 287.97 112.888 289.749 114.667C291.444 116.361 292.971 118.202 294.679 119.879C295.895 121.073 297.359 121.704 298.636 122.769C300.597 124.402 302.584 125.945 304.587 127.526C307.169 129.565 309.399 132.182 311.731 134.513C314.01 136.793 316.593 138.716 318.86 140.982C321.144 143.267 322.891 146.068 324.481 148.864C324.983 149.748 325.768 152.644 325.768 151.628C325.768 150.811 325.381 150.042 325.077 149.304C324.184 147.131 323.111 144.777 323.287 142.364C323.338 141.673 323.588 141.565 324.088 141.94C325.074 142.679 326.198 143.202 327.181 143.95C328.495 144.949 329.528 146.247 330.856 147.231C333.057 148.864 334.351 150.894 336.225 152.821C337.59 154.225 338.668 155.705 339.9 157.218C339.923 157.247 341.149 158.677 341.297 158.16C341.532 157.336 341.316 156.089 341.156 155.286Z" fill="#A0A9A0"/>
<path d="M298.218 356.53C298.397 358.349 298.727 360.17 298.848 361.991L309.853 368.291C310.522 368.416 312.687 369.04 313.214 368.235C313.546 367.726 313.663 366.729 313.83 366.135C314.281 364.522 313.97 362.514 313.97 360.856C313.97 359.123 314.053 357.363 313.914 355.634C313.486 350.342 313.748 345.023 313.956 339.729C314.437 327.452 316.111 315.274 315.72 302.948C315.546 297.486 314.546 291.71 312.962 286.496C312.059 283.526 310.303 281.113 308.061 279.02C307.703 278.686 304.975 275.497 305.527 276.934C306.019 278.213 306.79 279.305 307.165 280.644C307.839 283.051 308.105 285.653 308.537 288.12C309.226 292.058 309.436 296.058 310.189 299.993C312.378 311.425 313.278 323.351 311.197 334.884C310.434 339.116 310.172 343.526 309.265 347.709C308.956 349.138 308.495 351.45 307.557 352.638C307.272 352.999 306.672 352.171 306.521 352.008C305.165 350.543 304.518 348.764 303.735 346.967C302.572 344.3 301.254 341.962 300.669 339.057C300.641 338.92 300.188 336.444 300.123 337.096C300.055 337.77 299.987 338.439 299.913 339.113C299.658 341.408 299.43 343.702 299.212 346.001C299.012 348.116 298.948 350.269 298.54 352.358C298.261 353.79 298.075 355.066 298.218 356.53Z" fill="#6E766E"/>
<path d="M397.429 356.966C397.251 358.785 396.921 360.607 396.799 362.427L385.794 368.727C385.126 368.853 382.96 369.476 382.434 368.671C382.101 368.162 381.985 367.166 381.818 366.571C381.366 364.958 381.678 362.95 381.678 361.293C381.678 359.559 381.594 357.799 381.734 356.07C382.162 350.778 381.9 345.459 381.692 340.165C381.211 327.888 379.537 315.71 379.928 303.384C380.101 297.922 381.101 292.146 382.686 286.933C383.589 283.963 385.345 281.549 387.587 279.456C387.944 279.122 390.673 275.933 390.121 277.37C389.629 278.649 388.857 279.741 388.483 281.08C387.809 283.487 387.542 286.09 387.11 288.557C386.421 292.494 386.212 296.494 385.458 300.43C383.269 311.861 382.37 323.788 384.45 335.321C385.214 339.553 385.476 343.962 386.382 348.146C386.692 349.575 387.153 351.886 388.091 353.074C388.375 353.435 388.975 352.607 389.127 352.444C390.483 350.979 391.13 349.2 391.913 347.404C393.076 344.736 394.394 342.398 394.979 339.493C395.007 339.356 395.46 336.88 395.525 337.533C395.593 338.206 395.66 338.875 395.735 339.549C395.99 341.844 396.218 344.138 396.435 346.437C396.635 348.552 396.699 350.706 397.107 352.794C397.387 354.226 397.573 355.502 397.429 356.966Z" fill="#6E766E"/>
<g filter="url(#filter3_d_190_1420)">
<path d="M370.369 424L354.869 465L322.369 424C309.969 422 306.869 413.833 306.869 410C278.469 396 278.702 364.833 282.369 351L315.869 370C321.069 361.6 315.702 346.167 312.369 339.5C336.769 344.3 347.536 382.833 349.869 401.5C350.669 365.1 376.202 345 388.869 339.5C383.269 356.3 383.202 365.5 383.869 368L418.369 348C421.869 409 390.869 397.5 386.869 410C383.669 420 374.536 423.5 370.369 424Z" fill="#706A6A"/>
</g>
<path d="M350.869 402.5C346.869 361.3 323.536 343.333 312.369 339.5C317.969 352.7 316.702 363.667 315.369 367.5L282.369 351.5C273.969 369.5 285.869 383.667 292.869 388.5C277.269 348.9 308.369 383.667 325.869 406C328.702 410 332.669 415.3 325.869 404.5C319.069 393.7 325.702 389.333 329.869 388.5C340.669 395.3 351.369 417.667 355.369 428C354.969 412.8 366.536 384.333 372.369 372C369.569 384.4 373.536 392.167 375.869 394.5C375.869 386.5 390.369 375 403.869 372C414.669 369.6 414.702 382 413.369 388.5C419.369 378.9 420.536 356.167 420.369 346L385.369 367.5C383.369 356.7 386.202 344.333 387.869 339.5C355.069 351.9 349.536 386.667 350.869 402.5Z" fill="#B6CBB0"/>
<path d="M328.018 429.478C326.931 428.46 325.638 427.728 324.518 426.758L315.057 422.429C310.4 421.062 309.497 417.192 307.488 413.228C305.51 409.325 300.874 407.341 297.966 404.225C294.226 400.217 289.075 396.528 287.713 390.93C287.264 389.086 289.546 392.181 290.075 392.55C291.926 393.84 294.169 394.501 296.185 395.469C297.567 396.132 298.91 397.019 300.451 397.225C301.096 397.311 301.091 397.417 300.884 396.755C300.068 394.135 299.182 391.138 298.955 388.407C298.777 386.275 300.146 387.776 301.033 388.592C303.4 390.772 305.033 393.655 306.153 396.656C307.17 399.382 307.899 402.114 309.615 404.521C311.412 407.041 313.557 409.226 315.675 411.472C315.908 411.718 318.25 413.976 317.852 412.882C317.589 412.159 316.986 410.876 316.962 410.161C316.909 408.649 316.902 407.093 317.011 405.585C317.062 404.875 317.041 404.52 317.456 405.189C319.277 408.122 321.255 410.926 323.343 413.673C325.687 416.757 328.125 419.628 330.244 422.874C331.643 425.018 333.23 426.972 334.869 428.934C335 429.091 337.201 431.543 337.219 431.408C337.342 430.487 336.693 429.182 336.502 428.291C336.074 426.294 335.863 424.313 335.797 422.268C335.718 419.845 335.766 417.406 335.883 414.984C335.894 414.756 336.797 416.543 336.91 416.753C338.35 419.439 340.078 421.989 341.449 424.705C342.931 427.643 344.224 430.675 345.765 433.584C347.389 436.652 348.946 439.793 350.749 442.761C351.133 443.393 354.184 448.528 355.028 447.262C355.987 445.823 356.433 443.974 357.155 442.415C358.565 439.368 359.29 436.205 360.42 433.065C361.591 429.811 362.471 426.482 363.611 423.221C364.505 420.66 365.947 418.313 366.839 415.751C368.032 412.319 368.529 408.822 368.83 405.214C368.885 404.551 369.233 406.484 369.497 407.094C369.726 407.621 369.97 408.163 370.227 408.677C371.102 410.427 372.313 412.106 373.739 413.451C374.488 414.156 374.69 412.972 374.939 412.387C376.012 409.87 376.927 407.351 378.179 404.917C379.977 401.421 384.119 399.767 387.628 398.573C389.522 397.928 391.422 397.747 393.391 397.497C394.354 397.375 395.171 397.313 395.988 396.73C398.857 394.681 401.519 392.447 404.002 389.879C405.441 388.391 406.482 386.592 407.836 385.031C408.806 383.911 410.022 382.894 410.742 381.58C411.464 380.264 412.199 379.039 412.684 377.61C413.226 376.013 412.758 377.523 412.684 378.525C412.491 381.124 412.351 383.669 411.299 386.094C410.302 388.39 408.412 390.168 406.896 392.105C405.38 394.042 403.781 395.774 401.974 397.447C400.621 398.7 398.983 399.559 397.645 400.824C396.277 402.118 394.876 403.169 393.317 404.225C391.925 405.167 390.601 406.397 389.087 407.143C388.616 407.376 387.816 407.291 387.43 407.626C386.066 408.807 385.388 411.893 384.808 413.549C384.199 415.291 383.538 416.986 382.644 418.595C380.674 422.142 376.785 423.955 374.939 427.425C372.341 432.309 370.533 437.53 367.494 442.192C365.383 445.43 363.377 448.982 361.929 452.568C360.16 456.947 359.039 461.528 357.353 465.912C356.668 467.692 355.984 466.628 355.028 465.455C353.638 463.749 352.079 462.192 350.712 460.458C346.15 454.673 342.657 448.201 338.369 442.229C335.182 437.789 332.027 433.235 328.018 429.478Z" fill="#343434"/>
<path d="M287.775 136.033C286.353 134.595 284.971 133.142 283.715 131.551L277.262 126.153C275.511 129.655 276.879 133.664 277.473 137.347C278.016 140.715 279.326 144.06 280.43 147.274C281.69 150.942 283.232 154.634 285.217 157.975C287.163 161.25 289.387 164.391 292.046 167.128C292.112 167.195 292.663 167.83 293.021 168.242C293.088 168.315 293.154 168.389 293.22 168.465C293.45 168.735 293.29 168.551 293.021 168.242C292.334 167.501 291.567 166.981 290.685 166.447C285.884 163.54 280.737 159.252 278.365 154.056C276.361 149.667 275.819 144.432 272.685 140.586C271.636 139.298 270.321 137.312 268.766 136.596C267.639 136.077 265.829 136.172 264.636 136.385C262.039 136.848 261.3 139.249 260.271 141.337C258.393 145.146 257.29 148.739 258.089 153C258.53 155.356 259.255 157.498 259.309 159.923C259.33 160.871 259.37 160.73 258.933 160.158C258.215 159.216 257.44 158.39 256.986 157.271C256.02 154.891 255.718 152.29 255.249 149.785C254.756 147.15 254.193 144.43 254.216 141.736C254.24 139.086 255.048 136.356 256.047 133.921C256.564 132.659 257.888 131.604 258.206 130.307C258.364 129.66 257.473 128.998 257.126 128.57C256.367 127.634 255.863 126.458 255.132 125.472C253.96 123.893 252.403 122.798 251.4 121.107C249.726 118.284 247.672 115.853 245.463 113.434C243.196 110.951 240.62 108.936 237.719 107.191C233.711 104.781 229.238 102.543 224.694 101.395C222.347 100.802 219.941 100.618 217.56 100.221C217.443 100.202 215.422 100 216.316 99.5407C218.063 98.6436 219.471 97.851 221.455 97.851C229.615 97.851 238.187 98.3566 246.143 100.268C253.902 102.132 261.323 104.943 268.884 107.449C270.369 107.942 271.891 108.337 273.343 108.928C273.884 109.148 274.578 109.638 275.173 109.749C275.582 109.825 275.703 107.377 275.736 107.097C275.846 106.164 275.974 106.735 276.276 107.262C277.383 109.19 278.711 111.075 280.054 112.847C282.891 116.588 286.328 119.755 289.911 122.75C290.748 123.45 292.837 124.481 293.173 125.566C293.451 126.467 293.019 127.962 292.891 128.875C292.548 131.322 292.68 133.829 292.68 136.291V140.949C292.68 141.391 292.992 142.588 292.68 142.275C292.404 141.999 292.253 141.027 291.952 140.633C290.703 138.994 289.222 137.496 287.775 136.033Z" fill="#A0A9A0"/>
<path d="M403.425 135.182C404.847 133.744 406.229 132.291 407.485 130.7L413.938 125.302C415.689 128.804 414.321 132.813 413.727 136.496C413.184 139.864 411.874 143.209 410.77 146.423C409.51 150.091 407.968 153.783 405.983 157.124C404.037 160.399 401.813 163.54 399.154 166.277C399.088 166.344 398.537 166.979 398.178 167.391C398.112 167.464 398.046 167.538 397.98 167.614C397.75 167.884 397.91 167.7 398.178 167.391C398.866 166.65 399.633 166.13 400.515 165.596C405.316 162.689 410.463 158.401 412.835 153.205C414.839 148.816 415.381 143.581 418.514 139.735C419.563 138.447 420.879 136.461 422.434 135.745C426.804 133.732 427.967 145.085 427.052 149.967C426.61 152.322 425.885 154.464 425.832 156.89C425.802 158.226 429.554 148.554 429.892 146.751C430.385 144.116 430.948 141.397 430.924 138.702C430.901 136.052 430.092 133.323 429.094 130.887C428.576 129.625 427.252 128.571 426.935 127.273C426.776 126.626 427.667 125.964 428.014 125.537C428.773 124.601 429.277 123.425 430.009 122.439C431.181 120.859 432.738 119.765 433.74 118.074C435.414 115.251 437.469 112.819 439.678 110.4C441.945 107.917 444.52 105.903 447.422 104.158C451.429 101.747 455.903 99.5093 460.446 98.3611C477.369 94.0849 444.459 95.9224 438.997 97.2347C431.238 99.0988 429.877 104.092 422.316 106.598C420.831 107.091 419.309 107.486 417.857 108.077C417.315 108.297 416.622 108.787 416.027 108.898C415.618 108.974 415.497 106.526 415.464 106.246C415.354 105.313 415.226 105.884 414.924 106.411C413.817 108.339 412.489 110.224 411.146 111.996C408.309 115.737 404.872 118.904 401.289 121.899C400.452 122.599 398.363 123.63 398.027 124.715C397.749 125.616 398.181 127.111 398.309 128.024C398.652 130.471 398.52 132.978 398.52 135.44V140.098C398.52 140.54 398.207 141.737 398.52 141.424C398.796 141.148 398.947 140.176 399.248 139.782C400.497 138.143 401.977 136.645 403.425 135.182Z" fill="#A0A9A0"/>
<path d="M270.369 219.145C222.369 199.545 209.369 139.645 208.869 112.145C210.869 99.3452 228.202 102.5 233.369 104.5C222.369 106 209.08 117.145 229.369 164.145C245.6 201.745 268.465 212.145 277.869 212.645C275.869 218.245 272.036 219.312 270.369 219.145Z" fill="#404940"/>
<path d="M412.869 216C460.869 196.4 476.369 129 472.869 109.509C465.869 95 454.369 99 450.369 105C461.369 106.5 472.658 114.509 452.369 161.509C436.138 199.109 416.773 208.5 407.369 209C407.369 216 411.202 216.167 412.869 216Z" fill="#404940"/>
<g filter="url(#filter4_d_190_1420)">
<path d="M276.24 45.9267L404.777 45.6703L410.499 58.0733L277.295 60.2133L276.24 45.9267Z" fill="#653409"/>
</g>
<g filter="url(#filter5_d_190_1420)">
<path d="M407.723 36.1015L286.2 27.7661L279.869 39.7718L405.665 50.2785L407.723 36.1015Z" fill="#653409"/>
</g>
<g filter="url(#filter6_d_190_1420)">
<path d="M409.968 55L278.869 64.2093L286.468 76.5L409.968 69.3256V55Z" fill="#653409"/>
</g>
</g>
<mask id="mask1_190_1420" style="mask-type:alpha" maskUnits="userSpaceOnUse" x="418" y="158" width="261" height="341">
<rect x="678.44" y="159.705" width="338.61" height="257.202" transform="rotate(90.3797 678.44 159.705)" fill="white"/>
</mask>
<g mask="url(#mask1_190_1420)">
</g>
<mask id="mask2_190_1420" style="mask-type:alpha" maskUnits="userSpaceOnUse" x="418" y="165" width="277" height="334">
<rect x="694.91" y="166.893" width="331.531" height="273.719" transform="rotate(90.3797 694.91 166.893)" fill="white"/>
</mask>
<g mask="url(#mask2_190_1420)">
</g>
<mask id="mask3_190_1420" style="mask-type:alpha" maskUnits="userSpaceOnUse" x="418" y="167" width="277" height="332">
<rect x="694.895" y="169.252" width="329.171" height="273.719" transform="rotate(90.3797 694.895 169.252)" fill="white"/>
</mask>
<g mask="url(#mask3_190_1420)">
<path d="M433.463 459.427C439.516 335.093 429.43 356.692 548.773 347.373C614.084 315.625 591.501 280.901 630.825 297.225C661.791 310.079 636.835 394.605 582.335 439.396C527.835 484.187 427.335 518.385 433.463 459.427Z" fill="#FDCAA5"/>
<circle cx="639.822" cy="275.705" r="29.5719" transform="rotate(112.267 639.822 275.705)" fill="#FDCAA5"/>
<circle cx="612.318" cy="342.877" r="29.5719" transform="rotate(112.267 612.318 342.877)" fill="#FDCAA5"/>
<rect x="667.188" y="286.91" width="72.5855" height="59.1437" transform="rotate(112.267 667.188 286.91)" fill="#FDCAA5"/>
<circle cx="622.332" cy="199.731" r="29.5719" transform="rotate(74.7261 622.332 199.731)" fill="#FDCAA5"/>
<circle cx="641.453" cy="269.752" r="29.5719" transform="rotate(74.7261 641.453 269.752)" fill="#FDCAA5"/>
<rect x="650.859" y="191.94" width="72.5855" height="59.1437" transform="rotate(74.7261 650.859 191.94)" fill="#FDCAA5"/>
<path d="M592.995 200.925C609.469 223.192 637.353 274.909 617.099 303.646C596.844 332.382 592.59 247.139 592.995 200.925Z" fill="#E2A97F"/>
<ellipse cx="26.2082" cy="29.2126" rx="26.2082" ry="29.2126" transform="matrix(0.525176 0.850993 -0.804933 0.593366 564.724 164.525)" fill="#FDCAA5"/>
<ellipse cx="26.2082" cy="29.2126" rx="26.2082" ry="29.2126" transform="matrix(0.525176 0.850993 -0.804933 0.593366 598.508 219.269)" fill="#FDCAA5"/>
<rect width="64.3292" height="58.4252" transform="matrix(0.525176 0.850993 -0.804933 0.593366 578.488 186.828)" fill="#FDCAA5"/>
<circle cx="587.568" cy="261.821" r="29.5719" transform="rotate(106.93 587.568 261.821)" fill="#FDCAA5"/>
<circle cx="566.431" cy="331.26" r="29.5719" transform="rotate(106.93 566.431 331.26)" fill="#FDCAA5"/>
<rect x="615.858" y="270.432" width="72.5855" height="59.1437" transform="rotate(106.93 615.858 270.432)" fill="#FDCAA5"/>
<path d="M556.628 262.065C563.615 281.488 572.496 324.038 552.128 338.852C531.76 353.667 546.641 293.834 556.628 262.065Z" fill="#E2A97F"/>
<circle cx="529.407" cy="295.261" r="29.5719" transform="rotate(106.93 529.407 295.261)" fill="#FDCAA5"/>
<circle cx="508.27" cy="364.701" r="29.5719" transform="rotate(106.93 508.27 364.701)" fill="#FDCAA5"/>
<rect x="557.698" y="303.872" width="72.5855" height="59.1437" transform="rotate(106.93 557.698 303.872)" fill="#FDCAA5"/>
<ellipse cx="26.2082" cy="29.2126" rx="26.2082" ry="29.2126" transform="matrix(0.525176 0.850993 -0.804933 0.593366 507.844 202.982)" fill="#FDCAA5"/>
<ellipse cx="26.2082" cy="29.2126" rx="26.2082" ry="29.2126" transform="matrix(0.525176 0.850993 -0.804933 0.593366 541.628 257.726)" fill="#FDCAA5"/>
<rect width="64.3292" height="58.4252" transform="matrix(0.525176 0.850993 -0.804933 0.593366 521.608 225.285)" fill="#FDCAA5"/>
<path d="M497.201 295.695C502.755 313.068 509.074 352.672 489.92 372.099C470.765 391.527 486.793 329.258 497.201 295.695Z" fill="#E2A97F"/>
<circle cx="466.157" cy="318.545" r="24.5366" transform="rotate(93.2901 466.157 318.545)" fill="#FDCAA5"/>
<circle cx="462.701" cy="378.672" r="24.5366" transform="rotate(93.2901 462.701 378.672)" fill="#FDCAA5"/>
<rect x="490.653" y="319.954" width="60.2262" height="49.0732" transform="rotate(93.2901 490.653 319.954)" fill="#FDCAA5"/>
<ellipse cx="447.253" cy="282.689" rx="17.1698" ry="24.5366" transform="rotate(60.1062 447.253 282.689)" fill="#FDCAA5"/>
<ellipse cx="468.257" cy="319.226" rx="17.1698" ry="24.5366" transform="rotate(60.1062 468.257 319.226)" fill="#FDCAA5"/>
<rect x="468.525" y="270.46" width="42.1441" height="49.0732" transform="rotate(60.1062 468.525 270.46)" fill="#FDCAA5"/>
</g>
<path d="M539.113 200.608C545.823 183.683 561.441 181.687 568.411 182.804C584.537 199.881 578.786 212.656 573.894 216.908C559.841 231.599 536.709 206.674 539.113 200.608Z" fill="#FFE0CA"/>
<path d="M579.016 207.42C575.472 208.183 567.069 212.06 561.815 221.464C567.711 222.093 578.001 218.267 579.016 207.42Z" fill="#FFB884"/>
<path d="M626.381 198.045C630.779 178.537 640.892 176.187 645.398 177.45C655.776 197.056 652.012 211.783 648.832 216.695C639.69 233.655 624.804 205.037 626.381 198.045Z" fill="#FFE0CA"/>
<path d="M652.178 205.754C649.882 206.644 644.432 211.136 641.001 221.98C644.813 222.684 651.485 218.246 652.178 205.754Z" fill="#FFB884"/>
<path d="M486.93 236.838C492.476 219.905 505.34 217.89 511.079 219C524.34 236.057 519.588 248.839 515.555 253.097C503.964 267.805 484.943 242.907 486.93 236.838Z" fill="#FFE0CA"/>
<path d="M519.784 243.602C516.864 244.37 509.94 248.257 505.602 257.667C510.456 258.289 518.935 254.451 519.784 243.602Z" fill="#FFB884"/>
<path d="M441.767 282.756C446.322 268.922 456.889 267.277 461.603 268.183C472.496 282.119 468.594 292.561 465.281 296.04C455.76 308.055 440.135 287.714 441.767 282.756Z" fill="#FFE0CA"/>
<path d="M468.754 288.283C466.356 288.91 460.668 292.085 457.105 299.773C461.093 300.281 468.057 297.147 468.754 288.283Z" fill="#FFB884"/>
<path d="M445.605 309.772C434.344 299.787 428.857 285.081 427.521 278.976C416.139 287.396 432.029 310.862 441.397 321.543L439.412 353.976L451.183 358.183C454.015 346.207 456.865 319.758 445.605 309.772Z" fill="#E8AF85"/>
<path d="M448.776 454.325L449.291 376.659L438.108 372.845C430.197 427.065 432.006 462.67 433.9 473.694C438.482 494.372 455.566 498.025 479.81 489.336C456.371 465.584 448.904 464.748 448.776 454.325Z" fill="#E8AF85"/>
<path d="M502.368 290.091C512.232 314.933 515.861 331.082 517.381 339.154C512.65 340.893 504.397 340.051 502.634 339.057C503.171 329.149 484.576 274.635 475.42 261.596C464.688 243.119 475.647 227.382 482.171 222.116C472.586 244.233 492.504 265.249 502.368 290.091Z" fill="#E8AF85"/>
<g filter="url(#filter7_d_190_1420)">
<path d="M489.729 334.712C518.879 349.602 544.648 329.165 554.104 316.981L546.325 340.811C527.032 366.157 501.696 359.883 488.38 353.467L489.729 334.712Z" fill="#692A0F"/>
</g>
<g filter="url(#filter8_d_190_1420)">
<ellipse cx="532.516" cy="345.642" rx="28.3158" ry="16.5176" transform="rotate(111.263 532.516 345.642)" fill="#692A0F"/>
</g>
<ellipse cx="535.113" cy="346.115" rx="23.5926" ry="13.7624" transform="rotate(111.263 535.113 346.115)" fill="#C0C0C0"/>
<ellipse cx="534.968" cy="346.425" rx="23.5926" ry="13.7624" transform="rotate(111.263 534.968 346.425)" fill="#C0C0C0"/>
<path d="M530.081 367.934C524.868 366.032 523.119 359.072 531.34 345.545C531.428 330.162 540.811 323.547 546.024 325.45C551.237 327.352 552.118 339.467 548.098 350.482C544.078 361.497 535.294 369.837 530.081 367.934Z" fill="#E0E0E0"/>
<path d="M543.965 329.836C544.831 335.737 543.682 351.171 532.156 365.699C531.822 360.017 533.716 344.891 543.965 329.836Z" fill="#020202"/>
<path d="M521.492 342.955L524.97 343.835L527.565 341.09L530.456 341.921" stroke="black" stroke-width="0.589913" stroke-linecap="round" stroke-linejoin="round"/>
<path d="M530.35 328.889L533.144 330.896L536.914 328.248L539.854 328.491" stroke="black" stroke-width="0.589913" stroke-linecap="round" stroke-linejoin="round"/>
<path d="M524.329 337.27L527.172 338.689" stroke="black" stroke-width="0.589913" stroke-linecap="round" stroke-linejoin="round"/>
<path d="M545.941 347.936L548.88 348.179" stroke="black" stroke-width="0.589913" stroke-linecap="round" stroke-linejoin="round"/>
<path d="M534.169 325.653L537.793 324.769L539.46 326.091L542.497 325.158" stroke="black" stroke-width="0.589913" stroke-linecap="round" stroke-linejoin="round"/>
<path d="M546.281 343.821L548.681 343.427L548.827 341.663L550.197 339.409" stroke="black" stroke-width="0.589913" stroke-linecap="round" stroke-linejoin="round"/>
<path d="M547.744 333.287L548.725 335.736L549.119 338.136L550.197 339.409" stroke="black" stroke-width="0.589913" stroke-linecap="round" stroke-linejoin="round"/>
<path d="M525.762 355.739L521.742 352.029L523.07 345.9L521.312 343.532" stroke="black" stroke-width="0.589913" stroke-linecap="round" stroke-linejoin="round"/>
<path d="M526.845 364.115L523.367 363.235L522.482 359.611L519.726 357.607" stroke="black" stroke-width="0.589913" stroke-linecap="round" stroke-linejoin="round"/>
<path d="M547.316 352.785L544.376 352.542L544.182 354.894L541.145 355.827" stroke="black" stroke-width="0.589913" stroke-linecap="round" stroke-linejoin="round"/>
<path d="M533.099 338.587L530.061 337.327L529.912 334.18L529.028 330.556" stroke="black" stroke-width="0.589913" stroke-linecap="round" stroke-linejoin="round"/>
<ellipse cx="545.188" cy="336.402" rx="3.98782" ry="1.96124" transform="rotate(95.329 545.188 336.402)" fill="#FBFBFB" fill-opacity="0.85"/>
<ellipse cx="540.8" cy="350.622" rx="8.73256" ry="2.29195" transform="rotate(112.499 540.8 350.622)" fill="#FBFBFB" fill-opacity="0.85"/>
<g filter="url(#filter9_d_190_1420)">
<path d="M438.729 353.252C464.454 368.119 487.221 347.662 495.578 335.47L488.692 359.307C471.639 384.668 449.275 378.413 437.523 372.007L438.729 353.252Z" fill="#BFB03E"/>
</g>
<g filter="url(#filter10_d_190_1420)">
<path d="M498.461 378.752C492.738 408.013 494.636 388.558 481.645 391.421C465.509 421.991 470.039 384.451 472.671 361.565C475.304 338.679 481.727 312.69 482.22 304.643C501.158 337.659 500.616 367.737 498.461 378.752Z" fill="#C8C57B"/>
</g>
<path d="M498.325 373.436C496.289 382.433 490.006 390.666 484.45 387.968C478.894 385.27 478.264 377.53 480.557 357.594C482.85 337.659 483.172 313.929 483.602 306.919C500.098 335.679 500.483 363.901 498.325 373.436Z" fill="#EAE78C"/>
<g filter="url(#filter11_d_190_1420)">
<path d="M473.623 354.792C483.585 364.887 498.745 352.599 497.297 343.151L502.587 346.136L504.282 357.355C502.376 377.99 484.64 383.772 468.173 375.994L468.888 357.121L473.623 354.792Z" fill="#BFB03E"/>
</g>
<path d="M502.587 346.136C497.23 371.113 477.889 363.866 468.888 357.121L473.623 354.792C487.722 363.735 495.865 351.597 497.297 343.151L502.587 346.136Z" fill="#8F8328"/>
<path d="M482.792 306.479C484.926 310.82 489.535 321.626 490.894 330.13" stroke="#ABA867" stroke-width="0.589913" stroke-linecap="round"/>
<path d="M482.206 305.886C484.34 310.226 487.366 328.337 487.257 344.854" stroke="#ABA867" stroke-width="0.589913" stroke-linecap="round"/>
<path d="M482.206 305.886C484.34 310.226 479.12 326.512 479.01 343.03" stroke="#ABA867" stroke-width="0.589913" stroke-linecap="round"/>
<path d="M483.3 318.871C483.229 329.489 483.198 334.209 483.089 350.726" stroke="#ABA867" stroke-width="0.589913" stroke-linecap="round"/>
<g filter="url(#filter12_d_190_1420)">
<ellipse cx="671.294" cy="258.765" rx="4.7193" ry="5.30921" transform="rotate(90.3797 671.294 258.765)" fill="#60838C"/>
<circle cx="672.478" cy="258.183" r="4.12939" transform="rotate(90.3797 672.478 258.183)" fill="#A1BFC7"/>
<ellipse cx="673.658" cy="258.19" rx="2.94956" ry="1.76974" transform="rotate(90.3797 673.658 258.19)" fill="#E5F8FD"/>
<circle cx="670.689" cy="261.12" r="1.17983" transform="rotate(90.3797 670.689 261.12)" fill="#E5F8FD"/>
</g>
<ellipse cx="677.506" cy="300.691" rx="6.48904" ry="7.07895" transform="rotate(90.3797 677.506 300.691)" fill="#60838C"/>
<ellipse cx="679.084" cy="299.89" rx="5.67791" ry="5.50585" transform="rotate(90.3797 679.084 299.89)" fill="#A1BFC7"/>
<ellipse cx="680.657" cy="299.9" rx="4.05565" ry="2.35965" transform="rotate(90.3797 680.657 299.9)" fill="#E5F8FD"/>
<ellipse cx="676.698" cy="303.93" rx="1.62226" ry="1.5731" transform="rotate(90.3797 676.698 303.93)" fill="#E5F8FD"/>
<g filter="url(#filter13_d_190_1420)">
<ellipse cx="634.08" cy="266.187" rx="4.12939" ry="5.89913" transform="rotate(90.3797 634.08 266.187)" fill="#60838C"/>
<ellipse cx="635.394" cy="265.68" rx="3.61321" ry="4.58821" transform="rotate(90.3797 635.394 265.68)" fill="#A1BFC7"/>
<ellipse cx="636.705" cy="265.688" rx="2.58087" ry="1.96638" transform="rotate(90.3797 636.705 265.688)" fill="#E5F8FD"/>
<ellipse cx="633.411" cy="268.247" rx="1.03235" ry="1.31092" transform="rotate(90.3797 633.411 268.247)" fill="#E5F8FD"/>
</g>
<g filter="url(#filter14_d_190_1420)">
<ellipse cx="646.437" cy="270.929" rx="4.0704" ry="4.12939" transform="rotate(90.3797 646.437 270.929)" fill="#60838C"/>
<ellipse cx="647.358" cy="270.427" rx="3.5616" ry="3.21175" transform="rotate(90.3797 647.358 270.427)" fill="#A1BFC7"/>
<ellipse cx="648.276" cy="270.433" rx="2.544" ry="1.37646" transform="rotate(90.3797 648.276 270.433)" fill="#E5F8FD"/>
<ellipse cx="645.965" cy="272.961" rx="1.0176" ry="0.917642" transform="rotate(90.3797 645.965 272.961)" fill="#E5F8FD"/>
</g>
<ellipse cx="686.479" cy="281.872" rx="2.94956" ry="4.12939" transform="rotate(90.3797 686.479 281.872)" fill="#60838C"/>
<ellipse cx="687.399" cy="281.51" rx="2.58087" ry="3.21175" transform="rotate(90.3797 687.399 281.51)" fill="#A1BFC7"/>
<ellipse cx="688.317" cy="281.516" rx="1.84348" ry="1.37646" transform="rotate(90.3797 688.317 281.516)" fill="#E5F8FD"/>
<ellipse cx="686.011" cy="283.344" rx="0.737391" ry="0.917642" transform="rotate(90.3797 686.011 283.344)" fill="#E5F8FD"/>
<g filter="url(#filter15_d_190_1420)">
<ellipse cx="658.035" cy="301.151" rx="3.53948" ry="4.12939" transform="rotate(90.3797 658.035 301.151)" fill="#60838C"/>
<ellipse cx="658.956" cy="300.715" rx="3.09704" ry="3.21175" transform="rotate(90.3797 658.956 300.715)" fill="#A1BFC7"/>
<ellipse cx="659.874" cy="300.721" rx="2.21217" ry="1.37646" transform="rotate(90.3797 659.874 300.721)" fill="#E5F8FD"/>
<ellipse cx="657.565" cy="302.918" rx="0.884869" ry="0.917642" transform="rotate(90.3797 657.565 302.918)" fill="#E5F8FD"/>
</g>
<g filter="url(#filter16_d_190_1420)">
<path d="M667.693 268.18C680.096 265.902 678.291 271.199 678.236 279.458C679.291 298.343 665.763 292.354 667.56 288.236C669.357 284.119 665.278 276.423 661.672 286.427C658.067 296.432 659.258 294.67 647.413 301.671C635.568 308.672 635.037 299.819 630.369 292.119C626.634 285.959 615.441 289.464 610.312 291.986L613.348 279.028C614.93 277.662 620.219 274.708 628.72 273.821C639.346 272.711 641.663 279.216 651.691 279.282C661.719 279.349 655.289 270.457 667.693 268.18Z" fill="#60838C"/>
</g>
<ellipse cx="677.1" cy="272.961" rx="4.7193" ry="5.30921" transform="rotate(90.3797 677.1 272.961)" fill="#60838C"/>
<path d="M639.912 276.254C628.627 270.044 617.495 276.303 613.34 280.208C613.332 281.388 613.786 284.104 615.664 285.533C618.012 287.318 622.161 284.396 628.087 280.306C634.013 276.215 634.576 280.349 635.725 285.076C636.643 288.857 641.6 288.654 643.964 288.08C650.102 287.649 642.536 295.739 637.986 299.839C645.556 297.057 660.116 283.861 666.45 277.61C676.879 270.6 677.049 280.63 675.83 286.521C678.674 284.652 678.627 279.854 678.248 277.688C681.086 276.763 682.202 274.568 682.405 273.586C684.318 269.824 678.899 268.451 675.951 268.234C667.126 264.636 658.813 272.84 658.203 275.786C657.594 278.731 654.019 284.017 639.912 276.254Z" fill="#7C9EA7"/>
<path d="M614.673 281.694C615.474 281.633 616.31 281.397 617.095 281.226C617.917 281.048 620.138 280.42 620.736 281.302C621.089 281.822 621.213 282.587 621.424 283.178C621.652 283.818 622.863 283.861 623.444 283.79C624.677 283.638 625.462 282.534 626.638 282.232C627.472 282.018 627.683 282.173 627.561 283.059C627.542 283.205 628.84 282.081 629.167 281.975C630.472 281.549 631.254 282.105 632.325 282.766C633.055 283.216 633.473 283.969 634.109 284.548C635.008 285.366 636.183 284.794 637.014 284.179C637.219 284.027 637.678 283.513 637.973 283.618C638.355 283.755 638.676 284.163 638.903 284.471C639.335 285.059 640.445 286.355 639.961 287.159C639.806 287.416 639.726 287.605 639.498 287.818C639.463 287.851 639.328 287.928 639.332 287.925C639.4 287.88 639.365 287.613 639.436 287.613C639.487 287.614 639.421 287.715 639.397 287.76C639.193 288.134 638.941 288.478 638.766 288.87C638.216 290.098 637.785 291.956 638.074 293.296C638.265 294.181 639.094 294.318 639.855 294.46C641.118 294.696 642.323 294.686 643.586 294.427C644.575 294.224 646.31 294.034 646.956 293.151C647.206 292.81 646.901 293.159 646.809 293.265C646.432 293.7 646.227 294.307 645.844 294.71C645.683 294.88 645.436 294.948 645.269 295.113C644.954 295.424 646.043 294.684 646.406 294.433C647.77 293.491 648.871 292.379 649.854 291.044C651.091 289.362 652.152 287.404 653.714 285.989C654.18 285.566 653.94 285.806 654.03 285.355C654.309 283.944 656.117 282.231 657.295 281.537C658.997 280.535 658.844 283.105 660.08 283.141C660.374 283.15 660.534 282.704 660.644 282.502C661.202 281.473 661.534 280.349 661.977 279.27C662.247 278.613 662.572 277.508 663.226 277.101C663.683 276.817 664.218 276.692 664.72 276.519C666.837 275.792 668.513 272.29 671.058 273.015C672.597 273.454 675.525 275.62 674.606 277.527C674.183 278.406 673.476 279.071 673.469 280.091C673.465 280.734 673.464 281.377 673.456 282.02C673.447 282.762 673.145 283.89 673.401 284.604C673.869 285.916 675.138 285.441 675.977 284.876C676.902 284.254 676.161 285.737 675.95 286.111" stroke="#89BFCD" stroke-opacity="0.63" stroke-width="3.53948" stroke-linecap="round"/>
<circle cx="649.812" cy="295.788" r="4.12939" transform="rotate(90.3797 649.812 295.788)" fill="#A7D7E3"/>
<circle cx="651.007" cy="293.436" r="4.12939" transform="rotate(90.3797 651.007 293.436)" fill="#DEF8FF"/>
<ellipse cx="680.045" cy="273.571" rx="4.12939" ry="2.35965" transform="rotate(90.3797 680.045 273.571)" fill="#A7D7E3"/>
<ellipse cx="681.241" cy="271.219" rx="4.12939" ry="2.35965" transform="rotate(90.3797 681.241 271.219)" fill="#DEF8FF"/>
<circle cx="626.325" cy="279.114" r="4.12939" transform="rotate(90.3797 626.325 279.114)" fill="#A7D7E3"/>
<circle cx="627.521" cy="276.762" r="4.12939" transform="rotate(90.3797 627.521 276.762)" fill="#DEF8FF"/>
<circle cx="642.756" cy="292.201" r="1.76974" transform="rotate(90.3797 642.756 292.201)" fill="#A7D7E3"/>
<circle cx="643.952" cy="289.85" r="1.76974" transform="rotate(90.3797 643.952 289.85)" fill="#DEF8FF"/>
<circle cx="660.508" cy="284.06" r="1.76974" transform="rotate(90.3797 660.508 284.06)" fill="#A7D7E3"/>
<circle cx="661.704" cy="281.708" r="1.76974" transform="rotate(90.3797 661.704 281.708)" fill="#DEF8FF"/>
<g filter="url(#filter17_d_190_1420)">
<path d="M558.334 301.67C582.78 315.991 603.599 296.071 611.542 284.325L606.671 307.3C590.463 331.734 564.076 325.502 552.908 319.332L558.334 301.67Z" fill="#F7A800"/>
</g>
<g filter="url(#filter18_d_190_1420)">
<circle cx="608.092" cy="317.278" r="17.6974" transform="rotate(102.127 608.092 317.278)" fill="#AE0000"/>
</g>
<ellipse cx="613.735" cy="319.094" rx="14.7478" ry="11.7983" transform="rotate(102.127 613.735 319.094)" fill="#D83A3A"/>
<ellipse cx="612.571" cy="326.78" rx="5.79166" ry="4.73863" transform="rotate(124.765 612.571 326.78)" fill="#FFC0C0"/>
<ellipse cx="619.663" cy="316.236" rx="3.10038" ry="2.53668" transform="rotate(93.7579 619.663 316.236)" fill="#FFC0C0"/>
<g filter="url(#filter19_d_190_1420)">
<path d="M613.125 305.085C608.282 300.665 602.814 300.657 600.685 301.205L600.684 301.205C599.903 299.227 599.121 297.249 605.384 296.181C610.395 295.327 612.633 301.761 613.125 305.085Z" fill="#F6A800"/>
</g>
<g filter="url(#filter20_d_190_1420)">
<path d="M598.84 332.255C593.427 328.554 590.612 321.989 590.657 319.791C588.552 319.484 587.494 320.205 589.17 326.712C590.485 331.822 595.491 332.537 598.84 332.255Z" fill="#F6A800"/>
</g>
<g filter="url(#filter21_d_190_1420)">
<path d="M601.099 315.398C598.93 309.942 593.96 308.758 591.747 308.847C588.322 309.489 588.831 311.394 589.514 312.267C591.503 315.858 598.066 315.85 601.099 315.398Z" fill="#F6A800"/>
</g>
<mask id="mask4_190_1420" style="mask-type:alpha" maskUnits="userSpaceOnUse" x="-4" y="170" width="275" height="328">
<rect width="322.213" height="267.933" transform="matrix(0.020726 0.999785 0.999785 -0.020726 -3.99976 175.553)" fill="#D9D9D9"/>
</mask>
<g mask="url(#mask4_190_1420)">
<path d="M255.908 457.112C248.268 335.502 258.439 356.503 141.501 349.029C77.1392 318.857 98.7632 284.559 60.4997 301.078C30.3683 314.087 55.9613 396.474 109.922 439.561C163.882 482.649 262.72 514.733 255.908 457.112Z" fill="#FDCAA5"/>
<circle cx="28.9467" cy="28.9467" r="28.9467" transform="matrix(0.391928 0.919996 0.919996 -0.391928 13.4211 264.854)" fill="#FDCAA5"/>
<circle cx="28.9467" cy="28.9467" r="28.9467" transform="matrix(0.391928 0.919996 0.919996 -0.391928 41.2681 330.22)" fill="#FDCAA5"/>
<rect width="71.051" height="57.8934" transform="matrix(0.391928 0.919996 0.919996 -0.391928 24.7661 291.484)" fill="#FDCAA5"/>
<circle cx="28.9467" cy="28.9467" r="28.9467" transform="matrix(-0.249805 0.968296 0.968296 0.249805 46.6687 170.277)" fill="#FDCAA5"/>
<circle cx="28.9467" cy="28.9467" r="28.9467" transform="matrix(-0.249805 0.968296 0.968296 0.249805 28.9199 239.076)" fill="#FDCAA5"/>
<rect width="71.051" height="57.8934" transform="matrix(-0.249805 0.968296 0.968296 0.249805 39.4377 198.306)" fill="#FDCAA5"/>
<path d="M96.1971 206.302C80.3804 228.323 53.8022 279.327 74.0233 307.173C94.2444 335.02 97.2313 251.528 96.1971 206.302Z" fill="#E2A97F"/>
<ellipse cx="25.6541" cy="28.595" rx="25.6541" ry="28.595" transform="matrix(-0.513125 0.858314 0.81322 0.581957 123.365 170.285)" fill="#FDCAA5"/>
<ellipse cx="25.6541" cy="28.595" rx="25.6541" ry="28.595" transform="matrix(-0.513125 0.858314 0.81322 0.581957 91.0542 224.332)" fill="#FDCAA5"/>
<rect width="62.9693" height="57.1901" transform="matrix(-0.513125 0.858314 0.81322 0.581957 110.202 192.304)" fill="#FDCAA5"/>
<circle cx="28.9467" cy="28.9467" r="28.9467" transform="matrix(0.304666 0.952459 0.952459 -0.304666 65.96 247.077)" fill="#FDCAA5"/>
<circle cx="28.9467" cy="28.9467" r="28.9467" transform="matrix(0.304666 0.952459 0.952459 -0.304666 87.6069 314.751)" fill="#FDCAA5"/>
<rect width="71.051" height="57.8934" transform="matrix(0.304666 0.952459 0.952459 -0.304666 74.7791 274.648)" fill="#FDCAA5"/>
<path d="M132.636 265.641C126.065 284.748 117.96 326.517 138.1 340.735C158.239 354.954 142.848 296.597 132.636 265.641Z" fill="#E2A97F"/>
<circle cx="28.9467" cy="28.9467" r="28.9467" transform="matrix(0.304666 0.952459 0.952459 -0.304666 124.199 277.133)" fill="#FDCAA5"/>
<circle cx="28.9467" cy="28.9467" r="28.9467" transform="matrix(0.304666 0.952459 0.952459 -0.304666 145.846 344.806)" fill="#FDCAA5"/>
<rect width="71.051" height="57.8934" transform="matrix(0.304666 0.952459 0.952459 -0.304666 133.018 304.704)" fill="#FDCAA5"/>
<ellipse cx="25.6541" cy="28.595" rx="25.6541" ry="28.595" transform="matrix(-0.513125 0.858314 0.81322 0.581957 180.42 205.268)" fill="#FDCAA5"/>
<ellipse cx="25.6541" cy="28.595" rx="25.6541" ry="28.595" transform="matrix(-0.513125 0.858314 0.81322 0.581957 148.109 259.315)" fill="#FDCAA5"/>
<rect width="62.9693" height="57.1901" transform="matrix(-0.513125 0.858314 0.81322 0.581957 167.257 227.287)" fill="#FDCAA5"/>
<path d="M191.433 297.411C186.237 314.492 180.43 353.667 199.446 372.418C218.462 391.168 202.084 330.118 191.433 297.411Z" fill="#E2A97F"/>
<circle cx="24.0179" cy="24.0179" r="24.0179" transform="matrix(0.071463 0.997443 0.997443 -0.071463 196.292 297.433)" fill="#FDCAA5"/>
<circle cx="24.0179" cy="24.0179" r="24.0179" transform="matrix(0.071463 0.997443 0.997443 -0.071463 200.505 356.236)" fill="#FDCAA5"/>
<rect width="58.9531" height="48.0358" transform="matrix(0.071463 0.997443 0.997443 -0.071463 198.008 321.39)" fill="#FDCAA5"/>
<ellipse cx="16.8068" cy="24.0179" rx="16.8068" ry="24.0179" transform="matrix(-0.48612 0.873892 0.873892 0.48612 227.154 257.955)" fill="#FDCAA5"/>
<ellipse cx="16.8068" cy="24.0179" rx="16.8068" ry="24.0179" transform="matrix(-0.48612 0.873892 0.873892 0.48612 207.1 294.005)" fill="#FDCAA5"/>
<rect width="41.2531" height="48.0358" transform="matrix(-0.48612 0.873892 0.873892 0.48612 218.984 272.642)" fill="#FDCAA5"/>
</g>
<g filter="url(#filter22_d_190_1420)">
<path d="M72.9036 263.857C44.6183 280.871 33.4485 258.15 23.99 244.656L20.8469 273.149C40.1537 301.224 62.8477 298.284 75.7753 290.943L72.9036 263.857Z" fill="#252524"/>
</g>
<path d="M2.70624 269.132C-4.22477 289.049 10.9951 302.988 11.3256 303.543C35.4654 323.933 49.7917 311.496 45.6059 301.015C36.7966 278.957 45.6357 266.064 51.1564 262.374C55.9471 255.07 49.2364 250.737 45.2822 249.484L46.0734 244.502L44.7088 241.706L45.5 236.724C35.9611 226.769 26.7901 226.518 23.397 227.637C21.4248 229.173 22.0478 231.598 22.6058 232.619C20.8131 233.446 19.7667 236.014 19.4675 237.195C16.9835 238.073 15.4792 242.027 15.0376 243.894C12.5705 245.002 10.3811 247.52 9.59478 248.639L9.80717 251.52L8.96151 259.692C8.96151 259.692 5.93214 257.888 4.1068 260.63C2.28147 263.371 2.70624 269.132 2.70624 269.132Z" fill="#D9D9D9"/>
<path d="M29.4004 265.097C23.9081 267.671 17.4762 261.774 14.9468 258.503C13.7077 255.652 19.3271 254.469 22.2917 254.234C35.2382 254.807 32.4252 261.715 29.4004 265.097Z" fill="#8C8A8A"/>
<path d="M23.9706 235.415L21.8055 233.547C21.541 233.103 22.2289 232.743 22.606 232.619C24.1416 234.591 25.6796 229.786 26.2566 227.137L28.5824 227.255C27.2412 228.705 25.0409 231.86 26.9695 232.877C28.8981 233.893 31.0033 229.973 31.8149 227.885L33.5858 228.334L30.1595 232.931C29.4076 235.304 31.4817 235.151 32.6127 234.778L36.5939 229.85L38.098 230.608L34.9173 234.608C33.474 237.031 36.5558 237.19 38.2772 236.967L41.7247 232.658L42.6739 233.746C39.438 236.997 39.3042 239.112 39.6419 239.763C42.2982 240.436 42.0646 237.267 45.767 236.415L44.6877 241.418L46.3617 244.481L45.2824 249.484L44.0571 244.65L42.3407 241.012L39.2144 241.822L37.2099 238.204L33.4225 237.904L28.8253 234.478L23.9706 235.415Z" fill="#8C8C8C"/>
<path d="M18.9433 241.868C20.4567 246.68 11.6115 248.491 10.4804 248.864C7.62999 247.915 12.331 245.155 15.0378 243.894C15.6877 240.138 17.9123 240.978 18.9433 241.868Z" fill="#8C8C8C"/>
<path d="M39.6032 258.881C38.88 252.215 47.8731 254.506 52.4601 256.485C53.9618 257.997 52.2167 261.041 51.1565 262.374C38.1447 274.455 42.0204 292.977 45.5847 300.727C48.3119 312.575 39.2923 314.9 34.4416 314.582C20.6748 313.28 11.3682 304.119 8.43573 299.701C37.729 323.029 23.5898 287.867 12.9919 267.215C9.89402 266.054 9.98067 264.348 10.4112 263.64C11.7164 265.63 13.2171 263.723 13.8043 262.521C16.7275 262.885 15.1478 265.029 19.733 272.222C23.4011 277.975 28.7591 271.556 30.9796 267.627C34.8974 267.338 38.3611 261.676 39.6032 258.881Z" fill="#C2C2C2"/>
<path d="M34.5933 245.928L45.5917 249.751L44.3877 245.205L42.3194 240.724L39.2144 241.822C43.1469 248.019 37.8612 247.038 34.5933 245.928Z" fill="#B6B2B2"/>
<path d="M15.7075 241.726C15.5966 241.939 15.522 242.081 15.4864 242.123C15.5558 241.977 15.6296 241.845 15.7075 241.726C16.4279 240.341 18.6817 235.959 21.751 236.737C25.2928 237.634 26.5937 239.566 28.7284 237.091C29.7169 237.405 24.3742 240.888 33.8897 244.242C27.7766 243.824 25.3564 251.069 22.9218 244.76C21.1905 242.579 17.4352 239.079 15.7075 241.726Z" fill="#B6B2B2"/>
<path d="M22.5631 252.475C17.9221 252.353 13.9736 256.389 12.5794 258.422L9.37891 262.132L12.0699 251.511C18.127 251.991 20.0128 246.679 20.1986 243.964L20.4109 246.843C20.2559 251.023 27.6248 253.066 31.3287 253.565L22.5631 252.475Z" fill="#B6B2B2"/>
<path d="M39.0646 272.102C41.6442 263.111 49.4986 259.174 53.1034 258.329C53.2053 259.711 50.7414 262.942 49.4968 264.385C39.2551 276.257 42.8462 294.598 45.9219 302.284C48.4929 318.307 33.0349 315.973 25.2513 312.493C35.9807 308.807 28.4496 285.194 27.8203 284.511C35.4102 293.216 38.479 279.866 39.0646 272.102Z" fill="#969696"/>
<path d="M147.727 202.962C140.926 186.489 125.612 184.751 118.806 185.941C103.258 202.877 109.063 215.301 113.91 219.396C127.867 233.582 150.164 208.867 147.727 202.962Z" fill="#FFE0CA"/>
<path d="M108.766 210.18C112.245 210.878 120.523 214.557 125.795 223.688C120.034 224.385 109.91 220.783 108.766 210.18Z" fill="#FFB884"/>
<path d="M62.2779 201.658C57.704 182.625 47.7735 180.464 43.38 181.763C33.4931 201.096 37.3808 215.457 40.5605 220.222C49.7429 236.696 63.9173 208.48 62.2779 201.658Z" fill="#FFE0CA"/>
<path d="M37.1345 209.559C39.3942 210.399 44.7906 214.72 48.2984 225.286C44.5766 226.028 37.9857 221.776 37.1345 209.559Z" fill="#FFB884"/>
<path d="M199.302 237.702C193.641 221.205 181.022 219.411 175.42 220.576C162.676 237.454 167.503 249.899 171.51 254.011C183.057 268.246 201.331 243.615 199.302 237.702Z" fill="#FFE0CA"/>
<path d="M167.24 244.777C170.108 245.487 176.939 249.196 181.314 258.346C176.572 259.022 168.22 255.383 167.24 244.777Z" fill="#FFB884"/>
<path d="M244.14 282.021C239.491 268.544 229.126 267.08 224.524 268.032C214.055 281.822 218.019 291.989 221.309 295.348C230.793 306.977 245.806 286.852 244.14 282.021Z" fill="#FFE0CA"/>
<path d="M217.802 287.804C220.159 288.384 225.769 291.414 229.363 298.889C225.467 299.442 218.607 296.47 217.802 287.804Z" fill="#FFB884"/>
<path d="M241.349 309.254C252.233 299.325 257.401 284.856 258.624 278.862C269.881 286.946 255.273 312.26 246.252 322.843L249.47 366.671L238.008 370.952C235.07 359.269 230.466 319.182 241.349 309.254Z" fill="#E8AF85"/>
<path d="M240.24 450.78L238.956 388.837L249.849 384.949C258.34 437.909 256.769 458.716 255.068 469.532C250.869 489.834 234.198 493.645 210.349 485.476C232.963 461.904 240.259 460.983 240.24 450.78Z" fill="#E8AF85"/>
<path d="M190.966 274.896C181.045 286.653 175.825 306.013 174.449 313.935C180.234 314.393 186.568 313.492 188.28 312.493C187.618 302.804 205.026 275.182 213.808 262.293C224.057 244.061 213.703 229.374 207.245 224.31C216.932 245.826 200.429 266.999 190.966 274.896Z" fill="#E8AF85"/>
<g filter="url(#filter23_d_190_1420)">
<path d="M250.024 365.504C226.295 379.858 206.256 362.369 198.319 350.982L200.47 371.152C216.671 394.843 240.716 390.148 251.561 383.955L250.024 365.504Z" fill="#A7A7A7"/>
</g>
<path d="M250.709 370.688C223.297 385.696 207.314 366.967 199.04 357.898L199.845 368.855C220.972 391.373 240.463 384.846 251.284 381.223L251.491 381.153L250.709 370.688Z" fill="#DBDBDB"/>
<ellipse cx="217.303" cy="380.014" rx="8.59789" ry="10.1292" transform="rotate(-58.0926 217.303 380.014)" fill="#AE0097"/>
<ellipse cx="215.204" cy="379.691" rx="5.7266" ry="6.74656" transform="rotate(-58.0926 215.204 379.691)" fill="#FF8BFD"/>
<ellipse cx="213.164" cy="384.177" rx="2.51507" ry="3.53682" transform="rotate(-58.0926 213.164 384.177)" fill="#FFCECE"/>
<path d="M223.91 387.416L229.635 384.987L228.878 376.339L224.224 374.703L221.337 374.763C224.176 377.938 224.243 384.906 223.91 387.416Z" fill="#D9D9D9"/>
<path d="M217.212 370.805C215.488 371.226 211.925 372.07 211.463 372.079C210.543 372.245 208.818 374.505 208.071 375.615L207.29 365.813L217.212 370.805Z" fill="#D9D9D9"/>
<g filter="url(#filter24_d_190_1420)">
<path d="M132.914 338.245L132.994 312.211C132.315 312.522 135 305.975 126.744 301.391C125.493 304.203 125.888 305.773 125.381 305.932C102.541 313.113 83.0972 300.974 74.0678 289.306C73.125 288.087 66.3187 296.806 65.6355 295.704L68.2551 321.334C84.9764 343.825 120.673 343.503 132.914 338.245Z" fill="#F90000"/>
</g>
<path d="M69.9661 316.679L62.2575 307.02L61.9583 292.587L73.3371 284.265L82.7777 293.888L82.8734 298.507L73.8039 306.781L72.8168 314.887L69.9661 316.679Z" fill="#682A2A"/>
<path d="M64.2528 319.685L67.6808 317.881L74.151 323.523L74.0672 319.482L82.2933 326.242L82.4489 333.747L77.3128 336.741C73.1466 336.366 67.7197 329.047 65.5271 325.434L64.2528 319.685Z" fill="#682A2A"/>
<path d="M87.9635 337.417L90.134 334.209L93.6968 335.16L96.5195 332.605L106.963 334.681L110.643 341.224L107.528 346.288C103.678 347.924 95.4392 344.034 91.801 341.884L87.9635 337.417Z" fill="#682A2A"/>
<path d="M113.002 343.158L113.245 339.292L116.798 338.304L117.935 334.671L127.988 331.163L134.478 334.936L134.363 340.88C131.874 344.242 122.8 345.068 118.575 345.061L113.002 343.158Z" fill="#682A2A"/>
<path d="M94.1838 329.477L83.8787 322.657L79.156 309.015L87.4247 297.597L99.3668 303.851L100.878 308.217L94.792 318.879L96.3454 326.896L94.1838 329.477Z" fill="#682A2A"/>
<path d="M124.997 331.429L113.035 332.535L101.942 320.798L103.651 306.805L117.128 306.497L124.44 304.576L128.347 318.934L125.639 328.124L124.997 331.429Z" fill="#682A2A"/>
<path d="M133.558 310.046L129.049 310.463L124.867 306.038L125.511 300.763L130.592 300.647L133.348 299.922L134.821 305.335L133.8 308.8L133.558 310.046Z" fill="#682A2A"/>
<g filter="url(#filter25_d_190_1420)">
<path d="M72.3711 321.249C71.938 322.644 69.4327 318.807 68.2342 316.715L70.5674 317.821L73.9954 316.018L77.3396 310.173L78.6857 319.386L84.5666 324.462L92.2273 331.811L97.9287 328.228L97.809 322.455L101.105 314.3L101.309 324.115L113.059 333.69L119.409 333.558L115.404 335.374L112 338.332L109.595 333.762L97.9766 330.537L93.4179 333.519L89.3767 333.603L85.2995 331.955L82.2574 324.51L73.454 317.762L72.3711 321.249Z" fill="#FF9C67"/>
</g>
<g filter="url(#filter26_d_190_1420)">
<path d="M199.211 338.257L197.602 316.343C196.897 316.712 203.219 308.718 193.898 304.868L194.018 310.641C170.033 319.78 142.176 308.918 131.38 298.078C130.253 296.947 128.236 302.087 127.399 301.049L131.955 325.79C152.027 346.744 186.484 344.559 199.211 338.257Z" fill="#F7A800"/>
</g>
<path d="M197.012 315.778C157.381 326.418 137.986 310.263 127.399 301.049L131.368 297.501C151.669 318.335 183.521 315.095 194.018 310.641L193.898 304.868C200.412 307.044 197.153 313.272 197.012 315.778Z" fill="#9F7000"/>
<g filter="url(#filter27_d_190_1420)">
<path d="M176.118 364.726C165.046 360.583 142.717 352.081 141.978 351.218L139.916 306.414L153.736 310.666L146.27 278.163L179.439 339.136L152.818 324.069L176.118 364.726Z" fill="#FFF954"/>
</g>
</g>
<defs>
<filter id="filter0_d_190_1420" x="165.3" y="-23.7" width="347.99" height="521.259" filterUnits="userSpaceOnUse" color-interpolation-filters="sRGB">
<feFlood flood-opacity="0" result="BackgroundImageFix"/>
<feColorMatrix in="SourceAlpha" type="matrix" values="0 0 0 0 0 0 0 0 0 0 0 0 0 0 0 0 0 0 127 0" result="hardAlpha"/>
<feOffset dy="4"/>
<feGaussianBlur stdDeviation="13.35"/>
<feComposite in2="hardAlpha" operator="out"/>
<feColorMatrix type="matrix" values="0 0 0 0 0 0 0 0 0 0 0 0 0 0 0 0 0 0 0.25 0"/>
<feBlend mode="normal" in2="BackgroundImageFix" result="effect1_dropShadow_190_1420"/>
<feBlend mode="normal" in="SourceGraphic" in2="effect1_dropShadow_190_1420" result="shape"/>
</filter>
<filter id="filter1_i_190_1420" x="291.869" y="148" width="106" height="281" filterUnits="userSpaceOnUse" color-interpolation-filters="sRGB">
<feFlood flood-opacity="0" result="BackgroundImageFix"/>
<feBlend mode="normal" in="SourceGraphic" in2="BackgroundImageFix" result="shape"/>
<feColorMatrix in="SourceAlpha" type="matrix" values="0 0 0 0 0 0 0 0 0 0 0 0 0 0 0 0 0 0 127 0" result="hardAlpha"/>
<feOffset dy="4"/>
<feGaussianBlur stdDeviation="13.15"/>
<feComposite in2="hardAlpha" operator="arithmetic" k2="-1" k3="1"/>
<feColorMatrix type="matrix" values="0 0 0 0 0 0 0 0 0 0 0 0 0 0 0 0 0 0 0.25 0"/>
<feBlend mode="normal" in2="shape" result="effect1_innerShadow_190_1420"/>
</filter>
<filter id="filter2_d_190_1420" x="189.369" y="47" width="299.391" height="261.5" filterUnits="userSpaceOnUse" color-interpolation-filters="sRGB">
<feFlood flood-opacity="0" result="BackgroundImageFix"/>
<feColorMatrix in="SourceAlpha" type="matrix" values="0 0 0 0 0 0 0 0 0 0 0 0 0 0 0 0 0 0 127 0" result="hardAlpha"/>
<feOffset dy="4"/>
<feGaussianBlur stdDeviation="1.75"/>
<feComposite in2="hardAlpha" operator="out"/>
<feColorMatrix type="matrix" values="0 0 0 0 0 0 0 0 0 0 0 0 0 0 0 0 0 0 0.25 0"/>
<feBlend mode="normal" in2="BackgroundImageFix" result="effect1_dropShadow_190_1420"/>
<feBlend mode="normal" in="SourceGraphic" in2="effect1_dropShadow_190_1420" result="shape"/>
</filter>
<filter id="filter3_d_190_1420" x="275.146" y="338" width="148.998" height="136.5" filterUnits="userSpaceOnUse" color-interpolation-filters="sRGB">
<feFlood flood-opacity="0" result="BackgroundImageFix"/>
<feColorMatrix in="SourceAlpha" type="matrix" values="0 0 0 0 0 0 0 0 0 0 0 0 0 0 0 0 0 0 127 0" result="hardAlpha"/>
<feOffset dy="4"/>
<feGaussianBlur stdDeviation="2.75"/>
<feComposite in2="hardAlpha" operator="out"/>
<feColorMatrix type="matrix" values="0 0 0 0 0 0 0 0 0 0 0 0 0 0 0 0 0 0 0.25 0"/>
<feBlend mode="normal" in2="BackgroundImageFix" result="effect1_dropShadow_190_1420"/>
<feBlend mode="normal" in="SourceGraphic" in2="effect1_dropShadow_190_1420" result="shape"/>
</filter>
<filter id="filter4_d_190_1420" x="272.24" y="45.6703" width="142.259" height="22.543" filterUnits="userSpaceOnUse" color-interpolation-filters="sRGB">
<feFlood flood-opacity="0" result="BackgroundImageFix"/>
<feColorMatrix in="SourceAlpha" type="matrix" values="0 0 0 0 0 0 0 0 0 0 0 0 0 0 0 0 0 0 127 0" result="hardAlpha"/>
<feOffset dy="4"/>
<feGaussianBlur stdDeviation="2"/>
<feComposite in2="hardAlpha" operator="out"/>
<feColorMatrix type="matrix" values="0 0 0 0 0 0 0 0 0 0 0 0 0 0 0 0 0 0 0.25 0"/>
<feBlend mode="normal" in2="BackgroundImageFix" result="effect1_dropShadow_190_1420"/>
<feBlend mode="normal" in="SourceGraphic" in2="effect1_dropShadow_190_1420" result="shape"/>
</filter>
<filter id="filter5_d_190_1420" x="275.869" y="27.7661" width="135.854" height="30.5125" filterUnits="userSpaceOnUse" color-interpolation-filters="sRGB">
<feFlood flood-opacity="0" result="BackgroundImageFix"/>
<feColorMatrix in="SourceAlpha" type="matrix" values="0 0 0 0 0 0 0 0 0 0 0 0 0 0 0 0 0 0 127 0" result="hardAlpha"/>
<feOffset dy="4"/>
<feGaussianBlur stdDeviation="2"/>
<feComposite in2="hardAlpha" operator="out"/>
<feColorMatrix type="matrix" values="0 0 0 0 0 0 0 0 0 0 0 0 0 0 0 0 0 0 0.25 0"/>
<feBlend mode="normal" in2="BackgroundImageFix" result="effect1_dropShadow_190_1420"/>
<feBlend mode="normal" in="SourceGraphic" in2="effect1_dropShadow_190_1420" result="shape"/>
</filter>
<filter id="filter6_d_190_1420" x="274.869" y="55" width="139.099" height="29.5" filterUnits="userSpaceOnUse" color-interpolation-filters="sRGB">
<feFlood flood-opacity="0" result="BackgroundImageFix"/>
<feColorMatrix in="SourceAlpha" type="matrix" values="0 0 0 0 0 0 0 0 0 0 0 0 0 0 0 0 0 0 127 0" result="hardAlpha"/>
<feOffset dy="4"/>
<feGaussianBlur stdDeviation="2"/>
<feComposite in2="hardAlpha" operator="out"/>
<feColorMatrix type="matrix" values="0 0 0 0 0 0 0 0 0 0 0 0 0 0 0 0 0 0 0.25 0"/>
<feBlend mode="normal" in2="BackgroundImageFix" result="effect1_dropShadow_190_1420"/>
<feBlend mode="normal" in="SourceGraphic" in2="effect1_dropShadow_190_1420" result="shape"/>
</filter>
<filter id="filter7_d_190_1420" x="480.121" y="311.081" width="75.1622" height="51.6321" filterUnits="userSpaceOnUse" color-interpolation-filters="sRGB">
<feFlood flood-opacity="0" result="BackgroundImageFix"/>
<feColorMatrix in="SourceAlpha" type="matrix" values="0 0 0 0 0 0 0 0 0 0 0 0 0 0 0 0 0 0 127 0" result="hardAlpha"/>
<feOffset dx="-3.53948" dy="-1.17983"/>
<feGaussianBlur stdDeviation="2.35965"/>
<feComposite in2="hardAlpha" operator="out"/>
<feColorMatrix type="matrix" values="0 0 0 0 0 0 0 0 0 0 0 0 0 0 0 0 0 0 0.25 0"/>
<feBlend mode="normal" in2="BackgroundImageFix" result="effect1_dropShadow_190_1420"/>
<feBlend mode="normal" in="SourceGraphic" in2="effect1_dropShadow_190_1420" result="shape"/>
</filter>
<filter id="filter8_d_190_1420" x="509.291" y="318.577" width="46.4506" height="63.5695" filterUnits="userSpaceOnUse" color-interpolation-filters="sRGB">
<feFlood flood-opacity="0" result="BackgroundImageFix"/>
<feColorMatrix in="SourceAlpha" type="matrix" values="0 0 0 0 0 0 0 0 0 0 0 0 0 0 0 0 0 0 127 0" result="hardAlpha"/>
<feOffset dy="4.7193"/>
<feGaussianBlur stdDeviation="2.35965"/>
<feComposite in2="hardAlpha" operator="out"/>
<feColorMatrix type="matrix" values="0 0 0 0 0 0 0 0 0 0 0 0 0 0 0 0 0 0 0.25 0"/>
<feBlend mode="normal" in2="BackgroundImageFix" result="effect1_dropShadow_190_1420"/>
<feBlend mode="normal" in="SourceGraphic" in2="effect1_dropShadow_190_1420" result="shape"/>
</filter>
<filter id="filter9_d_190_1420" x="429.264" y="329.571" width="67.4935" height="51.6647" filterUnits="userSpaceOnUse" color-interpolation-filters="sRGB">
<feFlood flood-opacity="0" result="BackgroundImageFix"/>
<feColorMatrix in="SourceAlpha" type="matrix" values="0 0 0 0 0 0 0 0 0 0 0 0 0 0 0 0 0 0 127 0" result="hardAlpha"/>
<feOffset dx="-3.53948" dy="-1.17983"/>
<feGaussianBlur stdDeviation="2.35965"/>
<feComposite in2="hardAlpha" operator="out"/>
<feColorMatrix type="matrix" values="0 0 0 0 0 0 0 0 0 0 0 0 0 0 0 0 0 0 0.25 0"/>
<feBlend mode="normal" in2="BackgroundImageFix" result="effect1_dropShadow_190_1420"/>
<feBlend mode="normal" in="SourceGraphic" in2="effect1_dropShadow_190_1420" result="shape"/>
</filter>
<filter id="filter10_d_190_1420" x="460.577" y="303.463" width="38.9247" height="107.713" filterUnits="userSpaceOnUse" color-interpolation-filters="sRGB">
<feFlood flood-opacity="0" result="BackgroundImageFix"/>
<feColorMatrix in="SourceAlpha" type="matrix" values="0 0 0 0 0 0 0 0 0 0 0 0 0 0 0 0 0 0 127 0" result="hardAlpha"/>
<feOffset dx="-4.7193" dy="3.53948"/>
<feGaussianBlur stdDeviation="2.35965"/>
<feComposite in2="hardAlpha" operator="out"/>
<feColorMatrix type="matrix" values="0 0 0 0 0 0 0 0 0 0 0 0 0 0 0 0 0 0 0.25 0"/>
<feBlend mode="normal" in2="BackgroundImageFix" result="effect1_dropShadow_190_1420"/>
<feBlend mode="normal" in="SourceGraphic" in2="effect1_dropShadow_190_1420" result="shape"/>
</filter>
<filter id="filter11_d_190_1420" x="459.914" y="337.252" width="45.5477" height="45.5978" filterUnits="userSpaceOnUse" color-interpolation-filters="sRGB">
<feFlood flood-opacity="0" result="BackgroundImageFix"/>
<feColorMatrix in="SourceAlpha" type="matrix" values="0 0 0 0 0 0 0 0 0 0 0 0 0 0 0 0 0 0 127 0" result="hardAlpha"/>
<feOffset dx="-3.53948" dy="-1.17983"/>
<feGaussianBlur stdDeviation="2.35965"/>
<feComposite in2="hardAlpha" operator="out"/>
<feColorMatrix type="matrix" values="0 0 0 0 0 0 0 0 0 0 0 0 0 0 0 0 0 0 0.25 0"/>
<feBlend mode="normal" in2="BackgroundImageFix" result="effect1_dropShadow_190_1420"/>
<feBlend mode="normal" in="SourceGraphic" in2="effect1_dropShadow_190_1420" result="shape"/>
</filter>
<filter id="filter12_d_190_1420" x="661.266" y="254.045" width="20.0609" height="18.8772" filterUnits="userSpaceOnUse" color-interpolation-filters="sRGB">
<feFlood flood-opacity="0" result="BackgroundImageFix"/>
<feColorMatrix in="SourceAlpha" type="matrix" values="0 0 0 0 0 0 0 0 0 0 0 0 0 0 0 0 0 0 127 0" result="hardAlpha"/>
<feOffset dy="4.7193"/>
<feGaussianBlur stdDeviation="2.35965"/>
<feComposite in2="hardAlpha" operator="out"/>
<feColorMatrix type="matrix" values="0 0 0 0 0 0 0 0 0 0 0 0 0 0 0 0 0 0 0.25 0"/>
<feBlend mode="normal" in2="BackgroundImageFix" result="effect1_dropShadow_190_1420"/>
<feBlend mode="normal" in="SourceGraphic" in2="effect1_dropShadow_190_1420" result="shape"/>
</filter>
<filter id="filter13_d_190_1420" x="623.462" y="262.057" width="21.2401" height="17.6976" filterUnits="userSpaceOnUse" color-interpolation-filters="sRGB">
<feFlood flood-opacity="0" result="BackgroundImageFix"/>
<feColorMatrix in="SourceAlpha" type="matrix" values="0 0 0 0 0 0 0 0 0 0 0 0 0 0 0 0 0 0 127 0" result="hardAlpha"/>
<feOffset dy="4.7193"/>
<feGaussianBlur stdDeviation="2.35965"/>
<feComposite in2="hardAlpha" operator="out"/>
<feColorMatrix type="matrix" values="0 0 0 0 0 0 0 0 0 0 0 0 0 0 0 0 0 0 0.25 0"/>
<feBlend mode="normal" in2="BackgroundImageFix" result="effect1_dropShadow_190_1420"/>
<feBlend mode="normal" in="SourceGraphic" in2="effect1_dropShadow_190_1420" result="shape"/>
</filter>
<filter id="filter14_d_190_1420" x="637.588" y="266.859" width="17.7008" height="17.5795" filterUnits="userSpaceOnUse" color-interpolation-filters="sRGB">
<feFlood flood-opacity="0" result="BackgroundImageFix"/>
<feColorMatrix in="SourceAlpha" type="matrix" values="0 0 0 0 0 0 0 0 0 0 0 0 0 0 0 0 0 0 127 0" result="hardAlpha"/>
<feOffset dy="4.7193"/>
<feGaussianBlur stdDeviation="2.35965"/>
<feComposite in2="hardAlpha" operator="out"/>
<feColorMatrix type="matrix" values="0 0 0 0 0 0 0 0 0 0 0 0 0 0 0 0 0 0 0.25 0"/>
<feBlend mode="normal" in2="BackgroundImageFix" result="effect1_dropShadow_190_1420"/>
<feBlend mode="normal" in="SourceGraphic" in2="effect1_dropShadow_190_1420" result="shape"/>
</filter>
<filter id="filter15_d_190_1420" x="649.186" y="297.612" width="17.7003" height="16.5176" filterUnits="userSpaceOnUse" color-interpolation-filters="sRGB">
<feFlood flood-opacity="0" result="BackgroundImageFix"/>
<feColorMatrix in="SourceAlpha" type="matrix" values="0 0 0 0 0 0 0 0 0 0 0 0 0 0 0 0 0 0 127 0" result="hardAlpha"/>
<feOffset dy="4.7193"/>
<feGaussianBlur stdDeviation="2.35965"/>
<feComposite in2="hardAlpha" operator="out"/>
<feColorMatrix type="matrix" values="0 0 0 0 0 0 0 0 0 0 0 0 0 0 0 0 0 0 0.25 0"/>
<feBlend mode="normal" in2="BackgroundImageFix" result="effect1_dropShadow_190_1420"/>
<feBlend mode="normal" in="SourceGraphic" in2="effect1_dropShadow_190_1420" result="shape"/>
</filter>
<filter id="filter16_d_190_1420" x="600.873" y="257.031" width="77.4845" height="47.1852" filterUnits="userSpaceOnUse" color-interpolation-filters="sRGB">
<feFlood flood-opacity="0" result="BackgroundImageFix"/>
<feColorMatrix in="SourceAlpha" type="matrix" values="0 0 0 0 0 0 0 0 0 0 0 0 0 0 0 0 0 0 127 0" result="hardAlpha"/>
<feOffset dx="-4.7193" dy="-5.89913"/>
<feGaussianBlur stdDeviation="2.35965"/>
<feComposite in2="hardAlpha" operator="out"/>
<feColorMatrix type="matrix" values="0 0 0 0 0 0 0 0 0 0 0 0 0 0 0 0 0 0 0.25 0"/>
<feBlend mode="normal" in2="BackgroundImageFix" result="effect1_dropShadow_190_1420"/>
<feBlend mode="normal" in="SourceGraphic" in2="effect1_dropShadow_190_1420" result="shape"/>
</filter>
<filter id="filter17_d_190_1420" x="544.649" y="278.426" width="68.0731" height="50.0123" filterUnits="userSpaceOnUse" color-interpolation-filters="sRGB">
<feFlood flood-opacity="0" result="BackgroundImageFix"/>
<feColorMatrix in="SourceAlpha" type="matrix" values="0 0 0 0 0 0 0 0 0 0 0 0 0 0 0 0 0 0 127 0" result="hardAlpha"/>
<feOffset dx="-3.53948" dy="-1.17983"/>
<feGaussianBlur stdDeviation="2.35965"/>
<feComposite in2="hardAlpha" operator="out"/>
<feColorMatrix type="matrix" values="0 0 0 0 0 0 0 0 0 0 0 0 0 0 0 0 0 0 0.25 0"/>
<feBlend mode="normal" in2="BackgroundImageFix" result="effect1_dropShadow_190_1420"/>
<feBlend mode="normal" in="SourceGraphic" in2="effect1_dropShadow_190_1420" result="shape"/>
</filter>
<filter id="filter18_d_190_1420" x="585.671" y="299.577" width="44.8407" height="44.8407" filterUnits="userSpaceOnUse" color-interpolation-filters="sRGB">
<feFlood flood-opacity="0" result="BackgroundImageFix"/>
<feColorMatrix in="SourceAlpha" type="matrix" values="0 0 0 0 0 0 0 0 0 0 0 0 0 0 0 0 0 0 127 0" result="hardAlpha"/>
<feOffset dy="4.7193"/>
<feGaussianBlur stdDeviation="2.35965"/>
<feComposite in2="hardAlpha" operator="out"/>
<feColorMatrix type="matrix" values="0 0 0 0 0 0 0 0 0 0 0 0 0 0 0 0 0 0 0.25 0"/>
<feBlend mode="normal" in2="BackgroundImageFix" result="effect1_dropShadow_190_1420"/>
<feBlend mode="normal" in="SourceGraphic" in2="effect1_dropShadow_190_1420" result="shape"/>
</filter>
<filter id="filter19_d_190_1420" x="595.445" y="296.104" width="22.4" height="18.4197" filterUnits="userSpaceOnUse" color-interpolation-filters="sRGB">
<feFlood flood-opacity="0" result="BackgroundImageFix"/>
<feColorMatrix in="SourceAlpha" type="matrix" values="0 0 0 0 0 0 0 0 0 0 0 0 0 0 0 0 0 0 127 0" result="hardAlpha"/>
<feOffset dy="4.7193"/>
<feGaussianBlur stdDeviation="2.35965"/>
<feComposite in2="hardAlpha" operator="out"/>
<feColorMatrix type="matrix" values="0 0 0 0 0 0 0 0 0 0 0 0 0 0 0 0 0 0 0.25 0"/>
<feBlend mode="normal" in2="BackgroundImageFix" result="effect1_dropShadow_190_1420"/>
<feBlend mode="normal" in="SourceGraphic" in2="effect1_dropShadow_190_1420" result="shape"/>
</filter>
<filter id="filter20_d_190_1420" x="583.623" y="319.733" width="19.9357" height="22.0127" filterUnits="userSpaceOnUse" color-interpolation-filters="sRGB">
<feFlood flood-opacity="0" result="BackgroundImageFix"/>
<feColorMatrix in="SourceAlpha" type="matrix" values="0 0 0 0 0 0 0 0 0 0 0 0 0 0 0 0 0 0 127 0" result="hardAlpha"/>
<feOffset dy="4.7193"/>
<feGaussianBlur stdDeviation="2.35965"/>
<feComposite in2="hardAlpha" operator="out"/>
<feColorMatrix type="matrix" values="0 0 0 0 0 0 0 0 0 0 0 0 0 0 0 0 0 0 0.25 0"/>
<feBlend mode="normal" in2="BackgroundImageFix" result="effect1_dropShadow_190_1420"/>
<feBlend mode="normal" in="SourceGraphic" in2="effect1_dropShadow_190_1420" result="shape"/>
</filter>
<filter id="filter21_d_190_1420" x="584.298" y="308.843" width="21.5199" height="16.2011" filterUnits="userSpaceOnUse" color-interpolation-filters="sRGB">
<feFlood flood-opacity="0" result="BackgroundImageFix"/>
<feColorMatrix in="SourceAlpha" type="matrix" values="0 0 0 0 0 0 0 0 0 0 0 0 0 0 0 0 0 0 127 0" result="hardAlpha"/>
<feOffset dy="4.7193"/>
<feGaussianBlur stdDeviation="2.35965"/>
<feComposite in2="hardAlpha" operator="out"/>
<feColorMatrix type="matrix" values="0 0 0 0 0 0 0 0 0 0 0 0 0 0 0 0 0 0 0.25 0"/>
<feBlend mode="normal" in2="BackgroundImageFix" result="effect1_dropShadow_190_1420"/>
<feBlend mode="normal" in="SourceGraphic" in2="effect1_dropShadow_190_1420" result="shape"/>
</filter>
<filter id="filter22_d_190_1420" x="12.7627" y="238.882" width="64.1675" height="60.529" filterUnits="userSpaceOnUse" color-interpolation-filters="sRGB">
<feFlood flood-opacity="0" result="BackgroundImageFix"/>
<feColorMatrix in="SourceAlpha" type="matrix" values="0 0 0 0 0 0 0 0 0 0 0 0 0 0 0 0 0 0 127 0" result="hardAlpha"/>
<feOffset dx="-3.46465" dy="-1.15488"/>
<feGaussianBlur stdDeviation="2.30977"/>
<feComposite in2="hardAlpha" operator="out"/>
<feColorMatrix type="matrix" values="0 0 0 0 0 0 0 0 0 0 0 0 0 0 0 0 0 0 0.25 0"/>
<feBlend mode="normal" in2="BackgroundImageFix" result="effect1_dropShadow_190_1420"/>
<feBlend mode="normal" in="SourceGraphic" in2="effect1_dropShadow_190_1420" result="shape"/>
</filter>
<filter id="filter23_d_190_1420" x="190.235" y="345.208" width="62.481" height="47.2325" filterUnits="userSpaceOnUse" color-interpolation-filters="sRGB">
<feFlood flood-opacity="0" result="BackgroundImageFix"/>
<feColorMatrix in="SourceAlpha" type="matrix" values="0 0 0 0 0 0 0 0 0 0 0 0 0 0 0 0 0 0 127 0" result="hardAlpha"/>
<feOffset dx="-3.46465" dy="-1.15488"/>
<feGaussianBlur stdDeviation="2.30977"/>
<feComposite in2="hardAlpha" operator="out"/>
<feColorMatrix type="matrix" values="0 0 0 0 0 0 0 0 0 0 0 0 0 0 0 0 0 0 0.25 0"/>
<feBlend mode="normal" in2="BackgroundImageFix" result="effect1_dropShadow_190_1420"/>
<feBlend mode="normal" in="SourceGraphic" in2="effect1_dropShadow_190_1420" result="shape"/>
</filter>
<filter id="filter24_d_190_1420" x="57.5513" y="283.414" width="76.5972" height="61.2458" filterUnits="userSpaceOnUse" color-interpolation-filters="sRGB">
<feFlood flood-opacity="0" result="BackgroundImageFix"/>
<feColorMatrix in="SourceAlpha" type="matrix" values="0 0 0 0 0 0 0 0 0 0 0 0 0 0 0 0 0 0 127 0" result="hardAlpha"/>
<feOffset dx="-3.46465" dy="-1.15488"/>
<feGaussianBlur stdDeviation="2.30977"/>
<feComposite in2="hardAlpha" operator="out"/>
<feColorMatrix type="matrix" values="0 0 0 0 0 0 0 0 0 0 0 0 0 0 0 0 0 0 0.25 0"/>
<feBlend mode="normal" in2="BackgroundImageFix" result="effect1_dropShadow_190_1420"/>
<feBlend mode="normal" in="SourceGraphic" in2="effect1_dropShadow_190_1420" result="shape"/>
</filter>
<filter id="filter25_d_190_1420" x="66.9638" y="305.438" width="60.6451" height="37.6298" filterUnits="userSpaceOnUse" color-interpolation-filters="sRGB">
<feFlood flood-opacity="0" result="BackgroundImageFix"/>
<feColorMatrix in="SourceAlpha" type="matrix" values="0 0 0 0 0 0 0 0 0 0 0 0 0 0 0 0 0 0 127 0" result="hardAlpha"/>
<feOffset dx="3.46465"/>
<feGaussianBlur stdDeviation="2.36751"/>
<feComposite in2="hardAlpha" operator="out"/>
<feColorMatrix type="matrix" values="0 0 0 0 1 0 0 0 0 0.0416667 0 0 0 0 0.0416667 0 0 0 0.86 0"/>
<feBlend mode="normal" in2="BackgroundImageFix" result="effect1_dropShadow_190_1420"/>
<feBlend mode="normal" in="SourceGraphic" in2="effect1_dropShadow_190_1420" result="shape"/>
</filter>
<filter id="filter26_d_190_1420" x="119.315" y="292.14" width="81.0508" height="53.9501" filterUnits="userSpaceOnUse" color-interpolation-filters="sRGB">
<feFlood flood-opacity="0" result="BackgroundImageFix"/>
<feColorMatrix in="SourceAlpha" type="matrix" values="0 0 0 0 0 0 0 0 0 0 0 0 0 0 0 0 0 0 127 0" result="hardAlpha"/>
<feOffset dx="-3.46465" dy="-1.15488"/>
<feGaussianBlur stdDeviation="2.30977"/>
<feComposite in2="hardAlpha" operator="out"/>
<feColorMatrix type="matrix" values="0 0 0 0 0 0 0 0 0 0 0 0 0 0 0 0 0 0 0.25 0"/>
<feBlend mode="normal" in2="BackgroundImageFix" result="effect1_dropShadow_190_1420"/>
<feBlend mode="normal" in="SourceGraphic" in2="effect1_dropShadow_190_1420" result="shape"/>
</filter>
<filter id="filter27_d_190_1420" x="135.296" y="278.163" width="48.7628" height="95.8028" filterUnits="userSpaceOnUse" color-interpolation-filters="sRGB">
<feFlood flood-opacity="0" result="BackgroundImageFix"/>
<feColorMatrix in="SourceAlpha" type="matrix" values="0 0 0 0 0 0 0 0 0 0 0 0 0 0 0 0 0 0 127 0" result="hardAlpha"/>
<feOffset dy="4.61953"/>
<feGaussianBlur stdDeviation="2.30977"/>
<feComposite in2="hardAlpha" operator="out"/>
<feColorMatrix type="matrix" values="0 0 0 0 0.933334 0 0 0 0 1 0 0 0 0 0 0 0 0 0.25 0"/>
<feBlend mode="normal" in2="BackgroundImageFix" result="effect1_dropShadow_190_1420"/>
<feBlend mode="normal" in="SourceGraphic" in2="effect1_dropShadow_190_1420" result="shape"/>
</filter>
</defs>
</svg>
