<svg width="333" height="272" viewBox="0 0 333 272" fill="none" xmlns="http://www.w3.org/2000/svg">
<mask id="mask0_147_44" style="mask-type:alpha" maskUnits="userSpaceOnUse" x="0" y="0" width="333" height="272">
<rect width="333" height="272" fill="#D9D9D9"/>
</mask>
<g mask="url(#mask0_147_44)">
<path d="M308.54 99.0044C241.238 -0.90651 285.828 65.8508 175.076 99.0045C105.189 93.1424 113.444 54.0001 83.7023 82.3951C60.282 104.755 114.019 155.864 181.158 240.514C248.297 325.163 375.842 198.915 308.54 99.0044Z" fill="#FDCAA5"/>
<circle cx="28.5594" cy="28.5594" r="28.5594" transform="matrix(0.687044 0.726616 0.726616 -0.687044 27.7324 65.0112)" fill="#FDCAA5"/>
<circle cx="28.5594" cy="28.5594" r="28.5594" transform="matrix(0.687044 0.726616 0.726616 -0.687044 75.8945 115.947)" fill="#FDCAA5"/>
<rect width="70.1003" height="57.1187" transform="matrix(0.687044 0.726616 0.726616 -0.687044 47.354 85.7629)" fill="#FDCAA5"/>
<circle cx="28.5594" cy="28.5594" r="28.5594" transform="matrix(0.72115 0.692779 0.692779 -0.72115 -9.5896 31.9369)" fill="#FDCAA5"/>
<circle cx="28.5594" cy="28.5594" r="28.5594" transform="matrix(0.72115 0.692779 0.692779 -0.72115 40.9631 80.5009)" fill="#FDCAA5"/>
<rect width="70.1003" height="57.1187" transform="matrix(0.72115 0.692779 0.692779 -0.72115 11.0059 51.7222)" fill="#FDCAA5"/>
<path d="M54.4546 94.2353C81.1008 99.5731 168.688 187.182 152.232 189.723C135.777 192.263 84.5404 128.051 54.4546 94.2353Z" fill="#E2A97F"/>
<ellipse cx="21.5271" cy="28.5594" rx="21.5271" ry="28.5594" transform="matrix(0.68421 0.729285 0.729285 -0.68421 87.9744 59.9464)" fill="#FDCAA5"/>
<ellipse cx="21.5271" cy="28.5594" rx="21.5271" ry="28.5594" transform="matrix(0.68421 0.729285 0.729285 -0.68421 124.127 98.481)" fill="#FDCAA5"/>
<rect width="52.8392" height="57.1187" transform="matrix(0.68421 0.729285 0.729285 -0.68421 102.703 75.6456)" fill="#FDCAA5"/>
<path d="M116.091 73.8311C132.738 77.4832 159.019 96.0886 164.372 113.587C170.499 133.614 134.021 94.8801 116.091 73.8311Z" fill="#E2A97F"/>
<ellipse cx="23.6448" cy="28.5617" rx="23.6448" ry="28.5617" transform="matrix(0.670526 0.741886 0.745272 -0.666761 131.839 42.6416)" fill="#FDCAA5"/>
<ellipse cx="23.6448" cy="28.5617" rx="23.6448" ry="28.5617" transform="matrix(0.670526 0.741886 0.745272 -0.666761 170.754 85.699)" fill="#FDCAA5"/>
<rect width="58.0373" height="57.1234" transform="matrix(0.670526 0.741886 0.745272 -0.666761 147.693 60.1834)" fill="#FDCAA5"/>
<ellipse cx="24.7775" cy="26.3389" rx="24.7775" ry="26.3389" transform="matrix(0.694092 0.719886 0.718695 -0.695326 178.781 29.8105)" fill="#FDCAA5"/>
<ellipse cx="24.7775" cy="26.3389" rx="24.7775" ry="26.3389" transform="matrix(0.69412 0.719859 0.718731 -0.695288 220.996 73.5906)" fill="#FDCAA5"/>
<rect width="60.8174" height="52.6779" transform="matrix(0.69412 0.719859 0.718731 -0.695288 195.98 47.6473)" fill="#FDCAA5"/>
<ellipse cx="36.2248" cy="30.9376" rx="36.2248" ry="30.9376" transform="matrix(0.95871 0.284386 0.27985 -0.960044 87.6833 230.043)" fill="#FDCAA5"/>
<ellipse cx="36.2248" cy="30.9376" rx="36.2248" ry="30.9376" transform="matrix(0.958757 0.284224 0.280186 -0.959944 172.932 255.315)" fill="#FDCAA5"/>
<rect width="88.9153" height="61.8751" transform="matrix(0.958757 0.284224 0.280186 -0.959944 122.415 240.34)" fill="#FDCAA5"/>
<ellipse cx="23.7184" cy="30.3178" rx="23.7184" ry="30.3178" transform="matrix(-0.914559 -0.404454 -0.403478 0.91499 155.706 188.237)" fill="#FDCAA5"/>
<ellipse cx="23.7184" cy="30.3178" rx="23.7184" ry="30.3178" transform="matrix(-0.914579 -0.404409 -0.403516 0.914973 102.461 164.693)" fill="#FDCAA5"/>
<rect width="58.218" height="60.6356" transform="matrix(-0.914579 -0.404409 -0.403516 0.914973 134.014 178.644)" fill="#FDCAA5"/>
<path d="M153.376 45.1456C170.023 48.7978 196.303 67.4031 201.657 84.9018C207.783 104.928 171.305 66.1947 153.376 45.1456Z" fill="#E2A97F"/>
<path d="M191.208 26.4451C207.855 30.0972 234.136 48.7026 239.489 66.2012C245.616 86.2278 209.138 47.4941 191.208 26.4451Z" fill="#E2A97F"/>
</g>
</svg>
