<svg width="720" height="541" viewBox="0 0 720 541" fill="none" xmlns="http://www.w3.org/2000/svg">
<path fill-rule="evenodd" clip-rule="evenodd" d="M314.883 10.1477L314.446 58.4283C307 58.3609 301.55 69.1706 299.756 74.5839C288.147 71.6864 277.179 62.3567 273.145 58.0541L268.926 74.3046C244.241 76.4078 238.246 57.5438 238.333 47.8489C222.016 50.9588 227.904 64.6249 232.887 71.0693C196.162 66.5479 224.73 136.732 243.604 172.389C253.157 188.183 277.478 221.912 298.343 230.478C319.208 239.044 316.563 252.749 312.632 258.531L321.971 255.125L321.729 281.883L312.49 274.237C315.339 280.856 320.304 297.81 317.377 312.676C314.45 327.542 315.972 339.424 317.098 343.506L304.935 337.578C298.98 378.479 324.249 388.947 337.628 389.068L343.921 400.76L369.744 439.97L384.64 401.129C396.282 400.303 399.256 393.117 399.287 389.627C426.362 380.564 431.068 349.193 430.036 334.64L421.274 338.633C420.361 332.419 417.499 318.703 413.357 313.546C409.215 308.389 411.842 288.129 413.673 278.644L407.195 287.312L407.506 252.992L413.958 247.233C414.114 230.015 434.438 212.708 444.58 206.207C500.752 170.415 504.411 109.016 499.219 82.7906C502.675 60.9485 491.161 51.8853 484.972 50.084C485.734 68.7066 466.164 71.2441 456.284 70.185L450.562 59.6618C429.918 78.0906 418.668 69.8441 415.624 63.4174L416.098 11.0649C387.863 -5.9451 336.857 3.36594 314.883 10.1477ZM450.766 111.569L469.596 87.8879C499.904 81.647 486.128 125.269 475.452 147.86C451.318 191.854 433.295 199.253 427.3 197.454C423.021 190.908 425.223 183.127 426.633 178.145C427.114 176.447 427.503 175.074 427.511 174.186C456.519 157.229 455.101 125.376 450.766 111.569ZM253.493 85.9295L271.891 109.948C267.306 123.674 265.311 155.497 294.007 172.976C293.999 173.864 294.363 175.244 294.813 176.951C296.132 181.957 298.193 189.777 293.797 196.244C287.77 197.935 269.884 190.21 246.551 145.786C236.286 123.005 223.303 79.1405 253.493 85.9295Z" fill="#D9D9D9"/>
<path d="M266.02 431.195C261.742 311.052 271.211 332.037 156.081 321.533C93.4117 290.051 115.657 256.803 77.4773 272.071C47.4115 284.093 70.4455 366.033 122.51 409.974C174.575 453.915 271.194 488.206 266.02 431.195Z" fill="#FDCAA5"/>
<circle cx="28.5594" cy="28.5594" r="28.5594" transform="matrix(0.366802 0.930299 0.930299 -0.366802 32.0162 235.083)" fill="#FDCAA5"/>
<circle cx="28.5594" cy="28.5594" r="28.5594" transform="matrix(0.366802 0.930299 0.930299 -0.366802 57.7291 300.297)" fill="#FDCAA5"/>
<rect width="70.1003" height="57.1187" transform="matrix(0.366802 0.930299 0.930299 -0.366802 42.4918 261.651)" fill="#FDCAA5"/>
<circle cx="28.5594" cy="28.5594" r="28.5594" transform="matrix(-0.276006 0.961156 0.961156 0.276006 67.3406 142.697)" fill="#FDCAA5"/>
<circle cx="28.5594" cy="28.5594" r="28.5594" transform="matrix(-0.276006 0.961156 0.961156 0.276006 47.9926 210.075)" fill="#FDCAA5"/>
<rect width="70.1003" height="57.1187" transform="matrix(-0.276006 0.961156 0.961156 0.276006 59.4581 170.147)" fill="#FDCAA5"/>
<path d="M115.223 179.554C99.0337 200.848 71.4544 250.439 90.6515 278.444C109.849 306.45 115.031 224.186 115.223 179.554Z" fill="#E2A97F"/>
<ellipse cx="25.3109" cy="28.2124" rx="25.3109" ry="28.2124" transform="matrix(-0.536243 0.844064 0.797117 0.603825 142.983 144.759)" fill="#FDCAA5"/>
<ellipse cx="25.3109" cy="28.2124" rx="25.3109" ry="28.2124" transform="matrix(-0.536243 0.844064 0.797117 0.603825 109.668 197.198)" fill="#FDCAA5"/>
<rect width="62.1266" height="56.4248" transform="matrix(-0.536243 0.844064 0.797117 0.603825 129.41 166.123)" fill="#FDCAA5"/>
<circle cx="28.5594" cy="28.5594" r="28.5594" transform="matrix(0.27869 0.960381 0.960381 -0.27869 84.3088 218.959)" fill="#FDCAA5"/>
<circle cx="28.5594" cy="28.5594" r="28.5594" transform="matrix(0.27869 0.960381 0.960381 -0.27869 103.845 286.282)" fill="#FDCAA5"/>
<rect width="70.1003" height="57.1187" transform="matrix(0.27869 0.960381 0.960381 -0.27869 92.268 246.386)" fill="#FDCAA5"/>
<path d="M149.571 239.054C142.579 257.722 133.466 298.699 152.948 313.262C172.43 327.825 158.814 269.858 149.571 239.054Z" fill="#E2A97F"/>
<circle cx="28.5594" cy="28.5594" r="28.5594" transform="matrix(0.27869 0.960381 0.960381 -0.27869 140.943 250.161)" fill="#FDCAA5"/>
<circle cx="28.5594" cy="28.5594" r="28.5594" transform="matrix(0.27869 0.960381 0.960381 -0.27869 160.479 317.484)" fill="#FDCAA5"/>
<rect width="70.1003" height="57.1187" transform="matrix(0.27869 0.960381 0.960381 -0.27869 148.902 277.589)" fill="#FDCAA5"/>
<ellipse cx="25.3109" cy="28.2124" rx="25.3109" ry="28.2124" transform="matrix(-0.536243 0.844064 0.797117 0.603825 198.316 180.79)" fill="#FDCAA5"/>
<ellipse cx="25.3109" cy="28.2124" rx="25.3109" ry="28.2124" transform="matrix(-0.536243 0.844064 0.797117 0.603825 165.001 233.229)" fill="#FDCAA5"/>
<rect width="62.1266" height="56.4248" transform="matrix(-0.536243 0.844064 0.797117 0.603825 184.744 202.154)" fill="#FDCAA5"/>
<path d="M206.534 272.279C200.952 288.986 194.35 327.15 212.602 346.152C230.854 365.154 216.162 304.821 206.534 272.279Z" fill="#E2A97F"/>
<circle cx="23.6965" cy="23.6965" r="23.6965" transform="matrix(0.0443518 0.999016 0.999016 -0.0443518 211.5 272.114)" fill="#FDCAA5"/>
<circle cx="23.6965" cy="23.6965" r="23.6965" transform="matrix(0.0443518 0.999016 0.999016 -0.0443518 214.08 330.221)" fill="#FDCAA5"/>
<rect width="58.1642" height="47.393" transform="matrix(0.0443518 0.999016 0.999016 -0.0443518 212.551 295.787)" fill="#FDCAA5"/>
<ellipse cx="16.5819" cy="23.6965" rx="16.5819" ry="23.6965" transform="matrix(-0.50967 0.86037 0.86037 0.50967 242.996 234.005)" fill="#FDCAA5"/>
<ellipse cx="16.5819" cy="23.6965" rx="16.5819" ry="23.6965" transform="matrix(-0.50967 0.86037 0.86037 0.50967 222.252 269.023)" fill="#FDCAA5"/>
<rect width="40.7011" height="47.393" transform="matrix(-0.50967 0.86037 0.86037 0.50967 234.545 248.271)" fill="#FDCAA5"/>
<path d="M456.382 429.594C459.711 309.421 450.409 330.479 565.452 319.067C627.871 287.092 605.363 254.021 643.663 268.987C673.823 280.772 651.436 362.891 599.72 407.241C548.004 451.592 451.658 486.644 456.382 429.594Z" fill="#FDCAA5"/>
<circle cx="651.914" cy="248.026" r="28.5594" transform="rotate(111.066 651.914 248.026)" fill="#FDCAA5"/>
<circle cx="626.717" cy="313.441" r="28.5594" transform="rotate(111.066 626.717 313.441)" fill="#FDCAA5"/>
<rect x="678.565" y="258.292" width="70.1003" height="57.1187" transform="rotate(111.066 678.565 258.292)" fill="#FDCAA5"/>
<circle cx="633.49" cy="175.023" r="28.5594" transform="rotate(73.5259 633.49 175.023)" fill="#FDCAA5"/>
<circle cx="653.369" cy="242.246" r="28.5594" transform="rotate(73.5259 653.369 242.246)" fill="#FDCAA5"/>
<rect x="660.877" y="166.924" width="70.1003" height="57.1187" transform="rotate(73.5259 660.877 166.924)" fill="#FDCAA5"/>
<path d="M605.188 176.77C621.545 197.936 649.515 247.308 630.539 275.464C611.564 303.62 605.732 221.4 605.188 176.77Z" fill="#E2A97F"/>
<ellipse cx="25.3109" cy="28.2124" rx="25.3109" ry="28.2124" transform="matrix(0.542887 0.839806 -0.792327 0.610097 577.154 142.196)" fill="#FDCAA5"/>
<ellipse cx="25.3109" cy="28.2124" rx="25.3109" ry="28.2124" transform="matrix(0.542887 0.839806 -0.792327 0.610097 610.882 194.37)" fill="#FDCAA5"/>
<rect width="62.1266" height="56.4248" transform="matrix(0.542887 0.839806 -0.792327 0.610097 590.895 163.452)" fill="#FDCAA5"/>
<circle cx="601.18" cy="235.677" r="28.5594" transform="rotate(105.73 601.18 235.677)" fill="#FDCAA5"/>
<circle cx="582.176" cy="303.152" r="28.5594" transform="rotate(105.73 582.176 303.152)" fill="#FDCAA5"/>
<rect x="628.67" y="243.42" width="70.1003" height="57.1187" transform="rotate(105.73 628.67 243.42)" fill="#FDCAA5"/>
<path d="M571.311 236.54C578.45 255.152 587.886 296.056 568.519 310.772C549.153 325.488 562.311 267.415 571.311 236.54Z" fill="#E2A97F"/>
<circle cx="544.794" cy="267.326" r="28.5594" transform="rotate(105.73 544.794 267.326)" fill="#FDCAA5"/>
<circle cx="525.79" cy="334.801" r="28.5594" transform="rotate(105.73 525.79 334.801)" fill="#FDCAA5"/>
<rect x="572.284" y="275.069" width="70.1003" height="57.1187" transform="rotate(105.73 572.284 275.069)" fill="#FDCAA5"/>
<ellipse cx="25.3109" cy="28.2124" rx="25.3109" ry="28.2124" transform="matrix(0.542887 0.839806 -0.792327 0.610097 522.107 178.662)" fill="#FDCAA5"/>
<ellipse cx="25.3109" cy="28.2124" rx="25.3109" ry="28.2124" transform="matrix(0.542887 0.839806 -0.792327 0.610097 555.835 230.837)" fill="#FDCAA5"/>
<rect width="62.1266" height="56.4248" transform="matrix(0.542887 0.839806 -0.792327 0.610097 535.848 199.919)" fill="#FDCAA5"/>
<path d="M514.612 270.213C520.326 286.875 527.228 324.986 509.127 344.132C491.025 363.278 505.241 302.83 514.612 270.213Z" fill="#E2A97F"/>
<circle cx="485.099" cy="292.904" r="23.6965" transform="rotate(92.0898 485.099 292.904)" fill="#FDCAA5"/>
<circle cx="482.978" cy="351.03" r="23.6965" transform="rotate(92.0898 482.978 351.03)" fill="#FDCAA5"/>
<rect x="508.78" y="293.768" width="58.1642" height="47.393" transform="rotate(92.0898 508.78 293.768)" fill="#FDCAA5"/>
<ellipse cx="466.121" cy="258.665" rx="16.5819" ry="23.6965" transform="rotate(58.906 466.121 258.665)" fill="#FDCAA5"/>
<ellipse cx="487.14" cy="293.519" rx="16.5819" ry="23.6965" transform="rotate(58.906 487.14 293.519)" fill="#FDCAA5"/>
<rect x="486.412" y="246.427" width="40.7011" height="47.393" transform="rotate(58.906 486.412 246.427)" fill="#FDCAA5"/>
</svg>
