<svg width="377" height="267" viewBox="0 0 377 267" fill="none" xmlns="http://www.w3.org/2000/svg">
<mask id="mask0_147_45" style="mask-type:alpha" maskUnits="userSpaceOnUse" x="0" y="0" width="377" height="267">
<rect width="377" height="267" fill="#D9D9D9"/>
</mask>
<g mask="url(#mask0_147_45)">
<path d="M341.893 79.8064C257.346 -6.00488 297 56.5 230.94 87.8682C176.726 110.746 154.748 142.858 149.105 156.102C143.461 169.346 161.167 171.509 242.743 242.35C324.32 313.191 426.44 165.618 341.893 79.8064Z" fill="#FDCAA5"/>
<circle cx="28.5594" cy="28.5594" r="28.5594" transform="matrix(0.973957 0.226732 0.226732 -0.973957 49.3884 136.97)" fill="#FDCAA5"/>
<circle cx="28.5594" cy="28.5594" r="28.5594" transform="matrix(0.973957 0.226732 0.226732 -0.973957 117.663 152.864)" fill="#FDCAA5"/>
<rect width="70.1003" height="57.1187" transform="matrix(0.973957 0.226732 0.226732 -0.973957 77.2041 143.445)" fill="#FDCAA5"/>
<circle cx="28.5594" cy="28.5594" r="28.5594" transform="matrix(0.983723 0.179693 0.179693 -0.983723 0.0114746 129.988)" fill="#FDCAA5"/>
<circle cx="28.5594" cy="28.5594" r="28.5594" transform="matrix(0.983723 0.179693 0.179693 -0.983723 68.9707 142.584)" fill="#FDCAA5"/>
<rect width="70.1003" height="57.1187" transform="matrix(0.983723 0.179693 0.179693 -0.983723 28.106 135.12)" fill="#FDCAA5"/>
<path d="M52.5 140C135 130 207.435 179.887 193.5 189C179.565 198.113 141.5 161.5 52.5 140Z" fill="#E2A97F"/>
<ellipse cx="21.5271" cy="28.5594" rx="21.5271" ry="28.5594" transform="matrix(0.806787 0.590842 0.590842 -0.806787 117.906 82.0264)" fill="#FDCAA5"/>
<ellipse cx="21.5271" cy="28.5594" rx="21.5271" ry="28.5594" transform="matrix(0.806787 0.590842 0.590842 -0.806787 160.536 113.246)" fill="#FDCAA5"/>
<rect width="52.8392" height="57.1187" transform="matrix(0.806787 0.590842 0.590842 -0.806787 135.274 94.7454)" fill="#FDCAA5"/>
<path d="M138 99.1807C154.032 95.1685 184.298 99.7916 195.755 112.432C208.867 126.899 161.874 109.466 138 99.1807Z" fill="#E2A97F"/>
<ellipse cx="23.6448" cy="28.5617" rx="23.6448" ry="28.5617" transform="matrix(0.795657 0.605747 0.609768 -0.79258 157.835 56.9413)" fill="#FDCAA5"/>
<ellipse cx="23.6448" cy="28.5617" rx="23.6448" ry="28.5617" transform="matrix(0.795657 0.605747 0.609768 -0.79258 204.012 92.0977)" fill="#FDCAA5"/>
<rect width="58.0373" height="57.1234" transform="matrix(0.795657 0.605747 0.609768 -0.79258 176.648 71.2642)" fill="#FDCAA5"/>
<ellipse cx="24.7775" cy="26.3389" rx="24.7775" ry="26.3389" transform="matrix(0.81477 0.579784 0.578386 -0.815763 201.612 35.6866)" fill="#FDCAA5"/>
<ellipse cx="24.7775" cy="26.3389" rx="24.7775" ry="26.3389" transform="matrix(0.814793 0.579752 0.578429 -0.815733 251.166 70.9459)" fill="#FDCAA5"/>
<rect width="60.8174" height="52.6779" transform="matrix(0.814793 0.579752 0.578429 -0.815733 221.801 50.0519)" fill="#FDCAA5"/>
<ellipse cx="36.2248" cy="30.9376" rx="36.2248" ry="30.9376" transform="matrix(0.994681 0.103008 0.0983038 -0.995157 148.938 249.269)" fill="#FDCAA5"/>
<ellipse cx="36.2248" cy="30.9376" rx="36.2248" ry="30.9376" transform="matrix(0.994697 0.10284 0.0986527 -0.995121 237.382 258.413)" fill="#FDCAA5"/>
<rect width="88.9153" height="61.8751" transform="matrix(0.994697 0.10284 0.0986527 -0.995121 184.972 252.995)" fill="#FDCAA5"/>
<ellipse cx="23.7184" cy="30.3178" rx="23.7184" ry="30.3178" transform="matrix(-0.973391 -0.229153 -0.228114 0.973635 208.101 195.653)" fill="#FDCAA5"/>
<ellipse cx="23.7184" cy="30.3178" rx="23.7184" ry="30.3178" transform="matrix(-0.973402 -0.229105 -0.228154 0.973625 151.432 182.315)" fill="#FDCAA5"/>
<rect width="58.218" height="60.6356" transform="matrix(-0.973402 -0.229105 -0.228154 0.973625 185.013 190.219)" fill="#FDCAA5"/>
<path d="M179.465 55.437C196.5 55.9617 225.757 69.4102 234.24 85.6241C243.949 104.18 200.964 72.825 179.465 55.437Z" fill="#E2A97F"/>
<path d="M213.207 30.0905C230.242 30.6152 259.499 44.0636 267.983 60.2775C277.692 78.8337 234.706 47.4785 213.207 30.0905Z" fill="#E2A97F"/>
</g>
</svg>
