<svg width="469" height="657" viewBox="0 0 469 657" fill="none" xmlns="http://www.w3.org/2000/svg">
<path d="M207.806 1.25472C166.514 4.39816 173.302 49.5672 181.857 71.7588L167.73 82.759L164.665 108.361L175.773 118.505C182.377 174.297 157.943 217.326 144.9 231.866C128.606 246.411 106.299 278.837 97.1823 293.232L89.3691 289.808C54.0425 411.148 151.67 446.66 204.899 449.248C347.834 450.712 345.756 343.515 331.547 289.502L326.439 295.58C319.058 271.877 289.78 244.124 276.064 233.21C244.482 207.922 239.765 146.651 241.355 119.177L249.865 109.233L250.128 83.6029L235.079 75.0902C258.076 19.1556 226.479 2.56046 207.806 1.25472Z" fill="#D9D9D9"/>
<path d="M384.488 481.268C317.338 381.551 336.469 394.357 233.193 446.31C163.354 452.721 164.659 412.739 140.323 445.884C121.159 471.984 184.032 529.358 251.457 539.129C318.881 548.9 419.022 526.924 384.488 481.268Z" fill="#FDCAA5"/>
<circle cx="28.5594" cy="28.5594" r="28.5594" transform="matrix(0.803193 0.595719 0.595719 -0.803193 82.1796 438.523)" fill="#FDCAA5"/>
<circle cx="28.5594" cy="28.5594" r="28.5594" transform="matrix(0.803193 0.595719 0.595719 -0.803193 138.484 480.283)" fill="#FDCAA5"/>
<rect width="70.1003" height="57.1187" transform="matrix(0.803193 0.595719 0.595719 -0.803193 105.118 455.537)" fill="#FDCAA5"/>
<circle cx="28.5594" cy="28.5594" r="28.5594" transform="matrix(0.273885 0.961762 0.961762 -0.273885 63.3192 341.429)" fill="#FDCAA5"/>
<circle cx="28.5594" cy="28.5594" r="28.5594" transform="matrix(0.273885 0.961762 0.961762 -0.273885 82.5186 408.849)" fill="#FDCAA5"/>
<rect width="70.1003" height="57.1187" transform="matrix(0.273885 0.961762 0.961762 -0.273885 71.1412 368.897)" fill="#FDCAA5"/>
<path d="M123.448 347.398C120.965 374.033 123.774 430.707 154.875 444.329C185.976 457.95 146.883 385.384 123.448 347.398Z" fill="#E2A97F"/>
<ellipse cx="25.3109" cy="28.2124" rx="25.3109" ry="28.2124" transform="matrix(-0.00891263 0.99996 0.995842 0.0910977 128.615 303.188)" fill="#FDCAA5"/>
<ellipse cx="25.3109" cy="28.2124" rx="25.3109" ry="28.2124" transform="matrix(-0.00891262 0.99996 0.995842 0.0910977 128.062 365.312)" fill="#FDCAA5"/>
<rect width="62.1266" height="56.4248" transform="matrix(-0.00891262 0.99996 0.995842 0.0910977 128.39 328.498)" fill="#FDCAA5"/>
<circle cx="28.5594" cy="28.5594" r="28.5594" transform="matrix(0.744307 0.667838 0.667838 -0.744307 118.041 397.19)" fill="#FDCAA5"/>
<circle cx="28.5594" cy="28.5594" r="28.5594" transform="matrix(0.744307 0.667838 0.667838 -0.744307 170.217 444.005)" fill="#FDCAA5"/>
<rect width="70.1003" height="57.1187" transform="matrix(0.744307 0.667838 0.667838 -0.744307 139.298 416.263)" fill="#FDCAA5"/>
<path d="M184.061 379.743C187.996 399.285 201.925 438.885 226.161 440.946C250.397 443.007 208.192 401.003 184.061 379.743Z" fill="#E2A97F"/>
<circle cx="28.5594" cy="28.5594" r="28.5594" transform="matrix(0.744307 0.667838 0.667838 -0.744307 182.609 393.733)" fill="#FDCAA5"/>
<circle cx="28.5594" cy="28.5594" r="28.5594" transform="matrix(0.744307 0.667838 0.667838 -0.744307 234.786 440.549)" fill="#FDCAA5"/>
<rect width="70.1003" height="57.1187" transform="matrix(0.744307 0.667838 0.667838 -0.744307 203.866 412.806)" fill="#FDCAA5"/>
<ellipse cx="25.3109" cy="28.2124" rx="25.3109" ry="28.2124" transform="matrix(-0.00891263 0.99996 0.995842 0.0910977 194.632 304.516)" fill="#FDCAA5"/>
<ellipse cx="25.3109" cy="28.2124" rx="25.3109" ry="28.2124" transform="matrix(-0.00891262 0.99996 0.995842 0.0910977 194.079 366.641)" fill="#FDCAA5"/>
<rect width="62.1266" height="56.4248" transform="matrix(-0.00891262 0.99996 0.995842 0.0910977 194.407 329.826)" fill="#FDCAA5"/>
<path d="M249.978 377.828C254.072 394.961 268.646 430.845 294.185 437.325C319.724 443.804 275.355 400.36 249.978 377.828Z" fill="#E2A97F"/>
<circle cx="23.6965" cy="23.6965" r="23.6965" transform="matrix(0.565825 0.824526 0.824526 -0.565825 254.106 375.062)" fill="#FDCAA5"/>
<circle cx="23.6965" cy="23.6965" r="23.6965" transform="matrix(0.565825 0.824526 0.824526 -0.565825 287.017 423.02)" fill="#FDCAA5"/>
<rect width="58.1642" height="47.393" transform="matrix(0.565825 0.824526 0.824526 -0.565825 267.514 394.601)" fill="#FDCAA5"/>
<ellipse cx="16.5819" cy="23.6965" rx="16.5819" ry="23.6965" transform="matrix(0.0222634 0.999752 0.999752 -0.0222634 260.691 326.063)" fill="#FDCAA5"/>
<ellipse cx="16.5819" cy="23.6965" rx="16.5819" ry="23.6965" transform="matrix(0.0222634 0.999752 0.999752 -0.0222634 261.598 366.754)" fill="#FDCAA5"/>
<rect width="40.7011" height="47.393" transform="matrix(0.0222634 0.999752 0.999752 -0.0222634 261.06 342.641)" fill="#FDCAA5"/>
</svg>
