<svg width="333" height="272" viewBox="0 0 333 272" fill="none" xmlns="http://www.w3.org/2000/svg">
<mask id="mask0_193_1801" style="mask-type:alpha" maskUnits="userSpaceOnUse" x="0" y="0" width="333" height="272">
<rect width="333" height="272" fill="#D9D9D9"/>
</mask>
<g mask="url(#mask0_193_1801)">
<path d="M308.54 99.0044C241.237 -0.906496 285.828 65.8508 175.075 99.0045C105.189 93.1424 113.443 54.0001 83.7021 82.3951C60.2817 104.755 114.019 155.864 181.158 240.514C248.296 325.163 375.842 198.915 308.54 99.0044Z" fill="#FDCAA5"/>
<circle cx="28.5594" cy="28.5594" r="28.5594" transform="matrix(0.687044 0.726616 0.726616 -0.687044 27.7324 65.0112)" fill="#FDCAA5"/>
<circle cx="28.5594" cy="28.5594" r="28.5594" transform="matrix(0.687044 0.726616 0.726616 -0.687044 75.8945 115.947)" fill="#FDCAA5"/>
<rect width="70.1003" height="57.1187" transform="matrix(0.687044 0.726616 0.726616 -0.687044 47.354 85.7629)" fill="#FDCAA5"/>
<circle cx="28.5594" cy="28.5594" r="28.5594" transform="matrix(0.72115 0.692779 0.692779 -0.72115 -9.58936 31.9369)" fill="#FDCAA5"/>
<circle cx="28.5594" cy="28.5594" r="28.5594" transform="matrix(0.72115 0.692779 0.692779 -0.72115 40.9634 80.5009)" fill="#FDCAA5"/>
<rect width="70.1003" height="57.1187" transform="matrix(0.72115 0.692779 0.692779 -0.72115 11.0063 51.7222)" fill="#FDCAA5"/>
<path d="M54.4546 94.2353C81.1008 99.5731 168.688 187.182 152.232 189.723C135.777 192.263 84.5404 128.051 54.4546 94.2353Z" fill="#E2A97F"/>
<ellipse cx="21.5271" cy="28.5594" rx="21.5271" ry="28.5594" transform="matrix(0.68421 0.729285 0.729285 -0.68421 87.9741 59.9464)" fill="#FDCAA5"/>
<ellipse cx="21.5271" cy="28.5594" rx="21.5271" ry="28.5594" transform="matrix(0.68421 0.729285 0.729285 -0.68421 124.127 98.481)" fill="#FDCAA5"/>
<rect width="52.8392" height="57.1187" transform="matrix(0.68421 0.729285 0.729285 -0.68421 102.703 75.6456)" fill="#FDCAA5"/>
<path d="M116.091 73.8311C132.738 77.4832 159.019 96.0886 164.372 113.587C170.499 133.614 134.021 94.8801 116.091 73.8311Z" fill="#E2A97F"/>
<ellipse cx="23.6448" cy="28.5617" rx="23.6448" ry="28.5617" transform="matrix(0.670526 0.741886 0.745272 -0.666761 131.838 42.6416)" fill="#FDCAA5"/>
<ellipse cx="23.6448" cy="28.5617" rx="23.6448" ry="28.5617" transform="matrix(0.670526 0.741886 0.745272 -0.666761 170.754 85.699)" fill="#FDCAA5"/>
<rect width="58.0373" height="57.1234" transform="matrix(0.670526 0.741886 0.745272 -0.666761 147.693 60.1834)" fill="#FDCAA5"/>
<ellipse cx="24.7775" cy="26.3389" rx="24.7775" ry="26.3389" transform="matrix(0.694092 0.719886 0.718695 -0.695326 178.781 29.8105)" fill="#FDCAA5"/>
<ellipse cx="24.7775" cy="26.3389" rx="24.7775" ry="26.3389" transform="matrix(0.69412 0.719859 0.718731 -0.695288 220.996 73.5906)" fill="#FDCAA5"/>
<rect width="60.8174" height="52.6779" transform="matrix(0.69412 0.719859 0.718731 -0.695288 195.98 47.6473)" fill="#FDCAA5"/>
<ellipse cx="36.2248" cy="30.9376" rx="36.2248" ry="30.9376" transform="matrix(0.95871 0.284386 0.27985 -0.960044 87.6831 230.043)" fill="#FDCAA5"/>
<ellipse cx="36.2248" cy="30.9376" rx="36.2248" ry="30.9376" transform="matrix(0.958757 0.284224 0.280186 -0.959944 172.932 255.315)" fill="#FDCAA5"/>
<rect width="88.9153" height="61.8751" transform="matrix(0.958757 0.284224 0.280186 -0.959944 122.415 240.34)" fill="#FDCAA5"/>
<ellipse cx="23.7184" cy="30.3178" rx="23.7184" ry="30.3178" transform="matrix(-0.914559 -0.404454 -0.403478 0.91499 155.706 188.237)" fill="#FDCAA5"/>
<ellipse cx="23.7184" cy="30.3178" rx="23.7184" ry="30.3178" transform="matrix(-0.914579 -0.404409 -0.403516 0.914973 102.461 164.693)" fill="#FDCAA5"/>
<rect width="58.218" height="60.6356" transform="matrix(-0.914579 -0.404409 -0.403516 0.914973 134.013 178.644)" fill="#FDCAA5"/>
<path d="M153.376 45.1456C170.023 48.7978 196.304 67.4031 201.657 84.9018C207.783 104.928 171.305 66.1947 153.376 45.1456Z" fill="#E2A97F"/>
<path d="M191.208 26.4451C207.855 30.0972 234.136 48.7026 239.489 66.2012C245.616 86.2278 209.138 47.4941 191.208 26.4451Z" fill="#E2A97F"/>
</g>
<g filter="url(#filter0_d_193_1801)">
<path d="M222.967 54.3293C245.202 54.2137 249.631 32.8685 249.224 21.2139L257.613 36.6316C258.66 60.7427 240.901 67.9273 230.917 68.2436L222.967 54.3293Z" fill="#A7A7A7"/>
</g>
<path d="M225.038 58.3499C249.961 57.087 251.178 36.6328 252.111 26.493L256.902 34.7088C254.208 60.1403 238.495 64.012 229.772 66.1614L229.605 66.2025L225.038 58.3499Z" fill="#DBDBDB"/>
<ellipse cx="7.23076" cy="8.16475" rx="7.23076" ry="8.16475" transform="matrix(-0.893797 -0.448472 -0.360429 0.932787 260.473 46.0057)" fill="#AE0097"/>
<ellipse cx="4.81603" cy="5.43811" rx="4.81603" ry="5.43811" transform="matrix(-0.893797 -0.448472 -0.360429 0.932787 258.527 46.3127)" fill="#FF8BFD"/>
<ellipse cx="2.11516" cy="2.85088" rx="2.11516" ry="2.85088" transform="matrix(-0.893797 -0.448472 -0.360429 0.932787 258.668 49.8386)" fill="#FFCECE"/>
<path d="M250.399 58.5903L245.535 59.3603L241.832 52.8226L244.037 49.6056L245.924 48.3815C245.636 51.9059 248.968 56.9355 250.399 58.5903Z" fill="#D9D9D9"/>
<path d="M246.663 43.7312C247.977 43.2764 250.681 42.3179 250.983 42.1221C251.655 41.8365 253.861 42.702 254.88 43.1704L250.633 35.7936L246.663 43.7312Z" fill="#D9D9D9"/>
<g filter="url(#filter1_d_193_1801)">
<path d="M195.552 91.7323L184.624 76.1665C185.222 76.0941 177.332 73.5781 180.519 66.7068L183.569 70.6683C202.055 65.8737 211.925 45.774 212.169 33.4975C212.194 32.2158 216.11 34.7708 216.022 33.6852L226.812 52.5124C226.792 75.8785 206.146 90.1712 195.552 91.7323Z" fill="#F7A800"/>
</g>
<path d="M184.652 75.5144C212.788 64.5749 215.019 44.7662 216.023 33.6853L210.991 36.2977C210.777 59.6871 191.905 68.8775 183.57 70.6684L180.519 66.7069C178.014 71.1603 183.22 73.8831 184.652 75.5144Z" fill="#9F7000"/>
<g filter="url(#filter2_d_193_1801)">
<path d="M222.895 99.0741C226.912 91.2026 234.934 75.2291 234.885 74.3067L211.849 43.0449L206.338 52.2475L193 26.8357L207.196 83.2774L214.097 60.8973L222.895 99.0741Z" fill="#FFF954"/>
</g>
<g filter="url(#filter3_d_193_1801)">
<path d="M125.415 90.6916L143.746 103.811C143.867 103.176 147.139 108.356 154.517 104.83C153.16 102.536 151.855 102.027 151.997 101.59C158.39 81.8697 176.713 74.2397 189.478 73.7229C190.811 73.669 188.073 64.491 189.194 64.5618L169.793 53.5495C145.531 54.0634 127.847 79.4152 125.415 90.6916Z" fill="#F90000"/>
</g>
<path d="M172.22 57.0928L182.904 56.4999L193.239 63.5311L193.402 75.7365L181.874 77.5697L178.567 75.3197L177.279 64.7679L172.054 60.0036L172.22 57.0928Z" fill="#682A2A"/>
<path d="M172.965 51.5526L172.518 54.8767L165.29 56.6116L168.184 58.5804L159.286 60.993L153.912 57.3368L154.376 52.2099C156.732 49.4585 164.62 49.3015 168.269 49.5669L172.965 51.5526Z" fill="#682A2A"/>
<path d="M148.554 59.3864L149.729 62.5279L147.271 64.565L147.657 67.8389L140.952 74.1663L134.488 73.4801L132.477 68.7413C133.255 65.2037 140.134 61.3417 143.477 59.8529L148.554 59.3864Z" fill="#682A2A"/>
<path d="M131.94 74.1749L134.546 76.2865L133.46 79.2891L135.453 81.9146L132.884 90.7688L126.965 93.4558L122.828 90.3917C121.705 86.9484 125.675 80.1307 127.8 77.1523L131.94 74.1749Z" fill="#682A2A"/>
<path d="M151.036 67.7602L161.02 63.9107L173.017 67.4234L176.924 78.9875L166.519 84.2765L162.68 83.1525L158.21 73.5078L151.773 70.5809L151.036 67.7602Z" fill="#682A2A"/>
<path d="M134.197 88.5242L139.419 79.5282L153.268 77.59L162.285 85.8176L155.74 95.4825L153.426 101.606L141.333 97.1587L136.207 90.6358L134.197 88.5242Z" fill="#682A2A"/>
<g filter="url(#filter4_d_193_1801)">
<path d="M167.788 56.4965C167.02 55.4908 170.985 55.6482 173.064 55.8527L171.112 56.9438L170.664 60.2679L173.111 65.5608L165.934 61.8876L159.401 63.4904L150.371 65.2083L150.038 71.0298L154.172 73.8423L158.273 80.2602L151.245 75.479L138.592 78.9657L135.498 83.5131L136.227 79.7756L135.847 75.8889L140.279 76.4853L148.385 69.9048L148.568 65.1914L150.537 62.2976L153.746 60.2475L160.526 61.8368L169.705 59.0108L167.788 56.4965Z" fill="#FF9C67"/>
</g>
<g filter="url(#filter5_d_193_1801)">
<path d="M82.0002 126.5C113.181 120.836 109.804 97.9665 109.932 83.0388L127.679 100.484C127.704 131.315 112.018 142.115 98.0002 145L82.0002 126.5Z" fill="#252524"/>
</g>
<path d="M139.662 86.7081C155.757 96.0193 151.378 114.758 151.418 115.336C143.55 143.889 125.706 144.163 123.342 134.493C118.365 114.142 104.554 110.765 98.2698 111.62C90.6141 109.574 93.5185 102.544 95.9278 99.2849L92.6362 96.3817L92.1989 93.6512L88.9073 90.7481C90.9974 78.1756 98.0109 72.4207 101.256 71.1148C103.618 70.9573 104.435 72.9846 104.548 74.018C106.389 73.4885 108.584 74.596 109.451 75.216C111.858 74.3 115.153 76.0701 116.5 77.0696C119.018 76.3206 122.076 76.6975 123.29 76.9796L124.671 79.0662L129.718 84.1036C129.718 84.1036 131.111 81.0331 134.005 81.7841C136.9 82.5351 139.662 86.7081 139.662 86.7081Z" fill="#D9D9D9"/>
<path d="M116.689 100.222C122.352 98.626 124.199 90.7023 124.415 86.9399C123.85 84.2481 118.835 86.8665 116.398 88.5122C106.615 96.7849 112.516 99.7654 116.689 100.222Z" fill="#8C8A8A"/>
<path d="M104.986 76.7484L105.67 74.161C105.638 73.6983 104.909 73.8729 104.548 74.018C104.41 76.293 100.631 73.9646 98.7593 72.516L97.0099 74.0126C98.8341 74.1813 102.243 74.9851 101.285 76.8501C100.328 78.715 96.5822 77.3333 94.829 76.4094L93.6896 77.7926L98.8283 78.8296C100.688 79.9837 98.9894 81.1428 97.9076 81.5781L92.1589 80.6544L91.3936 82.0853L96.0201 82.866C98.4462 83.6337 96.1295 85.6183 94.6678 86.5147L89.6672 85.6864L89.5118 87.004C93.7794 87.2421 95.0189 88.5973 95.1052 89.2452C93.3961 91.32 91.8769 89.0248 88.5336 90.7004L92.0611 93.4426L92.4006 96.5427L95.928 99.2849L94.288 95.2548L93.6723 91.7373L96.5438 90.3838L96.164 86.7054L98.9549 84.1952L100.699 79.0679L104.986 76.7484Z" fill="#8C8C8C"/>
<path d="M112.369 78.0714C113.773 82.2625 121.639 78.1065 122.721 77.6712C124.433 75.2911 119.287 76.2784 116.5 77.0695C113.978 74.9139 112.695 76.8393 112.369 78.0714Z" fill="#8C8C8C"/>
<path d="M105.4 102.211C102.384 97.2419 96.6049 104.275 94.0921 108.413C93.7331 110.354 96.7276 111.359 98.2697 111.62C114.898 111.905 121.821 126.848 123.204 134.285C127.439 143.995 135.718 140.083 139.328 136.913C149.359 127.645 151.694 115.753 151.608 110.966C141.3 144.653 133.443 112.154 130.616 91.669C132.406 88.9932 131.423 87.8871 130.708 87.6686C130.758 89.8148 128.565 89.4334 127.462 88.9745C125.379 91.0017 127.761 91.4963 128.049 99.1752C128.279 105.318 120.657 104.219 116.816 102.902C113.608 105.092 107.868 103.354 105.4 102.211Z" fill="#C2C2C2"/>
<path d="M102.35 90.3595L95.83 99.6545L94.3281 95.833L93.534 91.5287L96.5436 90.3838C96.806 96.9895 100.399 93.1041 102.35 90.3595Z" fill="#B6B2B2"/>
<path d="M114.814 76.0045C115.015 76.0818 115.149 76.133 115.199 76.1393C115.067 76.0829 114.939 76.0382 114.814 76.0045C113.509 75.5026 109.4 73.8975 107.425 76.2949C105.146 79.0614 105.169 81.1659 102.177 80.7846C101.575 81.5994 107.609 80.7129 101.993 88.7856C106.533 84.7791 112.309 88.2277 110.82 82.4592C110.998 79.9226 112.046 75.258 114.814 76.0045Z" fill="#B6B2B2"/>
<path d="M115.242 87.4819C118.794 84.5736 124.038 84.9109 126.216 85.4431L130.703 86.0148L122.903 80.4377C118.44 84.4521 114.118 81.9917 112.515 80.2597L113.896 82.3453C116.261 85.0911 111.614 90.9663 108.995 93.5607L115.242 87.4819Z" fill="#B6B2B2"/>
<path d="M112.917 110.866C106.08 106.328 97.8437 108.436 94.5805 110.057C95.2431 111.058 98.8982 111.753 100.643 111.975C115 113.805 122.047 128.452 123.777 135.548C130.375 147.999 141.17 137 145.369 129.897C135.027 133.926 128.22 113.297 128.344 112.45C127.101 122.986 117.542 115.784 112.917 110.866Z" fill="#969696"/>
<path d="M12.3019 26.9511C16.797 12.1887 29.8521 9.4204 35.8178 9.88152C50.6233 23.1897 46.6497 34.3797 42.8123 38.3112C31.9588 51.695 10.6907 32.2423 12.3019 26.9511Z" fill="#FFE0CA"/>
<path d="M46.4814 29.9407C43.54 30.8308 36.7105 34.6882 32.924 42.9961C37.9474 43.1191 46.3749 39.1748 46.4814 29.9407Z" fill="#FFB884"/>
<path d="M53.3351 196.968C46.841 181.26 55.7768 170.273 61.0565 166.744C82.5901 168.488 87.042 180.768 86.5763 186.689C86.8284 205.393 55.6628 202.598 53.3351 196.968Z" fill="#FFE0CA"/>
<path d="M83.8257 177.045C81.997 179.75 78.9922 187.578 81.602 197.246C85.8639 194.044 90.1371 185.089 83.8257 177.045Z" fill="#FFB884"/>
<defs>
<filter id="filter0_d_193_1801" x="215.967" y="16.2139" width="42.6895" height="55.0298" filterUnits="userSpaceOnUse" color-interpolation-filters="sRGB">
<feFlood flood-opacity="0" result="BackgroundImageFix"/>
<feColorMatrix in="SourceAlpha" type="matrix" values="0 0 0 0 0 0 0 0 0 0 0 0 0 0 0 0 0 0 127 0" result="hardAlpha"/>
<feOffset dx="-3" dy="-1"/>
<feGaussianBlur stdDeviation="2"/>
<feComposite in2="hardAlpha" operator="out"/>
<feColorMatrix type="matrix" values="0 0 0 0 0 0 0 0 0 0 0 0 0 0 0 0 0 0 0.25 0"/>
<feBlend mode="normal" in2="BackgroundImageFix" result="effect1_dropShadow_193_1801"/>
<feBlend mode="normal" in="SourceGraphic" in2="effect1_dropShadow_193_1801" result="shape"/>
</filter>
<filter id="filter1_d_193_1801" x="172.758" y="28.1284" width="55.0542" height="66.6039" filterUnits="userSpaceOnUse" color-interpolation-filters="sRGB">
<feFlood flood-opacity="0" result="BackgroundImageFix"/>
<feColorMatrix in="SourceAlpha" type="matrix" values="0 0 0 0 0 0 0 0 0 0 0 0 0 0 0 0 0 0 127 0" result="hardAlpha"/>
<feOffset dx="-3" dy="-1"/>
<feGaussianBlur stdDeviation="2"/>
<feComposite in2="hardAlpha" operator="out"/>
<feColorMatrix type="matrix" values="0 0 0 0 0 0 0 0 0 0 0 0 0 0 0 0 0 0 0.25 0"/>
<feBlend mode="normal" in2="BackgroundImageFix" result="effect1_dropShadow_193_1801"/>
<feBlend mode="normal" in="SourceGraphic" in2="effect1_dropShadow_193_1801" result="shape"/>
</filter>
<filter id="filter2_d_193_1801" x="189" y="26.8357" width="49.8857" height="80.2384" filterUnits="userSpaceOnUse" color-interpolation-filters="sRGB">
<feFlood flood-opacity="0" result="BackgroundImageFix"/>
<feColorMatrix in="SourceAlpha" type="matrix" values="0 0 0 0 0 0 0 0 0 0 0 0 0 0 0 0 0 0 127 0" result="hardAlpha"/>
<feOffset dy="4"/>
<feGaussianBlur stdDeviation="2"/>
<feComposite in2="hardAlpha" operator="out"/>
<feColorMatrix type="matrix" values="0 0 0 0 0.933334 0 0 0 0 1 0 0 0 0 0 0 0 0 0.25 0"/>
<feBlend mode="normal" in2="BackgroundImageFix" result="effect1_dropShadow_193_1801"/>
<feBlend mode="normal" in="SourceGraphic" in2="effect1_dropShadow_193_1801" result="shape"/>
</filter>
<filter id="filter3_d_193_1801" x="118.415" y="48.5495" width="72.438" height="60.5208" filterUnits="userSpaceOnUse" color-interpolation-filters="sRGB">
<feFlood flood-opacity="0" result="BackgroundImageFix"/>
<feColorMatrix in="SourceAlpha" type="matrix" values="0 0 0 0 0 0 0 0 0 0 0 0 0 0 0 0 0 0 127 0" result="hardAlpha"/>
<feOffset dx="-3" dy="-1"/>
<feGaussianBlur stdDeviation="2"/>
<feComposite in2="hardAlpha" operator="out"/>
<feColorMatrix type="matrix" values="0 0 0 0 0 0 0 0 0 0 0 0 0 0 0 0 0 0 0.25 0"/>
<feBlend mode="normal" in2="BackgroundImageFix" result="effect1_dropShadow_193_1801"/>
<feBlend mode="normal" in="SourceGraphic" in2="effect1_dropShadow_193_1801" result="shape"/>
</filter>
<filter id="filter4_d_193_1801" x="134.398" y="51.6011" width="45.8128" height="36.012" filterUnits="userSpaceOnUse" color-interpolation-filters="sRGB">
<feFlood flood-opacity="0" result="BackgroundImageFix"/>
<feColorMatrix in="SourceAlpha" type="matrix" values="0 0 0 0 0 0 0 0 0 0 0 0 0 0 0 0 0 0 127 0" result="hardAlpha"/>
<feOffset dx="3"/>
<feGaussianBlur stdDeviation="2.05"/>
<feComposite in2="hardAlpha" operator="out"/>
<feColorMatrix type="matrix" values="0 0 0 0 1 0 0 0 0 0.0416667 0 0 0 0 0.0416667 0 0 0 0.86 0"/>
<feBlend mode="normal" in2="BackgroundImageFix" result="effect1_dropShadow_193_1801"/>
<feBlend mode="normal" in="SourceGraphic" in2="effect1_dropShadow_193_1801" result="shape"/>
</filter>
<filter id="filter5_d_193_1801" x="75" y="78.0388" width="53.6792" height="69.9612" filterUnits="userSpaceOnUse" color-interpolation-filters="sRGB">
<feFlood flood-opacity="0" result="BackgroundImageFix"/>
<feColorMatrix in="SourceAlpha" type="matrix" values="0 0 0 0 0 0 0 0 0 0 0 0 0 0 0 0 0 0 127 0" result="hardAlpha"/>
<feOffset dx="-3" dy="-1"/>
<feGaussianBlur stdDeviation="2"/>
<feComposite in2="hardAlpha" operator="out"/>
<feColorMatrix type="matrix" values="0 0 0 0 0 0 0 0 0 0 0 0 0 0 0 0 0 0 0.25 0"/>
<feBlend mode="normal" in2="BackgroundImageFix" result="effect1_dropShadow_193_1801"/>
<feBlend mode="normal" in="SourceGraphic" in2="effect1_dropShadow_193_1801" result="shape"/>
</filter>
</defs>
</svg>
