<svg width="344" height="448" viewBox="0 0 344 448" fill="none" xmlns="http://www.w3.org/2000/svg">
<mask id="mask0_89_407" style="mask-type:alpha" maskUnits="userSpaceOnUse" x="0" y="0" width="344" height="448">
<rect width="344" height="448" fill="#D9D9D9"/>
</mask>
<g mask="url(#mask0_89_407)">
<path d="M340.452 55.5039C326.112 19.7697 293.651 8.4189 277.935 3.97585L166.326 138.549L40.0904 179.641L55.0445 313.666L48.3163 321.778L80.4059 348.392L89.1131 337.893L213.74 330.907L238.128 188.433L340.452 55.5039Z" fill="#D9D9D9"/>
<path d="M10.7414 397.522C65.4568 294.35 48.279 308.67 153.343 348.341C221.465 347.422 216.132 308.929 243.018 338.471C264.19 361.734 209.294 423.564 145.152 439.871C81.0108 456.177 -17.9706 445.147 10.7414 397.522Z" fill="#FDCAA5"/>
<circle cx="259.239" cy="323.783" r="27.7432" transform="rotate(137.418 259.239 323.783)" fill="#FDCAA5"/>
<circle cx="209.098" cy="369.86" r="27.7432" transform="rotate(137.418 209.098 369.86)" fill="#FDCAA5"/>
<rect x="278.011" y="344.21" width="68.097" height="55.4864" transform="rotate(137.418 278.011 344.21)" fill="#FDCAA5"/>
<circle cx="274.679" cy="252.291" r="27.7432" transform="rotate(99.8773 274.679 252.291)" fill="#FDCAA5"/>
<circle cx="262.998" cy="319.378" r="27.7432" transform="rotate(99.8773 262.998 319.378)" fill="#FDCAA5"/>
<rect x="302.011" y="257.05" width="68.097" height="55.4864" transform="rotate(99.8773 302.011 257.05)" fill="#FDCAA5"/>
<path d="M249.289 241.608C254.401 267.086 257.46 322.123 228.801 338.45C200.143 354.777 230.519 280.692 249.289 241.608Z" fill="#E2A97F"/>
<ellipse cx="24.5875" cy="27.4062" rx="24.5875" ry="27.4062" transform="matrix(0.113705 0.993515 -0.980802 0.195006 239.795 199.424)" fill="#FDCAA5"/>
<ellipse cx="24.5875" cy="27.4062" rx="24.5875" ry="27.4062" transform="matrix(0.113705 0.993515 -0.980802 0.195006 246.657 259.384)" fill="#FDCAA5"/>
<rect width="60.3512" height="54.8123" transform="matrix(0.113705 0.993515 -0.980802 0.195006 242.59 223.852)" fill="#FDCAA5"/>
<circle cx="220.4" cy="291.157" r="27.7432" transform="rotate(132.081 220.4 291.157)" fill="#FDCAA5"/>
<circle cx="174.763" cy="341.699" r="27.7432" transform="rotate(132.081 174.763 341.699)" fill="#FDCAA5"/>
<rect x="240.991" y="309.75" width="68.097" height="55.4864" transform="rotate(132.081 240.991 309.75)" fill="#FDCAA5"/>
<path d="M194.028 279.029C192.217 298.309 182.793 337.983 159.59 342.443C136.386 346.903 172.88 302.025 194.028 279.029Z" fill="#E2A97F"/>
<circle cx="157.671" cy="294.394" r="27.7432" transform="rotate(132.081 157.671 294.394)" fill="#FDCAA5"/>
<circle cx="112.033" cy="344.935" r="27.7432" transform="rotate(132.081 112.033 344.935)" fill="#FDCAA5"/>
<rect x="178.262" y="312.987" width="68.097" height="55.4864" transform="rotate(132.081 178.262 312.987)" fill="#FDCAA5"/>
<ellipse cx="24.5875" cy="27.4062" rx="24.5875" ry="27.4062" transform="matrix(0.113705 0.993515 -0.980802 0.195006 176.153 207.431)" fill="#FDCAA5"/>
<ellipse cx="24.5875" cy="27.4062" rx="24.5875" ry="27.4062" transform="matrix(0.113705 0.993515 -0.980802 0.195006 183.015 267.391)" fill="#FDCAA5"/>
<rect width="60.3512" height="54.8123" transform="matrix(0.113705 0.993515 -0.980802 0.195006 178.949 231.859)" fill="#FDCAA5"/>
<path d="M130.153 283.892C127.942 300.86 117.517 337.012 93.5048 345.872C69.4923 354.733 107.931 308.244 130.153 283.892Z" fill="#E2A97F"/>
<circle cx="94.6785" cy="290.919" r="23.0193" transform="rotate(118.441 94.6785 290.919)" fill="#FDCAA5"/>
<circle cx="67.769" cy="340.602" r="23.0193" transform="rotate(118.441 67.769 340.602)" fill="#FDCAA5"/>
<rect x="114.92" y="301.882" width="56.502" height="46.0387" transform="rotate(118.441 114.92 301.882)" fill="#FDCAA5"/>
<ellipse cx="92.9214" cy="252.932" rx="16.1081" ry="23.0193" transform="rotate(85.2574 92.9214 252.932)" fill="#FDCAA5"/>
<ellipse cx="96.1904" cy="292.334" rx="16.1081" ry="23.0193" transform="rotate(85.2574 96.1904 292.334)" fill="#FDCAA5"/>
<rect x="115.862" y="251.029" width="39.538" height="46.0387" transform="rotate(85.2574 115.862 251.029)" fill="#FDCAA5"/>
</g>
</svg>
