<svg width="464" height="626" viewBox="0 0 464 626" fill="none" xmlns="http://www.w3.org/2000/svg">
<path d="M95.3411 74.284C104.696 56.3457 135.504 45.8206 149.738 42.8003C159.326 40.1823 164.937 56.1527 166.543 64.4652L179.284 65.7184L183.566 75.2287L190.855 75.7597L198.706 93.1952L194.748 100.061L221.393 159.236C283.812 155.532 329.411 208.884 344.408 236.023C372.058 300.846 355.989 344.769 344.498 358.628L346.64 363.383C310.598 408.589 247.795 423.777 220.898 425.72L216.616 416.21C200.253 422.095 158.908 417.284 124.43 350.96C89.952 284.636 121.066 219.661 140.933 195.465L118.095 144.743L108.96 138.689L96.0089 118.466L104.534 114.627L98.8248 101.947L103.668 92.7762L95.3411 74.284Z" fill="#D9D9D9"/>
<path d="M376.749 459.658C320.424 353.451 338.108 368.192 229.953 409.031C159.827 408.084 165.317 368.459 137.64 398.87C115.845 422.817 172.356 486.466 238.385 503.253C304.413 520.039 406.306 508.684 376.749 459.658Z" fill="#FDCAA5"/>
<circle cx="28.5594" cy="28.5594" r="28.5594" transform="matrix(0.736307 0.676647 0.676647 -0.736307 80.5887 385.454)" fill="#FDCAA5"/>
<circle cx="28.5594" cy="28.5594" r="28.5594" transform="matrix(0.736307 0.676647 0.676647 -0.736307 132.204 432.887)" fill="#FDCAA5"/>
<rect width="70.1003" height="57.1187" transform="matrix(0.736307 0.676647 0.676647 -0.736307 101.617 404.778)" fill="#FDCAA5"/>
<circle cx="28.5594" cy="28.5594" r="28.5594" transform="matrix(0.171539 0.985177 0.985177 -0.171539 72.0121 286.918)" fill="#FDCAA5"/>
<circle cx="28.5594" cy="28.5594" r="28.5594" transform="matrix(0.171539 0.985177 0.985177 -0.171539 84.037 355.979)" fill="#FDCAA5"/>
<rect width="70.1003" height="57.1187" transform="matrix(0.171539 0.985177 0.985177 -0.171539 76.9111 315.054)" fill="#FDCAA5"/>
<path d="M131.184 299.158C125.922 325.385 122.773 382.041 152.275 398.849C181.776 415.656 150.506 339.391 131.184 299.158Z" fill="#E2A97F"/>
<ellipse cx="25.3109" cy="28.2124" rx="25.3109" ry="28.2124" transform="matrix(-0.113705 0.993515 0.980802 0.195006 140.958 255.732)" fill="#FDCAA5"/>
<ellipse cx="25.3109" cy="28.2124" rx="25.3109" ry="28.2124" transform="matrix(-0.113705 0.993515 0.980802 0.195006 133.894 317.456)" fill="#FDCAA5"/>
<rect width="62.1266" height="56.4248" transform="matrix(-0.113705 0.993515 0.980802 0.195006 138.08 280.879)" fill="#FDCAA5"/>
<circle cx="28.5594" cy="28.5594" r="28.5594" transform="matrix(0.670185 0.742194 0.742194 -0.670185 120.586 348.108)" fill="#FDCAA5"/>
<circle cx="28.5594" cy="28.5594" r="28.5594" transform="matrix(0.670185 0.742194 0.742194 -0.670185 167.566 400.136)" fill="#FDCAA5"/>
<rect width="70.1003" height="57.1187" transform="matrix(0.670185 0.742194 0.742194 -0.670185 139.726 369.305)" fill="#FDCAA5"/>
<path d="M188.071 337.679C189.936 357.526 199.636 398.368 223.522 402.959C247.409 407.55 209.841 361.352 188.071 337.679Z" fill="#E2A97F"/>
<circle cx="28.5594" cy="28.5594" r="28.5594" transform="matrix(0.670185 0.742194 0.742194 -0.670185 185.161 351.44)" fill="#FDCAA5"/>
<circle cx="28.5594" cy="28.5594" r="28.5594" transform="matrix(0.670185 0.742194 0.742194 -0.670185 232.141 403.468)" fill="#FDCAA5"/>
<rect width="70.1003" height="57.1187" transform="matrix(0.670185 0.742194 0.742194 -0.670185 204.301 372.637)" fill="#FDCAA5"/>
<ellipse cx="25.3109" cy="28.2124" rx="25.3109" ry="28.2124" transform="matrix(-0.113705 0.993515 0.980802 0.195006 206.472 263.976)" fill="#FDCAA5"/>
<ellipse cx="25.3109" cy="28.2124" rx="25.3109" ry="28.2124" transform="matrix(-0.113705 0.993515 0.980802 0.195006 199.407 325.699)" fill="#FDCAA5"/>
<rect width="62.1266" height="56.4248" transform="matrix(-0.113705 0.993515 0.980802 0.195006 203.594 289.122)" fill="#FDCAA5"/>
<path d="M253.825 342.686C256.101 360.154 266.832 397.368 291.551 406.49C316.27 415.611 276.7 367.755 253.825 342.686Z" fill="#E2A97F"/>
<circle cx="23.6965" cy="23.6965" r="23.6965" transform="matrix(0.476258 0.879306 0.879306 -0.476258 258.221 340.369)" fill="#FDCAA5"/>
<circle cx="23.6965" cy="23.6965" r="23.6965" transform="matrix(0.476258 0.879306 0.879306 -0.476258 285.922 391.513)" fill="#FDCAA5"/>
<rect width="58.1642" height="47.393" transform="matrix(0.476258 0.879306 0.879306 -0.476258 269.507 361.205)" fill="#FDCAA5"/>
<ellipse cx="16.5819" cy="23.6965" rx="16.5819" ry="23.6965" transform="matrix(-0.0826792 0.996576 0.996576 0.0826792 269.907 292.33)" fill="#FDCAA5"/>
<ellipse cx="16.5819" cy="23.6965" rx="16.5819" ry="23.6965" transform="matrix(-0.0826792 0.996576 0.996576 0.0826792 266.542 332.892)" fill="#FDCAA5"/>
<rect width="40.7011" height="47.393" transform="matrix(-0.0826792 0.996576 0.996576 0.0826792 268.536 308.855)" fill="#FDCAA5"/>
</svg>
