<svg width="318" height="396" viewBox="0 0 318 396" fill="none" xmlns="http://www.w3.org/2000/svg">
<mask id="mask0_127_134" style="mask-type:alpha" maskUnits="userSpaceOnUse" x="0" y="0" width="319" height="396">
<path d="M312 0C233.077 22.4893 67.9018 16.3706 8 7L10.2373 279.5L31 284.5L10.3317 291L10.5 311.5L24 318.5L10.5 327L0 381C28.8572 399.521 128.238 395.878 162.716 391.909C223.038 372.331 293.373 383.752 318 391.909C318 391.909 318.5 313 312 256.5C305.5 200 312 66 312 66L301 63L312 57.5V51.5L305.5 45L312 38.5V0Z" fill="#DABC5C"/>
</mask>
<g mask="url(#mask0_127_134)">
<path d="M311.8 394C251.376 373.695 91.816 385.54 19.5887 394L8.26348 155.019L-0.773498 139.652L-13 122.166L5.60555 102.56L-0.773498 86.663L8.26348 69.7065L10.9214 4L159 18.5L304.99 4L311.8 256.228L332 339.951L292.663 361.147L311.8 394Z" stroke="#DABC5C" stroke-width="50"/>
</g>
</svg>
