<svg width="396" height="318" viewBox="0 0 396 318" fill="none" xmlns="http://www.w3.org/2000/svg">
<mask id="mask0_127_135" style="mask-type:alpha" maskUnits="userSpaceOnUse" x="0" y="0" width="396" height="319">
<path d="M395.122 312C372.632 233.077 378.751 67.9018 388.122 8L115.622 10.2373L110.622 31L104.122 10.3317L83.6216 10.5L76.6216 24L68.1216 10.5L14.1216 -1.6654e-05C-4.39905 28.8572 -0.756567 128.238 3.21212 162.716C22.7911 223.038 11.37 293.373 3.21211 318C3.21211 318 82.1216 318.5 138.622 312C195.122 305.5 329.122 312 329.122 312L332.122 301L337.622 312L343.622 312L350.122 305.5L356.622 312L395.122 312Z" fill="#DABC5C"/>
</mask>
<g mask="url(#mask0_127_135)">
<path d="M1.12157 311.8C21.4263 251.376 9.5819 91.816 1.12158 19.5887L240.103 8.26348L255.469 -0.773504L272.956 -13L292.562 5.60554L308.459 -0.773501L325.415 8.26348L391.122 10.9214L376.622 159L391.122 304.99L138.893 311.8L55.1705 332L33.9748 292.663L1.12157 311.8Z" stroke="#DABC5C" stroke-width="50"/>
</g>
</svg>
