<svg width="227" height="205" viewBox="0 0 227 205" fill="none" xmlns="http://www.w3.org/2000/svg">
<mask id="mask0_181_196" style="mask-type:alpha" maskUnits="userSpaceOnUse" x="0" y="0" width="227" height="205">
<rect width="227" height="205" fill="#D9D9D9"/>
</mask>
<g mask="url(#mask0_181_196)">
<path d="M8.24977 170.658C12.6412 185.412 26.6162 194.771 41.9595 196.011C119.148 202.251 104.782 199.464 123.345 108.793C156.895 57.1901 160.607 58.2857 151 23.5C143.435 -3.89272 83.8341 30.0129 37 60C-1.40487 92.6824 -2.53849 134.414 8.24977 170.658Z" fill="#FDCAA5"/>
<ellipse cx="19.7815" cy="25.0646" rx="19.7815" ry="25.0646" transform="matrix(0.230127 -0.973161 -0.973161 -0.230127 209.244 152.986)" fill="#FDCAA5"/>
<ellipse cx="19.7815" cy="25.0646" rx="19.7815" ry="25.0646" transform="matrix(0.230127 -0.973161 -0.973161 -0.230127 220.418 105.735)" fill="#FDCAA5"/>
<rect width="48.5547" height="50.1292" transform="matrix(0.230127 -0.973161 -0.973161 -0.230127 213.796 133.736)" fill="#FDCAA5"/>
<path d="M166.405 120.05C178.569 108.565 200.428 81.7488 190.556 66.3582C180.684 50.9676 170.342 95.7397 166.405 120.05Z" fill="#E2A97F"/>
<ellipse cx="23.6506" cy="25.0646" rx="23.6506" ry="25.0646" transform="matrix(-0.983753 -0.17953 -0.17953 0.983753 210.092 31.066)" fill="#FDCAA5"/>
<ellipse cx="23.6506" cy="25.0646" rx="23.6506" ry="25.0646" transform="matrix(-0.983753 -0.17953 -0.17953 0.983753 152.983 20.6441)" fill="#FDCAA5"/>
<rect width="58.0515" height="50.1292" transform="matrix(-0.983753 -0.17953 -0.17953 0.983753 186.825 26.8201)" fill="#FDCAA5"/>
<path d="M182.053 76.9981C174.561 67.9622 157.022 51.4885 146.801 57.8814C136.58 64.2742 166.043 73.2895 182.053 76.9981Z" fill="#E2A97F"/>
<ellipse cx="21.0548" cy="25.0646" rx="21.0548" ry="25.0646" transform="matrix(-0.990997 -0.133881 -0.133881 0.990997 187.377 73.6378)" fill="#FDCAA5"/>
<ellipse cx="21.0548" cy="25.0646" rx="21.0548" ry="25.0646" transform="matrix(-0.990997 -0.133881 -0.133881 0.990997 136.162 66.7189)" fill="#FDCAA5"/>
<rect width="51.68" height="50.1292" transform="matrix(-0.990997 -0.133881 -0.133881 0.990997 166.511 70.819)" fill="#FDCAA5"/>
<path d="M163.872 120.166C155.068 110.439 134.105 92.7982 120.689 100.05C107.273 107.302 143.887 116.482 163.872 120.166Z" fill="#E2A97F"/>
<ellipse cx="20.5496" cy="25.0646" rx="20.5496" ry="25.0646" transform="matrix(-0.977365 -0.211561 -0.211561 0.977365 176.547 119.806)" fill="#FDCAA5"/>
<ellipse cx="20.5496" cy="25.0646" rx="20.5496" ry="25.0646" transform="matrix(-0.977365 -0.211561 -0.211561 0.977365 127.249 109.135)" fill="#FDCAA5"/>
<rect width="50.44" height="50.1292" transform="matrix(-0.977365 -0.211561 -0.211561 0.977365 156.462 115.458)" fill="#FDCAA5"/>
<path d="M156.63 164.496C146.467 157.029 122.885 144.412 109.868 153.683C96.8514 162.954 135.619 164.755 156.63 164.496Z" fill="#E2A97F"/>
<circle cx="20.7968" cy="20.7968" r="20.7968" transform="matrix(-0.997784 -0.0665385 -0.0665385 0.997784 140.045 160.265)" fill="#FDCAA5"/>
<circle cx="20.7968" cy="20.7968" r="20.7968" transform="matrix(-0.997784 -0.0665385 -0.0665385 0.997784 89.1118 156.869)" fill="#FDCAA5"/>
<rect width="51.0467" height="41.5936" transform="matrix(-0.997784 -0.0665385 -0.0665385 0.997784 119.295 158.881)" fill="#FDCAA5"/>
<ellipse cx="12.0878" cy="20.7968" rx="12.0878" ry="20.7968" transform="matrix(-0.997943 -0.0641038 -0.0641038 0.997943 153.95 161.279)" fill="#FDCAA5"/>
<ellipse cx="12.0878" cy="20.7968" rx="12.0878" ry="20.7968" transform="matrix(-0.997943 -0.0641038 -0.0641038 0.997943 124.342 159.378)" fill="#FDCAA5"/>
<rect width="29.6701" height="41.5936" transform="matrix(-0.997943 -0.0641038 -0.0641038 0.997943 141.888 160.505)" fill="#FDCAA5"/>
</g>
<g filter="url(#filter0_d_181_196)">
<path d="M170.175 64.9906C155.953 40.1987 175.824 30.9368 187.675 22.9906L163.065 19.7583C138.414 35.9684 140.552 55.6674 146.675 66.9906L170.175 64.9906Z" fill="#252524"/>
</g>
<path d="M166.868 4.12627C149.751 -2.23136 137.411 10.6943 136.924 10.9705C118.84 31.5025 129.349 44.1279 138.497 40.6924C157.751 33.4621 168.754 41.3454 171.849 46.1909C178.087 50.4694 181.958 44.7376 183.114 41.337L187.413 42.1113L189.857 40.9801L194.156 41.7545C202.946 33.6753 203.327 25.7405 202.419 22.783C201.125 21.0481 199.014 21.5439 198.121 22.0086C197.437 20.4418 195.232 19.4898 194.216 19.2097C193.5 17.0435 190.104 15.6703 188.496 15.2545C187.581 13.0989 185.441 11.1583 184.485 10.4575L181.988 10.5896L174.928 9.71087C174.928 9.71087 176.544 7.12072 174.204 5.49133C171.864 3.86193 166.868 4.12627 166.868 4.12627Z" fill="#D9D9D9"/>
<path d="M169.882 27.3077C167.752 22.5068 172.973 17.0445 175.85 14.9135C178.341 13.8919 179.264 18.7779 179.414 21.3486C178.686 32.5461 172.756 29.987 169.882 27.3077Z" fill="#8C8A8A"/>
<path d="M195.676 23.1398L197.332 21.299C197.721 21.078 198.02 21.68 198.121 22.0086C196.386 23.3026 200.518 24.7203 202.801 25.2674L202.657 27.2787C201.426 26.0916 198.734 24.1301 197.819 25.7815C196.905 27.4328 200.261 29.3257 202.053 30.0658L201.633 31.5908L197.715 28.5421C195.674 27.8486 195.77 29.6469 196.072 30.6327L200.267 34.1677L199.584 35.4562L196.178 32.6308C194.106 31.3379 193.913 34.003 194.075 35.4972L197.744 38.5591L196.785 39.3612C194.028 36.5015 192.2 36.3478 191.631 36.6284C191 38.9159 193.748 38.7705 194.419 41.991L190.107 40.9669L187.426 42.3611L183.114 41.337L187.32 40.363L190.501 38.9424L189.856 36.2214L193.024 34.551L193.351 31.2776L196.4 27.3594L195.676 23.1398Z" fill="#8C8C8C"/>
<path d="M190.18 18.6719C185.986 19.8956 184.578 12.2058 184.275 11.22C185.147 8.76936 187.452 12.8885 188.496 15.2545C191.735 15.8845 190.968 17.7953 190.18 18.6719Z" fill="#8C8C8C"/>
<path d="M175.08 36.2519C180.864 35.7454 178.719 43.4897 176.924 47.4251C175.588 48.698 172.984 47.1327 171.849 46.1909C161.624 34.7098 145.52 37.7326 138.747 40.6791C128.441 42.8274 126.59 34.9774 126.952 30.7838C128.327 18.8892 136.425 10.9969 140.302 8.53757C119.581 33.4781 150.275 21.8688 168.343 13.0648C169.404 10.4039 170.879 10.5095 171.484 10.8949C169.739 11.9891 171.362 13.3225 172.392 13.8524C172.025 16.3765 170.197 14.9704 163.888 18.8108C158.841 21.883 164.302 26.6367 167.664 28.6295C167.844 32.0263 172.683 35.1264 175.08 36.2519Z" fill="#C2C2C2"/>
<path d="M186.384 32.1472L182.877 41.6L186.834 40.6392L190.75 38.9291L189.856 36.2214C184.42 39.5146 185.364 34.9563 186.384 32.1472Z" fill="#B6B2B2"/>
<path d="M190.361 15.8732C190.178 15.7734 190.056 15.7062 190.021 15.6747C190.146 15.7373 190.259 15.8036 190.361 15.8732C191.546 16.5217 195.3 18.5515 194.571 21.1946C193.731 24.2446 192.035 25.3362 194.139 27.2285C193.85 28.0787 190.93 23.3909 187.857 31.5684C188.328 26.2837 182.1 24.0586 187.604 22.0642C189.524 20.6046 192.621 17.4164 190.361 15.8732Z" fill="#B6B2B2"/>
<path d="M180.932 21.6152C181.121 17.5996 177.698 14.1089 175.963 12.8655L172.809 10.0283L181.955 12.5485C181.431 17.7835 185.995 19.5114 188.343 19.7209L185.846 19.8531C182.23 19.6438 180.329 25.9865 179.831 29.184L180.932 21.6152Z" fill="#B6B2B2"/>
<path d="M163.644 35.5482C171.382 37.9427 174.649 44.8129 175.316 47.9487C174.118 48.0122 171.365 45.8212 170.138 44.7179C160.044 35.6386 144.102 38.4182 137.393 40.9429C123.476 42.8811 125.774 29.541 128.926 22.8651C131.924 32.2197 152.502 26.1238 153.103 25.5913C145.432 32.0056 156.934 34.9019 163.644 35.5482Z" fill="#969696"/>
<path d="M184.097 131.124C189.496 145.228 200.471 146.398 205.283 145.22C215.799 130.228 211.244 119.605 207.653 116.168C197.228 104.2 182.162 126.069 184.097 131.124Z" fill="#FFE0CA"/>
<path d="M211.628 124.03C209.124 123.502 203.1 120.5 199.037 112.714C203.12 111.986 210.457 114.881 211.628 124.03Z" fill="#FFB884"/>
<g filter="url(#filter1_d_181_196)">
<path d="M120.979 200.656C111.213 178.718 128.405 163.393 139.045 157.806L121.484 157.473C99.3795 168.83 100.814 189.995 104.962 199.982L120.979 200.656Z" fill="#A7A7A7"/>
</g>
<path d="M116.451 200.684C106.522 175.511 124.339 163.805 133.026 157.677L123.525 157.184C101.896 172.9 105.396 190.351 107.339 200.039L107.376 200.224L116.451 200.684Z" fill="#DBDBDB"/>
<ellipse cx="112.051" cy="170.976" rx="7.44481" ry="8.77079" transform="rotate(39.08 112.051 170.976)" fill="#AE0097"/>
<ellipse cx="112.556" cy="169.208" rx="4.9586" ry="5.84176" transform="rotate(39.08 112.556 169.208)" fill="#FF8BFD"/>
<ellipse cx="108.922" cy="166.97" rx="2.17777" ry="3.06249" transform="rotate(39.08 108.922 166.97)" fill="#FFCECE"/>
<path d="M104.978 175.852L106.445 181.033L113.957 181.318L115.866 177.496L116.126 175.01C113.091 177.105 107.098 176.409 104.978 175.852Z" fill="#D9D9D9"/>
<path d="M119.972 171.894C119.797 170.367 119.457 167.215 119.499 166.817C119.457 166.008 117.701 164.282 116.828 163.52L125.334 163.909L119.972 171.894Z" fill="#D9D9D9"/>
<g filter="url(#filter2_d_181_196)">
<path d="M116.701 115.607L139.237 116.143C138.979 115.55 144.599 117.993 148.716 110.927C146.304 109.793 144.938 110.107 144.809 109.666C139.003 89.7645 149.86 73.1496 160.123 65.5422C161.195 64.7479 153.769 58.6992 154.735 58.1275L132.501 59.9353C112.73 74.0074 112.369 104.916 116.701 115.607Z" fill="#F90000"/>
</g>
<path d="M136.5 61.5L145 55H157.5L164.5 65L156 73H152L145 65L138 64L136.5 61.5Z" fill="#682A2A"/>
<path d="M134 56.5L135.5 59.5L130.5 65H134L128 72H121.5L119 67.5C119.4 63.9 125.833 59.3333 129 57.5L134 56.5Z" fill="#682A2A"/>
<path d="M118.223 76.7081L120.962 78.6447L120.075 81.7119L122.236 84.2014L120.251 93.2047L114.521 96.2732L110.193 93.4863C108.846 90.1239 112.362 83.0611 114.288 79.95L118.223 76.7081Z" fill="#682A2A"/>
<path d="M112.805 98.281L116.147 98.561L116.939 101.654L120.064 102.704L122.919 111.47L119.537 117.021L114.394 116.814C111.528 114.599 110.975 106.729 111.057 103.071L112.805 98.281Z" fill="#682A2A"/>
<path d="M124.986 82.2354L131.075 73.4367L142.97 69.5931L152.705 76.9562L147.077 87.1823L143.271 88.4122L134.15 82.9522L127.182 84.1531L124.986 82.2354Z" fill="#682A2A"/>
<path d="M122.743 108.875L122 98.5L132.36 89.1076L144.443 90.8381L144.468 102.511L146 108.875L133.5 112L125.592 109.49L122.743 108.875Z" fill="#682A2A"/>
<g filter="url(#filter3_d_181_196)">
<path d="M132.5 63.5C131.3 63.1 134.667 61 136.5 60L135.5 62L137 65L142 68L134 69L129.5 74L123 80.5L126 85.5H131L138 88.5H129.5L121 98.5V104L119.5 100.5L117 97.5L121 95.5L124 85.5L121.5 81.5V78L123 74.5L129.5 72L135.5 64.5L132.5 63.5Z" fill="#FF9C67"/>
</g>
<g filter="url(#filter4_d_181_196)">
<path d="M112.5 160.055L131.5 159.216C131.193 158.698 138 163.414 141.5 156.697L136.5 156.697C129.02 139.126 138.922 119.042 148.5 111.358C149.5 110.556 145.086 109.012 146 108.42L124.5 111.358C106 125.632 107.273 150.71 112.5 160.055Z" fill="#F7A800"/>
</g>
<path d="M132 158.796C123.5 129.83 137.833 115.976 146 108.42L147 114C128.6 128.441 132.833 149.001 136.5 156.697H141.5C139.5 161.399 134.166 158.936 132 158.796Z" fill="#9F7000"/>
<g filter="url(#filter5_d_181_196)">
<path d="M90 142.872C93.7854 134.886 101.547 118.785 102.307 118.26L141.131 117.437L137.202 127.418L165.474 122.481L112.094 145.671L125.615 126.549L90 142.872Z" fill="#FFF954"/>
</g>
<path d="M184.378 99.6975C184.424 99.4536 184.464 99.2208 184.5 99C184.459 99.2334 184.418 99.4659 184.378 99.6975C183.345 105.158 179.658 116.139 172 121.5V141L178 145L185.5 147.5C183.184 144.853 178.963 130.81 184.378 99.6975Z" fill="#C3926E"/>
<defs>
<filter id="filter0_d_181_196" x="135.67" y="14.7583" width="53.0049" height="55.2324" filterUnits="userSpaceOnUse" color-interpolation-filters="sRGB">
<feFlood flood-opacity="0" result="BackgroundImageFix"/>
<feColorMatrix in="SourceAlpha" type="matrix" values="0 0 0 0 0 0 0 0 0 0 0 0 0 0 0 0 0 0 127 0" result="hardAlpha"/>
<feOffset dx="-3" dy="-1"/>
<feGaussianBlur stdDeviation="2"/>
<feComposite in2="hardAlpha" operator="out"/>
<feColorMatrix type="matrix" values="0 0 0 0 0 0 0 0 0 0 0 0 0 0 0 0 0 0 0.25 0"/>
<feBlend mode="normal" in2="BackgroundImageFix" result="effect1_dropShadow_181_196"/>
<feBlend mode="normal" in="SourceGraphic" in2="effect1_dropShadow_181_196" result="shape"/>
</filter>
<filter id="filter1_d_181_196" x="95.4895" y="152.473" width="44.5557" height="51.1827" filterUnits="userSpaceOnUse" color-interpolation-filters="sRGB">
<feFlood flood-opacity="0" result="BackgroundImageFix"/>
<feColorMatrix in="SourceAlpha" type="matrix" values="0 0 0 0 0 0 0 0 0 0 0 0 0 0 0 0 0 0 127 0" result="hardAlpha"/>
<feOffset dx="-3" dy="-1"/>
<feGaussianBlur stdDeviation="2"/>
<feComposite in2="hardAlpha" operator="out"/>
<feColorMatrix type="matrix" values="0 0 0 0 0 0 0 0 0 0 0 0 0 0 0 0 0 0 0.25 0"/>
<feBlend mode="normal" in2="BackgroundImageFix" result="effect1_dropShadow_181_196"/>
<feBlend mode="normal" in="SourceGraphic" in2="effect1_dropShadow_181_196" result="shape"/>
</filter>
<filter id="filter2_d_181_196" x="107.463" y="53.1276" width="53.7659" height="66.0157" filterUnits="userSpaceOnUse" color-interpolation-filters="sRGB">
<feFlood flood-opacity="0" result="BackgroundImageFix"/>
<feColorMatrix in="SourceAlpha" type="matrix" values="0 0 0 0 0 0 0 0 0 0 0 0 0 0 0 0 0 0 127 0" result="hardAlpha"/>
<feOffset dx="-3" dy="-1"/>
<feGaussianBlur stdDeviation="2"/>
<feComposite in2="hardAlpha" operator="out"/>
<feColorMatrix type="matrix" values="0 0 0 0 0 0 0 0 0 0 0 0 0 0 0 0 0 0 0.25 0"/>
<feBlend mode="normal" in2="BackgroundImageFix" result="effect1_dropShadow_181_196"/>
<feBlend mode="normal" in="SourceGraphic" in2="effect1_dropShadow_181_196" result="shape"/>
</filter>
<filter id="filter3_d_181_196" x="115.9" y="55.9" width="33.2" height="52.2" filterUnits="userSpaceOnUse" color-interpolation-filters="sRGB">
<feFlood flood-opacity="0" result="BackgroundImageFix"/>
<feColorMatrix in="SourceAlpha" type="matrix" values="0 0 0 0 0 0 0 0 0 0 0 0 0 0 0 0 0 0 127 0" result="hardAlpha"/>
<feOffset dx="3"/>
<feGaussianBlur stdDeviation="2.05"/>
<feComposite in2="hardAlpha" operator="out"/>
<feColorMatrix type="matrix" values="0 0 0 0 1 0 0 0 0 0.0416667 0 0 0 0 0.0416667 0 0 0 0.86 0"/>
<feBlend mode="normal" in2="BackgroundImageFix" result="effect1_dropShadow_181_196"/>
<feBlend mode="normal" in="SourceGraphic" in2="effect1_dropShadow_181_196" result="shape"/>
</filter>
<filter id="filter4_d_181_196" x="102.122" y="103.42" width="47.5266" height="59.9256" filterUnits="userSpaceOnUse" color-interpolation-filters="sRGB">
<feFlood flood-opacity="0" result="BackgroundImageFix"/>
<feColorMatrix in="SourceAlpha" type="matrix" values="0 0 0 0 0 0 0 0 0 0 0 0 0 0 0 0 0 0 127 0" result="hardAlpha"/>
<feOffset dx="-3" dy="-1"/>
<feGaussianBlur stdDeviation="2"/>
<feComposite in2="hardAlpha" operator="out"/>
<feColorMatrix type="matrix" values="0 0 0 0 0 0 0 0 0 0 0 0 0 0 0 0 0 0 0.25 0"/>
<feBlend mode="normal" in2="BackgroundImageFix" result="effect1_dropShadow_181_196"/>
<feBlend mode="normal" in="SourceGraphic" in2="effect1_dropShadow_181_196" result="shape"/>
</filter>
<filter id="filter5_d_181_196" x="86" y="117.437" width="83.4741" height="36.2346" filterUnits="userSpaceOnUse" color-interpolation-filters="sRGB">
<feFlood flood-opacity="0" result="BackgroundImageFix"/>
<feColorMatrix in="SourceAlpha" type="matrix" values="0 0 0 0 0 0 0 0 0 0 0 0 0 0 0 0 0 0 127 0" result="hardAlpha"/>
<feOffset dy="4"/>
<feGaussianBlur stdDeviation="2"/>
<feComposite in2="hardAlpha" operator="out"/>
<feColorMatrix type="matrix" values="0 0 0 0 0.933334 0 0 0 0 1 0 0 0 0 0 0 0 0 0.25 0"/>
<feBlend mode="normal" in2="BackgroundImageFix" result="effect1_dropShadow_181_196"/>
<feBlend mode="normal" in="SourceGraphic" in2="effect1_dropShadow_181_196" result="shape"/>
</filter>
</defs>
</svg>
