<svg width="227" height="194" viewBox="0 0 227 194" fill="none" xmlns="http://www.w3.org/2000/svg">
<mask id="mask0_88_100" style="mask-type:alpha" maskUnits="userSpaceOnUse" x="0" y="0" width="227" height="194">
<rect width="227" height="194" fill="#D9D9D9"/>
</mask>
<g mask="url(#mask0_88_100)">
<path d="M9.2069 159.356C12.7442 174.338 26.6162 183.771 41.9595 185.011C119.148 191.251 104.783 188.464 123.345 97.7927C156.895 46.1901 183.733 68.8244 174.126 34.0387C166.561 6.64598 88.4784 -11.5715 41.6443 18.4156C2.53212 51.6999 -1.13836 115.542 9.2069 159.356Z" fill="#FDCAA5"/>
<ellipse cx="19.7815" cy="25.0646" rx="19.7815" ry="25.0646" transform="matrix(0.230127 -0.973161 -0.973161 -0.230127 209.244 141.986)" fill="#FDCAA5"/>
<ellipse cx="19.7815" cy="25.0646" rx="19.7815" ry="25.0646" transform="matrix(0.230127 -0.973161 -0.973161 -0.230127 220.418 94.7347)" fill="#FDCAA5"/>
<rect width="48.5547" height="50.1292" transform="matrix(0.230127 -0.973161 -0.973161 -0.230127 213.796 122.736)" fill="#FDCAA5"/>
<path d="M166.405 109.05C178.569 97.5653 200.428 70.7488 190.556 55.3582C180.684 39.9676 170.342 84.7397 166.405 109.05Z" fill="#E2A97F"/>
<ellipse cx="23.6506" cy="25.0646" rx="23.6506" ry="25.0646" transform="matrix(-0.983753 -0.17953 -0.17953 0.983753 210.092 20.066)" fill="#FDCAA5"/>
<ellipse cx="23.6506" cy="25.0646" rx="23.6506" ry="25.0646" transform="matrix(-0.983753 -0.17953 -0.17953 0.983753 152.983 9.6441)" fill="#FDCAA5"/>
<rect width="58.0515" height="50.1292" transform="matrix(-0.983753 -0.17953 -0.17953 0.983753 186.825 15.8201)" fill="#FDCAA5"/>
<path d="M182.053 65.9981C174.561 56.9622 157.022 40.4885 146.801 46.8814C136.579 53.2742 166.043 62.2895 182.053 65.9981Z" fill="#E2A97F"/>
<ellipse cx="21.0548" cy="25.0646" rx="21.0548" ry="25.0646" transform="matrix(-0.990997 -0.133881 -0.133881 0.990997 187.377 62.6378)" fill="#FDCAA5"/>
<ellipse cx="21.0548" cy="25.0646" rx="21.0548" ry="25.0646" transform="matrix(-0.990997 -0.133881 -0.133881 0.990997 136.162 55.7189)" fill="#FDCAA5"/>
<rect width="51.68" height="50.1292" transform="matrix(-0.990997 -0.133881 -0.133881 0.990997 166.511 59.819)" fill="#FDCAA5"/>
<path d="M163.872 109.166C155.068 99.4391 134.105 81.7982 120.689 89.0502C107.273 96.3022 143.887 105.482 163.872 109.166Z" fill="#E2A97F"/>
<ellipse cx="20.5496" cy="25.0646" rx="20.5496" ry="25.0646" transform="matrix(-0.977365 -0.211561 -0.211561 0.977365 176.547 108.806)" fill="#FDCAA5"/>
<ellipse cx="20.5496" cy="25.0646" rx="20.5496" ry="25.0646" transform="matrix(-0.977365 -0.211561 -0.211561 0.977365 127.248 98.1347)" fill="#FDCAA5"/>
<rect width="50.44" height="50.1292" transform="matrix(-0.977365 -0.211561 -0.211561 0.977365 156.462 104.458)" fill="#FDCAA5"/>
<path d="M156.63 153.496C146.467 146.029 122.885 133.412 109.868 142.683C96.8513 151.954 135.619 153.755 156.63 153.496Z" fill="#E2A97F"/>
<circle cx="20.7968" cy="20.7968" r="20.7968" transform="matrix(-0.997784 -0.0665385 -0.0665385 0.997784 140.045 149.265)" fill="#FDCAA5"/>
<circle cx="20.7968" cy="20.7968" r="20.7968" transform="matrix(-0.997784 -0.0665385 -0.0665385 0.997784 89.1115 145.869)" fill="#FDCAA5"/>
<rect width="51.0467" height="41.5936" transform="matrix(-0.997784 -0.0665385 -0.0665385 0.997784 119.294 147.881)" fill="#FDCAA5"/>
<ellipse cx="12.0878" cy="20.7968" rx="12.0878" ry="20.7968" transform="matrix(-0.997943 -0.0641038 -0.0641038 0.997943 153.95 150.279)" fill="#FDCAA5"/>
<ellipse cx="12.0878" cy="20.7968" rx="12.0878" ry="20.7968" transform="matrix(-0.997943 -0.0641038 -0.0641038 0.997943 124.341 148.378)" fill="#FDCAA5"/>
<rect width="29.6701" height="41.5936" transform="matrix(-0.997943 -0.0641038 -0.0641038 0.997943 141.887 149.505)" fill="#FDCAA5"/>
</g>
</svg>
