<svg width="396" height="330" viewBox="0 0 396 330" fill="none" xmlns="http://www.w3.org/2000/svg">
<path d="M89.0298 249.679C194.522 251.488 175.693 258.815 190.225 158.4C220.716 104.933 248.825 125.967 237.211 91.7996C228.065 64.8934 155.186 81.2898 114.267 124.887C73.3481 168.484 38.825 251.576 89.0298 249.679Z" fill="#FDCAA5"/>
<circle cx="25.0646" cy="25.0646" r="25.0646" transform="matrix(-0.948341 0.317251 0.317251 0.948341 271.731 53.6682)" fill="#FDCAA5"/>
<circle cx="25.0646" cy="25.0646" r="25.0646" transform="matrix(-0.948341 0.317251 0.317251 0.948341 213.387 73.1862)" fill="#FDCAA5"/>
<rect width="61.5222" height="50.1292" transform="matrix(-0.948341 0.317251 0.317251 0.948341 247.961 61.62)" fill="#FDCAA5"/>
<circle cx="25.0646" cy="25.0646" r="25.0646" transform="matrix(-0.94527 -0.326289 -0.326289 0.94527 351.064 88.9011)" fill="#FDCAA5"/>
<circle cx="25.0646" cy="25.0646" r="25.0646" transform="matrix(-0.94527 -0.326289 -0.326289 0.94527 292.909 68.8271)" fill="#FDCAA5"/>
<rect width="61.5222" height="50.1292" transform="matrix(-0.94527 -0.326289 -0.326289 0.94527 327.371 80.7228)" fill="#FDCAA5"/>
<path d="M316.548 129.161C298.634 113.987 256.448 87.5218 231.015 103.051C205.583 118.58 277.44 126.928 316.548 129.161Z" fill="#E2A97F"/>
<ellipse cx="22.2136" cy="24.7601" rx="22.2136" ry="24.7601" transform="matrix(-0.814622 -0.579992 -0.645005 0.764178 345.758 155.099)" fill="#FDCAA5"/>
<ellipse cx="22.2136" cy="24.7601" rx="22.2136" ry="24.7601" transform="matrix(-0.814622 -0.579992 -0.645005 0.764178 301.341 123.476)" fill="#FDCAA5"/>
<rect width="54.5243" height="49.5202" transform="matrix(-0.814622 -0.579992 -0.645005 0.764178 327.662 142.216)" fill="#FDCAA5"/>
<circle cx="25.0646" cy="25.0646" r="25.0646" transform="matrix(-0.973737 0.227677 0.227677 0.973737 283.443 100.244)" fill="#FDCAA5"/>
<circle cx="25.0646" cy="25.0646" r="25.0646" transform="matrix(-0.973737 0.227677 0.227677 0.973737 223.536 114.251)" fill="#FDCAA5"/>
<rect width="61.5222" height="50.1292" transform="matrix(-0.973737 0.227677 0.227677 0.973737 259.037 105.951)" fill="#FDCAA5"/>
<path d="M262.812 156.511C246.774 149.519 211.283 139.637 197.619 156.037C183.954 172.438 235.387 163.187 262.812 156.511Z" fill="#E2A97F"/>
<circle cx="25.0646" cy="25.0646" r="25.0646" transform="matrix(-0.973737 0.227677 0.227677 0.973737 253.476 148.435)" fill="#FDCAA5"/>
<circle cx="25.0646" cy="25.0646" r="25.0646" transform="matrix(-0.973737 0.227677 0.227677 0.973737 193.57 162.442)" fill="#FDCAA5"/>
<rect width="61.5222" height="50.1292" transform="matrix(-0.973737 0.227677 0.227677 0.973737 229.07 154.142)" fill="#FDCAA5"/>
<ellipse cx="22.2136" cy="24.7601" rx="22.2136" ry="24.7601" transform="matrix(-0.814622 -0.579992 -0.645005 0.764178 311.62 201.927)" fill="#FDCAA5"/>
<ellipse cx="22.2136" cy="24.7601" rx="22.2136" ry="24.7601" transform="matrix(-0.814622 -0.579992 -0.645005 0.764178 267.203 170.304)" fill="#FDCAA5"/>
<rect width="54.5243" height="49.5202" transform="matrix(-0.814622 -0.579992 -0.645005 0.764178 293.524 189.044)" fill="#FDCAA5"/>
<path d="M231.058 204.897C216.674 199.232 183.532 191.68 166.034 206.797C148.535 221.915 202.092 211.829 231.058 204.897Z" fill="#E2A97F"/>
<circle cx="20.7968" cy="20.7968" r="20.7968" transform="matrix(-0.999965 -0.00837259 -0.00837259 0.999965 230.972 209.257)" fill="#FDCAA5"/>
<circle cx="20.7968" cy="20.7968" r="20.7968" transform="matrix(-0.999965 -0.00837259 -0.00837259 0.999965 179.927 208.83)" fill="#FDCAA5"/>
<rect width="51.0467" height="41.5936" transform="matrix(-0.999965 -0.00837259 -0.00837259 0.999965 210.176 209.083)" fill="#FDCAA5"/>
<ellipse cx="14.5528" cy="20.7968" rx="14.5528" ry="20.7968" transform="matrix(-0.832307 -0.554316 -0.554316 0.832307 262.915 238.623)" fill="#FDCAA5"/>
<ellipse cx="14.5528" cy="20.7968" rx="14.5528" ry="20.7968" transform="matrix(-0.832307 -0.554316 -0.554316 0.832307 233.184 218.823)" fill="#FDCAA5"/>
<rect width="35.7206" height="41.5936" transform="matrix(-0.832307 -0.554316 -0.554316 0.832307 250.802 230.556)" fill="#FDCAA5"/>
</svg>
