<svg width="287" height="218" viewBox="0 0 287 218" fill="none" xmlns="http://www.w3.org/2000/svg">
<mask id="mask0_88_183" style="mask-type:alpha" maskUnits="userSpaceOnUse" x="0" y="0" width="287" height="218">
<rect width="287" height="218" transform="matrix(-1 0 0 1 287 0)" fill="#D9D9D9"/>
</mask>
<g mask="url(#mask0_88_183)">
<path d="M32.5898 205.95C138.005 201.518 119.642 209.946 128.211 108.847C155.486 53.6704 184.79 73.0059 171.175 39.5847C160.454 13.2664 88.6728 33.9437 50.4034 79.8843C12.1341 125.825 -17.415 210.813 32.5898 205.95Z" fill="#FDCAA5"/>
<circle cx="25.0646" cy="25.0646" r="25.0646" transform="matrix(-0.927921 0.372776 0.372776 0.927921 203.38 -0.52124)" fill="#FDCAA5"/>
<circle cx="25.0646" cy="25.0646" r="25.0646" transform="matrix(-0.927921 0.372776 0.372776 0.927921 146.292 22.4128)" fill="#FDCAA5"/>
<rect width="61.5222" height="50.1292" transform="matrix(-0.927921 0.372776 0.372776 0.927921 180.122 8.82227)" fill="#FDCAA5"/>
<circle cx="25.0646" cy="25.0646" r="25.0646" transform="matrix(-0.962911 -0.26982 -0.26982 0.962911 284.658 29.9586)" fill="#FDCAA5"/>
<circle cx="25.0646" cy="25.0646" r="25.0646" transform="matrix(-0.962911 -0.26982 -0.26982 0.962911 225.418 13.3587)" fill="#FDCAA5"/>
<rect width="61.5222" height="50.1292" transform="matrix(-0.962911 -0.26982 -0.26982 0.962911 260.523 23.1956)" fill="#FDCAA5"/>
<path d="M252.583 72.1887C233.803 58.101 190.126 34.1768 165.656 51.1825C141.186 68.1882 213.411 72.2724 252.583 72.1887Z" fill="#E2A97F"/>
<ellipse cx="22.2136" cy="24.7601" rx="22.2136" ry="24.7601" transform="matrix(-0.847494 -0.530804 -0.598687 0.800983 283.275 96.3549)" fill="#FDCAA5"/>
<ellipse cx="22.2136" cy="24.7601" rx="22.2136" ry="24.7601" transform="matrix(-0.847494 -0.530804 -0.598687 0.800983 237.066 67.4132)" fill="#FDCAA5"/>
<rect width="54.5243" height="49.5202" transform="matrix(-0.847494 -0.530804 -0.598687 0.800983 264.449 84.5639)" fill="#FDCAA5"/>
<circle cx="25.0646" cy="25.0646" r="25.0646" transform="matrix(-0.958569 0.28486 0.28486 0.958569 217.826 45.2804)" fill="#FDCAA5"/>
<circle cx="25.0646" cy="25.0646" r="25.0646" transform="matrix(-0.958569 0.28486 0.28486 0.958569 158.853 62.8057)" fill="#FDCAA5"/>
<rect width="61.5222" height="50.1292" transform="matrix(-0.958569 0.28486 0.28486 0.958569 193.8 52.4203)" fill="#FDCAA5"/>
<path d="M200.558 102.669C184.135 96.6381 148.122 88.8715 135.451 106.051C122.78 123.231 173.576 110.955 200.558 102.669Z" fill="#E2A97F"/>
<circle cx="25.0646" cy="25.0646" r="25.0646" transform="matrix(-0.958569 0.28486 0.28486 0.958569 190.761 95.1591)" fill="#FDCAA5"/>
<circle cx="25.0646" cy="25.0646" r="25.0646" transform="matrix(-0.958569 0.28486 0.28486 0.958569 131.788 112.684)" fill="#FDCAA5"/>
<rect width="61.5222" height="50.1292" transform="matrix(-0.958569 0.28486 0.28486 0.958569 166.735 102.299)" fill="#FDCAA5"/>
<ellipse cx="22.2136" cy="24.7601" rx="22.2136" ry="24.7601" transform="matrix(-0.847494 -0.530804 -0.598687 0.800983 251.966 145.12)" fill="#FDCAA5"/>
<ellipse cx="22.2136" cy="24.7601" rx="22.2136" ry="24.7601" transform="matrix(-0.847494 -0.530804 -0.598687 0.800983 205.757 116.178)" fill="#FDCAA5"/>
<rect width="54.5243" height="49.5202" transform="matrix(-0.847494 -0.530804 -0.598687 0.800983 233.141 133.329)" fill="#FDCAA5"/>
<path d="M171.721 152.848C157.027 148.043 123.496 142.465 106.923 158.59C90.3492 174.716 143.216 161.481 171.721 152.848Z" fill="#E2A97F"/>
<circle cx="20.7968" cy="20.7968" r="20.7968" transform="matrix(-0.99871 0.0507746 0.0507746 0.99871 171.894 157.206)" fill="#FDCAA5"/>
<circle cx="20.7968" cy="20.7968" r="20.7968" transform="matrix(-0.99871 0.0507746 0.0507746 0.99871 120.913 159.797)" fill="#FDCAA5"/>
<rect width="51.0467" height="41.5936" transform="matrix(-0.99871 0.0507746 0.0507746 0.99871 151.124 158.262)" fill="#FDCAA5"/>
<ellipse cx="14.5528" cy="20.7968" rx="14.5528" ry="20.7968" transform="matrix(-0.863629 -0.504128 -0.504128 0.863629 205.516 184.631)" fill="#FDCAA5"/>
<ellipse cx="14.5528" cy="20.7968" rx="14.5528" ry="20.7968" transform="matrix(-0.863629 -0.504128 -0.504128 0.863629 174.667 166.624)" fill="#FDCAA5"/>
<rect width="35.7206" height="41.5936" transform="matrix(-0.863629 -0.504128 -0.504128 0.863629 192.948 177.295)" fill="#FDCAA5"/>
</g>
</svg>
