<svg width="279" height="232" viewBox="0 0 279 232" fill="none" xmlns="http://www.w3.org/2000/svg">
<mask id="mask0_181_194" style="mask-type:alpha" maskUnits="userSpaceOnUse" x="0" y="0" width="279" height="232">
<rect width="279" height="232" transform="matrix(-1 0 0 1 279 0)" fill="#D9D9D9"/>
</mask>
<g mask="url(#mask0_181_194)">
<path d="M30.5896 219.95C136.005 215.518 117.642 223.946 126.21 122.847C153.486 67.6704 182.79 87.0059 169.175 53.5847C158.454 27.2664 86.6727 47.9437 48.4033 93.8843C10.134 139.825 -19.4152 224.813 30.5896 219.95Z" fill="#FDCAA5"/>
<circle cx="25.0646" cy="25.0646" r="25.0646" transform="matrix(-0.927921 0.372776 0.372776 0.927921 201.38 13.4788)" fill="#FDCAA5"/>
<circle cx="25.0646" cy="25.0646" r="25.0646" transform="matrix(-0.927921 0.372776 0.372776 0.927921 144.292 36.4128)" fill="#FDCAA5"/>
<rect width="61.5222" height="50.1292" transform="matrix(-0.927921 0.372776 0.372776 0.927921 178.122 22.8223)" fill="#FDCAA5"/>
<circle cx="25.0646" cy="25.0646" r="25.0646" transform="matrix(-0.962911 -0.26982 -0.26982 0.962911 282.658 43.9586)" fill="#FDCAA5"/>
<circle cx="25.0646" cy="25.0646" r="25.0646" transform="matrix(-0.962911 -0.26982 -0.26982 0.962911 223.418 27.3587)" fill="#FDCAA5"/>
<rect width="61.5222" height="50.1292" transform="matrix(-0.962911 -0.26982 -0.26982 0.962911 258.523 37.1956)" fill="#FDCAA5"/>
<path d="M250.583 86.1887C231.803 72.101 188.126 48.1768 163.656 65.1825C139.187 82.1882 211.412 86.2724 250.583 86.1887Z" fill="#E2A97F"/>
<ellipse cx="22.2136" cy="24.7601" rx="22.2136" ry="24.7601" transform="matrix(-0.847494 -0.530804 -0.598687 0.800983 281.275 110.355)" fill="#FDCAA5"/>
<ellipse cx="22.2136" cy="24.7601" rx="22.2136" ry="24.7601" transform="matrix(-0.847494 -0.530804 -0.598687 0.800983 235.066 81.4132)" fill="#FDCAA5"/>
<rect width="54.5243" height="49.5202" transform="matrix(-0.847494 -0.530804 -0.598687 0.800983 262.449 98.5639)" fill="#FDCAA5"/>
<circle cx="25.0646" cy="25.0646" r="25.0646" transform="matrix(-0.958569 0.28486 0.28486 0.958569 215.826 59.2804)" fill="#FDCAA5"/>
<circle cx="25.0646" cy="25.0646" r="25.0646" transform="matrix(-0.958569 0.28486 0.28486 0.958569 156.853 76.8057)" fill="#FDCAA5"/>
<rect width="61.5222" height="50.1292" transform="matrix(-0.958569 0.28486 0.28486 0.958569 191.8 66.4203)" fill="#FDCAA5"/>
<path d="M198.558 116.669C182.135 110.638 146.122 102.872 133.451 120.051C120.78 137.231 171.576 124.955 198.558 116.669Z" fill="#E2A97F"/>
<circle cx="25.0646" cy="25.0646" r="25.0646" transform="matrix(-0.958569 0.28486 0.28486 0.958569 188.762 109.159)" fill="#FDCAA5"/>
<circle cx="25.0646" cy="25.0646" r="25.0646" transform="matrix(-0.958569 0.28486 0.28486 0.958569 129.788 126.684)" fill="#FDCAA5"/>
<rect width="61.5222" height="50.1292" transform="matrix(-0.958569 0.28486 0.28486 0.958569 164.736 116.299)" fill="#FDCAA5"/>
<ellipse cx="22.2136" cy="24.7601" rx="22.2136" ry="24.7601" transform="matrix(-0.847494 -0.530804 -0.598687 0.800983 249.967 159.12)" fill="#FDCAA5"/>
<ellipse cx="22.2136" cy="24.7601" rx="22.2136" ry="24.7601" transform="matrix(-0.847494 -0.530804 -0.598687 0.800983 203.757 130.178)" fill="#FDCAA5"/>
<rect width="54.5243" height="49.5202" transform="matrix(-0.847494 -0.530804 -0.598687 0.800983 231.141 147.329)" fill="#FDCAA5"/>
<path d="M170 167C155.306 162.195 121.497 156.465 104.923 172.59C88.3494 188.716 141.495 175.633 170 167Z" fill="#E2A97F"/>
<circle cx="20.7968" cy="20.7968" r="20.7968" transform="matrix(-0.99871 0.0507746 0.0507746 0.99871 169.894 171.206)" fill="#FDCAA5"/>
<circle cx="20.7968" cy="20.7968" r="20.7968" transform="matrix(-0.99871 0.0507746 0.0507746 0.99871 118.913 173.797)" fill="#FDCAA5"/>
<rect width="51.0467" height="41.5936" transform="matrix(-0.99871 0.0507746 0.0507746 0.99871 149.124 172.261)" fill="#FDCAA5"/>
<ellipse cx="14.5528" cy="20.7968" rx="14.5528" ry="20.7968" transform="matrix(-0.863629 -0.504128 -0.504128 0.863629 203.517 198.631)" fill="#FDCAA5"/>
<ellipse cx="14.5528" cy="20.7968" rx="14.5528" ry="20.7968" transform="matrix(-0.863629 -0.504128 -0.504128 0.863629 172.667 180.624)" fill="#FDCAA5"/>
<rect width="35.7206" height="41.5936" transform="matrix(-0.863629 -0.504128 -0.504128 0.863629 190.948 191.295)" fill="#FDCAA5"/>
</g>
<g filter="url(#filter0_d_181_194)">
<path d="M201.175 64.9906C186.953 40.1987 206.824 30.9368 218.675 22.9906L194.065 19.7583C169.414 35.9684 171.552 55.6674 177.675 66.9906L201.175 64.9906Z" fill="#252524"/>
</g>
<path d="M197.868 4.12624C180.751 -2.23139 168.411 10.6943 167.924 10.9705C149.84 31.5024 160.349 44.1279 169.497 40.6924C188.751 33.462 199.754 41.3454 202.849 46.1909C209.087 50.4693 212.958 44.7376 214.114 41.337L218.413 42.1113L220.857 40.9801L225.156 41.7545C233.946 33.6753 234.327 25.7405 233.419 22.7829C232.125 21.0481 230.014 21.5438 229.121 22.0086C228.437 20.4418 226.232 19.4898 225.216 19.2097C224.5 17.0435 221.104 15.6703 219.496 15.2544C218.581 13.0988 216.441 11.1583 215.485 10.4574L212.988 10.5896L205.928 9.71084C205.928 9.71084 207.544 7.12069 205.204 5.4913C202.864 3.8619 197.868 4.12624 197.868 4.12624Z" fill="#D9D9D9"/>
<path d="M200.882 27.3077C198.752 22.5068 203.973 17.0445 206.85 14.9135C209.341 13.8919 210.264 18.7779 210.414 21.3486C209.686 32.5461 203.756 29.9869 200.882 27.3077Z" fill="#8C8A8A"/>
<path d="M226.676 23.1398L228.332 21.2989C228.721 21.078 229.02 21.68 229.121 22.0086C227.386 23.3026 231.518 24.7203 233.801 25.2674L233.657 27.2787C232.426 26.0915 229.734 24.1301 228.819 25.7815C227.905 27.4328 231.261 29.3257 233.053 30.0657L232.633 31.5907L228.715 28.5421C226.674 27.8486 226.77 29.6469 227.072 30.6327L231.267 34.1677L230.584 35.4561L227.178 32.6308C225.106 31.3379 224.913 34.003 225.075 35.4971L228.744 38.559L227.785 39.3612C225.028 36.5015 223.2 36.3478 222.631 36.6284C222 38.9159 224.748 38.7705 225.419 41.991L221.107 40.9669L218.426 42.3611L214.114 41.3369L218.32 40.363L221.501 38.9423L220.856 36.2214L224.024 34.551L224.351 31.2776L227.4 27.3593L226.676 23.1398Z" fill="#8C8C8C"/>
<path d="M221.18 18.6718C216.986 19.8956 215.578 12.2058 215.275 11.2199C216.147 8.76933 218.452 12.8885 219.496 15.2544C222.735 15.8845 221.968 17.7952 221.18 18.6718Z" fill="#8C8C8C"/>
<path d="M206.08 36.2519C211.864 35.7455 209.719 43.4897 207.924 47.4252C206.588 48.6981 203.984 47.1327 202.849 46.1909C192.624 34.7098 176.52 37.7326 169.747 40.6792C159.441 42.8275 157.59 34.9774 157.952 30.7838C159.327 18.8893 167.425 10.9969 171.302 8.5376C150.581 33.4782 181.275 21.8688 199.343 13.0649C200.404 10.4039 201.879 10.5095 202.484 10.8949C200.739 11.9892 202.362 13.3225 203.392 13.8525C203.025 16.3765 201.197 14.9705 194.888 18.8108C189.841 21.8831 195.302 26.6367 198.664 28.6295C198.844 32.0263 203.683 35.1264 206.08 36.2519Z" fill="#C2C2C2"/>
<path d="M217.384 32.1472L213.877 41.5999L217.834 40.6392L221.75 38.9291L220.856 36.2214C215.42 39.5146 216.364 34.9563 217.384 32.1472Z" fill="#B6B2B2"/>
<path d="M221.361 15.8732C221.178 15.7733 221.056 15.7062 221.021 15.6747C221.146 15.7373 221.259 15.8035 221.361 15.8732C222.546 16.5217 226.3 18.5514 225.571 21.1945C224.731 24.2446 223.035 25.3361 225.139 27.2285C224.85 28.0787 221.93 23.3909 218.857 31.5684C219.328 26.2837 213.1 24.0585 218.604 22.0641C220.524 20.6045 223.621 17.4163 221.361 15.8732Z" fill="#B6B2B2"/>
<path d="M211.932 21.6152C212.121 17.5996 208.698 14.1089 206.963 12.8655L203.809 10.0283L212.955 12.5485C212.431 17.7835 216.995 19.5114 219.343 19.7209L216.846 19.8531C213.23 19.6438 211.329 25.9865 210.831 29.184L211.932 21.6152Z" fill="#B6B2B2"/>
<path d="M194.644 35.5482C202.382 37.9426 205.649 44.8129 206.316 47.9487C205.118 48.0121 202.365 45.8212 201.138 44.7178C191.044 35.6385 175.102 38.4182 168.393 40.9429C154.476 42.881 156.774 29.5409 159.926 22.8651C162.924 32.2197 183.502 26.1238 184.103 25.5913C176.432 32.0056 187.934 34.9018 194.644 35.5482Z" fill="#969696"/>
<path d="M252.549 130.858C266.932 125.267 268.712 112.041 267.804 106.127C253.421 92.3628 242.561 97.1658 238.929 101.288C226.398 113.116 247.394 132.863 252.549 130.858Z" fill="#FFE0CA"/>
<path d="M247 97C246.333 100 243 107.1 235 111.5C234.5 106.5 237.8 97.8 247 97Z" fill="#FFB884"/>
<path d="M255.211 56.9084C271.77 53.2903 273.819 44.7322 272.774 40.9054C256.215 31.9994 243.712 35.1073 239.531 37.7744C225.104 45.428 249.276 58.2052 255.211 56.9084Z" fill="#FFE0CA"/>
<path d="M248.823 35C248.055 36.9412 244.218 41.5353 235.007 44.3824C234.432 41.1471 238.231 35.5176 248.823 35Z" fill="#FFB884"/>
<path d="M221.549 174.883C235.932 170.279 237.712 159.386 236.804 154.516C222.421 143.181 211.561 147.137 207.929 150.531C195.398 160.272 216.394 176.534 221.549 174.883Z" fill="#FFE0CA"/>
<path d="M216 147C215.333 149.471 212 155.318 204 158.941C203.5 154.824 206.8 147.659 216 147Z" fill="#FFB884"/>
<path d="M182.377 212.904C194.127 209.122 195.581 200.175 194.84 196.174C183.089 186.863 174.217 190.112 171.25 192.901C161.012 200.902 178.165 214.26 182.377 212.904Z" fill="#FFE0CA"/>
<path d="M177.844 190C177.299 192.029 174.576 196.832 168.04 199.809C167.631 196.426 170.327 190.541 177.844 190Z" fill="#FFB884"/>
<path d="M158.852 210C167.252 219.6 179.685 224.333 184.852 225.5C177.652 235.1 156 222 147 214L109 216L105.5 206C115.667 203.667 150.452 200.4 158.852 210Z" fill="#E8AF85"/>
<path d="M36.3527 206.5H90L93.1697 216C47.1697 222.4 29.186 220.667 19.8526 219C2.35263 215 -0.647377 200.5 6.85262 180C26.8526 200 27.5194 206.333 36.3527 206.5Z" fill="#E8AF85"/>
<path d="M189.5 167C179.5 158.2 162.833 153.333 156 152C155.5 157 156.167 162.5 157 164C165.4 163.6 189 179.167 200 187C215.6 196.2 228.5 187.5 233 182C214.2 190 196.167 175.333 189.5 167Z" fill="#E8AF85"/>
<g filter="url(#filter1_d_181_194)">
<path d="M110 216.5C98 195.7 113.5 178.667 123.5 172L106 173.5C85.2 187.1 88.8333 208 94 217.5L110 216.5Z" fill="#A7A7A7"/>
</g>
<path d="M105.5 217C93 193 109.5 179.5 117.5 172.5L108 173C88.1271 190.886 93.4275 207.876 96.3702 217.309L96.4264 217.489L105.5 217Z" fill="#DBDBDB"/>
<ellipse cx="98.026" cy="187.913" rx="7.44481" ry="8.77079" transform="rotate(33.095 98.026 187.913)" fill="#AE0097"/>
<ellipse cx="98.3438" cy="186.102" rx="4.9586" ry="5.84176" transform="rotate(33.095 98.3438 186.102)" fill="#FF8BFD"/>
<ellipse cx="94.4965" cy="184.255" rx="2.17777" ry="3.06249" transform="rotate(33.095 94.4965 184.255)" fill="#FFCECE"/>
<path d="M91.5 193.5L93.5 198.5L101 198L102.5 194V191.5C99.7 193.9 93.6667 193.833 91.5 193.5Z" fill="#D9D9D9"/>
<path d="M106 188C105.667 186.5 105 183.4 105 183C104.873 182.2 102.947 180.667 102 180L110.5 179.5L106 188Z" fill="#D9D9D9"/>
<g filter="url(#filter2_d_181_194)">
<path d="M135.701 115.607L158.237 116.143C157.979 115.55 163.599 117.993 167.716 110.927C165.304 109.793 163.938 110.107 163.809 109.666C158.003 89.7645 168.86 73.1496 179.123 65.5422C180.195 64.7479 172.769 58.6992 173.735 58.1275L151.501 59.9353C131.73 74.0074 131.369 104.916 135.701 115.607Z" fill="#F90000"/>
</g>
<path d="M155.5 61.5L164 55H176.5L183.5 65L175 73H171L164 65L157 64L155.5 61.5Z" fill="#682A2A"/>
<path d="M153 56.5L154.5 59.5L149.5 65H153L147 72H140.5L138 67.5C138.4 63.9 144.833 59.3333 148 57.5L153 56.5Z" fill="#682A2A"/>
<path d="M137.223 76.7081L139.962 78.6447L139.075 81.7119L141.236 84.2014L139.251 93.2047L133.521 96.2732L129.193 93.4863C127.846 90.1239 131.362 83.0611 133.288 79.95L137.223 76.7081Z" fill="#682A2A"/>
<path d="M131.805 98.281L135.147 98.561L135.939 101.654L139.064 102.704L141.919 111.47L138.537 117.021L133.394 116.814C130.528 114.599 129.975 106.729 130.057 103.071L131.805 98.281Z" fill="#682A2A"/>
<path d="M143.986 82.2354L150.075 73.4367L161.97 69.5931L171.705 76.9562L166.077 87.1823L162.271 88.4122L153.15 82.9522L146.182 84.1531L143.986 82.2354Z" fill="#682A2A"/>
<path d="M141.743 108.875L141 98.5L151.36 89.1076L163.443 90.8381L163.468 102.511L165 108.875L152.5 112L144.592 109.49L141.743 108.875Z" fill="#682A2A"/>
<path d="M160.101 116.671L159.821 112.759L163.726 109.219L168.282 109.871L168.291 114.271L168.868 116.671L164.156 117.849L161.175 116.903L160.101 116.671Z" fill="#682A2A"/>
<g filter="url(#filter3_d_181_194)">
<path d="M151.5 63.5C150.3 63.1 153.667 61 155.5 60L154.5 62L156 65L161 68L153 69L148.5 74L142 80.5L145 85.5H150L157 88.5H148.5L140 98.5V104L138.5 100.5L136 97.5L140 95.5L143 85.5L140.5 81.5V78L142 74.5L148.5 72L154.5 64.5L151.5 63.5Z" fill="#FF9C67"/>
</g>
<g filter="url(#filter4_d_181_194)">
<path d="M134.5 173L153.5 172C153.193 171.384 160 177 163.5 169L158.5 169C151.02 148.072 160.922 124.151 170.5 115C171.5 114.045 167.086 112.206 168 111.5L146.5 115C128 132 129.273 161.869 134.5 173Z" fill="#F7A800"/>
</g>
<path d="M154 171.5C145.5 137 159.833 120.5 168 111.5L171 115C152.6 132.2 154.833 159.833 158.5 169H163.5C161.5 174.6 156.167 171.667 154 171.5Z" fill="#9F7000"/>
<g filter="url(#filter5_d_181_194)">
<path d="M112 152.534C115.785 143.023 123.547 123.845 124.307 123.221L163.131 122.24L159.202 134.128L187.474 128.248L134.094 155.868L147.615 133.092L112 152.534Z" fill="#FFF954"/>
</g>
<defs>
<filter id="filter0_d_181_194" x="166.67" y="14.7583" width="53.0049" height="55.2323" filterUnits="userSpaceOnUse" color-interpolation-filters="sRGB">
<feFlood flood-opacity="0" result="BackgroundImageFix"/>
<feColorMatrix in="SourceAlpha" type="matrix" values="0 0 0 0 0 0 0 0 0 0 0 0 0 0 0 0 0 0 127 0" result="hardAlpha"/>
<feOffset dx="-3" dy="-1"/>
<feGaussianBlur stdDeviation="2"/>
<feComposite in2="hardAlpha" operator="out"/>
<feColorMatrix type="matrix" values="0 0 0 0 0 0 0 0 0 0 0 0 0 0 0 0 0 0 0.25 0"/>
<feBlend mode="normal" in2="BackgroundImageFix" result="effect1_dropShadow_181_194"/>
<feBlend mode="normal" in="SourceGraphic" in2="effect1_dropShadow_181_194" result="shape"/>
</filter>
<filter id="filter1_d_181_194" x="82.9963" y="167" width="41.5037" height="53.5" filterUnits="userSpaceOnUse" color-interpolation-filters="sRGB">
<feFlood flood-opacity="0" result="BackgroundImageFix"/>
<feColorMatrix in="SourceAlpha" type="matrix" values="0 0 0 0 0 0 0 0 0 0 0 0 0 0 0 0 0 0 127 0" result="hardAlpha"/>
<feOffset dx="-3" dy="-1"/>
<feGaussianBlur stdDeviation="2"/>
<feComposite in2="hardAlpha" operator="out"/>
<feColorMatrix type="matrix" values="0 0 0 0 0 0 0 0 0 0 0 0 0 0 0 0 0 0 0.25 0"/>
<feBlend mode="normal" in2="BackgroundImageFix" result="effect1_dropShadow_181_194"/>
<feBlend mode="normal" in="SourceGraphic" in2="effect1_dropShadow_181_194" result="shape"/>
</filter>
<filter id="filter2_d_181_194" x="126.463" y="53.1275" width="53.7659" height="66.0158" filterUnits="userSpaceOnUse" color-interpolation-filters="sRGB">
<feFlood flood-opacity="0" result="BackgroundImageFix"/>
<feColorMatrix in="SourceAlpha" type="matrix" values="0 0 0 0 0 0 0 0 0 0 0 0 0 0 0 0 0 0 127 0" result="hardAlpha"/>
<feOffset dx="-3" dy="-1"/>
<feGaussianBlur stdDeviation="2"/>
<feComposite in2="hardAlpha" operator="out"/>
<feColorMatrix type="matrix" values="0 0 0 0 0 0 0 0 0 0 0 0 0 0 0 0 0 0 0.25 0"/>
<feBlend mode="normal" in2="BackgroundImageFix" result="effect1_dropShadow_181_194"/>
<feBlend mode="normal" in="SourceGraphic" in2="effect1_dropShadow_181_194" result="shape"/>
</filter>
<filter id="filter3_d_181_194" x="134.9" y="55.9" width="33.2" height="52.2" filterUnits="userSpaceOnUse" color-interpolation-filters="sRGB">
<feFlood flood-opacity="0" result="BackgroundImageFix"/>
<feColorMatrix in="SourceAlpha" type="matrix" values="0 0 0 0 0 0 0 0 0 0 0 0 0 0 0 0 0 0 127 0" result="hardAlpha"/>
<feOffset dx="3"/>
<feGaussianBlur stdDeviation="2.05"/>
<feComposite in2="hardAlpha" operator="out"/>
<feColorMatrix type="matrix" values="0 0 0 0 1 0 0 0 0 0.0416667 0 0 0 0 0.0416667 0 0 0 0.86 0"/>
<feBlend mode="normal" in2="BackgroundImageFix" result="effect1_dropShadow_181_194"/>
<feBlend mode="normal" in="SourceGraphic" in2="effect1_dropShadow_181_194" result="shape"/>
</filter>
<filter id="filter4_d_181_194" x="124.122" y="106.5" width="47.5266" height="69.8454" filterUnits="userSpaceOnUse" color-interpolation-filters="sRGB">
<feFlood flood-opacity="0" result="BackgroundImageFix"/>
<feColorMatrix in="SourceAlpha" type="matrix" values="0 0 0 0 0 0 0 0 0 0 0 0 0 0 0 0 0 0 127 0" result="hardAlpha"/>
<feOffset dx="-3" dy="-1"/>
<feGaussianBlur stdDeviation="2"/>
<feComposite in2="hardAlpha" operator="out"/>
<feColorMatrix type="matrix" values="0 0 0 0 0 0 0 0 0 0 0 0 0 0 0 0 0 0 0.25 0"/>
<feBlend mode="normal" in2="BackgroundImageFix" result="effect1_dropShadow_181_194"/>
<feBlend mode="normal" in="SourceGraphic" in2="effect1_dropShadow_181_194" result="shape"/>
</filter>
<filter id="filter5_d_181_194" x="108" y="122.24" width="83.4741" height="41.6285" filterUnits="userSpaceOnUse" color-interpolation-filters="sRGB">
<feFlood flood-opacity="0" result="BackgroundImageFix"/>
<feColorMatrix in="SourceAlpha" type="matrix" values="0 0 0 0 0 0 0 0 0 0 0 0 0 0 0 0 0 0 127 0" result="hardAlpha"/>
<feOffset dy="4"/>
<feGaussianBlur stdDeviation="2"/>
<feComposite in2="hardAlpha" operator="out"/>
<feColorMatrix type="matrix" values="0 0 0 0 0.933334 0 0 0 0 1 0 0 0 0 0 0 0 0 0.25 0"/>
<feBlend mode="normal" in2="BackgroundImageFix" result="effect1_dropShadow_181_194"/>
<feBlend mode="normal" in="SourceGraphic" in2="effect1_dropShadow_181_194" result="shape"/>
</filter>
</defs>
</svg>
