<svg width="607" height="489" viewBox="0 0 607 489" fill="none" xmlns="http://www.w3.org/2000/svg">
<mask id="mask0_138_2" style="mask-type:alpha" maskUnits="userSpaceOnUse" x="0" y="0" width="607" height="489">
<path d="M607 479.306C572.451 358.062 581.851 104.313 596.246 12.2899L177.622 15.7269L169.941 47.6233L159.955 15.8719L128.462 16.1305L117.709 36.8696L104.651 16.1305L21.694 -2.55845e-05C-6.75806 44.3314 -1.1623 197.004 4.9345 249.971C35.0124 342.639 17.467 450.69 4.93449 488.523C4.93449 488.523 126.158 489.291 212.955 479.306C299.753 469.32 505.608 479.306 505.608 479.306L510.217 462.407L518.666 479.306L527.884 479.306L537.869 469.32L547.855 479.306L607 479.306Z" fill="#DABC5C"/>
</mask>
<g mask="url(#mask0_138_2)">
<path fill-rule="evenodd" clip-rule="evenodd" d="M643.153 505.814L218.451 517.28L64.9863 554.308L37.2165 502.769L-67.2257 563.607L-34.6823 466.764C-28.5001 448.367 -24.031 419.639 -21.6132 382.785C-19.239 346.592 -18.9792 305.042 -20.0984 262.352C-22.3368 176.976 -30.0298 89.1327 -36.422 34.5606L-41.2108 -6.32186L357.562 -25.2195L371.691 -33.5289L423.016 -69.415L458.008 -36.2082L476.153 -43.4892L510.234 -25.3255L643.042 -19.9532L617.172 244.234L643.153 505.814ZM53.7952 404.219L67.1703 396.428L104.524 465.752L208.295 440.715L558.558 431.258L539.988 244.288L558.669 53.5084L489.595 50.7142L471.578 41.112L440.88 53.4305L415.633 29.4723L413.232 31.1517L380.147 50.6082L44.2596 66.5257C49.6258 120.873 54.8754 191.241 56.687 260.339C57.8422 304.402 57.6146 348.472 55.0338 387.813C54.672 393.328 54.2611 398.803 53.7952 404.219Z" fill="#DABC5C"/>
</g>
</svg>
