<svg width="77" height="133" viewBox="0 0 77 133" fill="none" xmlns="http://www.w3.org/2000/svg">
<path d="M36.7759 0C24.5276 1.05871 26.68 14.4469 29.2871 21.0087L25.1268 24.3172L24.2947 31.9266L27.623 34.9042C29.7531 51.4465 22.6305 64.2944 18.803 68.6505C14.0102 73.0177 7.48665 82.7114 4.824 87.0124L2.49416 86.0199C-7.62394 122.148 21.4656 132.393 37.2751 133C79.7113 133 78.7682 101.184 74.3859 85.1928L72.8882 87.0124C70.6249 79.9985 61.8493 71.8487 57.7443 68.6505C48.2919 61.2396 46.7054 43.0651 47.0937 34.9042L49.5899 31.9266V24.3172L45.0967 21.8358C51.7534 5.16119 42.3231 0.330846 36.7759 0Z" fill="#D9D9D9"/>
</svg>
