<svg width="88" height="134" viewBox="0 0 88 134" fill="none" xmlns="http://www.w3.org/2000/svg">
<path fill-rule="evenodd" clip-rule="evenodd" d="M30.546 2.81467V17.5058C28.2804 17.5058 26.652 20.8098 26.121 22.4618C22.581 21.6122 19.2179 18.8038 17.9789 17.5058L16.7399 22.4618C9.23506 23.1698 7.35884 17.4468 7.35884 14.4967C2.4028 15.4879 4.23181 19.6298 5.76582 21.5768C-5.42066 20.3024 3.4648 41.5779 9.30584 52.375C12.2559 57.154 19.7489 67.3493 26.121 69.8981C32.493 72.447 31.726 76.6242 30.546 78.3942L33.378 77.3322V85.4743L30.546 83.1732C31.431 85.1793 32.9886 90.3241 32.139 94.8553C31.2894 99.3866 31.785 102.997 32.139 104.236L28.422 102.466C26.7228 114.927 34.44 118.042 38.511 118.042L40.4581 121.583L48.4231 133.442L52.8481 121.583C56.3882 121.299 57.2732 119.104 57.2732 118.042C65.486 115.21 66.8313 105.652 66.4772 101.227L63.8222 102.466C63.5272 100.578 62.6186 96.4129 61.3442 94.8553C60.0698 93.2977 60.8132 87.1263 61.3442 84.2352L59.3972 86.8903V76.4472L61.3442 74.6772C61.3442 69.4379 67.4803 64.1161 70.5483 62.1101C87.5404 51.0652 88.4844 32.3739 86.8324 24.4088C87.8236 17.7536 84.2954 15.0277 82.4074 14.4967C82.6906 20.1608 76.7433 20.9868 73.7343 20.6918L71.9643 17.5058C65.7338 23.1698 62.2882 20.6918 61.3442 18.7448V2.81467C52.7065 -2.28297 37.213 0.690654 30.546 2.81467ZM72.1695 33.2983L77.8335 26.0413C87.0376 24.0589 82.9665 37.3694 79.7805 44.2724C72.5589 57.7245 67.0954 60.0255 65.2664 59.4945C63.9465 57.5147 64.5951 55.1411 65.0104 53.6216C65.152 53.1034 65.2664 52.6845 65.2664 52.4145C74.0457 47.1752 73.5265 37.4874 72.1695 33.2983ZM12.0762 26.0413L17.7402 33.2983C16.3832 37.4874 15.864 47.1752 24.6433 52.4145C24.6433 52.6845 24.7577 53.1034 24.8993 53.6216C25.3146 55.1411 25.9632 57.5147 24.6433 59.4945C22.8143 60.0255 17.3508 57.7245 10.1292 44.2724C6.94314 37.3694 2.87209 24.0589 12.0762 26.0413Z" fill="#D9D9D9"/>
</svg>
