<svg width="91" height="142" viewBox="0 0 91 142" fill="none" xmlns="http://www.w3.org/2000/svg">
<path fill-rule="evenodd" clip-rule="evenodd" d="M32.9383 8.27725V21.9872C30.824 21.9872 29.3043 25.0705 28.8088 26.6122C25.5052 25.8193 22.3668 23.1985 21.2105 21.9872L20.0543 26.6122C13.0507 27.2729 11.2998 21.9321 11.2998 19.1791C6.67473 20.1041 8.38158 23.9693 9.81313 25.7863C-0.626223 24.597 7.66579 44.4516 13.1167 54.5275C15.8697 58.9874 22.8623 68.5017 28.8088 70.8803C34.7553 73.2589 34.0395 77.1571 32.9383 78.8089L35.5811 77.8179V85.4161L32.9383 83.2688C33.7642 85.1408 35.2178 89.942 34.4249 94.1706C33.632 98.3992 34.0945 101.769 34.4249 102.925L30.9561 101.273C29.3704 112.902 36.5722 115.809 40.3713 115.809L42.1883 119.113L49.6214 130.18L53.7509 119.113C57.0545 118.848 57.8804 116.8 57.8804 115.809C65.5447 113.166 66.8001 104.247 66.4697 100.117L63.992 101.273C63.7167 99.5114 62.8688 95.6242 61.6795 94.1706C60.4902 92.7171 61.184 86.9578 61.6795 84.2599L59.8625 86.7376V76.992L61.6795 75.3402C61.6795 70.4508 67.4057 65.4844 70.2689 63.6124C86.1261 53.3052 87.0071 35.8622 85.4654 28.4291C86.3904 22.2184 83.0978 19.6746 81.3359 19.1791C81.6002 24.4648 76.0501 25.2357 73.2421 24.9604L71.5903 21.9872C65.776 27.2729 62.5605 24.9604 61.6795 23.1434V8.27725C53.6188 3.52008 39.16 6.2951 32.9383 8.27725ZM71.7818 36.7249L77.0675 29.9525C85.6569 28.1025 81.8577 40.524 78.8845 46.966C72.1452 59.5197 67.0466 61.667 65.3398 61.1715C64.108 59.3239 64.7133 57.1088 65.1008 55.6908C65.233 55.2072 65.3398 54.8163 65.3398 54.5643C73.5327 49.675 73.0482 40.6342 71.7818 36.7249ZM15.7021 29.9525L20.9878 36.7249C19.7214 40.6342 19.2369 49.675 27.4298 54.5643C27.4298 54.8163 27.5366 55.2072 27.6688 55.6908C28.0563 57.1088 28.6616 59.3239 27.4298 61.1715C25.723 61.667 20.6244 59.5197 13.8851 46.966C10.9119 40.524 7.1127 28.1025 15.7021 29.9525Z" fill="#D2DBD3" fill-opacity="0.75"/>
<g filter="url(#filter0_i_181_155)">
<path d="M34.2328 67.9806C31.7518 63.4455 32.0713 51.3026 32.5412 45.798C44.6076 39.094 57.2095 43.0047 62.0022 45.798C62.6788 53.3894 61.0625 63.7495 60.1697 67.9806C57.8015 73.5016 57.1155 84.6586 57.0685 89.547L58.4782 107.17L48.6108 120.356L37.8977 107.17L39.0254 89.547C39.4765 84.1246 36.0183 72.91 34.2328 67.9806Z" fill="#B9CD39"/>
</g>
<ellipse cx="44.4787" cy="96.9832" rx="0.956865" ry="2.76946" transform="rotate(-1.22123 44.4787 96.9832)" fill="white"/>
<path d="M35.606 2.00297V10.736C43.2342 12.2899 53.4051 11.8661 58.2431 10.736C58.9627 6.3023 57.9432 3.0666 57.3436 2.00297C54.4652 -1.6246 41.6525 0.491481 35.606 2.00297Z" fill="#C76E48"/>
<path d="M43.8793 93.0923L41.0118 83.5501C43.7646 68.2094 39.5781 50.1176 38.4312 42.0964L43.8793 51.2143L45.1696 83.5501L43.8793 93.0923Z" fill="white"/>
<path d="M58.4906 10.554C53.2602 12.9057 40.7244 11.5509 35.3234 10.8772L35.606 7.06315L46.4832 8.33451C51.9925 8.33451 55.524 7.06315 58.4906 7.06315V10.554Z" fill="#974826"/>
<path d="M43.7992 2.04716C47.113 0.502324 54.5212 -1.66044 57.643 2.04716C55.7228 3.27393 50.2658 4.99142 43.7992 2.04716Z" fill="#F19973"/>
<g filter="url(#filter1_d_181_155)">
<path fill-rule="evenodd" clip-rule="evenodd" d="M62.2404 74.4456L59.9801 76.2821C56.8159 79.7854 57.1078 84.334 57.2961 85.3229C55.262 79.4463 56.9665 71.1024 58.4262 68.5126C63.0879 55.0926 57.8612 56.6465 54.7534 60.0368C52.2672 62.7491 51.4573 71.432 51.3631 75.4345L48.2553 71.9029L44.865 75.4345C46.5602 70.9141 45.4301 66.3936 41.3334 60.0368C37.2368 53.68 34.6941 59.4718 38.2256 68.5126C41.0509 75.7453 39.9679 82.7331 39.0732 85.3229C38.6212 80.4634 36.5305 78.401 35.5416 77.9772L32.5751 78.6835C34.0443 75.1802 31.1154 72.7034 29.4673 71.9029C12.092 60.8844 5.17006 42.2377 4.32248 32.6318C3.64442 24.9471 7.61864 24.6269 9.69051 25.4274C5.39611 21.246 9.21963 18.788 11.6682 18.0817C11.6682 25.2013 17.4129 26.4162 20.2852 26.1337C19.0421 24.3255 20.2381 21.6133 20.9916 20.4832C21.2176 22.4043 26.2654 25.0507 28.761 26.1337C29.7781 22.5174 31.8217 21.7074 32.7164 21.7545L29.2492 13.8438C37.951 13.7308 43.9703 19.2118 44.1587 21.7545L47.549 26.1337L50.798 21.7545C51.3631 17.9122 61.1746 14.5972 64.5649 13.5613L62.2404 22.6021C63.4835 26.2184 69.5389 22.6963 72.4113 20.4832L73.2589 23.7322C80.2655 24.8623 81.6405 20.4361 81.4521 18.0817C86.8766 18.9858 86.9143 25.6157 86.2551 28.8177C89.1933 42.6049 80.6045 55.3751 75.9429 60.0368C66.45 65.6873 62.8525 71.9971 62.2404 74.4456ZM21.0223 36.6234L15.7365 29.8511C7.14717 28.0011 10.9463 40.4226 13.9196 46.8646C20.6589 59.4182 25.7574 61.5656 27.4643 61.07C28.696 59.2224 28.0907 57.0074 27.7032 55.5893C27.5711 55.1058 27.4643 54.7149 27.4643 54.4628C19.2714 49.5735 19.7559 40.5327 21.0223 36.6234ZM77.1681 29.8511L71.8824 36.6234C73.1487 40.5327 73.6333 49.5735 65.4403 54.4628C65.4403 54.7149 65.3335 55.1058 65.2014 55.5893C64.8139 57.0074 64.2086 59.2224 65.4403 61.07C67.1472 61.5656 72.2457 59.4182 78.9851 46.8646C81.9583 40.4226 85.7575 28.0011 77.1681 29.8511ZM51.4274 48.877L61.7396 36.8697C62.1163 38.4707 62.2764 42.7462 59.9032 47.0406C57.53 51.335 53.2638 50.0542 51.4274 48.877ZM34.13 36.7284L44.4422 48.7358C42.6058 49.913 38.3397 51.1938 35.9665 46.8994C33.5932 42.605 33.7533 38.3294 34.13 36.7284Z" fill="#6E766E"/>
</g>
<path d="M64.5649 14.1263C60.6566 14.2675 51.0884 16.4147 48.0371 26.1336C51.3803 23.0729 60.1575 16.8385 64.5649 14.1263Z" fill="#B6CBB0"/>
<path d="M30.5204 13.5613C34.4287 13.7025 43.9969 15.8497 47.0482 25.5686C43.705 22.5079 34.9279 16.2735 30.5204 13.5613Z" fill="#B6CBB0"/>
<path d="M29.1078 26.4162C28.8818 22.4608 31.0855 21.9429 32.2156 22.1783C29.9332 24.2433 34.9589 28.0417 38.0695 29.8792C38.2018 29.9485 38.3227 30.0185 38.4312 30.089C38.3141 30.0223 38.1933 29.9523 38.0695 29.8792C35.4479 28.505 28.3732 27.3847 25.0112 26.9812L25.8588 29.6652C24.6157 29.1002 18.1835 27.6405 15.1228 26.9812C8.22917 26.0772 5.09315 32.3492 4.38684 35.5983C2.69169 27.8006 6.97665 25.5686 9.33103 25.4273C6.05372 21.246 9.56647 18.788 11.7325 18.0817C11.2805 22.8281 17.5714 25.6157 20.7733 26.4162C19.0782 23.93 20.067 21.4249 20.7733 20.4831C21.1123 22.8564 26.4709 25.4273 29.1078 26.4162Z" fill="#B6CBB0"/>
<path d="M64.1411 25.5686C64.3671 21.6133 62.1634 21.0953 61.0333 21.3308C63.3157 23.3958 58.2899 27.1942 55.1793 29.0317C55.0471 29.101 54.9262 29.1709 54.8177 29.2415C54.9348 29.1748 55.0556 29.1048 55.1793 29.0317C57.801 27.6575 64.8757 26.5371 68.2377 26.1337L67.3901 28.8177C68.6332 28.2526 75.0654 26.7929 78.1261 26.1337C85.0197 25.2296 85.8956 34.1857 86.6019 37.4347C88.297 29.637 86.2722 24.7211 83.9179 24.5798C87.1952 20.3984 83.6824 17.9404 81.5164 17.2341C81.9684 21.9806 75.6775 24.7682 72.4756 25.5686C74.1707 23.0824 73.1819 20.5774 72.4756 19.6356C72.1365 22.0088 66.778 24.5798 64.1411 25.5686Z" fill="#B6CBB0"/>
<path d="M32.6534 78.9524C32.6272 77.5344 32.1987 75.8836 31.511 74.6514C28.6954 72.1035 26.6699 71.7227 23.5137 70.0345C21.8265 69.132 20.5537 67.5889 19.5487 65.9889C19.1808 65.4031 18.7063 64.6119 18.6549 63.8921C18.6354 63.6184 19.2122 63.915 19.3068 63.9459C20.9244 64.4741 22.1677 65.8441 23.6481 66.6676C25.0482 67.4464 26.5826 68.1845 28.1911 68.3611C29.0955 68.4605 30.0611 68.4461 30.5701 67.5816C31.5086 65.9876 31.7942 64.1 31.8067 62.2859C31.8174 60.7281 31.7968 59.1502 31.5513 57.6086C31.4064 56.6988 31.1767 55.8073 31.101 54.8868C31.0775 54.6004 30.961 54.183 31.3295 54.1409C32.1873 54.0428 33.0672 54.0919 33.9236 54.1677C35.3905 54.2977 36.7635 54.5763 38.144 55.0884C38.8302 55.343 39.5752 55.7279 40.3146 55.4379C41.4513 54.9921 41.6879 53.4533 42.5458 52.6758C43.1216 52.154 44.3156 53.3982 44.7568 53.7645C45.7201 54.5643 46.403 56.0535 46.9073 57.1583C47.6556 58.7973 47.9685 60.6135 48.8226 62.2053C49.0528 62.6342 50.5217 60.7589 50.8118 60.505C52.0917 59.3851 53.7427 58.4648 55.3279 57.8505C56.7115 57.3143 58.2372 57.3353 59.6155 56.8021C61.0239 56.2573 62.2741 55.2669 63.5268 54.45C64.102 54.0749 63.8628 55.3641 63.8628 55.7134C63.8628 57.6174 63.7681 60.041 65.6907 61.0897C66.3343 61.4407 67.0631 61.7515 67.774 61.4929C69.3226 60.9298 70.8568 60.3068 72.4245 59.7994C73.2732 59.5247 74.2392 59.1048 75.1328 58.9997C75.3517 58.9739 75.0479 59.2213 75.032 59.2349C74.7047 59.5154 74.4835 59.8355 74.2121 60.169C73.6354 60.8779 72.9223 61.4258 72.2565 62.044C71.3219 62.9118 70.538 63.909 69.5415 64.7187C68.566 65.5113 67.3877 65.9974 66.3964 66.7684C64.9437 67.8983 63.9293 69.4961 63.1437 71.1366C62.8063 71.8413 62.4783 73.6843 61.7526 74.0802C61.5135 74.2106 61.4373 74.3598 61.262 74.5976C60.6401 75.4417 59.934 76.221 59.3467 77.0909C58.6569 78.1125 58.1265 79.2234 57.7338 80.3906C57.717 80.4406 57.4196 81.8218 57.2768 81.8422C57.1418 81.8615 56.6513 79.9318 56.6317 79.7589C56.4787 78.4128 56.7904 77.0428 57.0886 75.7401C57.6137 73.4463 58.959 71.6397 59.7902 69.4767C60.5851 67.4084 60.7567 64.1395 59.6424 62.1381C57.9274 59.0577 55.3012 61.8852 53.6008 63.2738C50.9033 65.4768 51.3314 69.6287 50.8723 72.7697C50.7583 73.5498 50.7155 74.3244 50.6505 75.1084C50.6456 75.1676 50.6293 75.579 50.5296 75.6863C50.4108 75.8143 50.0974 75.3864 50.0457 75.3369C49.23 74.5559 48.4456 73.928 47.8011 72.9713C47.2174 72.1048 47.0718 72.6719 46.6586 73.4014C46.5622 73.5718 44.8411 75.8285 44.6291 75.0412C44.5287 74.6682 44.6665 74.1651 44.7501 73.8046C44.9942 72.7517 45.0701 71.6537 45.2877 70.5923C45.6538 68.8068 45.9335 66.9095 45.664 65.0816C45.42 63.4267 44.2383 61.187 43.0297 60.0279C41.8617 58.9078 40.1235 58.0433 38.6614 57.3935C38.2714 57.2202 37.5701 56.8959 37.1426 57.1919C36.4335 57.6828 36.5121 58.6851 36.5915 59.4231C36.9167 62.4423 37.2401 65.4615 37.5526 68.4821C37.9323 72.1525 38.4817 75.8211 38.5741 79.5169C38.6081 80.8774 38.7728 82.4259 38.5001 83.7642C38.4202 84.1568 37.9701 85.2816 37.7474 84.3354C37.6063 83.7354 37.6158 83.142 37.3442 82.568C36.8358 81.4934 36.2914 80.425 35.6507 79.4229C35.5195 79.2176 34.8008 77.8126 34.5351 78.0922C33.95 78.7081 33.5596 79.4891 32.9088 80.0546C32.5115 80.3997 32.6583 79.214 32.6534 78.9524Z" fill="#343434"/>
<path d="M52.9713 49.4452C52.4416 49.3593 52.023 48.9628 51.5127 48.8535L51.1274 48.6168C51.1983 48.1365 51.4724 47.6762 51.6833 47.2463C52.4147 45.7553 52.8198 44.0696 53.274 42.4797C53.3101 42.3534 53.1403 42.7065 53.0594 42.8099C52.8046 43.1352 52.6281 43.5172 52.3824 43.8502C51.6729 44.8117 50.7257 45.4415 49.867 46.25C49.4688 46.6249 49.106 47.0314 48.7551 47.4499C48.6244 47.6059 48.5388 47.035 48.5129 46.9325C48.3529 46.2972 48.4782 45.6152 48.3918 44.9675C48.2119 43.618 48.0718 42.2835 48.0451 40.9192C48.0286 40.0794 48.0264 39.2217 47.8524 38.3956C47.8125 38.206 47.7442 38.8617 47.7424 38.8744C47.5703 40.0542 47.4011 41.1777 47.4011 42.3723C47.4011 43.5625 47.3081 44.7436 47.2305 45.9308C47.2109 46.2307 47.1703 46.5301 47.1617 46.8307C47.1597 46.8995 47.2088 47.0845 47.1589 47.0371C46.8749 46.7673 46.6152 46.4778 46.3553 46.184C45.6247 45.3579 44.9255 44.5062 44.1646 43.7071C43.6068 43.1211 43.0331 42.5502 42.4859 41.954C42.3609 41.8178 42.1991 41.5816 42.0511 41.4449C42.0126 41.4094 42.0708 41.5477 42.0813 41.599C42.1264 41.8195 42.1701 42.0404 42.2217 42.2595C42.3578 42.8381 42.5388 43.3951 42.7666 43.9438C43.2457 45.0981 43.8713 46.1696 44.5389 47.2242C44.692 47.466 45.1464 48.1383 44.6518 48.3581C44.5163 48.4183 44.3915 48.4958 44.2555 48.5563C44.1617 48.5979 44.0288 48.7086 43.9555 48.7819C43.6225 49.1149 43.3501 49.2889 42.9207 49.4699C42.3195 49.7233 41.7912 49.9391 41.1319 49.9818C40.5428 50.02 39.7715 50.0411 39.2274 49.7837C37.8415 49.128 36.7757 48.1471 35.8313 46.9435C35.1782 46.111 34.6404 45.2195 34.0508 44.3428C33.0388 42.8382 31.8135 41.4863 30.7703 40.0028C30.5932 39.751 30.1818 38.9347 30.2611 39.2322C30.6558 40.7122 30.9517 42.2395 31.5601 43.652C31.8312 44.2814 32.0781 44.9625 32.4518 45.54C32.8657 46.1796 33.4018 46.8017 33.9159 47.3618C34.0803 47.5409 36.285 49.4646 35.9029 49.6956C35.5173 49.9288 34.7023 49.7947 34.2847 49.7947C33.687 49.7947 33.0876 49.808 32.4903 49.7837C32.1625 49.7703 32.3259 49.7865 32.5233 49.8993C34.0413 50.7666 35.834 51.4294 37.5982 51.4294C39.1637 51.4294 40.7559 51.546 42.3153 51.4019C42.8515 51.3523 43.3082 51.2322 43.7931 51.0029C44.0258 50.8928 44.2481 50.7717 44.4674 50.6368C44.5878 50.5628 44.7753 50.393 44.9242 50.3671C45.1132 50.3343 44.7052 51.3189 44.638 51.3909C44.568 51.4659 44.9596 51.3593 44.993 51.3551C45.4186 51.3019 45.826 51.2555 46.2315 51.1074C46.5623 50.9866 46.8759 50.8532 47.1837 50.6809C47.3639 50.5799 47.701 50.2517 47.8497 50.5212C48.3553 51.4377 49.2409 52.1763 50.0486 52.822C50.837 53.4522 51.7756 53.8001 52.6411 54.3026C52.7439 54.3623 53.1114 54.6768 52.9053 54.3852C52.6208 53.9826 52.3919 53.5296 52.1787 53.0862C52.0543 52.8273 51.7184 52.1636 51.8154 51.8643C51.8463 51.7691 51.9906 51.9635 52.0659 52.0294C52.2153 52.1602 52.3678 52.2764 52.5365 52.3816C52.9742 52.6548 53.4111 52.9318 53.8575 53.1908C54.2292 53.4064 54.5682 53.6251 54.9913 53.7192C55.3891 53.8076 55.7852 53.8928 56.1885 53.9531C58.188 54.2521 60.3896 54.0485 62.2816 53.3091C63.3653 52.8856 64.2953 52.2297 64.9731 51.2808C65.8704 50.0246 66.5931 48.6248 67.1665 47.1912C67.4874 46.3891 67.6036 45.5245 67.8215 44.6923C68.0863 43.6814 68.2158 42.6515 68.3444 41.6155C68.4122 41.0699 68.6394 39.452 68.4545 39.9698C68.215 40.6404 67.9714 41.3071 67.75 41.9843C67.4505 42.9002 66.9976 43.8071 66.5115 44.6373C65.894 45.692 65.381 46.7523 64.6677 47.7526C63.8106 48.9544 62.459 49.911 61.1615 50.6038C61.0406 50.6683 60.5649 51.0539 60.7294 50.7249C60.8734 50.437 61.0102 50.1405 61.1422 49.847C62.009 47.9209 63.0121 46.0816 63.3522 43.9658C63.4545 43.3289 63.4978 42.695 63.5008 42.0503C63.5019 41.8026 63.5455 41.0659 63.4898 41.3073C63.3451 41.9341 63.1437 42.5426 62.9724 43.1622C62.6804 44.2182 62.1117 45.1092 61.5798 46.0519C61.1295 46.8499 60.55 47.675 59.8708 48.2976C59.2538 48.8631 58.6802 49.4402 57.8425 49.6433C56.9247 49.8658 55.9033 49.8356 54.9721 49.7452C54.3066 49.6805 53.6328 49.5524 52.9713 49.4452Z" fill="#343434"/>
<path d="M49.519 44.72C49.6766 43.932 49.7078 43.2013 49.7142 42.3999L50.0779 38.1812C50.2676 37.7015 50.487 37.3036 50.8498 36.9346C51.3235 36.4529 51.8202 35.9903 52.3048 35.5195C52.6942 35.1413 52.9554 34.6176 53.4582 34.3661C53.7716 34.2094 53.7109 36.0266 53.6667 36.3535C53.6198 36.7009 53.6268 37.046 53.6268 37.396C53.6268 37.5653 53.5496 37.9602 53.6268 38.1146C53.6748 38.2106 53.834 38.059 53.9373 38.0303C54.0265 38.0056 54.1396 37.999 54.2212 37.9549C54.7435 37.6726 55.1368 37.0149 55.4988 36.5576C55.9575 35.9781 56.5117 35.4884 56.9805 34.9206C57.5274 34.2582 58.1894 33.7038 58.9057 33.2305C59.82 32.6264 60.6551 31.8008 61.6073 31.2786C61.8535 31.1436 61.3827 31.7677 61.3367 31.8376C61.1323 32.1482 60.9668 32.4796 60.8132 32.8179C60.6058 33.2751 60.425 33.7461 60.272 34.2242C60.2359 34.337 60.3687 34.2235 60.4317 34.1843C62.0116 33.2013 63.648 32.3244 65.2405 31.3629C65.4943 31.2096 66.0456 30.581 65.9813 30.8705C65.922 31.1373 65.5612 31.4433 65.3824 31.6291C64.8936 32.137 64.5452 32.7413 64.0427 33.2438C63.5639 33.7226 63.1325 34.2427 62.6498 34.7166C62.3063 35.0538 61.8928 35.2321 61.5319 35.5328C60.978 35.9944 60.4165 36.4302 59.8506 36.877C59.1211 37.4529 58.4909 38.1923 57.8322 38.851C57.1882 39.495 56.4585 40.0384 55.8182 40.6787C55.1728 41.3241 54.6793 42.1156 54.2301 42.9056C54.0882 43.1552 53.8663 43.9735 53.8663 43.6864C53.8663 43.4555 53.9758 43.2383 54.0615 43.0298C54.3141 42.4158 54.6171 41.7507 54.5672 41.0691C54.553 40.8738 54.4822 40.8434 54.341 40.9493C54.0626 41.1581 53.7449 41.3059 53.4671 41.5171C53.0958 41.7993 52.8041 42.1661 52.429 42.4442C51.8069 42.9056 51.4415 43.479 50.9119 44.0235C50.5263 44.42 50.2217 44.8383 49.8739 45.2656C49.8671 45.2739 49.5208 45.6779 49.4791 45.5318C49.4126 45.299 49.4736 44.9467 49.519 44.72Z" fill="#A0A9A0"/>
<path d="M46.1404 44.155C45.9828 43.367 45.9516 42.6363 45.9452 41.8349L45.5814 37.6162C45.3918 37.1365 45.1723 36.7386 44.8096 36.3696C44.3359 35.8879 43.8392 35.4253 43.3545 34.9545C42.9652 34.5763 42.704 34.0526 42.2011 33.8011C41.8877 33.6444 41.9485 35.4616 41.9926 35.7885C42.0396 36.1359 42.0326 36.481 42.0326 36.831C42.0326 37.0003 42.1098 37.3952 42.0326 37.5496C41.9846 37.6456 41.8254 37.494 41.722 37.4653C41.6329 37.4406 41.5197 37.434 41.4381 37.3899C40.9159 37.1076 40.5226 36.4499 40.1605 35.9926C39.7018 35.4131 39.1476 34.9234 38.6789 34.3556C38.132 33.6932 37.47 33.1388 36.7536 32.6655C35.8393 32.0614 35.0042 31.2358 34.0521 30.7136C33.8059 30.5786 34.2767 31.2027 34.3227 31.2726C34.527 31.5832 34.6926 31.9146 34.8461 32.2529C35.0535 32.7101 35.2343 33.1811 35.3873 33.6592C35.4234 33.772 35.2907 33.6585 35.2276 33.6193C33.6478 32.6363 32.0114 31.7594 30.4189 30.7979C30.1651 30.6446 29.6138 30.016 29.6781 30.3055C29.7374 30.5723 30.0982 30.8783 30.2769 31.0641C30.7658 31.572 31.1142 32.1763 31.6166 32.6788C32.0954 33.1576 32.5269 33.6777 33.0096 34.1516C33.353 34.4888 33.7666 34.6671 34.1275 34.9678C34.6814 35.4294 35.2429 35.8652 35.8087 36.312C36.5382 36.8879 37.1684 37.6273 37.8272 38.286C38.4711 38.93 39.2008 39.4734 39.8411 40.1137C40.4866 40.7591 40.98 41.5506 41.4293 42.3406C41.5712 42.5902 41.793 43.4085 41.793 43.1213C41.793 42.8905 41.6836 42.6733 41.5978 42.4648C41.3453 41.8508 41.0422 41.1857 41.0921 40.5041C41.1064 40.3088 41.1772 40.2784 41.3184 40.3843C41.5968 40.5931 41.9144 40.7409 42.1923 40.9521C42.5635 41.2343 42.8552 41.6011 43.2303 41.8792C43.8524 42.3406 44.2179 42.914 44.7475 43.4585C45.1331 43.855 45.4377 44.2733 45.7855 44.7006C45.7922 44.7089 46.1386 45.1129 46.1803 44.9668C46.2468 44.734 46.1857 44.3817 46.1404 44.155Z" fill="#A0A9A0"/>
<path d="M34.0095 101.012C34.0598 101.525 34.1532 102.04 34.1875 102.554L37.2966 104.334C37.4854 104.37 38.0973 104.546 38.246 104.318C38.34 104.175 38.373 103.893 38.4201 103.725C38.5477 103.269 38.4596 102.702 38.4596 102.234C38.4596 101.744 38.4833 101.247 38.4438 100.758C38.323 99.2631 38.397 97.7604 38.4557 96.2647C38.5917 92.7961 39.0646 89.3557 38.9541 85.8731C38.9051 84.3301 38.6226 82.6981 38.1748 81.2252C37.9197 80.3861 37.4236 79.7043 36.7903 79.1128C36.6892 79.0184 35.9182 78.1176 36.0743 78.5234C36.2134 78.885 36.4312 79.1934 36.5371 79.5717C36.7275 80.2517 36.8028 80.987 36.9248 81.684C37.1195 82.7965 37.1787 83.9266 37.3916 85.0384C38.01 88.2682 38.2642 91.6377 37.6764 94.896C37.4607 96.0917 37.3867 97.3375 37.1305 98.5194C37.043 98.9232 36.9128 99.5763 36.6479 99.9118C36.5674 100.014 36.3979 99.78 36.3552 99.7338C35.9721 99.3201 35.7892 98.8173 35.568 98.3098C35.2395 97.5562 34.867 96.8956 34.7017 96.0748C34.6939 96.0363 34.5659 95.3367 34.5474 95.521C34.5284 95.7113 34.5093 95.9002 34.4881 96.0906C34.4161 96.739 34.3518 97.3873 34.2903 98.0368C34.2338 98.6344 34.2157 99.2427 34.1004 99.8327C34.0214 100.237 33.9689 100.598 34.0095 101.012Z" fill="#6E766E"/>
<path d="M62.0391 101.135C61.9887 101.649 61.8953 102.163 61.8611 102.678L58.7519 104.458C58.5631 104.493 57.9512 104.669 57.8025 104.442C57.7085 104.298 57.6755 104.016 57.6285 103.848C57.5008 103.393 57.5889 102.826 57.5889 102.357C57.5889 101.867 57.5653 101.37 57.6047 100.882C57.7256 99.3865 57.6515 97.8838 57.5929 96.388C57.4568 92.9194 56.9839 89.479 57.0945 85.9964C57.1434 84.4534 57.426 82.8214 57.8737 81.3485C58.1288 80.5095 58.6249 79.8276 59.2582 79.2362C59.3593 79.1418 60.1303 78.2409 59.9742 78.6468C59.8351 79.0083 59.6173 79.3168 59.5114 79.695C59.321 80.375 59.2457 81.1103 59.1237 81.8074C58.929 82.9198 58.8699 84.0499 58.6569 85.1618C58.0385 88.3915 57.7843 91.7611 58.3721 95.0194C58.5878 96.215 58.6618 97.4608 58.918 98.6428C59.0055 99.0465 59.1357 99.6996 59.4006 100.035C59.4811 100.137 59.6506 99.9033 59.6933 99.8572C60.0765 99.4434 60.2593 98.9406 60.4805 98.4331C60.809 97.6796 61.1815 97.019 61.3468 96.1982C61.3546 96.1596 61.4827 95.46 61.5011 95.6444C61.5201 95.8346 61.5393 96.0236 61.5604 96.214C61.6325 96.8624 61.6968 97.5107 61.7582 98.1602C61.8147 98.7577 61.8328 99.3661 61.9481 99.9561C62.0271 100.361 62.0796 100.721 62.0391 101.135Z" fill="#6E766E"/>
<g filter="url(#filter2_d_181_155)">
<path d="M54.394 120.074L50.0148 131.657L40.8327 120.074C37.3294 119.508 36.4536 117.201 36.4536 116.118C28.4298 112.163 28.4958 103.357 29.5317 99.4491L38.9963 104.817C40.4655 102.444 38.9492 98.0836 38.0075 96.2001C44.9011 97.5562 47.943 108.443 48.6022 113.717C48.8282 103.433 56.0421 97.754 59.6207 96.2001C58.0386 100.947 58.0197 103.546 58.2081 104.252L67.9552 98.6015C68.9441 115.836 60.1858 112.587 59.0557 116.118C58.1516 118.943 55.5712 119.932 54.394 120.074Z" fill="#706A6A"/>
</g>
<path d="M48.8847 113.999C47.7546 102.359 41.1623 97.2831 38.0074 96.2001C39.5895 99.9294 39.2317 103.028 38.855 104.111L29.5316 99.5904C27.1584 104.676 30.5205 108.678 32.4982 110.044C28.0908 98.8558 36.8773 108.678 41.8215 114.988C42.622 116.118 43.7427 117.616 41.8215 114.564C39.9003 111.513 41.7744 110.279 42.9516 110.044C46.0029 111.965 49.0259 118.284 50.156 121.204C50.043 116.909 53.3109 108.867 54.959 105.382C54.1679 108.885 55.2886 111.08 55.9478 111.739C55.9478 109.479 60.0444 106.23 63.8585 105.382C66.9098 104.704 66.9192 108.207 66.5425 110.044C68.2377 107.332 68.5673 100.909 68.5202 98.0365L58.6318 104.111C58.0668 101.06 58.8673 97.5656 59.3381 96.2001C50.0713 99.7034 48.508 109.526 48.8847 113.999Z" fill="#B6CBB0"/>
<path d="M42.4286 121.621C42.1215 121.334 41.7561 121.127 41.4398 120.853L38.7668 119.63C37.4511 119.244 37.196 118.15 36.6284 117.03C36.0696 115.927 34.7597 115.367 33.938 114.486C32.8814 113.354 31.4262 112.312 31.0414 110.73C30.9147 110.209 31.5594 111.084 31.7088 111.188C32.2317 111.553 32.8653 111.739 33.4349 112.013C33.8253 112.2 34.2048 112.451 34.6403 112.509C34.8224 112.533 34.8209 112.563 34.7626 112.376C34.5319 111.636 34.2818 110.789 34.2175 110.018C34.1673 109.415 34.5539 109.839 34.8045 110.07C35.4735 110.686 35.9347 111.5 36.2511 112.348C36.5384 113.118 36.7445 113.89 37.2294 114.57C37.7369 115.282 38.343 115.9 38.9415 116.534C39.0071 116.604 39.6689 117.242 39.5565 116.932C39.4822 116.728 39.3118 116.366 39.3049 116.164C39.2902 115.736 39.2882 115.297 39.3189 114.871C39.3333 114.67 39.3273 114.57 39.4446 114.759C39.959 115.588 40.518 116.38 41.1078 117.156C41.77 118.027 42.4588 118.838 43.0575 119.755C43.4528 120.361 43.9013 120.913 44.3643 121.468C44.4012 121.512 45.0231 122.205 45.0282 122.166C45.0628 121.906 44.8794 121.537 44.8255 121.286C44.7046 120.722 44.6451 120.162 44.6263 119.584C44.6041 118.9 44.6177 118.211 44.6508 117.526C44.6539 117.462 44.909 117.967 44.9408 118.026C45.3477 118.785 45.8359 119.505 46.2231 120.273C46.642 121.103 47.0074 121.959 47.4425 122.781C47.9014 123.648 48.3414 124.536 48.8507 125.374C48.9592 125.553 49.8213 127.003 50.0596 126.646C50.3307 126.239 50.4566 125.717 50.6606 125.276C51.059 124.415 51.2637 123.522 51.583 122.635C51.9139 121.715 52.1625 120.775 52.4845 119.853C52.7373 119.13 53.1447 118.467 53.3964 117.743C53.7337 116.773 53.874 115.785 53.959 114.766C53.9746 114.579 54.0728 115.125 54.1477 115.297C54.2123 115.446 54.2812 115.599 54.3538 115.744C54.6011 116.239 54.9432 116.713 55.3461 117.093C55.5576 117.292 55.6146 116.958 55.685 116.792C55.9881 116.081 56.2468 115.37 56.6005 114.682C57.1085 113.694 58.2786 113.227 59.2699 112.89C59.8052 112.707 60.3419 112.656 60.8982 112.586C61.1702 112.551 61.4012 112.534 61.6319 112.369C62.4425 111.79 63.1944 111.159 63.8961 110.433C64.3026 110.013 64.5969 109.505 64.9792 109.064C65.2535 108.747 65.5968 108.46 65.8003 108.089C66.0043 107.717 66.2118 107.371 66.3489 106.967C66.5022 106.516 66.3699 106.943 66.3489 107.226C66.2945 107.96 66.2549 108.679 65.9576 109.364C65.6761 110.013 65.1419 110.515 64.7137 111.062C64.2853 111.61 63.8337 112.099 63.3231 112.572C62.9408 112.926 62.4781 113.168 62.1001 113.526C61.7134 113.891 61.3178 114.188 60.8772 114.486C60.4841 114.753 60.11 115.1 59.6822 115.311C59.5492 115.377 59.3232 115.353 59.214 115.447C58.8287 115.781 58.6371 116.653 58.4733 117.121C58.3011 117.613 58.1145 118.092 57.8618 118.547C57.3052 119.548 56.2066 120.061 55.685 121.041C54.9511 122.421 54.4401 123.896 53.5816 125.213C52.9853 126.128 52.4186 127.132 52.0093 128.145C51.5095 129.382 51.1929 130.676 50.7165 131.915C50.523 132.418 50.3296 132.117 50.0596 131.786C49.667 131.304 49.2264 130.864 48.8402 130.374C47.5515 128.739 46.5645 126.911 45.3531 125.224C44.4525 123.969 43.5613 122.683 42.4286 121.621Z" fill="#343434"/>
<path d="M31.059 38.7154C30.6571 38.309 30.2666 37.8986 29.912 37.449L28.0886 35.924C27.594 36.9133 27.9805 38.046 28.1483 39.0867C28.3018 40.0381 28.6717 40.9831 28.9837 41.8912C29.3398 42.9277 29.7754 43.9708 30.3363 44.9146C30.8861 45.8399 31.5144 46.7272 32.2657 47.5004C32.2843 47.5196 32.4399 47.6988 32.5412 47.8153C32.56 47.8357 32.5787 47.8567 32.5972 47.8783C32.6623 47.9546 32.6169 47.9025 32.5412 47.8153C32.347 47.6058 32.1302 47.459 31.8811 47.3081C30.5247 46.4868 29.0705 45.2755 28.4003 43.8074C27.8342 42.5673 27.6809 41.0884 26.7957 40.0016C26.4994 39.6378 26.1276 39.0768 25.6885 38.8745C25.3699 38.7277 24.8586 38.7547 24.5216 38.8148C23.7879 38.9456 23.5791 39.6241 23.2884 40.2138C22.7578 41.2902 22.446 42.3053 22.6717 43.509C22.7965 44.1746 23.0014 44.7797 23.0165 45.4649C23.0224 45.7326 23.0337 45.6928 22.9104 45.5312C22.7074 45.2652 22.4884 45.0319 22.3601 44.7157C22.0873 44.0434 22.002 43.3084 21.8695 42.6007C21.7301 41.8562 21.571 41.0879 21.5778 40.3265C21.5844 39.5778 21.8127 38.8067 22.0949 38.1186C22.2411 37.7621 22.6151 37.4642 22.7049 37.0976C22.7497 36.9147 22.4979 36.7278 22.3999 36.607C22.1854 36.3425 22.043 36.0103 21.8363 35.7318C21.5052 35.2855 21.0654 34.9762 20.7821 34.4985C20.3091 33.7009 19.7288 33.014 19.1047 32.3305C18.4642 31.629 17.7365 31.0598 16.9167 30.5668C15.7845 29.8859 14.5206 29.2535 13.2369 28.9291C12.574 28.7616 11.894 28.7097 11.2213 28.5976C11.1884 28.5921 10.6172 28.5351 10.8699 28.4054C11.3635 28.1519 11.7614 27.928 12.322 27.928C14.6273 27.928 17.0491 28.0708 19.297 28.6109C21.489 29.1376 23.5856 29.9317 25.7217 30.6397C26.1414 30.7789 26.5712 30.8905 26.9814 31.0574C27.1345 31.1198 27.3304 31.2582 27.4986 31.2895C27.6142 31.311 27.6484 30.6194 27.6577 30.5403C27.6887 30.2767 27.7248 30.4381 27.8102 30.5867C28.123 31.1315 28.498 31.6641 28.8776 32.1647C29.6791 33.2216 30.65 34.1163 31.6623 34.9627C31.899 35.1605 32.4892 35.4516 32.5839 35.7583C32.6626 36.0127 32.5406 36.4351 32.5044 36.6931C32.4074 37.3844 32.4447 38.0926 32.4447 38.7883V40.1044C32.4447 40.2293 32.533 40.5673 32.4447 40.479C32.3668 40.4011 32.3241 40.1263 32.2392 40.0149C31.8861 39.5519 31.4679 39.1289 31.059 38.7154Z" fill="#A0A9A0"/>
<path d="M63.733 38.475C64.1349 38.0686 64.5254 37.6582 64.8801 37.2086L66.7034 35.6837C67.198 36.673 66.8115 37.8056 66.6437 38.8463C66.4902 39.7977 66.1203 40.7428 65.8083 41.6509C65.4522 42.6873 65.0166 43.7304 64.4557 44.6743C63.9059 45.5995 63.2776 46.4869 62.5263 47.26C62.5077 47.2792 62.3521 47.4585 62.2508 47.575C62.232 47.5954 62.2133 47.6163 62.1948 47.638C62.1297 47.7142 62.1751 47.6621 62.2508 47.575C62.445 47.3654 62.6618 47.2186 62.9109 47.0678C64.2673 46.2464 65.7215 45.0351 66.3917 43.567C66.9579 42.327 67.1111 40.848 67.9963 39.7613C68.2926 39.3974 68.6644 38.8364 69.1035 38.6341C70.3383 38.0653 70.6669 41.2728 70.4083 42.652C70.2835 43.3176 70.0787 43.9227 70.0635 44.608C70.0552 44.9855 71.1152 42.2531 71.2106 41.7437C71.35 40.9992 71.509 40.2309 71.5023 39.4695C71.4957 38.7209 71.2673 37.9497 70.9852 37.2617C70.8389 36.9051 70.465 36.6072 70.3752 36.2406C70.3304 36.0578 70.5821 35.8708 70.6802 35.75C70.8947 35.4856 71.0371 35.1533 71.2437 34.8748C71.5748 34.4285 72.0147 34.1192 72.2979 33.6416C72.7709 32.8439 73.3513 32.157 73.9754 31.4735C74.6159 30.772 75.3436 30.2029 76.1634 29.7098C77.2955 29.0289 78.5594 28.3965 79.8431 28.0722C84.6242 26.864 75.3263 27.3831 73.7831 27.7539C71.591 28.2806 71.2064 29.6913 69.0704 30.3994C68.6506 30.5385 68.2208 30.6501 67.8106 30.8171C67.6575 30.8794 67.4616 31.0179 67.2935 31.0491C67.1779 31.0706 67.1436 30.3791 67.1343 30.2999C67.1033 30.0363 67.0672 30.1977 66.9818 30.3463C66.669 30.8911 66.294 31.4237 65.9144 31.9243C65.1129 32.9812 64.142 33.8759 63.1297 34.7223C62.893 34.9201 62.3029 35.2112 62.2081 35.5179C62.1294 35.7723 62.2514 36.1948 62.2876 36.4528C62.3847 37.144 62.3473 37.8522 62.3473 38.5479V39.864C62.3473 39.9889 62.259 40.3269 62.3473 40.2386C62.4253 40.1607 62.4679 39.8859 62.5528 39.7745C62.9059 39.3115 63.3241 38.8885 63.733 38.475Z" fill="#A0A9A0"/>
<path d="M26.1413 62.1968C12.58 56.6593 8.90719 39.736 8.76593 31.9665C9.33098 28.3502 14.2281 29.2415 15.6878 29.8065C12.58 30.2303 8.8256 33.3791 14.5577 46.6579C19.1434 57.2808 25.6034 60.2191 28.2602 60.3604C27.6952 61.9425 26.6122 62.2439 26.1413 62.1968Z" fill="#404940"/>
<path d="M66.4012 61.3081C79.9625 55.7706 84.3417 36.7284 83.3528 31.2217C81.3751 27.1225 78.1261 28.2526 76.996 29.9478C80.1037 30.3715 83.2931 32.6343 77.561 45.913C72.9753 56.536 67.5041 59.1892 64.8473 59.3305C64.8473 61.3081 65.9304 61.3552 66.4012 61.3081Z" fill="#404940"/>
<g filter="url(#filter3_d_181_155)">
<path d="M27.7999 13.258L64.115 13.1856L65.7316 16.6898L28.0979 17.2944L27.7999 13.258Z" fill="#653409"/>
</g>
<g filter="url(#filter4_d_181_155)">
<path d="M64.9473 10.4821L30.614 8.12715L28.8253 11.5191L64.3658 14.4875L64.9473 10.4821Z" fill="#653409"/>
</g>
<g filter="url(#filter5_d_181_155)">
<path d="M65.5817 15.8214L28.5428 18.4233L30.6897 21.8957L65.5817 19.8688V15.8214Z" fill="#653409"/>
</g>
<defs>
<filter id="filter0_i_181_155" x="32.2156" y="42.0964" width="29.9478" height="82.2597" filterUnits="userSpaceOnUse" color-interpolation-filters="sRGB">
<feFlood flood-opacity="0" result="BackgroundImageFix"/>
<feBlend mode="normal" in="SourceGraphic" in2="BackgroundImageFix" result="shape"/>
<feColorMatrix in="SourceAlpha" type="matrix" values="0 0 0 0 0 0 0 0 0 0 0 0 0 0 0 0 0 0 127 0" result="hardAlpha"/>
<feOffset dy="4"/>
<feGaussianBlur stdDeviation="13.15"/>
<feComposite in2="hardAlpha" operator="arithmetic" k2="-1" k3="1"/>
<feColorMatrix type="matrix" values="0 0 0 0 0 0 0 0 0 0 0 0 0 0 0 0 0 0 0.25 0"/>
<feBlend mode="normal" in2="shape" result="effect1_innerShadow_181_155"/>
</filter>
<filter id="filter1_d_181_155" x="0.745605" y="13.5613" width="89.6082" height="79.2616" filterUnits="userSpaceOnUse" color-interpolation-filters="sRGB">
<feFlood flood-opacity="0" result="BackgroundImageFix"/>
<feColorMatrix in="SourceAlpha" type="matrix" values="0 0 0 0 0 0 0 0 0 0 0 0 0 0 0 0 0 0 127 0" result="hardAlpha"/>
<feOffset dy="4"/>
<feGaussianBlur stdDeviation="1.75"/>
<feComposite in2="hardAlpha" operator="out"/>
<feColorMatrix type="matrix" values="0 0 0 0 0 0 0 0 0 0 0 0 0 0 0 0 0 0 0.25 0"/>
<feBlend mode="normal" in2="BackgroundImageFix" result="effect1_dropShadow_181_155"/>
<feBlend mode="normal" in="SourceGraphic" in2="effect1_dropShadow_181_155" result="shape"/>
</filter>
<filter id="filter2_d_181_155" x="23.5449" y="94.7001" width="49.988" height="46.457" filterUnits="userSpaceOnUse" color-interpolation-filters="sRGB">
<feFlood flood-opacity="0" result="BackgroundImageFix"/>
<feColorMatrix in="SourceAlpha" type="matrix" values="0 0 0 0 0 0 0 0 0 0 0 0 0 0 0 0 0 0 127 0" result="hardAlpha"/>
<feOffset dy="4"/>
<feGaussianBlur stdDeviation="2.75"/>
<feComposite in2="hardAlpha" operator="out"/>
<feColorMatrix type="matrix" values="0 0 0 0 0 0 0 0 0 0 0 0 0 0 0 0 0 0 0.25 0"/>
<feBlend mode="normal" in2="BackgroundImageFix" result="effect1_dropShadow_181_155"/>
<feBlend mode="normal" in="SourceGraphic" in2="effect1_dropShadow_181_155" result="shape"/>
</filter>
<filter id="filter3_d_181_155" x="23.7999" y="13.1856" width="45.9316" height="12.1088" filterUnits="userSpaceOnUse" color-interpolation-filters="sRGB">
<feFlood flood-opacity="0" result="BackgroundImageFix"/>
<feColorMatrix in="SourceAlpha" type="matrix" values="0 0 0 0 0 0 0 0 0 0 0 0 0 0 0 0 0 0 127 0" result="hardAlpha"/>
<feOffset dy="4"/>
<feGaussianBlur stdDeviation="2"/>
<feComposite in2="hardAlpha" operator="out"/>
<feColorMatrix type="matrix" values="0 0 0 0 0 0 0 0 0 0 0 0 0 0 0 0 0 0 0.25 0"/>
<feBlend mode="normal" in2="BackgroundImageFix" result="effect1_dropShadow_181_155"/>
<feBlend mode="normal" in="SourceGraphic" in2="effect1_dropShadow_181_155" result="shape"/>
</filter>
<filter id="filter4_d_181_155" x="24.8253" y="8.12714" width="44.1219" height="14.3604" filterUnits="userSpaceOnUse" color-interpolation-filters="sRGB">
<feFlood flood-opacity="0" result="BackgroundImageFix"/>
<feColorMatrix in="SourceAlpha" type="matrix" values="0 0 0 0 0 0 0 0 0 0 0 0 0 0 0 0 0 0 127 0" result="hardAlpha"/>
<feOffset dy="4"/>
<feGaussianBlur stdDeviation="2"/>
<feComposite in2="hardAlpha" operator="out"/>
<feColorMatrix type="matrix" values="0 0 0 0 0 0 0 0 0 0 0 0 0 0 0 0 0 0 0.25 0"/>
<feBlend mode="normal" in2="BackgroundImageFix" result="effect1_dropShadow_181_155"/>
<feBlend mode="normal" in="SourceGraphic" in2="effect1_dropShadow_181_155" result="shape"/>
</filter>
<filter id="filter5_d_181_155" x="24.5428" y="15.8214" width="45.0389" height="14.0743" filterUnits="userSpaceOnUse" color-interpolation-filters="sRGB">
<feFlood flood-opacity="0" result="BackgroundImageFix"/>
<feColorMatrix in="SourceAlpha" type="matrix" values="0 0 0 0 0 0 0 0 0 0 0 0 0 0 0 0 0 0 127 0" result="hardAlpha"/>
<feOffset dy="4"/>
<feGaussianBlur stdDeviation="2"/>
<feComposite in2="hardAlpha" operator="out"/>
<feColorMatrix type="matrix" values="0 0 0 0 0 0 0 0 0 0 0 0 0 0 0 0 0 0 0.25 0"/>
<feBlend mode="normal" in2="BackgroundImageFix" result="effect1_dropShadow_181_155"/>
<feBlend mode="normal" in="SourceGraphic" in2="effect1_dropShadow_181_155" result="shape"/>
</filter>
</defs>
</svg>
