<svg width="251" height="439" viewBox="0 0 251 439" fill="none" xmlns="http://www.w3.org/2000/svg">
<path d="M120.119 0C79.6673 3.49453 86.7756 47.6857 95.3862 69.3445L81.646 80.2649L78.8979 105.382L89.8901 115.21C96.9252 169.812 73.4018 212.22 60.7608 226.598C44.932 241.013 23.3872 273.01 14.5934 287.206L6.89884 283.93C-26.5175 403.181 69.5545 436.998 121.768 439C261.918 439 258.804 333.982 244.331 281.2L239.384 287.206C231.91 264.055 202.927 237.155 189.37 226.598C158.152 202.137 152.912 142.147 154.195 115.21L162.439 105.382V80.2649L147.599 72.0746C169.584 17.0358 138.439 1.09204 120.119 0Z" fill="#D9D9D9" fill-opacity="0.75"/>
<g filter="url(#filter0_i_188_403)">
<path d="M143.5 84.5C128.5 84.6667 101.8 84.9 99 84.5C99 121.7 109 165 76.4999 228C-17.5009 309.5 -8.00014 429 133 429C274 429 247.693 272.351 177.999 228C128.5 196.5 148 98.3333 143.5 84.5Z" fill="#AD0606"/>
</g>
<ellipse cx="55.0891" cy="351.813" rx="17.1144" ry="26.5967" transform="rotate(-19.7323 55.0891 351.813)" fill="white"/>
<path d="M93.6557 235.151C103.761 224.502 108.526 217.113 106 198C120 229 106 229.5 98.7081 250.851C94.3294 269.964 80.8226 309.555 61.8255 315.016C42.8284 320.477 36.0581 309.555 35.0476 303.412C33.4308 274.742 73.446 245.959 93.6557 235.151Z" fill="white"/>
<ellipse cx="121.5" cy="34" rx="34.5" ry="34" fill="#C76E48"/>
<path d="M100 75.5C91.6 67.1 87.8333 46 87 36.5H155.5C155.5 64.1 147.167 74 143 75.5C123 82.3 106 78.3333 100 75.5Z" fill="#C76E48"/>
<path d="M155.5 42.5C129.1 79.3 98.7091 50.8333 87.3758 32C83.3758 37.6 89.0424 57.3333 92.3758 66.5C97.9758 85.7 129.709 81.5 144.876 77C154.876 69.4 156.5 50.8333 155.5 42.5Z" fill="#974826"/>
<path d="M162 112L81.991 120.791L79 133L162 125.674V112Z" fill="#8F480A"/>
<path d="M80 135L160.009 144.209L163 157L80 149.326V135Z" fill="#8F480A"/>
<path d="M161 158L80.991 167.209L78 180L161 172.326V158Z" fill="#8F480A"/>
<g filter="url(#filter1_d_188_403)">
<path d="M80 119L160.973 128.209L164 141L80 133.326V119Z" fill="#8F480A"/>
</g>
<g filter="url(#filter2_d_188_403)">
<path d="M161 144L80.991 153.209L78 166L161 158.326V144Z" fill="#8F480A"/>
</g>
<g filter="url(#filter3_d_188_403)">
<path d="M81 164L161.009 172.791L164 185L81 177.674V164Z" fill="#8F480A"/>
</g>
<ellipse cx="133.34" cy="18.4496" rx="9" ry="10" transform="rotate(-40.5719 133.34 18.4496)" fill="#F19973"/>
<ellipse cx="55.0891" cy="351.813" rx="17.1144" ry="26.5967" transform="rotate(-19.7323 55.0891 351.813)" fill="white"/>
<g filter="url(#filter4_d_188_403)">
<mask id="mask0_188_403" style="mask-type:alpha" maskUnits="userSpaceOnUse" x="58" y="260" width="130" height="112">
<path d="M59.0492 315.083C59.4689 298.295 66.9181 276.262 70.5903 267.344L77.41 260H88.9511L93.6725 267.344L96.8201 260L98.9184 272.066L106.263 261.574L129.87 260L132.493 267.344L138.263 261.574H176.034L185.477 284.656L187.575 306.689V327.673H179.706L187.575 333.443L182.854 365.968L151.903 370.69C151.553 367.717 150.748 361.247 150.329 359.149C149.909 357.05 145.957 365.968 144.034 370.69V363.87L132.493 370.69C125.778 372.368 116.405 371.389 112.558 370.69L109.935 359.149L104.689 368.591C97.5545 369.011 81.4319 365.619 74.2625 363.87L77.41 356.001L66.9181 361.772L58 326.099L74.2625 321.902L59.0492 315.083Z" fill="black"/>
</mask>
<g mask="url(#mask0_188_403)">
<path d="M65.9059 365.075C43.5712 315.267 63.7909 271.474 76.6925 255.803H180.752C201.056 293.413 195.98 346.016 190.904 367.616C144.204 382.863 88.1137 372.275 65.9059 365.075Z" fill="#F0CA94"/>
</g>
</g>
<path opacity="0.75" d="M200 234.5L194 250.5L219.5 266.5L206.5 283C210.833 286.833 219.5 295.9 219.5 301.5" stroke="white"/>
<path opacity="0.75" d="M40.7832 255L46.7832 271L21.2832 287L34.2832 303.5C29.9499 307.333 21.2832 316.4 21.2832 322" stroke="white"/>
<path opacity="0.75" d="M200 254L194 270L219.5 286L206.5 302.5C210.833 306.333 219.5 315.4 219.5 321" stroke="white"/>
<path opacity="0.75" d="M40.7832 274.5L46.7832 290.5L21.2832 306.5L34.2832 323C29.9499 326.833 21.2832 335.9 21.2832 341.5" stroke="white"/>
<path opacity="0.87" d="M237 325.5C241.4 302.3 226.167 276.833 218.5 268L212 277C222.4 287.8 224 303.833 223.5 310.5C225.1 334.5 233.167 330.5 237 325.5Z" fill="#D52E2E"/>
<path opacity="0.87" d="M3.7832 346C-0.616796 322.8 14.6165 297.333 22.2832 288.5L28.7832 297.5C18.3832 308.3 16.7832 324.333 17.2832 331C15.6832 355 7.61654 351 3.7832 346Z" fill="#D52E2E"/>
<ellipse cx="3.37711" cy="9.37674" rx="3.37711" ry="9.37674" transform="matrix(-0.99845 -0.0556542 -0.0556542 0.99845 10.7876 327.376)" fill="white" fill-opacity="0.73"/>
<ellipse cx="3.37711" cy="9.37674" rx="3.37711" ry="9.37674" transform="matrix(-0.99845 -0.0556542 -0.0556542 0.99845 237.788 308.376)" fill="white" fill-opacity="0.73"/>
<path opacity="0.91" d="M164.728 66.1548C165.079 66.9443 167.39 72.1529 166.036 72.8299L168.878 74.0477C169.608 75.5077 171.819 76.5829 173.027 77.7911C175.821 80.5849 180.726 84.5477 179.432 88.9764C178.618 91.7606 177.134 94.2926 177.582 97.3203C178.376 102.677 181.322 107.535 182.138 112.835C182.577 115.689 180.791 119.105 180.108 121.811C179.765 123.169 179.905 124.759 178.124 124.787C175.843 124.824 173.961 123.483 171.764 123.209C171.024 123.116 170.029 123.399 169.419 122.871C165.446 119.427 165.089 113.111 165.63 108.325C166.286 102.537 167.636 96.7871 166.6 90.9158C166.326 89.3608 164.773 83.8602 164.773 88.0518C164.773 88.7538 162.859 86.9526 162.789 86.9017C159.659 84.6373 155.86 82.855 152.19 81.715C150.439 81.1712 151.017 81.1511 151.017 82.4366C151.017 83.9217 151.158 86.0218 150.341 87.3302C149.234 89.1013 143.242 88.4835 141.411 88.6607C137.593 89.0301 133.872 88.7593 130.09 88.1646C127.651 87.7811 123.395 86.5162 120.979 87.5332C120.554 87.7122 120.951 91.181 120.912 91.5698C120.483 95.8573 116.977 96.1955 113.267 96.6889C110.715 97.0282 106.311 97.7739 104.201 95.6966C101.677 93.2114 101.621 87.6178 100.751 84.3986C100.51 83.505 99.4358 84.9204 98.9695 85.2555C97.5632 86.2663 95.4169 87.9723 93.6475 86.9919C90.8932 85.4659 88.7777 84.5113 85.5291 84.6917C81.5183 84.9146 81.5963 88.0021 81.2895 91.5472C80.4618 101.112 82.8442 111.348 79.0795 120.503C77.7978 123.62 76.4632 126.459 76.3509 129.884C76.2492 132.985 76.3016 136.074 76.1254 139.175C75.9992 141.396 76.941 148.316 74.1183 149.368C72.6059 149.931 72.0108 148.713 71.5475 147.519C69.9585 143.424 68.8627 138.627 68.0972 134.349C67.1251 128.916 66.8383 122.988 67.0824 117.481C67.3365 111.75 69.0303 107.999 71.9985 103.184C74.5701 99.0112 70.036 96.2009 69.8562 91.8855C69.7353 88.9837 70.2901 86.2623 71.7054 83.6995C72.9217 81.4969 77.1741 79.9052 76.7117 77.1822C76.1526 73.8898 70.4861 73.6287 72.2691 69.5826C74.881 63.6557 82.3425 63.7737 87.1754 66.6735C88.3003 67.3484 88.2889 65.1652 88.551 64.486C89.8905 61.0141 92.2674 58.0456 96.083 57.405C99.2306 56.8766 102.593 56.4651 105.058 58.7581C107.354 60.8937 109.291 63.2508 111.012 65.8616C112.818 68.6025 113.526 67.1654 114.665 64.8469C116.036 62.0566 117.832 58.7429 120.483 56.954C122.987 55.2648 128.297 56.1896 130.947 56.9089C134.383 57.8415 135.214 61.5072 137.802 63.4938C139.49 64.7893 141.021 64.3559 142.403 62.9977C144.834 60.6078 146.353 59.0328 150.205 58.9836C155.942 58.9103 162.251 60.5739 164.728 66.1548Z" fill="#8F1414"/>
<path d="M156.235 62.5132C154.665 61.4553 153.271 61.2203 151.474 60.9263C150.736 61.4796 150.148 62.0377 149.35 62.3369C148.526 62.6458 147.773 63.0869 147.027 63.5482C146.257 64.0244 145.383 64.4957 145.095 65.4188C144.696 66.699 144.516 68.8713 145.463 69.9727C146.602 71.2981 149.278 71.0122 150.722 70.4787C152.226 69.9234 154.059 69.6852 155.575 70.3024C157.028 70.8938 158.461 71.6861 159.984 72.0887C160.33 72.1803 160.718 72.1407 160.919 71.8127C161.267 71.2432 161.41 70.7301 161.41 70.0647C161.41 69.1774 161.57 68.0787 161.287 67.2281C160.618 65.223 157.882 63.6234 156.235 62.5132Z" fill="#E66360"/>
<path d="M173.215 113.966C173.053 112.049 173.103 110.121 173 108.201L173.629 105.87C173.745 105.407 173.924 104.969 174.043 104.49C174.507 102.609 174.622 100.189 175.699 98.5413C176.361 97.5272 176.674 98.0992 177.217 98.9399C177.664 99.6326 177.625 100.28 177.638 101.087C177.673 103.162 177.694 105.351 178.597 107.266C179.509 109.201 180.343 110.708 180.222 112.939C180.145 114.347 179.91 116.768 178.888 117.861C178.063 118.742 176.033 119.796 174.848 119.103C173.425 118.27 173.335 115.393 173.215 113.966Z" fill="#E56360"/>
<path d="M121.261 64.3582C122.305 62.7162 122.78 60.7896 124.956 60.5326C130.203 58.7239 132.436 61.953 132.896 63.7937C134.615 65.5364 136.447 64.7319 138.364 65.9759C140.185 67.1567 142.364 69.8394 142.466 72.1321C142.5 72.8944 142.145 72.2068 142.006 72.0017C141.33 71.0054 140.11 70.9457 139.008 70.6984C136.045 70.0335 133.142 69.6715 130.1 69.5791C129.465 69.5598 126.976 69.1294 126.773 70.2538C126.687 70.7281 126.818 71.2353 126.734 71.7181C126.538 72.8548 125.577 73.6463 124.465 73.7727C118.879 74.4074 113.617 72.7547 108.09 72.523C107.63 72.5038 104.37 72.1322 104.969 73.397C105.347 74.1955 105.512 74.9505 105.629 75.8503C105.853 77.5798 105.553 78.8321 103.819 79.6529C102.302 80.3709 100.679 80.1447 99.066 79.9595C96.4397 79.658 93.8327 79.2202 91.2002 78.9629C88.5915 78.7079 85.9731 78.783 83.3804 79.1776C82.0437 79.381 80.5183 79.9739 79.1638 79.6069C77.3901 79.1263 77.9417 76.3237 78.8572 75.3673C80.5684 73.5795 84.0915 73.7943 86.355 73.6884C88.9387 73.5674 91.5371 73.7574 94.1211 73.788C95.4864 73.8042 97.2001 73.951 98.2764 72.9064C99.4713 71.7466 96.3459 71.8921 95.9841 71.8637C94.1663 71.721 91.6227 71.5732 90.1116 70.4071C89.1634 69.6754 88.5099 68.5626 89.0843 67.3942C89.6507 66.2418 91.1419 65.7041 92.2122 65.1632C93.1569 64.6858 94.0905 64.0925 95.1255 63.8292C96.419 63.5002 97.8105 63.5393 99.1274 63.6606C101.063 63.8388 103.152 64.1433 104.816 65.2245C105.564 65.711 106.215 66.3478 106.917 66.8958C107.544 67.3859 108.201 67.5784 108.917 67.8925C109.513 68.1537 110.079 68.5216 110.719 68.6745C112.515 69.1035 114.812 68.7323 116.561 68.2451C118.716 67.645 120.09 66.197 121.261 64.3582Z" fill="#E66262"/>
<path d="M73.291 91.8146C72.6665 89.9153 72.8141 87.5805 73.475 85.6891L76.4036 83.1438C77.9926 83.6735 76.7414 88.7106 77.2622 90.1203C77.6605 91.1983 78.3376 92.1626 78.7418 93.2406C79.1958 94.4511 79.3975 95.6842 79.5085 96.9665C79.8732 101.181 79.0619 105.674 76.8176 109.333C76.0633 110.562 75.288 111.587 74.8089 112.966C74.2665 114.529 74.1212 116.119 73.8506 117.743C73.6599 118.887 73.4862 120.034 73.291 121.177C73.1623 121.931 73.1022 122.976 72.5703 123.592C71.2587 125.112 70.3049 121.909 70.1784 121.17C69.3911 116.57 71.5748 111.755 73.4186 107.69L73.4596 107.6C74.9409 104.334 75.7895 100.731 75.3916 97.1275C75.1691 95.113 73.9087 93.6935 73.291 91.8146Z" fill="#E56360"/>
<ellipse cx="177" cy="115" rx="2" ry="4" fill="#D9D9D9"/>
<ellipse cx="156" cy="65" rx="4" ry="2" fill="#D9D9D9"/>
<ellipse cx="129.5" cy="65" rx="4.5" ry="2" fill="#D9D9D9"/>
<ellipse cx="94" cy="67.5" rx="5" ry="1.5" fill="#D9D9D9"/>
<ellipse cx="106" cy="70.5" rx="4" ry="1.5" fill="#D9D9D9"/>
<ellipse cx="75" cy="91.5" rx="2" ry="6.5" fill="#D9D9D9"/>
<ellipse cx="72" cy="127.5" rx="2" ry="6.5" fill="#D9D9D9"/>
<path d="M120.045 356.233C122.004 356.233 119.688 359.794 125.209 360.151C130.908 360.151 129.305 356.589 130.908 356.233C137.035 356.233 137.498 344.835 136.963 339.136C136.963 335.431 140.169 332.25 141.772 331.122C150.89 323.998 150.558 311.65 149.252 306.367C144.265 291.977 132.096 288.142 126.634 288.023C121.707 287.727 110.214 290.125 103.66 302.093C97.1064 314.06 104.491 326.432 109.003 331.122C112.565 333.829 113.811 337.592 113.989 339.136C113.989 352.528 115.058 356.233 120.045 356.233Z" stroke="black" stroke-width="2.49328" stroke-miterlimit="2.3662"/>
<path d="M114.6 340.003H137.039M122.614 339.112V321.481L114.6 311.33L120.833 307.768L125.997 311.33L132.587 307.768L137.93 312.22L129.737 322.193V339.112" stroke="black" stroke-width="2.49328" stroke-miterlimit="2.3662"/>
<path d="M160.5 284L150 293M156.5 311H169.5M97.5 295.5L85.5 289.5M93.5 313.5H82M125 283V275" stroke="black" stroke-width="4" stroke-miterlimit="2.3662" stroke-linecap="round"/>
<defs>
<filter id="filter0_i_188_403" x="14.877" y="84.5" width="219.79" height="348.5" filterUnits="userSpaceOnUse" color-interpolation-filters="sRGB">
<feFlood flood-opacity="0" result="BackgroundImageFix"/>
<feBlend mode="normal" in="SourceGraphic" in2="BackgroundImageFix" result="shape"/>
<feColorMatrix in="SourceAlpha" type="matrix" values="0 0 0 0 0 0 0 0 0 0 0 0 0 0 0 0 0 0 127 0" result="hardAlpha"/>
<feOffset dy="4"/>
<feGaussianBlur stdDeviation="21.2"/>
<feComposite in2="hardAlpha" operator="arithmetic" k2="-1" k3="1"/>
<feColorMatrix type="matrix" values="0 0 0 0 0 0 0 0 0 0 0 0 0 0 0 0 0 0 0.25 0"/>
<feBlend mode="normal" in2="shape" result="effect1_innerShadow_188_403"/>
</filter>
<filter id="filter1_d_188_403" x="76" y="119" width="92" height="30" filterUnits="userSpaceOnUse" color-interpolation-filters="sRGB">
<feFlood flood-opacity="0" result="BackgroundImageFix"/>
<feColorMatrix in="SourceAlpha" type="matrix" values="0 0 0 0 0 0 0 0 0 0 0 0 0 0 0 0 0 0 127 0" result="hardAlpha"/>
<feOffset dy="4"/>
<feGaussianBlur stdDeviation="2"/>
<feComposite in2="hardAlpha" operator="out"/>
<feColorMatrix type="matrix" values="0 0 0 0 0 0 0 0 0 0 0 0 0 0 0 0 0 0 0.25 0"/>
<feBlend mode="normal" in2="BackgroundImageFix" result="effect1_dropShadow_188_403"/>
<feBlend mode="normal" in="SourceGraphic" in2="effect1_dropShadow_188_403" result="shape"/>
</filter>
<filter id="filter2_d_188_403" x="74" y="144" width="91" height="30" filterUnits="userSpaceOnUse" color-interpolation-filters="sRGB">
<feFlood flood-opacity="0" result="BackgroundImageFix"/>
<feColorMatrix in="SourceAlpha" type="matrix" values="0 0 0 0 0 0 0 0 0 0 0 0 0 0 0 0 0 0 127 0" result="hardAlpha"/>
<feOffset dy="4"/>
<feGaussianBlur stdDeviation="2"/>
<feComposite in2="hardAlpha" operator="out"/>
<feColorMatrix type="matrix" values="0 0 0 0 0 0 0 0 0 0 0 0 0 0 0 0 0 0 0.25 0"/>
<feBlend mode="normal" in2="BackgroundImageFix" result="effect1_dropShadow_188_403"/>
<feBlend mode="normal" in="SourceGraphic" in2="effect1_dropShadow_188_403" result="shape"/>
</filter>
<filter id="filter3_d_188_403" x="77" y="164" width="91" height="29" filterUnits="userSpaceOnUse" color-interpolation-filters="sRGB">
<feFlood flood-opacity="0" result="BackgroundImageFix"/>
<feColorMatrix in="SourceAlpha" type="matrix" values="0 0 0 0 0 0 0 0 0 0 0 0 0 0 0 0 0 0 127 0" result="hardAlpha"/>
<feOffset dy="4"/>
<feGaussianBlur stdDeviation="2"/>
<feComposite in2="hardAlpha" operator="out"/>
<feColorMatrix type="matrix" values="0 0 0 0 0 0 0 0 0 0 0 0 0 0 0 0 0 0 0.25 0"/>
<feBlend mode="normal" in2="BackgroundImageFix" result="effect1_dropShadow_188_403"/>
<feBlend mode="normal" in="SourceGraphic" in2="effect1_dropShadow_188_403" result="shape"/>
</filter>
<filter id="filter4_d_188_403" x="51.2" y="257.2" width="143.175" height="125.216" filterUnits="userSpaceOnUse" color-interpolation-filters="sRGB">
<feFlood flood-opacity="0" result="BackgroundImageFix"/>
<feColorMatrix in="SourceAlpha" type="matrix" values="0 0 0 0 0 0 0 0 0 0 0 0 0 0 0 0 0 0 127 0" result="hardAlpha"/>
<feOffset dy="4"/>
<feGaussianBlur stdDeviation="3.4"/>
<feComposite in2="hardAlpha" operator="out"/>
<feColorMatrix type="matrix" values="0 0 0 0 0 0 0 0 0 0 0 0 0 0 0 0 0 0 0.25 0"/>
<feBlend mode="normal" in2="BackgroundImageFix" result="effect1_dropShadow_188_403"/>
<feBlend mode="normal" in="SourceGraphic" in2="effect1_dropShadow_188_403" result="shape"/>
</filter>
</defs>
</svg>
