<svg width="251" height="439" viewBox="0 0 251 439" fill="none" xmlns="http://www.w3.org/2000/svg">
<path d="M120.119 0C79.6673 3.49453 86.7756 47.6857 95.3862 69.3445L81.646 80.2649L78.8979 105.382L89.8901 115.21C96.9252 169.812 73.4018 212.22 60.7608 226.598C44.932 241.013 23.3872 273.01 14.5934 287.206L6.89884 283.93C-26.5175 403.181 69.5545 436.998 121.768 439C261.918 439 258.804 333.982 244.331 281.2L239.384 287.206C231.91 264.055 202.927 237.155 189.37 226.598C158.152 202.137 152.912 142.147 154.195 115.21L162.439 105.382V80.2649L147.599 72.0746C169.584 17.0358 138.439 1.09204 120.119 0Z" fill="#D9D9D9" fill-opacity="0.75"/>
<g filter="url(#filter0_i_188_405)">
<path d="M173.5 249.5C158.5 249.667 144.5 257.5 120 260C80.5002 241 60.3334 251.167 56.5001 253C-16 293.5 -7.99996 429 133 429C274 429 238 286 215 269.5C194.28 254.636 196 252.5 173.5 249.5Z" fill="#15CBCB"/>
</g>
<ellipse cx="55.0891" cy="351.813" rx="17.1144" ry="26.5967" transform="rotate(-19.7323 55.0891 351.813)" fill="white"/>
<path d="M93.6557 235.151C103.761 224.502 108.526 217.113 106 198C120 229 106 229.5 98.7081 250.851C94.3294 269.964 80.8226 309.555 61.8255 315.016C42.8284 320.477 36.0581 309.555 35.0476 303.412C33.4308 274.742 73.446 245.959 93.6557 235.151Z" fill="white"/>
<ellipse cx="121.5" cy="34" rx="34.5" ry="34" fill="#C76E48"/>
<path d="M100 75.5C91.6 67.1 87.8333 46 87 36.5H155.5C155.5 64.1 147.167 74 143 75.5C123 82.3 106 78.3333 100 75.5Z" fill="#C76E48"/>
<path d="M155.5 42.5C129.1 79.3 98.7091 50.8333 87.3758 32C83.3758 37.6 89.0424 57.3333 92.3758 66.5C97.9758 85.7 129.709 81.5 144.876 77C154.876 69.4 156.5 50.8333 155.5 42.5Z" fill="#974826"/>
<path d="M162 112L81.991 120.791L79 133L162 125.674V112Z" fill="#8F480A"/>
<path d="M80 135L160.009 144.209L163 157L80 149.326V135Z" fill="#8F480A"/>
<path d="M161 158L80.991 167.209L78 180L161 172.326V158Z" fill="#8F480A"/>
<g filter="url(#filter1_d_188_405)">
<path d="M80 119L160.973 128.209L164 141L80 133.326V119Z" fill="#8F480A"/>
</g>
<g filter="url(#filter2_d_188_405)">
<path d="M161 144L80.991 153.209L78 166L161 158.326V144Z" fill="#8F480A"/>
</g>
<g filter="url(#filter3_d_188_405)">
<path d="M81 164L161.009 172.791L164 185L81 177.674V164Z" fill="#8F480A"/>
</g>
<ellipse cx="133.34" cy="18.4496" rx="9" ry="10" transform="rotate(-40.5719 133.34 18.4496)" fill="#F19973"/>
<g filter="url(#filter4_d_188_405)">
<mask id="mask0_188_405" style="mask-type:alpha" maskUnits="userSpaceOnUse" x="61" y="260" width="130" height="112">
<path d="M62.0492 315.083C62.4689 298.295 69.9181 276.262 73.5903 267.344L80.41 260H91.9511L96.6725 267.344L99.8201 260L101.918 272.066L109.263 261.574L132.87 260L135.493 267.344L141.263 261.574H179.034L188.477 284.656L190.575 306.689V327.673H182.706L190.575 333.443L185.854 365.968L154.903 370.69C154.553 367.717 153.748 361.247 153.329 359.149C152.909 357.05 148.957 365.968 147.034 370.69V363.87L135.493 370.69C128.778 372.368 119.405 371.389 115.558 370.69L112.935 359.149L107.689 368.591C100.555 369.011 84.4319 365.619 77.2625 363.87L80.41 356.001L69.9181 361.772L61 326.099L77.2625 321.902L62.0492 315.083Z" fill="black"/>
</mask>
<g mask="url(#mask0_188_405)">
<path d="M68.9059 365.075C46.5712 315.267 66.7909 271.474 79.6925 255.803H183.752C204.056 293.413 198.98 346.016 193.904 367.616C147.204 382.863 91.1137 372.275 68.9059 365.075Z" fill="#F0CA94"/>
</g>
</g>
<circle cx="150" cy="300" r="11" fill="black"/>
<circle cx="11" cy="11" r="11" transform="matrix(-1 0 0 1 117 289)" fill="black"/>
<path fill-rule="evenodd" clip-rule="evenodd" d="M140.2 316.933L148.5 328L155.5 321.5L159.674 317.624C164.591 320.162 169 325.324 169 335H130.499C129.17 329.814 129.898 320.491 140.2 316.933ZM142.784 316.212L149 324.5L157.268 316.591C154.613 315.663 151.993 315.395 149.999 315.5C147.254 315.5 144.862 315.755 142.784 316.212Z" fill="black"/>
<path fill-rule="evenodd" clip-rule="evenodd" d="M115.8 316.933L107.5 328L100.5 321.5L96.3251 317.624C91.409 320.162 87 325.324 87 335H125.5C126.83 329.814 126.101 320.491 115.8 316.933ZM113.216 316.212L107 324.5L98.7311 316.591C101.387 315.663 104.007 315.395 106 315.5C108.746 315.5 111.137 315.755 113.216 316.212Z" fill="black"/>
<defs>
<filter id="filter0_i_188_405" x="11.4995" y="248.644" width="225.285" height="184.356" filterUnits="userSpaceOnUse" color-interpolation-filters="sRGB">
<feFlood flood-opacity="0" result="BackgroundImageFix"/>
<feBlend mode="normal" in="SourceGraphic" in2="BackgroundImageFix" result="shape"/>
<feColorMatrix in="SourceAlpha" type="matrix" values="0 0 0 0 0 0 0 0 0 0 0 0 0 0 0 0 0 0 127 0" result="hardAlpha"/>
<feOffset dy="4"/>
<feGaussianBlur stdDeviation="21.2"/>
<feComposite in2="hardAlpha" operator="arithmetic" k2="-1" k3="1"/>
<feColorMatrix type="matrix" values="0 0 0 0 0 0 0 0 0 0 0 0 0 0 0 0 0 0 0.25 0"/>
<feBlend mode="normal" in2="shape" result="effect1_innerShadow_188_405"/>
</filter>
<filter id="filter1_d_188_405" x="76" y="119" width="92" height="30" filterUnits="userSpaceOnUse" color-interpolation-filters="sRGB">
<feFlood flood-opacity="0" result="BackgroundImageFix"/>
<feColorMatrix in="SourceAlpha" type="matrix" values="0 0 0 0 0 0 0 0 0 0 0 0 0 0 0 0 0 0 127 0" result="hardAlpha"/>
<feOffset dy="4"/>
<feGaussianBlur stdDeviation="2"/>
<feComposite in2="hardAlpha" operator="out"/>
<feColorMatrix type="matrix" values="0 0 0 0 0 0 0 0 0 0 0 0 0 0 0 0 0 0 0.25 0"/>
<feBlend mode="normal" in2="BackgroundImageFix" result="effect1_dropShadow_188_405"/>
<feBlend mode="normal" in="SourceGraphic" in2="effect1_dropShadow_188_405" result="shape"/>
</filter>
<filter id="filter2_d_188_405" x="74" y="144" width="91" height="30" filterUnits="userSpaceOnUse" color-interpolation-filters="sRGB">
<feFlood flood-opacity="0" result="BackgroundImageFix"/>
<feColorMatrix in="SourceAlpha" type="matrix" values="0 0 0 0 0 0 0 0 0 0 0 0 0 0 0 0 0 0 127 0" result="hardAlpha"/>
<feOffset dy="4"/>
<feGaussianBlur stdDeviation="2"/>
<feComposite in2="hardAlpha" operator="out"/>
<feColorMatrix type="matrix" values="0 0 0 0 0 0 0 0 0 0 0 0 0 0 0 0 0 0 0.25 0"/>
<feBlend mode="normal" in2="BackgroundImageFix" result="effect1_dropShadow_188_405"/>
<feBlend mode="normal" in="SourceGraphic" in2="effect1_dropShadow_188_405" result="shape"/>
</filter>
<filter id="filter3_d_188_405" x="77" y="164" width="91" height="29" filterUnits="userSpaceOnUse" color-interpolation-filters="sRGB">
<feFlood flood-opacity="0" result="BackgroundImageFix"/>
<feColorMatrix in="SourceAlpha" type="matrix" values="0 0 0 0 0 0 0 0 0 0 0 0 0 0 0 0 0 0 127 0" result="hardAlpha"/>
<feOffset dy="4"/>
<feGaussianBlur stdDeviation="2"/>
<feComposite in2="hardAlpha" operator="out"/>
<feColorMatrix type="matrix" values="0 0 0 0 0 0 0 0 0 0 0 0 0 0 0 0 0 0 0.25 0"/>
<feBlend mode="normal" in2="BackgroundImageFix" result="effect1_dropShadow_188_405"/>
<feBlend mode="normal" in="SourceGraphic" in2="effect1_dropShadow_188_405" result="shape"/>
</filter>
<filter id="filter4_d_188_405" x="54.2" y="257.2" width="143.175" height="125.216" filterUnits="userSpaceOnUse" color-interpolation-filters="sRGB">
<feFlood flood-opacity="0" result="BackgroundImageFix"/>
<feColorMatrix in="SourceAlpha" type="matrix" values="0 0 0 0 0 0 0 0 0 0 0 0 0 0 0 0 0 0 127 0" result="hardAlpha"/>
<feOffset dy="4"/>
<feGaussianBlur stdDeviation="3.4"/>
<feComposite in2="hardAlpha" operator="out"/>
<feColorMatrix type="matrix" values="0 0 0 0 0 0 0 0 0 0 0 0 0 0 0 0 0 0 0.25 0"/>
<feBlend mode="normal" in2="BackgroundImageFix" result="effect1_dropShadow_188_405"/>
<feBlend mode="normal" in="SourceGraphic" in2="effect1_dropShadow_188_405" result="shape"/>
</filter>
</defs>
</svg>
