<svg width="83" height="130" viewBox="0 0 83 130" fill="none" xmlns="http://www.w3.org/2000/svg">
<path d="M29.2702 3.02054C34.5258 -1.13013 45.243 -0.118086 49.9446 0.906772C53.1907 1.4206 52.7141 7.01381 52.07 9.74618L55.7412 11.8599V15.3188L57.8666 16.4718V22.8131L55.7412 24.3504V45.8724C75.063 53.2514 81.568 75.5933 82.4053 85.8419C81.9416 109.209 71.1342 120.303 65.7885 122.929V124.658C48.7853 133.421 27.7889 129.462 19.4161 126.388V122.929C13.684 122.481 1.87188 115.396 0.480703 90.6459C-0.910469 65.8956 17.2907 50.4843 26.5652 45.8724V27.425L24.633 24.3504L23.4737 16.4718H26.5652V11.8599L29.2702 9.74618V3.02054Z" fill="#D9D9D9"/>
</svg>
