<svg width="342" height="312" viewBox="0 0 342 312" fill="none" xmlns="http://www.w3.org/2000/svg">
<path d="M251.13 226.356C247.592 241.338 233.72 250.771 218.377 252.011C141.188 258.251 155.554 255.464 136.991 164.793C103.441 113.19 76.6037 135.824 86.2102 101.039C93.775 73.646 171.858 55.4285 218.692 85.4156C257.804 118.7 261.475 182.542 251.13 226.356Z" fill="#FDCAA5"/>
<ellipse cx="70.9319" cy="183.968" rx="19.7815" ry="25.0646" transform="rotate(-103.305 70.9319 183.968)" fill="#FDCAA5"/>
<ellipse cx="59.7582" cy="136.716" rx="19.7815" ry="25.0646" transform="rotate(-103.305 59.7582 136.716)" fill="#FDCAA5"/>
<rect x="46.54" y="189.736" width="48.5547" height="50.1292" transform="rotate(-103.305 46.54 189.736)" fill="#FDCAA5"/>
<path d="M93.9311 176.05C81.7676 164.565 59.9084 137.749 69.7805 122.358C79.6527 106.968 89.9943 151.74 93.9311 176.05Z" fill="#E2A97F"/>
<ellipse cx="78.0108" cy="107.477" rx="23.6506" ry="25.0646" transform="rotate(-10.3424 78.0108 107.477)" fill="#FDCAA5"/>
<ellipse cx="135.119" cy="97.0555" rx="23.6506" ry="25.0646" transform="rotate(-10.3424 135.119 97.0555)" fill="#FDCAA5"/>
<rect x="73.511" y="82.8201" width="58.0515" height="50.1292" transform="rotate(-10.3424 73.511 82.8201)" fill="#FDCAA5"/>
<path d="M78.2839 132.998C85.7756 123.962 103.314 107.489 113.536 113.881C123.757 120.274 94.2934 129.29 78.2839 132.998Z" fill="#E2A97F"/>
<ellipse cx="97.1808" cy="151.658" rx="21.0548" ry="25.0646" transform="rotate(-7.69389 97.1808 151.658)" fill="#FDCAA5"/>
<ellipse cx="148.395" cy="144.739" rx="21.0548" ry="25.0646" transform="rotate(-7.69389 148.395 144.739)" fill="#FDCAA5"/>
<rect x="93.8251" y="126.819" width="51.68" height="50.1292" transform="rotate(-7.69389 93.8251 126.819)" fill="#FDCAA5"/>
<path d="M96.4646 176.166C105.269 166.439 126.231 148.798 139.648 156.05C153.064 163.302 116.449 172.482 96.4646 176.166Z" fill="#E2A97F"/>
<ellipse cx="109.177" cy="195.956" rx="20.5496" ry="25.0646" transform="rotate(-12.2138 109.177 195.956)" fill="#FDCAA5"/>
<ellipse cx="158.475" cy="185.284" rx="20.5496" ry="25.0646" transform="rotate(-12.2138 158.475 185.284)" fill="#FDCAA5"/>
<rect x="103.874" y="171.458" width="50.44" height="50.1292" transform="rotate(-12.2138 103.874 171.458)" fill="#FDCAA5"/>
<path d="M103.706 220.496C113.87 213.029 137.451 200.412 150.468 209.683C163.485 218.954 124.717 220.755 103.706 220.496Z" fill="#E2A97F"/>
<circle cx="142.426" cy="235.632" r="20.7968" transform="rotate(-3.81519 142.426 235.632)" fill="#FDCAA5"/>
<circle cx="193.359" cy="232.236" r="20.7968" transform="rotate(-3.81519 193.359 232.236)" fill="#FDCAA5"/>
<rect x="141.042" y="214.881" width="51.0467" height="41.5936" transform="rotate(-3.81519 141.042 214.881)" fill="#FDCAA5"/>
<ellipse cx="119.782" cy="237.259" rx="12.0878" ry="20.7968" transform="rotate(-3.6754 119.782 237.259)" fill="#FDCAA5"/>
<ellipse cx="149.391" cy="235.357" rx="12.0878" ry="20.7968" transform="rotate(-3.6754 149.391 235.357)" fill="#FDCAA5"/>
<rect x="118.449" y="216.505" width="29.6701" height="41.5936" transform="rotate(-3.6754 118.449 216.505)" fill="#FDCAA5"/>
</svg>
