<svg width="227" height="194" viewBox="0 0 227 194" fill="none" xmlns="http://www.w3.org/2000/svg">
<mask id="mask0_88_101" style="mask-type:alpha" maskUnits="userSpaceOnUse" x="0" y="0" width="227" height="194">
<rect width="227" height="194" transform="matrix(-1 0 0 1 227 0)" fill="#D9D9D9"/>
</mask>
<g mask="url(#mask0_88_101)">
<path d="M217.793 159.356C214.256 174.338 200.384 183.771 185.04 185.011C107.852 191.251 122.217 188.464 103.655 97.7927C70.1049 46.1901 43.2672 68.8244 52.8737 34.0387C60.4386 6.64598 138.522 -11.5715 185.356 18.4156C224.468 51.6999 228.138 115.542 217.793 159.356Z" fill="#FDCAA5"/>
<ellipse cx="37.5955" cy="116.968" rx="19.7815" ry="25.0646" transform="rotate(-103.305 37.5955 116.968)" fill="#FDCAA5"/>
<ellipse cx="26.4218" cy="69.716" rx="19.7815" ry="25.0646" transform="rotate(-103.305 26.4218 69.716)" fill="#FDCAA5"/>
<rect x="13.2036" y="122.736" width="48.5547" height="50.1292" transform="rotate(-103.305 13.2036 122.736)" fill="#FDCAA5"/>
<path d="M60.5947 109.05C48.4311 97.5653 26.572 70.7488 36.4441 55.3582C46.3162 39.9676 56.6579 84.7397 60.5947 109.05Z" fill="#E2A97F"/>
<ellipse cx="44.6744" cy="40.4774" rx="23.6506" ry="25.0646" transform="rotate(-10.3424 44.6744 40.4774)" fill="#FDCAA5"/>
<ellipse cx="101.783" cy="30.0555" rx="23.6506" ry="25.0646" transform="rotate(-10.3424 101.783 30.0555)" fill="#FDCAA5"/>
<rect x="40.1746" y="15.8201" width="58.0515" height="50.1292" transform="rotate(-10.3424 40.1746 15.8201)" fill="#FDCAA5"/>
<path d="M44.9475 65.9981C52.4392 56.9622 69.9779 40.4885 80.1992 46.8814C90.4206 53.2742 60.9569 62.2895 44.9475 65.9981Z" fill="#E2A97F"/>
<ellipse cx="63.8444" cy="84.6579" rx="21.0548" ry="25.0646" transform="rotate(-7.69389 63.8444 84.6579)" fill="#FDCAA5"/>
<ellipse cx="115.059" cy="77.7391" rx="21.0548" ry="25.0646" transform="rotate(-7.69389 115.059 77.7391)" fill="#FDCAA5"/>
<rect x="60.4886" y="59.819" width="51.68" height="50.1292" transform="rotate(-7.69389 60.4886 59.819)" fill="#FDCAA5"/>
<path d="M63.1282 109.166C71.9324 99.4391 92.8949 81.7982 106.311 89.0502C119.727 96.3022 83.1126 105.482 63.1282 109.166Z" fill="#E2A97F"/>
<ellipse cx="75.8405" cy="128.956" rx="20.5496" ry="25.0646" transform="rotate(-12.2138 75.8405 128.956)" fill="#FDCAA5"/>
<ellipse cx="125.139" cy="118.284" rx="20.5496" ry="25.0646" transform="rotate(-12.2138 125.139 118.284)" fill="#FDCAA5"/>
<rect x="70.5378" y="104.458" width="50.44" height="50.1292" transform="rotate(-12.2138 70.5378 104.458)" fill="#FDCAA5"/>
<path d="M70.3697 153.496C80.5333 146.029 104.115 133.412 117.132 142.683C130.149 151.954 91.3808 153.755 70.3697 153.496Z" fill="#E2A97F"/>
<circle cx="109.089" cy="168.632" r="20.7968" transform="rotate(-3.81519 109.089 168.632)" fill="#FDCAA5"/>
<circle cx="160.023" cy="165.236" r="20.7968" transform="rotate(-3.81519 160.023 165.236)" fill="#FDCAA5"/>
<rect x="107.706" y="147.881" width="51.0467" height="41.5936" transform="rotate(-3.81519 107.706 147.881)" fill="#FDCAA5"/>
<ellipse cx="86.4459" cy="170.259" rx="12.0878" ry="20.7968" transform="rotate(-3.6754 86.4459 170.259)" fill="#FDCAA5"/>
<ellipse cx="116.055" cy="168.357" rx="12.0878" ry="20.7968" transform="rotate(-3.6754 116.055 168.357)" fill="#FDCAA5"/>
<rect x="85.1127" y="149.505" width="29.6701" height="41.5936" transform="rotate(-3.6754 85.1127 149.505)" fill="#FDCAA5"/>
</g>
</svg>
