<svg width="402" height="344" viewBox="0 0 402 344" fill="none" xmlns="http://www.w3.org/2000/svg">
<path d="M304.41 262.95C198.995 258.518 217.358 266.946 208.79 165.847C181.514 110.67 152.21 130.006 165.825 96.5847C176.546 70.2664 248.327 90.9438 286.597 136.884C324.866 182.825 354.415 267.813 304.41 262.95Z" fill="#FDCAA5"/>
<circle cx="147.535" cy="89.0802" r="25.0646" transform="rotate(21.8869 147.535 89.0802)" fill="#FDCAA5"/>
<circle cx="204.622" cy="112.014" r="25.0646" transform="rotate(21.8869 204.622 112.014)" fill="#FDCAA5"/>
<rect x="156.878" y="65.8222" width="61.5222" height="50.1292" transform="rotate(21.8869 156.878 65.8222)" fill="#FDCAA5"/>
<circle cx="83.2398" cy="104.331" r="25.0646" transform="rotate(-15.6536 83.2398 104.331)" fill="#FDCAA5"/>
<circle cx="142.48" cy="87.7307" r="25.0646" transform="rotate(-15.6536 142.48 87.7307)" fill="#FDCAA5"/>
<rect x="76.4769" y="80.1956" width="61.5222" height="50.1292" transform="rotate(-15.6536 76.4769 80.1956)" fill="#FDCAA5"/>
<path d="M84.4173 129.189C103.197 115.101 146.874 91.1768 171.344 108.182C195.814 125.188 123.589 129.272 84.4173 129.189Z" fill="#E2A97F"/>
<ellipse cx="22.2136" cy="24.7601" rx="22.2136" ry="24.7601" transform="matrix(0.847494 -0.530804 0.598687 0.800983 53.7247 153.355)" fill="#FDCAA5"/>
<ellipse cx="22.2136" cy="24.7601" rx="22.2136" ry="24.7601" transform="matrix(0.847494 -0.530804 0.598687 0.800983 99.9338 124.413)" fill="#FDCAA5"/>
<rect width="54.5243" height="49.5202" transform="matrix(0.847494 -0.530804 0.598687 0.800983 72.5506 141.564)" fill="#FDCAA5"/>
<circle cx="136.06" cy="133.446" r="25.0646" transform="rotate(16.5505 136.06 133.446)" fill="#FDCAA5"/>
<circle cx="195.034" cy="150.972" r="25.0646" transform="rotate(16.5505 195.034 150.972)" fill="#FDCAA5"/>
<rect x="143.2" y="109.42" width="61.5222" height="50.1292" transform="rotate(16.5505 143.2 109.42)" fill="#FDCAA5"/>
<path d="M136.442 159.669C152.865 153.638 188.878 145.872 201.549 163.051C214.22 180.231 163.424 167.955 136.442 159.669Z" fill="#E2A97F"/>
<circle cx="163.125" cy="183.325" r="25.0646" transform="rotate(16.5505 163.125 183.325)" fill="#FDCAA5"/>
<circle cx="222.098" cy="200.85" r="25.0646" transform="rotate(16.5505 222.098 200.85)" fill="#FDCAA5"/>
<rect x="170.265" y="159.299" width="61.5222" height="50.1292" transform="rotate(16.5505 170.265 159.299)" fill="#FDCAA5"/>
<ellipse cx="22.2136" cy="24.7601" rx="22.2136" ry="24.7601" transform="matrix(0.847494 -0.530804 0.598687 0.800983 85.0335 202.12)" fill="#FDCAA5"/>
<ellipse cx="22.2136" cy="24.7601" rx="22.2136" ry="24.7601" transform="matrix(0.847494 -0.530804 0.598687 0.800983 131.243 173.178)" fill="#FDCAA5"/>
<rect width="54.5243" height="49.5202" transform="matrix(0.847494 -0.530804 0.598687 0.800983 103.859 190.329)" fill="#FDCAA5"/>
<path d="M165.279 209.848C179.973 205.043 213.504 199.465 230.077 215.59C246.651 231.716 193.784 218.481 165.279 209.848Z" fill="#E2A97F"/>
<circle cx="184.82" cy="236.031" r="20.7968" transform="rotate(2.91042 184.82 236.031)" fill="#FDCAA5"/>
<circle cx="235.801" cy="238.623" r="20.7968" transform="rotate(2.91042 235.801 238.623)" fill="#FDCAA5"/>
<rect x="185.876" y="215.261" width="51.0467" height="41.5936" transform="rotate(2.91042 185.876 215.261)" fill="#FDCAA5"/>
<ellipse cx="154.536" cy="252.256" rx="14.5528" ry="20.7968" transform="rotate(-30.2734 154.536 252.256)" fill="#FDCAA5"/>
<ellipse cx="185.385" cy="234.248" rx="14.5528" ry="20.7968" transform="rotate(-30.2734 185.385 234.248)" fill="#FDCAA5"/>
<rect x="144.052" y="234.295" width="35.7206" height="41.5936" transform="rotate(-30.2734 144.052 234.295)" fill="#FDCAA5"/>
</svg>
