<svg width="287" height="218" viewBox="0 0 287 218" fill="none" xmlns="http://www.w3.org/2000/svg">
<mask id="mask0_88_181" style="mask-type:alpha" maskUnits="userSpaceOnUse" x="0" y="0" width="287" height="218">
<rect width="287" height="218" fill="#D9D9D9"/>
</mask>
<g mask="url(#mask0_88_181)">
<path d="M254.41 205.95C148.995 201.518 167.358 209.946 158.789 108.847C131.514 53.6704 102.21 73.0059 115.825 39.5847C126.546 13.2664 198.327 33.9437 236.597 79.8843C274.866 125.825 304.415 210.813 254.41 205.95Z" fill="#FDCAA5"/>
<circle cx="97.5346" cy="32.0802" r="25.0646" transform="rotate(21.8869 97.5346 32.0802)" fill="#FDCAA5"/>
<circle cx="154.622" cy="55.0143" r="25.0646" transform="rotate(21.8869 154.622 55.0143)" fill="#FDCAA5"/>
<rect x="106.878" y="8.82227" width="61.5222" height="50.1292" transform="rotate(21.8869 106.878 8.82227)" fill="#FDCAA5"/>
<circle cx="33.2398" cy="47.3306" r="25.0646" transform="rotate(-15.6536 33.2398 47.3306)" fill="#FDCAA5"/>
<circle cx="92.4803" cy="30.7307" r="25.0646" transform="rotate(-15.6536 92.4803 30.7307)" fill="#FDCAA5"/>
<rect x="26.4769" y="23.1956" width="61.5222" height="50.1292" transform="rotate(-15.6536 26.4769 23.1956)" fill="#FDCAA5"/>
<path d="M34.4173 72.1887C53.1972 58.101 96.8743 34.1768 121.344 51.1825C145.814 68.1882 73.5885 72.2724 34.4173 72.1887Z" fill="#E2A97F"/>
<ellipse cx="22.2136" cy="24.7601" rx="22.2136" ry="24.7601" transform="matrix(0.847494 -0.530804 0.598687 0.800983 3.72473 96.3549)" fill="#FDCAA5"/>
<ellipse cx="22.2136" cy="24.7601" rx="22.2136" ry="24.7601" transform="matrix(0.847494 -0.530804 0.598687 0.800983 49.9338 67.4132)" fill="#FDCAA5"/>
<rect width="54.5243" height="49.5202" transform="matrix(0.847494 -0.530804 0.598687 0.800983 22.5507 84.5639)" fill="#FDCAA5"/>
<circle cx="86.0605" cy="76.4465" r="25.0646" transform="rotate(16.5505 86.0605 76.4465)" fill="#FDCAA5"/>
<circle cx="145.034" cy="93.9717" r="25.0646" transform="rotate(16.5505 145.034 93.9717)" fill="#FDCAA5"/>
<rect x="93.2003" y="52.4203" width="61.5222" height="50.1292" transform="rotate(16.5505 93.2003 52.4203)" fill="#FDCAA5"/>
<path d="M86.4417 102.669C102.865 96.6381 138.878 88.8715 151.549 106.051C164.22 123.231 113.424 110.955 86.4417 102.669Z" fill="#E2A97F"/>
<circle cx="113.125" cy="126.325" r="25.0646" transform="rotate(16.5505 113.125 126.325)" fill="#FDCAA5"/>
<circle cx="172.098" cy="143.85" r="25.0646" transform="rotate(16.5505 172.098 143.85)" fill="#FDCAA5"/>
<rect x="120.265" y="102.299" width="61.5222" height="50.1292" transform="rotate(16.5505 120.265 102.299)" fill="#FDCAA5"/>
<ellipse cx="22.2136" cy="24.7601" rx="22.2136" ry="24.7601" transform="matrix(0.847494 -0.530804 0.598687 0.800983 35.0336 145.12)" fill="#FDCAA5"/>
<ellipse cx="22.2136" cy="24.7601" rx="22.2136" ry="24.7601" transform="matrix(0.847494 -0.530804 0.598687 0.800983 81.2427 116.178)" fill="#FDCAA5"/>
<rect width="54.5243" height="49.5202" transform="matrix(0.847494 -0.530804 0.598687 0.800983 53.8595 133.329)" fill="#FDCAA5"/>
<path d="M115.279 152.848C129.973 148.043 163.504 142.465 180.077 158.59C196.651 174.716 143.784 161.481 115.279 152.848Z" fill="#E2A97F"/>
<circle cx="134.82" cy="179.031" r="20.7968" transform="rotate(2.91042 134.82 179.031)" fill="#FDCAA5"/>
<circle cx="185.801" cy="181.623" r="20.7968" transform="rotate(2.91042 185.801 181.623)" fill="#FDCAA5"/>
<rect x="135.876" y="158.262" width="51.0467" height="41.5936" transform="rotate(2.91042 135.876 158.262)" fill="#FDCAA5"/>
<ellipse cx="104.536" cy="195.256" rx="14.5528" ry="20.7968" transform="rotate(-30.2734 104.536 195.256)" fill="#FDCAA5"/>
<ellipse cx="135.385" cy="177.248" rx="14.5528" ry="20.7968" transform="rotate(-30.2734 135.385 177.248)" fill="#FDCAA5"/>
<rect x="94.0518" y="177.295" width="35.7206" height="41.5936" transform="rotate(-30.2734 94.0518 177.295)" fill="#FDCAA5"/>
</g>
</svg>
