<svg width="663" height="147" viewBox="0 0 663 147" fill="none" xmlns="http://www.w3.org/2000/svg">
<rect x="632.361" y="63.4512" width="17.5326" height="36.5969" transform="rotate(90 632.361 63.4512)" fill="#472007"/>
<rect width="17.5326" height="36.5969" transform="matrix(-4.37114e-08 1 1 4.37114e-08 39.1505 69.2959)" fill="#472007"/>
<ellipse cx="641.723" cy="72.2179" rx="21.2896" ry="21.2773" transform="rotate(90 641.723 72.2179)" fill="#683413"/>
<ellipse cx="645.978" cy="74.3047" rx="16.6978" ry="15.3196" transform="rotate(90 645.978 74.3047)" fill="#945229"/>
<ellipse cx="650.234" cy="78.4797" rx="9.18377" ry="8.51091" transform="rotate(90 650.234 78.4797)" fill="#D68F64"/>
<ellipse cx="21.2896" cy="21.2773" rx="21.2896" ry="21.2773" transform="matrix(-4.37114e-08 1 1 4.37114e-08 0.000244141 56.7725)" fill="#683413"/>
<path d="M62.2022 5.84421C121.599 10.6089 262.717 21.0911 267.588 24.9028L486.368 24.9028L606.403 2.37878e-05L614 134L353.203 120.224L62.2022 144.885L62.2022 5.84421Z" fill="#A88925"/>
<ellipse cx="24.6819" cy="80.9839" rx="16.6978" ry="15.3196" transform="rotate(90 24.6819 80.9839)" fill="#945229"/>
<ellipse cx="28.9373" cy="85.1589" rx="9.18377" ry="8.51091" transform="rotate(90 28.9373 85.1589)" fill="#D68F64"/>
<path d="M593.927 117.602C594.553 120.971 594.404 124.356 594.404 127.738L563.721 125.294C545.85 125.231 528.238 124.626 510.382 124.073C484.118 123.26 457.961 123.258 431.685 123.258C428.942 123.258 437.154 122.991 439.873 122.783C447.541 122.196 454.966 121.167 462.329 119.819C465.347 119.267 473.704 118.071 470.795 117.353C465.592 116.07 457.601 116.044 452.313 115.589L450.643 115.445C425.639 113.29 400.555 111.128 375.803 108.168C363.404 106.685 372.793 106.96 376.677 106.991C391.414 107.112 406.079 107.753 420.795 108.1C438.309 108.513 456 108.211 473.498 107.783C481.144 107.596 489.724 107.796 497.107 106.426C500.695 105.76 508.879 103.498 507.202 100.498C505.548 97.5393 495.137 96.7045 490.986 96.2449C480.737 95.11 470.134 94.6325 459.727 94.1639L458.712 94.1182C429.438 92.798 400.001 91.4039 370.636 91.1544C326.679 90.781 282.753 90.3768 238.799 89.8648C198.72 89.3981 157.412 87.988 118.409 82.3536C111.788 81.3971 102.507 80.4357 96.4694 78.3491C95.1413 77.8901 98.6952 77.3175 99.0528 77.2405C102.851 76.4225 106.85 75.947 110.857 75.6115C121.526 74.7185 132.112 73.5456 142.813 72.7609C171.919 70.6264 201.34 69.9929 230.492 68.0098C255.576 66.3034 280.344 63.5155 305.294 61.313C331.192 59.0267 357.058 56.6881 383.036 54.7067C403.652 53.1343 424.314 51.8841 444.404 48.6886C453.077 47.3091 462.157 45.8302 470.557 43.9375C471.851 43.6458 467.773 43.9979 466.383 44.0507C458.313 44.3569 450.253 44.1057 442.178 43.9375L437.799 43.8463C403.99 43.1424 370.18 42.4384 336.375 41.6751C323.626 41.3873 310.89 40.8784 298.139 40.6344C296.391 40.6009 294.633 40.6708 292.893 40.5665C292.375 40.5355 293.891 40.3928 294.403 40.3403C323.712 37.3373 353.953 36.8118 383.513 34.8426C411.963 32.9473 440.025 29.9546 468.092 26.7431C486.709 24.6129 505.646 22.7737 523.895 19.7296C547.751 15.7504 570.025 9.01694 592.497 3.07808C594.433 2.56623 604.7 -0.787089 604.261 1.81112C603.355 7.17689 602.451 12.7442 599.691 17.9196C592.475 31.4499 591.368 45.4656 590.509 59.5031C589.326 78.8369 590.353 98.3659 593.927 117.602Z" fill="#D6B54B"/>
<path d="M131.068 139.426L62.9989 146.94C58.4895 119.702 52.1583 52.6822 62.9809 5.84423L125.11 10.4361C119.567 13.6345 130.794 15.7936 125.111 20.0373L167.39 27.9881C190.922 31.8063 215.273 35.7387 214.049 36.7627C210.503 39.7314 110.467 54.3277 107.238 57.6073C85.9297 79.2435 76.1616 76.6966 100.003 98.9342L129.487 109.451C137.424 111.94 144.456 114.229 146.813 115.632C150.033 117.548 103.359 127.602 107.238 129.497C114.088 132.844 121.996 136.157 131.068 139.426Z" fill="#5C4D1C"/>
</svg>
