<svg width="154" height="673" viewBox="0 0 154 673" fill="none" xmlns="http://www.w3.org/2000/svg">
<rect x="66.6333" y="31.1014" width="18.1425" height="37.1489" fill="#472007"/>
<rect width="18.1425" height="37.1489" transform="matrix(1 0 0 -1 72.6807 633.259)" fill="#472007"/>
<ellipse cx="75.7045" cy="21.5982" rx="22.0302" ry="21.5982" fill="#683413"/>
<ellipse cx="77.864" cy="17.2786" rx="17.2786" ry="15.5507" fill="#945229"/>
<ellipse cx="82.1839" cy="12.9589" rx="9.50321" ry="8.63928" fill="#D68F64"/>
<ellipse cx="22.0302" cy="21.5982" rx="22.0302" ry="21.5982" transform="matrix(1 0 0 -1 59.7217 673)" fill="#683413"/>
<path d="M7.02211 609.86C11.9525 549.567 22.7993 406.321 26.7436 401.377V179.297L0.974609 57.4512L137.453 63.9307L125.38 314.47L150.899 609.86H7.02211Z" fill="#A88925"/>
<ellipse cx="84.7756" cy="647.946" rx="17.2786" ry="15.5507" fill="#945229"/>
<ellipse cx="89.0955" cy="643.627" rx="9.50321" ry="8.63928" fill="#D68F64"/>
<path d="M122.667 70.1147C126.153 69.4794 129.656 69.6306 133.155 69.6306L130.627 100.777C130.561 118.917 129.935 136.795 129.363 154.92C128.521 181.581 128.52 208.132 128.52 234.804C128.52 237.589 128.244 229.253 128.028 226.493C127.421 218.709 126.356 211.173 124.962 203.698C124.39 200.634 123.152 192.152 122.41 195.104C121.082 200.386 121.055 208.497 120.584 213.865L120.435 215.559C118.205 240.94 115.968 266.404 112.905 291.529C111.37 304.115 111.654 294.585 111.687 290.642C111.812 275.683 112.475 260.796 112.834 245.859C113.262 228.081 112.949 210.123 112.507 192.361C112.313 184.6 112.52 175.889 111.102 168.396C110.413 164.753 108.072 156.446 104.968 158.148C101.906 159.827 101.043 170.395 100.567 174.609C99.3927 185.012 98.8986 195.775 98.4137 206.338L98.3663 207.369C97.0002 237.085 95.5576 266.966 95.2995 296.774C94.913 341.394 94.4948 385.982 93.965 430.6C93.482 471.283 92.0229 513.214 86.1925 552.805C85.2028 559.526 84.208 568.947 82.0487 575.076C81.5738 576.424 80.9813 572.817 80.9016 572.453C80.0551 568.598 79.5631 564.539 79.216 560.471C78.2918 549.641 77.0782 538.896 76.2661 528.033C74.0574 498.489 73.4019 468.624 71.3498 439.032C69.5841 413.569 66.6992 388.428 64.4201 363.102C62.0542 336.813 59.6343 310.557 57.584 284.187C55.9569 263.26 54.6632 242.286 51.3566 221.894C49.929 213.09 48.3987 203.873 46.4402 195.346C46.1383 194.032 46.5027 198.172 46.5573 199.583C46.8742 207.774 46.6142 215.956 46.4402 224.153L46.3457 228.603C45.6173 262.92 44.8889 297.239 44.0991 331.552C43.8012 344.493 43.2746 357.421 43.0222 370.364C42.9876 372.139 43.0598 373.924 42.9519 375.69C42.9198 376.215 42.7722 374.677 42.7178 374.157C39.6104 344.406 39.0667 313.708 37.0289 283.702C35.0677 254.824 31.9709 226.339 28.6477 197.848C26.4434 178.95 24.5402 159.728 21.3902 141.203C17.2726 116.988 10.305 94.3777 4.15952 71.5671C3.62986 69.6012 0.159908 59.1794 2.84849 59.625C8.4009 60.545 14.1618 61.4629 19.5173 64.2647C33.5182 71.5893 48.0214 72.7126 62.5471 73.5844C82.5534 74.7851 102.762 73.743 122.667 70.1147Z" fill="#D6B54B"/>
<path d="M145.25 539.955L153.026 609.051C124.84 613.628 55.4891 620.055 7.02197 609.069L11.7736 546.003C15.0832 551.629 17.3174 540.233 21.7087 546.003L29.9361 503.086C33.8871 479.198 37.9563 454.48 39.0158 455.722C42.0879 459.323 57.1919 560.867 60.5855 564.145C82.9744 585.774 80.3388 595.69 103.35 571.488L114.233 541.56C116.808 533.503 119.177 526.366 120.629 523.972C122.611 520.704 133.015 568.082 134.976 564.145C138.44 557.191 141.867 549.164 145.25 539.955Z" fill="#5C4D1C"/>
</svg>
