<svg width="663" height="147" viewBox="0 0 663 147" fill="none" xmlns="http://www.w3.org/2000/svg">
<rect x="632.361" y="63.5088" width="17.5326" height="36.5969" transform="rotate(90 632.361 63.5088)" fill="#472007"/>
<rect width="17.5326" height="36.5969" transform="matrix(-4.37114e-08 1 1 4.37114e-08 39.1505 69.353)" fill="#472007"/>
<ellipse cx="641.723" cy="72.275" rx="21.2896" ry="21.2773" transform="rotate(90 641.723 72.275)" fill="#683413"/>
<ellipse cx="645.978" cy="74.3623" rx="16.6978" ry="15.3196" transform="rotate(90 645.978 74.3623)" fill="#945229"/>
<ellipse cx="650.234" cy="78.5368" rx="9.18377" ry="8.51091" transform="rotate(90 650.234 78.5368)" fill="#D68F64"/>
<ellipse cx="21.2896" cy="21.2773" rx="21.2896" ry="21.2773" transform="matrix(-4.37114e-08 1 1 4.37114e-08 0.000244141 56.8296)" fill="#683413"/>
<path d="M62.2022 5.901C121.599 10.6656 262.717 21.1479 267.588 24.9596L486.368 24.9596L611.5 0.999536L617 132L353.203 120.281L62.2022 144.942L62.2022 5.901Z" fill="#A88925"/>
<ellipse cx="24.6819" cy="81.041" rx="16.6978" ry="15.3196" transform="rotate(90 24.6819 81.041)" fill="#945229"/>
<ellipse cx="28.9373" cy="85.2155" rx="9.18377" ry="8.51091" transform="rotate(90 28.9373 85.2155)" fill="#D68F64"/>
<path d="M604.261 107.049C619.834 109.266 594.404 124.413 594.404 127.795L563.721 125.352C545.85 125.288 528.238 124.683 510.382 124.13C484.117 123.317 457.961 123.315 431.685 123.315C428.942 123.315 437.154 123.048 439.873 122.84C447.541 122.253 454.965 121.224 462.329 119.877C465.347 119.324 473.704 118.128 470.795 117.41C465.591 116.127 457.601 116.102 452.313 115.646L450.644 115.502C425.64 113.347 400.555 111.186 375.803 108.225C363.404 106.742 372.793 107.017 376.677 107.049C391.413 107.169 406.079 107.81 420.795 108.157C438.308 108.571 456 108.268 473.498 107.84C481.143 107.654 489.724 107.853 497.107 106.483C500.695 105.817 508.879 103.555 507.202 100.555C505.548 97.5964 495.137 96.7617 490.986 96.302C480.737 95.1672 470.134 94.6897 459.728 94.2211L458.712 94.1753C429.438 92.8551 400.001 91.4611 370.636 91.2116C326.679 90.8381 282.753 90.4339 238.799 89.922C198.72 89.4552 157.412 88.0451 118.409 82.4107C111.788 81.4543 102.507 80.4929 96.4692 78.4062C95.1412 77.9472 98.6951 77.3746 99.0527 77.2976C102.851 76.4796 106.85 76.0041 110.857 75.6687C121.526 74.7756 132.112 73.6028 142.813 72.818C171.919 70.6835 201.34 70.05 230.492 68.0669C255.576 66.3606 280.344 63.5726 305.294 61.3701C331.192 59.0838 357.058 56.7452 383.036 54.7638C403.652 53.1915 424.314 51.9413 444.404 48.7458C453.077 47.3662 462.157 45.8873 470.557 43.9947C471.851 43.7029 467.773 44.0551 466.383 44.1078C458.313 44.414 450.253 44.1628 442.178 43.9947L437.788 43.9033C403.983 43.1994 370.176 42.4954 336.375 41.7322C323.626 41.4444 310.89 40.9355 298.139 40.6915C296.391 40.6581 294.633 40.7279 292.893 40.6236C292.375 40.5926 293.891 40.4499 294.403 40.3974C323.712 37.3944 353.953 36.869 383.513 34.8997C411.963 33.0044 440.025 30.0117 468.092 26.8002C486.709 24.6701 505.646 22.8308 523.895 19.7867C547.751 15.8075 570.025 9.07407 592.497 3.13521C594.433 2.62335 604.7 -0.729961 604.261 1.86825C603.355 7.23402 602.451 12.8013 599.691 17.9767C592.475 31.507 605.12 50.9626 604.261 65C603.078 84.3338 600.687 87.8122 604.261 107.049Z" fill="#D6B54B"/>
<path d="M131.068 139.483L62.9989 146.997C58.4895 119.759 52.1583 52.7393 62.9809 5.90136L125.11 10.4932C119.567 13.6916 130.794 15.8507 125.111 20.0945L167.39 28.0452C190.922 31.8635 215.273 35.7959 214.049 36.8198C210.503 39.7886 110.467 54.3849 107.238 57.6644C85.9297 79.3007 76.1616 76.7537 100.003 98.9914L129.487 109.509C137.424 111.997 144.456 114.286 146.813 115.689C150.033 117.605 103.359 127.659 107.238 129.555C114.088 132.902 121.996 136.214 131.068 139.483Z" fill="#5C4D1C"/>
</svg>
