<svg width="150" height="660" viewBox="0 0 150 660" fill="none" xmlns="http://www.w3.org/2000/svg">
<rect x="65.1477" y="30.5006" width="17.792" height="36.4313" fill="#472007"/>
<rect width="17.792" height="36.4313" transform="matrix(1 0 0 -1 71.0784 621.027)" fill="#472007"/>
<ellipse cx="74.0436" cy="21.181" rx="21.6046" ry="21.181" fill="#683413"/>
<ellipse cx="76.1618" cy="16.9448" rx="16.9448" ry="15.2503" fill="#945229"/>
<ellipse cx="80.398" cy="12.7086" rx="9.31964" ry="8.4724" fill="#D68F64"/>
<ellipse cx="21.6046" cy="21.181" rx="21.6046" ry="21.181" transform="matrix(1 0 0 -1 58.3696 660)" fill="#683413"/>
<path d="M6.688 598.08C11.5231 538.952 22.1604 398.472 26.0285 393.624V175.834L0.757324 56.3416L134.599 62.6959L122.76 308.395L147.786 598.08H6.688Z" fill="#A88925"/>
<ellipse cx="82.9397" cy="635.43" rx="16.9448" ry="15.2503" fill="#945229"/>
<ellipse cx="87.1758" cy="631.194" rx="9.31964" ry="8.4724" fill="#D68F64"/>
<path d="M120.099 68.7603C123.518 68.1373 126.953 68.2855 130.385 68.2855L127.905 98.8304C127.841 116.62 127.227 134.152 126.666 151.928C125.84 178.073 125.839 204.112 125.839 230.268C125.839 232.999 125.568 224.824 125.357 222.118C124.761 214.484 123.717 207.093 122.349 199.763C121.789 196.759 120.575 188.44 119.847 191.336C118.544 196.516 118.519 204.47 118.056 209.734L117.91 211.396C115.723 236.286 113.53 261.258 110.525 285.898C109.021 298.241 109.299 288.894 109.332 285.028C109.454 270.358 110.104 255.758 110.457 241.11C110.876 223.675 110.569 206.064 110.135 188.645C109.946 181.034 110.148 172.492 108.758 165.143C108.082 161.571 105.786 153.424 102.742 155.093C99.7396 156.74 98.8925 167.104 98.426 171.236C97.2744 181.439 96.7898 191.994 96.3143 202.353L96.2679 203.364C94.9281 232.505 93.5134 261.809 93.2603 291.042C92.8813 334.8 92.4711 378.526 91.9516 422.282C91.4779 462.179 90.047 503.301 84.3292 542.127C83.3586 548.718 82.383 557.957 80.2654 563.967C79.7997 565.29 79.2186 561.752 79.1405 561.396C78.3103 557.615 77.8278 553.634 77.4874 549.645C76.5811 539.024 75.3909 528.486 74.5946 517.834C72.4285 488.86 71.7856 459.572 69.7732 430.551C68.0416 405.581 65.2124 380.925 62.9773 356.088C60.6572 330.307 58.284 304.558 56.2733 278.697C54.6776 258.175 53.4089 237.606 50.1662 217.607C48.7662 208.974 47.2654 199.935 45.3448 191.573C45.0487 190.284 45.4061 194.344 45.4596 195.727C45.7704 203.761 45.5154 211.785 45.3448 219.823L45.252 224.195C44.5377 257.847 43.8234 291.5 43.0489 325.148C42.7568 337.839 42.2403 350.517 41.9928 363.21C41.9588 364.95 42.0297 366.701 41.9239 368.433C41.8924 368.948 41.7476 367.439 41.6943 366.929C38.6469 337.753 38.1137 307.649 36.1153 278.222C34.1919 249.902 31.1549 221.966 27.8959 194.026C25.7343 175.493 23.8678 156.643 20.7786 138.476C16.7406 114.728 9.90753 92.5546 3.8808 70.1847C3.36137 68.2567 -0.0415562 58.0363 2.59509 58.4732C8.04025 59.3755 13.6899 60.2757 18.9419 63.0233C32.6724 70.2064 46.8955 71.3081 61.1406 72.163C80.7604 73.3405 100.578 72.3185 120.099 68.7603Z" fill="#D6B54B"/>
<path d="M142.246 529.525L149.872 597.286C122.231 601.775 54.2189 608.078 6.68799 597.304L11.3478 535.456C14.5935 540.974 16.7845 529.798 21.0911 535.456L29.1595 493.368C33.0342 469.942 37.0248 445.701 38.0639 446.919C41.0766 450.45 55.8888 550.033 59.2169 553.248C81.1733 574.459 78.5886 584.183 101.155 560.449L111.828 531.099C114.353 523.198 116.677 516.198 118.1 513.851C120.044 510.646 130.247 557.109 132.171 553.248C135.567 546.428 138.929 538.556 142.246 529.525Z" fill="#5C4D1C"/>
</svg>
