<svg width="1366" height="528" viewBox="0 0 1366 528" fill="none" xmlns="http://www.w3.org/2000/svg">
<path d="M135.656 92.5C135.656 64 119.258 49 82.9836 49C42.8335 49 29.6488 78 30.8083 92.5V249.5C30.8083 292 0 294.5 0 294.5V0H1366V292C1366 292 1308.86 299.5 1308.86 249.5V92.5C1308.86 92.5 1289.97 49 1255.69 49C1221.4 49 1206.99 92.5 1206.99 92.5V189C1206.99 189 1206.99 249.5 1144.88 249.5C1082.76 249.5 1079.78 189 1079.78 189V92.5C1079.78 92.5 1069.84 49 1023.13 49C976.424 49 964.995 92.5 964.995 92.5L960.523 359C960.523 359 960.523 409.5 912.323 409.5C864.123 409.5 858.16 359 858.16 359V92.5C858.16 92.5 849.216 49 794.556 49C739.896 49 727.97 92.5 727.97 92.5V477.5C727.97 477.5 727.97 528 668.838 528C609.706 528 606.228 477.5 606.228 477.5V92.5C606.228 92.5 600.762 49 546.102 49C491.442 49 487.964 92.5 487.964 92.5V359C487.964 359 487.964 409.5 425.353 409.5C362.743 409.5 366.718 359 366.718 359V92.5C366.718 92.5 355.786 49 309.574 49C263.361 49 257.398 92.5 257.398 92.5V191C259.055 207.833 245.969 249.5 198.266 249.5C150.563 249.5 138.14 207.833 135.656 191V92.5Z" fill="#3BA7FF"/>
<ellipse cx="663.5" cy="275.5" rx="47.5" ry="192.5" fill="#287FC7"/>
<ellipse cx="425.5" cy="219" rx="47.5" ry="163" fill="#287FC7"/>
<ellipse cx="912.5" cy="219" rx="27.5" ry="163" fill="#287FC7"/>
<ellipse cx="1143.5" cy="124" rx="35.5" ry="112" fill="#287FC7"/>
<ellipse cx="1343" cy="169.5" rx="23" ry="113.5" fill="#287FC7"/>
<ellipse cx="200" cy="138.5" rx="34" ry="99.5" fill="#287FC7"/>
<ellipse cx="389.5" cy="337" rx="35.5" ry="43" fill="white"/>
<ellipse cx="165.5" cy="205" rx="35.5" ry="43" fill="white"/>
<ellipse cx="874.5" cy="343" rx="35.5" ry="43" fill="white"/>
<ellipse cx="1108.5" cy="195" rx="35.5" ry="43" fill="white"/>
<ellipse cx="706.5" cy="396.5" rx="27.5" ry="46.5" fill="white"/>
<ellipse cx="466.5" cy="285.5" rx="27.5" ry="46.5" fill="white"/>
<ellipse cx="242.5" cy="153.5" rx="27.5" ry="46.5" fill="white"/>
<ellipse cx="37.5" cy="211.5" rx="27.5" ry="46.5" fill="white"/>
<ellipse cx="951.5" cy="291.5" rx="27.5" ry="46.5" fill="white"/>
<ellipse cx="1185.5" cy="143.5" rx="27.5" ry="46.5" fill="white"/>
<ellipse cx="626.5" cy="367" rx="16.5" ry="20" fill="white"/>
<ellipse cx="386.5" cy="256" rx="16.5" ry="20" fill="white"/>
<ellipse cx="162.5" cy="124" rx="16.5" ry="20" fill="white"/>
<ellipse cx="871.5" cy="262" rx="16.5" ry="20" fill="white"/>
<ellipse cx="1105.5" cy="114" rx="16.5" ry="20" fill="white"/>
<ellipse cx="703.5" cy="302" rx="16.5" ry="20" fill="white"/>
<ellipse cx="655.5" cy="210" rx="12.5" ry="15" fill="white"/>
<ellipse cx="900.5" cy="97" rx="12.5" ry="15" fill="white"/>
<ellipse cx="900.5" cy="169.5" rx="12.5" ry="25.5" fill="white"/>
<ellipse cx="647.5" cy="287.5" rx="12.5" ry="25.5" fill="white"/>
<ellipse cx="412.5" cy="113.5" rx="12.5" ry="25.5" fill="white"/>
<circle cx="688.5" cy="58.5" r="10.5" fill="white"/>
<circle cx="483.5" cy="57.5" r="10.5" fill="white"/>
<ellipse cx="463.5" cy="191" rx="16.5" ry="20" fill="white"/>
<ellipse cx="239.5" cy="59" rx="16.5" ry="20" fill="white"/>
<ellipse cx="34.5" cy="117" rx="16.5" ry="20" fill="white"/>
<ellipse cx="948.5" cy="197" rx="16.5" ry="20" fill="white"/>
<ellipse cx="1182.5" cy="49" rx="16.5" ry="20" fill="white"/>
<ellipse cx="629.5" cy="448" rx="35.5" ry="43" fill="white"/>
<ellipse cx="1320.5" cy="229" rx="35.5" ry="43" fill="white"/>
<ellipse cx="1317.5" cy="148" rx="16.5" ry="20" fill="white"/>
</svg>
