<svg width="1366" height="143" viewBox="0 0 1366 143" fill="none" xmlns="http://www.w3.org/2000/svg">
<path d="M447.146 29.8365C275.907 -19.2176 77.6991 3.08277 0 20.3647V143H1366V43.2965C1212.61 -11.5404 1113.35 5.4092 984.523 43.2965C855.693 81.1838 661.194 91.1542 447.146 29.8365Z" fill="#A91C1C"/>
<path d="M533.5 92C533.5 109.836 308.918 78.5883 220 78.5883C131.082 78.5883 39 76.3297 39 58.4942C39 40.6586 131.082 14 220 14C308.918 14 533.5 74.1644 533.5 92Z" fill="#C77171"/>
<path d="M825 90.2397C825 82.9773 734.168 95.7007 698.205 95.7007C662.243 95.7007 625 96.6203 625 103.883C625 111.145 662.243 122 698.205 122C734.168 122 825 97.502 825 90.2397Z" fill="#C77171"/>
<path d="M1351 98.2429C1351 116.31 1247.16 74.5 1169.5 74.5C1091.84 74.5 880 124.567 880 106.5C880 88.4328 1100.42 27 1178.08 27C1255.73 27 1351 80.1757 1351 98.2429Z" fill="#C77171"/>
<ellipse cx="1147.5" cy="41" rx="47.5" ry="20" fill="white"/>
<ellipse cx="276.5" cy="30" rx="47.5" ry="20" fill="white"/>
<ellipse cx="132" cy="20" rx="24" ry="10" fill="white"/>
<ellipse cx="1028" cy="56.0001" rx="24" ry="10" transform="rotate(-18.371 1028 56.0001)" fill="white"/>
<ellipse cx="632.928" cy="98.0542" rx="24" ry="10" transform="rotate(2.38534 632.928 98.0542)" fill="white"/>
</svg>
