<svg width="1366" height="768" viewBox="0 0 1366 768" fill="none" xmlns="http://www.w3.org/2000/svg">
<path d="M347 691.5L153 868.5L-66 787.5L136 691.5L16.5 590.5L517 447L242.5 636L347 691.5Z" fill="#FFCE08"/>
<path d="M347 114L153 -63L-66 18L136 114L16.5 215L517 358.5L242.5 169.5L347 114Z" fill="#FFCE08"/>
<path d="M1033 691.5L1227 868.5L1446 787.5L1244 691.5L1363.5 590.5L863 447L1137.5 636L1033 691.5Z" fill="#FFCE08"/>
<path d="M1033 114L1227 -63L1446 18L1244 114L1363.5 215L863 358.5L1137.5 169.5L1033 114Z" fill="#FFCE08"/>
<path d="M1121 100L1283 -43L1373.5 -9L1185.5 89L1284.5 182L1018.5 282.5L1222 182L1121 100Z" fill="white"/>
<path d="M1104.5 687.5L1266.5 830.5L1357 796.5L1169 698.5L1268 605.5L1002 505L1205.5 605.5L1104.5 687.5Z" fill="white"/>
<path d="M267.5 696.5L105.5 839.5L15 805.5L203 707.5L104 614.5L370 514L166.5 614.5L267.5 696.5Z" fill="white"/>
<path d="M267.5 100L105.5 -43L15 -9L203 89L104 182L370 282.5L166.5 182L267.5 100Z" fill="white"/>
</svg>
