<svg width="1366" height="271" viewBox="0 0 1366 271" fill="none" xmlns="http://www.w3.org/2000/svg">
<path d="M146.536 0L0 180.5V271H1366V180.5L1303.25 90.25L1240.5 0L1058 180.5L868 0L682 180.5L513.5 0L344.5 180.5L146.536 0Z" fill="#B9CD39"/>
<path d="M36.7326 71.218C7.34653 87.4576 1.9333 150.483 2.89995 179.966C137.071 168.366 103.592 73.9568 70.082 28.2021C71.0486 40.2852 68.1487 71.6046 48.8158 100.217C29.4828 128.83 32.7049 92.8064 36.7326 71.218Z" fill="#B9CD39"/>
<path d="M304.959 70.735C334.345 86.9747 339.758 150 338.791 179.483C204.621 167.883 238.099 73.4739 271.609 27.7192C270.643 39.8023 273.543 71.1217 292.876 99.7345C312.209 128.347 308.986 92.3235 304.959 70.735Z" fill="#B9CD39"/>
<path d="M999.012 82.3347C1028.4 98.5743 1033.81 161.6 1032.84 191.082C898.674 179.483 932.152 85.0735 965.662 39.3188C964.696 51.4019 967.596 82.7213 986.929 111.334C1006.26 139.947 1003.04 103.923 999.012 82.3347Z" fill="#B9CD39"/>
<path d="M634.586 82.3347C663.972 98.5743 669.385 161.6 668.418 191.082C534.248 179.483 567.726 85.0735 601.236 39.3188C600.27 51.4019 603.17 82.7213 622.502 111.334C641.835 139.947 638.613 103.923 634.586 82.3347Z" fill="#B9CD39"/>
<path d="M694.156 82.3347C664.77 98.5743 659.357 161.6 660.323 191.082C794.494 179.483 761.016 85.0735 727.505 39.3188C728.472 51.4019 725.572 82.7213 706.239 111.334C686.906 139.947 690.128 103.923 694.156 82.3347Z" fill="#B9CD39"/>
<path d="M360.663 82.3347C331.277 98.5743 325.863 161.6 326.83 191.082C461.001 179.483 427.522 85.0735 394.012 39.3188C394.979 51.4019 392.079 82.7213 372.746 111.334C353.413 139.947 356.635 103.923 360.663 82.3347Z" fill="#B9CD39"/>
<path d="M1054.72 93.9343C1025.33 110.174 1019.92 173.199 1020.88 202.682C1155.05 191.082 1121.58 96.6731 1088.07 50.9185C1089.03 63.0015 1086.13 94.3209 1066.8 122.934C1047.47 151.546 1050.69 115.523 1054.72 93.9343Z" fill="#B9CD39"/>
<path d="M1306.48 95.3428C1296.47 121.237 1234.5 190.5 1262 263.5C1397.5 276 1373.31 98.5715 1340.14 52.5725C1341.02 64.6624 1337.89 95.9597 1318.35 124.43C1298.8 152.9 1302.29 116.901 1306.48 95.3428Z" fill="#B9CD39"/>
<path d="M25.8728 113.685C15.3757 134.63 15.3757 203.261 25.8728 216.63C48.8663 121.707 84.3563 194.348 100.352 190.337C89.5549 155.041 133.176 114.13 156.336 98.087C179.802 122.746 226.751 172.957 226.816 176.522C224.817 125.183 259.974 152.159 277.802 172.065L307.294 230C317.691 200.765 360.279 200.587 380.273 204.152C390.67 226.257 447.921 229.406 475.246 228.217C456.052 226.791 449.254 211.58 448.254 204.152C523.833 102.187 583.383 177.71 603.71 228.217C611.708 213.659 627.903 185.702 628.703 190.337C629.503 194.972 647.365 213.659 656.195 222.424L727.175 190.337C743.004 202.072 775.062 226.435 776.661 230C863.037 136.235 948.946 185.88 981.104 222.424C977.905 209.589 1002.1 180.533 1014.59 167.609C1033.79 181.157 1050.58 214.848 1056.58 230L1072.58 175.185L1130.06 222.424C1195.24 92.2935 1301.51 168.203 1346.5 222.424L1350 134.185C1342.67 138.196 1327.61 145.148 1326.01 140.87C1324.41 136.591 1311.01 97.4928 1304.51 78.4783L1294.52 119.924L1237.53 25C1211.21 58.8696 1157.55 127.411 1153.56 130.62C1148.56 134.63 1134.56 98.087 1130.06 94.5217C1126.46 91.6696 1105.9 124.232 1096.07 140.87L1072.58 119.924V140.87L1048.58 119.924V156.022L985.103 98.087V150.674L865.136 33.0217L776.661 126.609L759.166 78.4783L727.175 150.674L703.182 119.924C698.017 132.105 687.087 157.537 684.687 161.815C682.288 166.093 673.024 142.801 668.692 130.62V150.674L600.711 87.3913L592.213 119.924L508.737 25L438.757 150.674L413.264 87.3913L393.269 161.815L358.279 119.924L353.78 150.674L326.288 105.217L313.292 150.674L267.805 78.4783L250.31 135.522L152.337 25L96.3529 109.674L74.859 71.7935C63.8621 169.391 23.877 118.587 25.8728 113.685Z" fill="#F1FF99"/>
<path d="M8.07374 176.026C-2.69125 191.148 -2.69125 240.696 8.07374 250.348C31.6542 181.817 68.0501 234.261 84.4539 231.365C73.3813 205.883 118.116 176.348 141.867 164.765C165.933 182.568 214.08 218.817 214.146 221.391C212.096 184.327 248.15 203.803 266.433 218.174L296.678 260C307.34 238.894 351.015 238.765 371.52 241.339C382.183 257.297 440.895 259.571 468.918 258.713C449.233 257.683 442.262 246.701 441.236 241.339C518.744 167.725 579.814 222.249 600.661 258.713C608.863 248.203 625.471 228.019 626.292 231.365C627.112 234.711 645.429 248.203 654.486 254.53L727.277 231.365C743.51 239.838 776.386 257.426 778.027 260C866.607 192.306 954.709 228.148 987.688 254.53C984.407 245.264 1009.22 224.287 1022.03 214.957C1041.72 224.737 1058.94 249.061 1065.09 260L1081.5 220.426L1140.45 254.53C1207.29 160.583 1316.28 215.386 1362.41 254.53L1366 190.826C1358.48 193.722 1343.03 198.741 1341.39 195.652C1339.75 192.563 1326.02 164.336 1319.35 150.609L1309.1 180.53L1250.66 112C1223.66 136.452 1168.64 185.936 1164.54 188.252C1159.41 191.148 1145.06 164.765 1140.45 162.191C1136.76 160.132 1115.67 183.641 1105.59 195.652L1081.5 180.53V195.652L1056.89 180.53V206.591L991.789 164.765V202.73L868.76 117.791L778.027 185.357L760.085 150.609L727.277 202.73L702.672 180.53C697.375 189.325 686.165 207.685 683.705 210.774C681.244 213.863 671.744 197.046 667.301 188.252V202.73L597.585 157.043L588.87 180.53L503.263 112L431.497 202.73L405.353 157.043L384.848 210.774L348.965 180.53L344.351 202.73L316.157 169.913L302.829 202.73L256.181 150.609L238.239 191.791L137.766 112L80.3529 173.13L58.3103 145.783C47.0327 216.243 6.02696 179.565 8.07374 176.026Z" fill="#9DAF27"/>
</svg>
