<svg width="345" height="399" viewBox="0 0 345 399" fill="none" xmlns="http://www.w3.org/2000/svg">
<path d="M158.251 249.099C157.463 248.747 155.27 247.632 154.98 247.514C150.609 245.753 150.782 242.604 150.231 239.087C149.617 235.276 149.293 231.414 149.26 227.542C159.438 220.796 167.341 205.857 168.823 201.356C169.067 200.527 169.565 198.964 170.004 197.109L170.928 196.949C172.908 196.579 174.769 195.641 176.328 194.226C178.248 192.4 179.792 190.132 180.856 187.577C183.114 182.521 184.086 176.868 183.666 171.237C183.608 169.797 183.28 168.387 182.703 167.098C182.206 166.164 181.527 165.367 180.718 164.765C179.909 164.163 178.989 163.772 178.027 163.62C177.047 163.459 176.047 163.537 175.096 163.848C174.145 164.16 173.265 164.697 172.517 165.423C172.517 165.423 174.091 123.125 127.045 123.125C87.6855 123.125 80.5732 152.539 80.1072 162.358C80.0507 163.379 80.0433 164.402 80.0852 165.423C79.3367 164.697 78.4569 164.16 77.506 163.849C76.555 163.538 75.5552 163.459 74.5749 163.62C73.6127 163.772 72.6933 164.163 71.8841 164.765C71.0749 165.367 70.3966 166.164 69.8989 167.098C69.3224 168.387 68.9944 169.797 68.9362 171.237C68.5163 176.868 69.4882 182.521 71.7457 187.577C72.8103 190.132 74.355 192.399 76.2744 194.226C77.8334 195.64 79.6938 196.579 81.6737 196.949C81.6737 196.949 82.3389 197.063 83.4339 197.249C85.1491 204.381 88.1922 211.028 92.3637 216.752C95.5666 221.177 99.464 224.911 103.865 227.771C103.818 231.566 103.494 235.351 102.894 239.087C102.343 242.604 102.515 245.748 98.1441 247.514C97.8552 247.631 95.7825 248.659 94.8733 249.099C94.8733 249.099 96.5831 267.914 124.572 267.914C152.562 267.914 158.251 249.099 158.251 249.099Z" fill="white"/>
<path d="M113.711 82.2994C103.414 83.6133 92.8166 87.7595 84.226 97.4301L88.3391 101.355C81.3331 106.199 75.8291 115.582 73.3038 123.889C70.329 133.664 69.4411 147.569 72.9732 164.001L72.9984 164.121C73.5049 163.88 74.0369 163.712 74.5814 163.621C75.5618 163.461 76.5616 163.539 77.5125 163.85C78.4635 164.161 79.3432 164.698 80.0917 165.425L85.9956 161.49L86.4806 161.166C98.9685 148.092 105.931 142.68 117.123 132.843C117.192 133.714 119.687 140.694 120.272 140.96C120.991 141.287 128.205 136.297 134.077 132.241L143.986 133.588C148.539 134.702 152.811 137.469 156.66 141.171C163.479 147.736 168.962 157.241 172.305 165.697C173.051 164.878 173.957 164.264 174.951 163.904C175.945 163.544 177 163.448 178.034 163.622C178.442 163.69 178.844 163.802 179.234 163.956C182.658 154.114 183.16 139.857 178.836 126.331C175.796 116.82 168.547 106.876 162.832 104.078L156.084 98.6983C149.459 88.5495 138.422 82.3275 124.294 81.8441C120.761 81.7117 117.224 81.8638 113.711 82.2994Z" fill="#B26153"/>
<path d="M173.857 166.92C174.861 165.992 176.153 165.546 177.45 165.681C178.747 165.815 179.943 166.518 180.778 167.637C181.679 168.966 181.783 170.807 181.85 172.407C181.943 174.364 181.851 176.326 181.576 178.261C180.552 185.153 177.297 193.6 170.43 194.912C169.949 195.065 169.541 195.423 169.294 195.91C169.047 196.396 168.981 196.972 169.111 197.512C169.253 198.045 169.575 198.497 170.008 198.772C170.441 199.047 170.952 199.124 171.434 198.988C178.362 197.667 182.462 190.357 184.377 183.386C185.388 179.708 185.805 175.858 185.61 172.017C185.412 168.299 184.476 164.836 181.477 162.804C179.873 161.76 178.016 161.307 176.168 161.509C174.321 161.712 172.578 162.559 171.185 163.931C170.835 164.33 170.638 164.867 170.638 165.426C170.638 165.985 170.835 166.521 171.185 166.92C171.544 167.306 172.023 167.522 172.521 167.522C173.019 167.522 173.497 167.306 173.857 166.92Z" fill="#211715"/>
<path d="M168.972 191.213C168.853 193.53 168.462 195.819 167.81 198.022C167.605 198.779 167.382 199.528 167.156 200.278C167.085 200.516 167.009 200.752 166.936 200.99C166.914 201.06 166.885 201.127 166.863 201.196C166.738 201.582 167.033 200.772 166.885 201.139C165.987 203.311 164.959 205.413 163.808 207.43C160.549 213.464 156.387 218.827 151.503 223.282C148.843 225.723 145.736 227.479 142.401 228.425C140.032 229.032 141.034 233.109 143.405 232.501C150.233 230.75 155.951 225.251 160.461 219.5C164.309 214.755 167.522 209.413 170.001 203.638C171.626 199.734 172.559 195.515 172.751 191.215C172.83 188.494 169.051 188.497 168.972 191.215V191.213Z" fill="#211715"/>
<path d="M81.425 163.931C80.2085 162.729 78.7193 161.925 77.121 161.609C75.5228 161.292 73.8775 161.475 72.3661 162.137C69.1087 163.624 67.528 166.746 67.1179 170.528C66.3395 178.128 68.057 185.785 71.9504 192.073C74.1955 195.539 77.3324 198.254 81.1747 198.987C81.6573 199.12 82.167 199.041 82.5992 198.767C83.0313 198.492 83.3531 198.043 83.4985 197.511C83.6277 196.971 83.5617 196.396 83.3149 195.909C83.068 195.423 82.6601 195.064 82.1792 194.912C75.3133 193.599 72.0591 185.152 71.0334 178.261C70.7668 176.39 70.6724 174.493 70.7515 172.601C70.8106 170.984 70.8932 169.139 71.7536 167.767C72.1576 167.188 72.6613 166.705 73.235 166.348C73.8087 165.991 74.4406 165.766 75.0933 165.687C75.7461 165.608 76.4063 165.676 77.035 165.888C77.6637 166.1 78.248 166.451 78.7533 166.92C79.1136 167.303 79.5919 167.517 80.0892 167.517C80.5865 167.517 81.0647 167.303 81.425 166.92C81.7753 166.521 81.9716 165.984 81.9716 165.425C81.9716 164.866 81.7753 164.329 81.425 163.931Z" fill="#211715"/>
<path d="M80.1325 190.419C81.2258 198.146 83.6211 205.571 87.1913 212.299C91.1918 219.577 96.9721 226.15 103.78 230.122C107.381 232.225 111.306 233.542 115.347 234.001C115.847 233.998 116.325 233.774 116.679 233.378C117.033 232.983 117.233 232.447 117.236 231.888C117.225 231.331 117.023 230.8 116.671 230.406C116.319 230.013 115.844 229.786 115.347 229.774C101.444 228.169 90.6234 214.245 86.2561 200.233C85.1634 196.669 84.3338 193.011 83.7757 189.295C83.6391 188.757 83.3188 188.301 82.884 188.024C82.4493 187.748 81.9349 187.674 81.4519 187.819C80.9749 187.979 80.5714 188.338 80.3256 188.822C80.0798 189.307 80.0106 189.879 80.1325 190.419Z" fill="#211715"/>
<path d="M161.875 105.904C164.562 107.404 166.947 109.505 168.881 112.076C171.355 115.138 173.465 118.545 175.158 122.213C178.814 130.068 180.261 139.349 180.022 148.149C179.922 152.683 179.246 157.178 178.014 161.499C177.261 164.092 180.908 165.203 181.658 162.622C184.196 153.874 184.358 144.339 182.922 135.334C181.512 126.137 177.939 117.525 172.571 110.382C170.154 107.181 167.243 103.991 163.782 102.253C163.346 101.987 162.836 101.918 162.355 102.059C161.875 102.2 161.46 102.54 161.197 103.012C160.948 103.497 160.88 104.072 161.007 104.613C161.133 105.154 161.445 105.618 161.875 105.904Z" fill="#211715"/>
<path d="M91.6798 97.2028C83.4481 100.651 77.3388 108.969 73.5933 117.611C69.9321 126.058 68.634 135.502 68.7978 144.833C68.949 151.483 69.7367 158.097 71.1475 164.56C71.7112 167.202 75.3551 166.085 74.7914 163.436C70.9673 145.475 71.2491 124.894 82.365 110.097C85.1524 106.387 88.5759 102.996 92.6842 101.276C93.1599 101.114 93.5619 100.754 93.8074 100.27C94.0528 99.7867 94.1231 99.216 94.0036 98.6761C93.8671 98.1379 93.547 97.6813 93.1122 97.405C92.6774 97.1287 92.1629 97.0547 91.6798 97.1992V97.2028Z" fill="#211715"/>
<path d="M136.097 128.362C132.156 131.068 128.248 133.838 124.251 136.443C123.453 136.963 122.652 137.477 121.838 137.966C121.519 138.158 121.198 138.347 120.874 138.525C120.748 138.595 120.62 138.662 120.493 138.729C120.262 138.852 120.108 138.877 120.46 138.752C120.357 138.776 120.256 138.816 120.162 138.87C120.048 139.028 119.833 138.73 120.189 138.891C120.644 139 121.087 139.164 121.51 139.38C121.61 139.469 121.746 139.814 121.543 139.396C121.2 138.687 120.88 137.972 120.586 137.234C120.241 136.365 119.924 135.495 119.572 134.448C119.434 134.039 119.299 133.631 119.178 133.215C119.099 132.956 118.905 131.894 119.014 132.842C119.001 132.43 118.883 132.031 118.673 131.693C118.463 131.355 118.171 131.091 117.83 130.933C117.49 130.775 117.117 130.73 116.755 130.803C116.392 130.876 116.056 131.064 115.787 131.344C107.915 138.256 99.9037 144.948 92.3751 152.328C89.76 154.891 87.1885 157.506 84.6606 160.175C82.8831 162.04 85.5588 165.025 87.3323 163.164C95.0358 155.079 103.144 147.609 111.499 140.387C113.825 138.376 116.147 136.358 118.463 134.333L115.236 132.836C115.584 134.771 116.162 136.644 116.956 138.406C117.556 139.986 118.28 142.742 120.053 143.04C121.448 143.274 123 142.071 124.166 141.354C126.291 140.048 128.365 138.635 130.436 137.221C132.965 135.494 135.48 133.739 138.006 132.005C140.075 130.584 138.179 126.927 136.099 128.355L136.097 128.362Z" fill="#211715"/>
<path d="M143.484 135.626C150.018 137.281 155.415 142.126 159.798 147.603C164.103 153.089 167.653 159.263 170.332 165.92C170.587 166.401 171.002 166.75 171.485 166.892C171.969 167.034 172.483 166.957 172.917 166.679C173.341 166.387 173.648 165.924 173.774 165.385C173.9 164.847 173.836 164.274 173.595 163.787C170.715 156.699 166.888 150.141 162.245 144.34C157.494 138.474 151.505 133.331 144.488 131.552C142.121 130.952 141.11 135.027 143.484 135.628V135.626Z" fill="#211715"/>
<path d="M101.975 228.155C101.93 231.021 101.718 233.88 101.34 236.714C101.151 238.621 100.856 240.512 100.457 242.377C100.334 242.91 100.125 243.413 99.8396 243.861C99.352 244.503 98.73 245.001 98.0291 245.31C96.668 245.977 95.2889 246.607 93.9262 247.274C93.4961 247.56 93.1837 248.023 93.0568 248.564C92.93 249.106 92.9988 249.681 93.2485 250.166C93.5098 250.639 93.924 250.983 94.4054 251.124C94.8867 251.265 95.3981 251.193 95.8336 250.924C96.6208 250.537 97.4135 250.147 98.2046 249.764C98.3739 249.682 98.5415 249.599 98.7116 249.52C98.5644 249.589 98.4211 249.643 98.6525 249.553C99.22 249.332 99.7725 249.065 100.306 248.755C102.053 247.745 103.375 246.007 103.988 243.916C104.46 241.992 104.784 240.025 104.958 238.039C105.42 234.768 105.687 231.466 105.756 228.155C105.804 225.434 102.026 225.434 101.978 228.155H101.975Z" fill="#211715"/>
<path d="M147.374 228.155C147.442 231.466 147.709 234.768 148.171 238.039C148.341 240.099 148.687 242.135 149.207 244.12C149.549 245.184 150.078 246.161 150.762 246.993C151.447 247.825 152.274 248.495 153.194 248.964C153.519 249.134 153.853 249.288 154.186 249.434C154.314 249.489 154.864 249.734 154.274 249.458C154.576 249.599 154.875 249.751 155.175 249.898C156.029 250.32 156.882 250.747 157.748 251.14C158.231 251.285 158.746 251.212 159.181 250.936C159.616 250.66 159.936 250.202 160.072 249.664C160.193 249.124 160.124 248.552 159.878 248.068C159.632 247.584 159.229 247.224 158.753 247.064C158.31 246.862 159.161 247.263 158.59 246.988C158.428 246.911 158.266 246.832 158.105 246.752C157.73 246.569 157.356 246.385 156.983 246.199C156.375 245.9 155.756 245.629 155.146 245.334C154.46 245.035 153.847 244.562 153.353 243.951C153.03 243.487 152.797 242.951 152.671 242.38C152.286 240.581 152 238.758 151.815 236.92C151.42 234.019 151.199 231.093 151.152 228.16C151.104 225.443 147.326 225.434 147.374 228.16V228.155Z" fill="#211715"/>
<path d="M157.712 97.6317C151.434 88.0879 141.873 82.3389 131.493 80.4992C120.936 78.6278 109.35 79.6362 99.3581 83.9911C93.1882 86.6519 87.5806 90.7196 82.8917 95.9356C81.1693 97.8607 83.8363 100.851 85.5634 98.9245C93.0244 90.5855 102.898 85.8704 113.301 84.4675C123.174 83.1351 133.794 83.763 142.795 88.8858C147.384 91.4496 151.375 95.1765 154.449 99.77C154.713 100.241 155.127 100.583 155.607 100.723C156.088 100.864 156.599 100.795 157.035 100.528C157.465 100.242 157.777 99.7788 157.903 99.2376C158.03 98.6964 157.962 98.1212 157.712 97.6361V97.6317Z" fill="#211715"/>
<path d="M273.402 317.999C277.633 314.602 278.776 307.643 283.222 304.607C285.52 303.037 288.321 302.799 290.996 302.452C305.47 300.55 319.238 294.398 330.901 284.622C332.175 283.691 333.241 282.447 334.02 280.986C334.436 280.067 336.107 275.031 334.256 272.027C335.152 270.751 335.161 268.492 334.685 266.02C334.334 264.195 332.756 261.77 330.579 261.934C330.577 261.294 330.435 260.664 330.165 260.1C329.896 259.535 329.506 259.054 329.031 258.697C327.502 257.376 325.956 256.8 323.226 257.239C319.951 257.768 318.121 258.801 314.983 259.92C312.338 260.864 309.609 262.048 306.334 263.099C303.547 263.994 294.211 266.854 291.929 266.652C289.524 266.441 287.127 266.131 284.739 265.723L292.472 257.732C293.711 256.451 295.034 254.984 295.164 253.102C295.335 250.617 293.18 248.515 290.966 248.242C288.751 247.968 286.587 249.064 284.688 250.367C280.988 252.91 277.825 256.309 274.697 259.681C271.653 262.963 268.478 266.485 267.401 271.058C266.748 273.828 266.928 276.765 266.435 279.577C265.941 282.388 262.6 286.465 260.361 287.855C259.859 288.167 255.099 291.089 255.099 291.089L273.402 317.999Z" fill="white"/>
<path d="M287.787 265.436C289.937 263.214 292.129 261.032 294.238 258.762C296.371 256.472 297.892 253.383 296.458 250.127C295.112 247.073 291.938 245.758 289.058 246.196C285.988 246.663 283.249 248.715 280.833 250.771C278.303 252.991 275.89 255.375 273.607 257.91C271.423 260.112 269.456 262.571 267.741 265.243C266.083 268.133 265.133 271.46 264.986 274.89C264.985 276.512 264.8 278.128 264.435 279.698C264.039 280.77 263.487 281.76 262.799 282.628C261.521 284.321 259.964 285.723 258.212 286.758L254.136 289.261C252.003 290.57 253.908 294.221 256.043 292.911C258.38 291.476 260.929 290.21 263.012 288.331C264.801 286.744 266.293 284.779 267.403 282.548C268.746 279.73 268.527 276.542 268.889 273.465C269.592 267.512 273.881 263.442 277.549 259.535C279.604 257.257 281.814 255.161 284.161 253.267C286.039 251.814 288.576 249.832 291.009 250.383C291.513 250.474 291.986 250.715 292.378 251.08C292.77 251.445 293.067 251.921 293.239 252.458C293.495 253.666 292.484 254.767 291.787 255.541C289.637 257.918 287.34 260.154 285.118 262.45C283.328 264.3 286.005 267.284 287.79 265.439L287.787 265.436Z" fill="#211715"/>
<path d="M282.768 267.503C285.05 267.923 287.351 268.272 289.655 268.534C290.966 268.742 292.295 268.773 293.613 268.628C296.264 268.176 298.889 267.551 301.474 266.755C304.091 266.006 306.707 265.226 309.278 264.295C312.858 263 316.384 261.502 319.972 260.244C321.745 259.62 323.83 258.938 325.705 259.257C326.825 259.448 328.713 260.433 328.686 261.934C328.691 262.493 328.892 263.027 329.245 263.422C329.598 263.817 330.076 264.042 330.575 264.048C333.119 263.979 333.773 269.163 332.622 270.96C332.448 271.282 332.356 271.65 332.356 272.026C332.356 272.402 332.448 272.771 332.622 273.093C333.621 274.825 333.222 277.099 332.7 278.955C332.6 279.307 332.489 279.656 332.366 280.003C332.445 279.787 332.523 279.693 332.389 279.915C332.211 280.219 332.074 280.542 331.874 280.829C330.95 281.974 329.89 282.973 328.725 283.799C324.167 287.48 319.283 290.628 314.15 293.193C309.008 295.751 303.641 297.699 298.136 299.006C295.44 299.651 292.724 300.117 289.986 300.468C287.169 300.828 284.216 301.25 281.825 303.11C279.614 304.826 278.112 307.308 276.738 309.848C275.532 312.076 274.362 314.595 272.447 316.18C272.025 316.473 271.72 316.937 271.594 317.474C271.468 318.012 271.53 318.583 271.769 319.071C272.024 319.552 272.438 319.901 272.922 320.043C273.406 320.185 273.92 320.108 274.353 319.829C276.308 318.102 277.942 315.962 279.162 313.532C280.32 311.419 281.377 309.16 283.008 307.44C284.982 305.359 287.739 304.984 290.323 304.656C293.339 304.287 296.337 303.75 299.306 303.045C310.927 300.232 321.882 294.69 331.447 286.787C333.73 284.896 335.572 282.97 336.4 279.866C337.165 277.001 337.391 273.58 335.881 270.963V273.096C337.328 270.838 337.105 267.107 336.27 264.633C335.367 261.958 333.241 259.752 330.573 259.823L332.462 261.937C332.546 257.376 327.94 254.803 324.386 254.999C320.4 255.223 316.579 257.069 312.844 258.489C306.935 260.835 300.891 262.73 294.753 264.163C294.419 264.236 294.085 264.306 293.749 264.368C293.617 264.394 292.771 264.522 293.198 264.468C292.649 264.541 292.096 264.555 291.545 264.507C288.941 264.273 286.349 263.907 283.774 263.434C283.291 263.302 282.782 263.381 282.35 263.655C281.918 263.93 281.596 264.378 281.45 264.91C281.321 265.45 281.387 266.026 281.633 266.512C281.88 266.998 282.288 267.357 282.769 267.509L282.768 267.503Z" fill="#211715"/>
<path d="M299.023 277.799C305.454 275.66 311.684 272.928 317.981 270.355C318.457 270.194 318.859 269.834 319.105 269.35C319.35 268.866 319.42 268.295 319.3 267.755C319.164 267.217 318.843 266.761 318.409 266.485C317.974 266.209 317.459 266.135 316.976 266.279C310.679 268.852 304.449 271.585 298.019 273.724C295.693 274.497 296.68 278.578 299.023 277.799Z" fill="#211715"/>
<path d="M305.087 285.746C312.234 283.285 319.244 280.347 326.077 276.948C326.507 276.662 326.819 276.198 326.945 275.657C327.072 275.116 327.004 274.541 326.755 274.056C326.494 273.581 326.08 273.237 325.599 273.096C325.117 272.955 324.605 273.027 324.17 273.297C317.667 276.684 310.89 279.178 304.082 281.67C301.781 282.512 302.767 286.595 305.087 285.746Z" fill="#211715"/>
<path d="M280.378 286.383C280.579 286.339 280.78 286.301 280.982 286.263C281.2 286.227 281.184 286.229 280.935 286.27C281.014 286.259 281.088 286.25 281.165 286.242C281.546 286.2 281.929 286.177 282.312 286.173C282.67 286.173 283.028 286.182 283.384 286.21C283.542 286.222 283.69 286.242 283.843 286.256C284.061 286.285 284.046 286.281 283.797 286.243C283.898 286.26 283.999 286.277 284.1 286.296C284.807 286.426 285.503 286.62 286.181 286.876C286.375 286.95 286.565 287.034 286.757 287.112C287.17 287.279 286.507 286.972 286.872 287.164C287.236 287.355 287.608 287.558 287.966 287.78C288.399 288.063 288.914 288.142 289.399 288C289.883 287.857 290.298 287.505 290.551 287.021C290.803 286.537 290.874 285.961 290.747 285.418C290.62 284.876 290.305 284.412 289.872 284.13C286.679 282.141 282.956 281.494 279.374 282.304C278.892 282.456 278.483 282.814 278.236 283.301C277.99 283.788 277.924 284.364 278.054 284.905C278.198 285.437 278.52 285.888 278.952 286.162C279.385 286.437 279.895 286.515 280.378 286.381V286.383Z" fill="#211715"/>
<path d="M295.067 273.432L302.45 289.46C302.576 289.7 302.742 289.91 302.94 290.077C303.137 290.245 303.362 290.368 303.602 290.438C303.843 290.508 304.093 290.525 304.338 290.487C304.584 290.45 304.821 290.358 305.035 290.218C305.249 290.078 305.437 289.892 305.587 289.671C305.737 289.45 305.846 289.198 305.909 288.929C305.972 288.661 305.987 288.381 305.953 288.106C305.92 287.831 305.838 287.566 305.713 287.326L298.33 271.298C298.077 270.814 297.663 270.462 297.178 270.32C296.693 270.178 296.178 270.257 295.745 270.54C295.312 270.823 294.998 271.287 294.871 271.829C294.744 272.371 294.814 272.948 295.067 273.432Z" fill="#211715"/>
<path d="M108.187 239.227C112.872 243.587 118.329 248.721 119.227 249.952C119.733 251.857 120.607 254.375 122.076 259.541C123.263 262.688 125.391 268.549 126.532 271.297C128.171 267.453 130.306 261.776 132.002 257.211C132.821 254.42 133.48 251.295 133.838 249.952C135.308 247.936 149.019 235.441 151.516 233.043C151.74 232.828 152.019 232.602 152.304 232.69C152.562 232.779 152.691 233.091 152.788 233.373C154.186 237.412 158.377 246.094 158.673 247.85C170.92 253.311 182.645 260.134 193.673 268.217C199.588 272.551 205.448 277.427 209.107 284.195C210.839 287.404 211.705 292.154 212.875 295.667C215.046 302.17 223.527 329.857 223.158 322.978C233.856 310.858 243.074 300.916 253.739 288.605C253.918 288.337 254.174 288.148 254.463 288.068C254.896 288.015 255.219 288.473 255.463 288.869C261.723 299.172 269.672 308.053 278.89 315.043C263.406 334.646 248.914 356.416 230.336 372.321C226.376 375.712 221.952 379.164 216.969 379.049C210.633 378.9 205.642 373.105 201.887 367.398C195.676 357.939 192.086 351.95 188.772 341.847C188.546 345.546 188.402 349.253 188.34 352.967C188.095 367.591 188.327 377.641 188.327 396.648H18.8633C23.7391 368.134 30.8545 321.643 39.9355 294.453C41.012 290.899 42.3823 287.465 44.0289 284.195C47.6878 277.427 53.5476 272.551 59.4617 268.217C70.4691 260.149 82.1701 253.334 94.3901 247.873C94.642 246.2 98.8771 237.433 100.28 233.369C100.318 233.254 100.364 233.142 100.418 233.034C100.489 232.872 100.614 232.747 100.766 232.687C101.047 232.594 101.327 232.823 101.553 233.039C102.521 233.976 105.197 236.444 108.187 239.227Z" fill="#896B1A"/>
<path d="M189.021 320.925C187.431 332.188 186.561 343.563 186.418 354.964C186.302 363.165 186.339 371.367 186.382 379.568C186.412 385.263 186.43 390.955 186.435 396.645C186.435 399.364 190.214 399.368 190.214 396.645C190.214 387.391 190.13 378.137 190.116 368.884C190.102 359.61 190.116 350.319 190.707 341.065C191.113 334.698 191.766 328.359 192.664 322.049C192.782 321.509 192.711 320.939 192.465 320.456C192.22 319.972 191.819 319.612 191.344 319.449C190.861 319.304 190.347 319.378 189.912 319.654C189.477 319.93 189.157 320.387 189.021 320.925Z" fill="#211715"/>
<path d="M94.031 245.774C82.3377 250.978 71.1076 257.401 60.4889 264.957C55.6225 268.431 50.7278 272.106 46.7422 276.82C44.7196 279.176 42.9898 281.827 41.5995 284.7C40.2235 287.755 39.0311 290.909 38.0304 294.142C34.7979 304.253 32.0956 314.567 29.9373 325.031C27.401 336.688 25.2087 348.438 23.136 360.208C21.2381 370.984 19.4622 381.786 17.6375 392.577C17.4402 393.745 17.2416 394.913 17.0416 396.082C16.9217 396.622 16.9917 397.193 17.2373 397.677C17.4828 398.161 17.8851 398.521 18.3609 398.682C18.844 398.826 19.3582 398.752 19.793 398.476C20.2277 398.2 20.5482 397.744 20.6855 397.206C22.4512 386.875 24.1413 376.528 25.929 366.207C27.9394 354.598 30.0475 343.007 32.4461 331.491C34.6549 320.886 37.0693 310.3 40.1849 299.978C41.8624 294.419 43.5486 288.607 46.5399 283.737C49.6265 278.718 54.0434 274.86 58.5052 271.467C68.6796 263.778 79.4891 257.197 90.7854 251.815C92.1937 251.14 93.6114 250.494 95.0363 249.854C95.5112 249.691 95.9124 249.33 96.1578 248.847C96.4032 248.364 96.4742 247.794 96.3564 247.254C96.2201 246.716 95.8998 246.259 95.4648 245.982C95.0297 245.706 94.5149 245.633 94.0318 245.778L94.031 245.774Z" fill="#211715"/>
<path d="M158.095 249.851C165.198 253.027 172.127 256.67 178.846 260.762C185.451 264.666 191.797 269.096 197.836 274.016C200.559 276.246 203.037 278.827 205.22 281.706C207.248 284.522 208.745 287.769 209.619 291.251C211.032 296.344 212.689 301.343 214.314 306.358C216.159 312.057 217.903 317.908 220.278 323.367C220.534 323.847 220.948 324.195 221.432 324.337C221.915 324.479 222.429 324.403 222.863 324.125C223.288 323.834 223.595 323.37 223.722 322.831C223.848 322.293 223.783 321.72 223.541 321.233C222.621 319.119 222.029 317.377 221.222 315.051C220.247 312.237 219.314 309.405 218.389 306.569C216.765 301.578 215.029 296.594 213.64 291.514C212.603 287.717 211.49 284.096 209.378 280.858C207.245 277.643 204.743 274.755 201.937 272.27C196.13 267.031 189.629 262.665 183.136 258.585C175.383 253.727 167.352 249.448 159.095 245.774C158.612 245.629 158.098 245.702 157.663 245.979C157.228 246.255 156.908 246.712 156.771 247.25C156.65 247.79 156.72 248.361 156.966 248.846C157.211 249.33 157.614 249.69 158.091 249.851L158.095 249.851Z" fill="#211715"/>
<path d="M219.169 330.54C228.418 319.912 237.904 309.548 247.243 299.023C248.577 297.521 249.907 296.014 251.233 294.503C251.87 293.778 252.505 293.052 253.139 292.325C253.481 291.931 253.824 291.537 254.167 291.144L254.554 290.698L254.943 290.249C255.177 290.031 255.099 290.017 254.707 290.207L253.753 289.918C254.113 290.113 254.529 291.075 254.777 291.468C255.161 292.076 255.551 292.679 255.949 293.278C256.838 294.62 257.755 295.939 258.698 297.234C260.522 299.737 262.452 302.135 264.491 304.429C268.608 309.044 273.108 313.21 277.933 316.868L277.55 313.548C266.026 328.152 255.302 343.589 242.855 357.255C239.767 360.644 236.577 363.919 233.252 367.019C230.033 370.022 226.694 373.146 222.929 375.259C219.514 377.176 215.745 377.549 212.287 375.558C208.951 373.644 206.309 370.438 204.058 367.147C198.598 359.161 193.714 350.757 190.589 341.288C190.445 340.756 190.123 340.306 189.69 340.031C189.258 339.757 188.747 339.678 188.265 339.812C187.784 339.965 187.376 340.324 187.129 340.81C186.882 341.296 186.816 341.872 186.945 342.412C188.362 346.794 190.109 351.033 192.165 355.086C194.28 359.075 196.583 362.935 199.064 366.651C203.83 373.979 210.13 382.397 219.179 380.99C223.656 380.294 227.503 377.366 231.019 374.372C234.674 371.261 238.188 367.958 241.562 364.466C248.157 357.532 254.412 350.203 260.297 342.511C267.001 333.913 273.471 325.09 280.22 316.537C280.418 316.305 280.568 316.027 280.658 315.722C280.747 315.417 280.775 315.094 280.738 314.775C280.702 314.457 280.602 314.152 280.446 313.882C280.29 313.613 280.083 313.386 279.838 313.218C275.289 309.754 271.046 305.811 267.169 301.442C265.212 299.24 263.351 296.937 261.586 294.536C260.772 293.427 259.982 292.298 259.216 291.147C258.35 289.84 257.602 288.359 256.644 287.137C256.406 286.806 256.109 286.535 255.771 286.341C255.434 286.146 255.064 286.033 254.685 286.008C254.306 285.983 253.927 286.047 253.572 286.196C253.217 286.345 252.893 286.576 252.622 286.873C251.448 288.018 250.412 289.405 249.324 290.649C247.258 293.008 245.183 295.356 243.099 297.694C239.055 302.236 234.996 306.761 230.924 311.27C226.084 316.661 221.276 322.088 216.5 327.552C214.803 329.502 217.473 332.495 219.172 330.541L219.169 330.54Z" fill="#211715"/>
<path d="M61.3116 322.05C62.8429 333.051 63.6692 344.161 63.7842 355.294C63.8959 363.441 63.8566 371.586 63.8141 379.736C63.7852 385.373 63.7676 391.009 63.7613 396.645C63.7613 399.365 67.5398 399.369 67.5398 396.645C67.5398 387.291 67.6256 377.936 67.6382 368.582C67.65 359.192 67.628 349.786 67.0085 340.417C66.5747 333.892 65.8796 327.388 64.9618 320.926C64.8254 320.387 64.5052 319.931 64.0703 319.655C63.6355 319.378 63.121 319.305 62.638 319.449C62.1613 319.61 61.7581 319.969 61.5123 320.453C61.2664 320.938 61.1968 321.509 61.3179 322.049L61.3116 322.05Z" fill="#211715"/>
<path d="M128.163 270.231C127.391 268.361 126.684 266.457 125.974 264.556C125.212 262.514 124.327 260.472 123.722 258.366C123.083 256.139 122.405 253.926 121.728 251.713C121.335 250.434 121.098 249.055 120.238 248.062C118.598 246.167 116.715 244.499 114.92 242.795C112.443 240.446 109.952 238.116 107.447 235.803C106.439 234.868 105.432 233.932 104.425 232.996C103.581 232.21 102.61 230.982 101.545 230.654C99.9136 230.152 98.9289 231.506 98.3959 232.99C98.2227 233.469 98.3361 233.173 98.1432 233.668C97.9685 234.118 97.789 234.565 97.6048 235.01C96.842 236.865 96.0304 238.698 95.2361 240.536C94.5489 242.116 93.8531 243.694 93.2343 245.31C92.8124 246.413 92.2897 247.579 92.6046 248.804C92.9545 249.874 93.4071 250.898 93.9546 251.859C94.7662 253.493 95.6211 255.099 96.4933 256.693C98.6975 260.953 101.177 265.026 103.912 268.881C104.329 269.463 104.912 269.868 105.564 270.028C106.215 270.188 106.896 270.094 107.493 269.762C108.753 269.021 109.284 267.12 109.9 265.777C111.176 262.993 112.468 260.218 113.774 257.452C114.913 255.049 111.649 252.911 110.512 255.318C109.455 257.549 108.41 259.787 107.376 262.033C106.924 263.018 106.472 264.003 106.021 264.988L105.618 265.869C105.165 266.861 105.271 266.073 106.428 265.933C106.864 265.881 106.729 266.27 106.585 265.896C106.503 265.75 106.409 265.614 106.303 265.489C104.163 262.354 102.234 259.031 100.373 255.683C98.9761 253.168 97.5552 250.627 96.3799 247.97C96.313 247.82 96.2571 247.658 96.1831 247.511C96.0556 247.257 96.3083 248.048 96.2249 247.599C96.1784 247.348 96.2705 248.127 96.2697 248.045C96.2697 247.798 96.058 248.567 96.2327 248.339C96.3015 248.171 96.3502 247.994 96.3776 247.811C96.4563 247.571 96.5405 247.335 96.6271 247.099C96.4697 247.522 96.7672 246.753 96.8145 246.635C97.1199 245.877 97.4387 245.125 97.7591 244.376C98.5329 242.57 99.3272 240.776 100.099 238.969C100.47 238.098 100.839 237.225 101.19 236.343C101.463 235.504 101.792 234.69 102.177 233.908L101.499 234.666L101.718 234.514L100.765 234.803H101.044L100.09 234.514C100.276 234.587 100.442 234.711 100.573 234.875C100.757 235.051 100.943 235.227 101.124 235.397C101.638 235.877 102.152 236.357 102.667 236.834C104.027 238.097 105.387 239.36 106.746 240.621C109.635 243.309 112.53 245.993 115.352 248.77C116.257 249.587 117.105 250.48 117.888 251.441L117.403 250.509C119.441 257.979 121.945 265.281 124.898 272.359C125.154 272.84 125.568 273.189 126.052 273.33C126.536 273.472 127.05 273.396 127.483 273.117C127.907 272.825 128.214 272.362 128.34 271.823C128.467 271.285 128.402 270.713 128.161 270.226L128.163 270.231Z" fill="#211715"/>
<path d="M128.164 272.364C129.725 268.688 131.141 264.934 132.551 261.179C133.276 259.347 133.903 257.469 134.43 255.554C134.861 253.881 135.223 252.183 135.659 250.51L135.174 251.442C135.824 250.637 136.527 249.888 137.277 249.199C138.55 247.934 139.846 246.698 141.146 245.467C144.054 242.712 146.99 239.995 149.923 237.272C150.512 236.724 151.1 236.177 151.688 235.629C151.918 235.414 152.148 235.199 152.377 234.984C152.551 234.79 152.753 234.631 152.975 234.513L152.022 234.802H152.301L151.347 234.513L151.567 234.666L150.889 233.907C151.584 235.338 152.189 236.821 152.7 238.345C153.381 239.958 154.086 241.56 154.782 243.166C155.12 243.944 155.455 244.725 155.785 245.508C155.916 245.818 156.045 246.129 156.172 246.44L156.363 246.917C156.4 247.005 156.599 247.539 156.437 247.098C156.577 247.473 156.666 247.879 156.812 248.247C156.891 248.446 156.782 248.738 156.795 247.988C156.795 248.19 156.75 248.181 156.851 247.547C156.789 247.936 156.846 247.572 156.899 247.459C154.14 253.344 151 258.996 147.503 264.368C147.259 264.741 147.013 265.114 146.762 265.482C146.724 265.537 146.59 265.71 146.551 265.788C146.48 265.889 146.409 265.99 146.338 266.09C146.776 265.748 147.228 265.854 147.694 266.408C147.773 266.106 147.039 264.975 146.886 264.639C146.608 264.034 146.331 263.43 146.053 262.825C144.899 260.313 143.732 257.808 142.551 255.311C141.412 252.907 138.149 255.04 139.288 257.445C140.443 259.888 141.586 262.339 142.717 264.798C143.702 266.941 144.656 270.666 147.433 270.038C149.238 269.629 150.371 267.131 151.369 265.563C152.504 263.78 153.591 261.957 154.649 260.115C156.392 257.081 158.104 254.001 159.615 250.814C160.124 249.976 160.451 249.018 160.571 248.015C160.576 246.778 159.91 245.49 159.469 244.404C158.097 241.011 156.539 237.716 155.174 234.319C155.059 234.032 154.816 233.41 154.78 233.306C154.73 233.17 154.494 232.45 154.358 232.161C154.195 231.784 153.958 231.452 153.665 231.192C153.371 230.932 153.029 230.749 152.663 230.658C152.298 230.566 151.919 230.569 151.554 230.665C151.19 230.761 150.849 230.948 150.559 231.212C149.802 231.808 149.114 232.546 148.404 233.207C143.929 237.373 139.406 241.486 135.033 245.782C134.263 246.54 133.47 247.291 132.763 248.124C132.282 248.722 131.949 249.451 131.798 250.238C131.49 251.513 131.198 252.792 130.875 254.064C130.082 256.905 129.127 259.686 128.017 262.391C127.013 265.021 125.993 267.644 124.896 270.229C124.657 270.716 124.594 271.288 124.72 271.826C124.846 272.364 125.152 272.827 125.574 273.12C126.008 273.398 126.522 273.475 127.005 273.333C127.489 273.191 127.903 272.842 128.159 272.362L128.164 272.364Z" fill="#211715"/>
<path d="M124.643 271.297C124.643 289.921 124.701 308.545 124.818 327.168C124.904 344.448 124.997 361.727 125.097 379.006C125.126 384.885 125.161 390.764 125.161 396.644C125.161 399.364 128.939 399.368 128.939 396.644C128.939 383.869 128.834 371.093 128.764 358.318C128.659 339.401 128.566 320.484 128.486 301.567C128.449 291.477 128.427 281.387 128.421 271.297C128.421 268.577 124.643 268.573 124.643 271.297Z" fill="#211715"/>
<path d="M118.369 206.618C121.05 208.166 124.036 208.936 127.052 208.858C130.122 208.836 133.271 208.182 135.731 206.034C136.083 205.636 136.28 205.099 136.28 204.54C136.28 203.98 136.083 203.443 135.731 203.045C135.37 202.661 134.892 202.447 134.395 202.447C133.898 202.447 133.419 202.661 133.059 203.045C133.605 202.569 133.09 203.004 132.95 203.105C132.772 203.232 132.587 203.351 132.399 203.461C132.288 203.526 131.672 203.831 132.096 203.637C131.846 203.75 131.593 203.853 131.337 203.946C129.858 204.458 128.313 204.689 126.765 204.629C125.289 204.66 123.817 204.439 122.4 203.971C122.123 203.879 121.849 203.768 121.578 203.662C121.488 203.628 121.402 203.584 121.313 203.547C121.776 203.739 121.372 203.576 121.283 203.53C120.943 203.354 120.607 203.166 120.276 202.967C119.841 202.696 119.329 202.623 118.847 202.765C118.365 202.906 117.951 203.25 117.691 203.725C117.443 204.211 117.376 204.785 117.502 205.326C117.629 205.866 117.94 206.33 118.368 206.617L118.369 206.618Z" fill="#211715"/>
<path d="M126.284 183.456C126.694 185.111 127.022 186.79 127.266 188.485L127.2 187.923C127.229 188.153 127.234 188.386 127.216 188.617L127.284 188.055C127.27 188.161 127.247 188.266 127.215 188.368L127.406 187.862C127.378 187.932 127.345 187.999 127.307 188.063L127.603 187.635C127.559 187.695 127.51 187.749 127.456 187.797L127.838 187.467C127.724 187.547 127.605 187.617 127.482 187.677L127.933 187.464C127.741 187.556 127.54 187.622 127.333 187.661L127.836 187.585C127.649 187.61 127.46 187.61 127.273 187.585L127.775 187.661C127.562 187.627 127.354 187.573 127.141 187.537C126.649 187.409 126.132 187.485 125.686 187.75C125.471 187.89 125.284 188.076 125.134 188.298C124.984 188.519 124.874 188.771 124.811 189.039C124.748 189.308 124.733 189.588 124.767 189.863C124.801 190.138 124.883 190.403 125.008 190.643C125.128 190.881 125.29 191.09 125.484 191.256C125.678 191.423 125.9 191.543 126.137 191.611C126.583 191.678 127.017 191.807 127.475 191.829C128.141 191.834 128.799 191.662 129.393 191.326C129.763 191.144 130.091 190.87 130.353 190.526C130.615 190.182 130.803 189.776 130.905 189.338C131.038 188.614 131.031 187.866 130.884 187.145C130.639 185.526 130.304 183.92 129.932 182.331C129.799 181.79 129.479 181.331 129.043 181.054C128.607 180.777 128.091 180.705 127.608 180.854C127.124 181.003 126.714 181.361 126.466 181.849C126.219 182.336 126.155 182.914 126.288 183.455L126.284 183.456Z" fill="#211715"/>
<path d="M102.118 169.342C101.367 172.072 101.857 178.348 106.477 178.883C112.585 178.841 112.91 171.252 110.854 167.684C109.171 164.763 104.221 163.544 102.118 169.342Z" fill="#211715"/>
<path d="M151.028 169.342C151.778 172.072 151.289 178.348 146.668 178.883C140.56 178.841 140.235 171.252 142.291 167.683C143.974 164.763 148.924 163.544 151.028 169.342Z" fill="#211715"/>
<path d="M125.097 6.63462C102.214 46.1393 55.7367 126.208 52.896 130.445L182.503 109.921L164.157 27.1594L200.257 35.7665L172.442 2L125.097 6.63462Z" fill="#896B1A" stroke="black" stroke-width="3" stroke-linejoin="round"/>
<path d="M240.5 120.354L2 170.673C2 170.673 31.5906 117.043 99.6489 106.45C167.707 95.8565 205.583 94.5326 240.5 120.354Z" fill="#896B1A" stroke="black" stroke-width="3" stroke-linejoin="round"/>
<path d="M277.054 208.201C259.056 173.044 288.139 145.63 334.959 156.848C338.261 157.639 340.531 160.671 340.366 164.062C338.914 193.937 325.297 210.868 283.508 211.945C280.816 212.014 278.281 210.598 277.054 208.201Z" stroke="#5A9759" stroke-width="7.66667" stroke-linecap="round" stroke-linejoin="round"/>
<path d="M275.333 223.5C281.084 202.416 283 190.916 306 181.333" stroke="#5A9759" stroke-width="7.66667" stroke-linecap="round" stroke-linejoin="round"/>
</svg>
