<svg width="173" height="129" viewBox="0 0 173 129" fill="none" xmlns="http://www.w3.org/2000/svg">
<mask id="mask0_202_398" style="mask-type:alpha" maskUnits="userSpaceOnUse" x="0" y="0" width="173" height="129">
<rect x="173" y="129" width="173" height="129" transform="rotate(-180 173 129)" fill="#D9D9D9"/>
</mask>
<g mask="url(#mask0_202_398)">
<path d="M41.4378 118.857C95.1489 132.22 59.39 123.174 86.9633 77.7744C112.607 58.262 121.839 74.1546 123.244 55.3141C124.35 40.4777 90.2878 39.5852 41.3301 31.3769C-7.62762 23.1685 -12.2734 105.493 41.4378 118.857Z" fill="#FDCAA5"/>
<circle cx="13.1219" cy="13.1219" r="13.1219" transform="matrix(-0.996862 -0.0791629 -0.0791629 0.996862 147.687 44.0156)" fill="#FDCAA5"/>
<circle cx="13.1219" cy="13.1219" r="13.1219" transform="matrix(-0.996862 -0.0791629 -0.0791629 0.996862 115.58 41.4668)" fill="#FDCAA5"/>
<rect width="32.2082" height="26.2437" transform="matrix(-0.996862 -0.0791629 -0.0791629 0.996862 134.605 42.9775)" fill="#FDCAA5"/>
<circle cx="13.1219" cy="13.1219" r="13.1219" transform="matrix(-0.999514 -0.0311939 -0.0311939 0.999514 170.598 43.8096)" fill="#FDCAA5"/>
<circle cx="13.1219" cy="13.1219" r="13.1219" transform="matrix(-0.999514 -0.0311939 -0.0311939 0.999514 138.405 42.8047)" fill="#FDCAA5"/>
<rect width="32.2082" height="26.2437" transform="matrix(-0.999514 -0.0311939 -0.0311939 0.999514 157.482 43.4004)" fill="#FDCAA5"/>
<path d="M129.576 42.2724C118.843 48.6537 61.9997 45.7301 66.8309 39.7983C71.6621 33.8665 108.904 39.9985 129.576 42.2724Z" fill="#E2A97F"/>
<ellipse cx="9.89082" cy="13.1219" rx="9.89082" ry="13.1219" transform="matrix(-0.996546 -0.083044 -0.083044 0.996546 128.697 64.2881)" fill="#FDCAA5"/>
<ellipse cx="9.89082" cy="13.1219" rx="9.89082" ry="13.1219" transform="matrix(-0.996546 -0.083044 -0.083044 0.996546 104.503 62.2725)" fill="#FDCAA5"/>
<rect width="24.2775" height="26.2437" transform="matrix(-0.996546 -0.083044 -0.083044 0.996546 118.84 63.4668)" fill="#FDCAA5"/>
<path d="M114.832 68.205C108.029 72.0834 93.3377 73.8266 86.1254 69.5054C77.8711 64.5601 102.237 66.544 114.832 68.205Z" fill="#E2A97F"/>
<ellipse cx="10.8638" cy="13.1229" rx="10.8638" ry="13.1229" transform="matrix(-0.994829 -0.101567 -0.106603 0.994302 119.06 83.6895)" fill="#FDCAA5"/>
<ellipse cx="10.8638" cy="13.1229" rx="10.8638" ry="13.1229" transform="matrix(-0.994829 -0.101567 -0.106603 0.994302 92.5317 80.9814)" fill="#FDCAA5"/>
<rect width="26.6658" height="26.2459" transform="matrix(-0.994829 -0.101567 -0.106603 0.994302 108.252 82.5859)" fill="#FDCAA5"/>
<ellipse cx="11.3842" cy="12.1017" rx="11.3842" ry="12.1017" transform="matrix(-0.997586 -0.0694455 -0.0677341 0.997704 106.998 102.519)" fill="#FDCAA5"/>
<ellipse cx="11.3842" cy="12.1017" rx="11.3842" ry="12.1017" transform="matrix(-0.997589 -0.0694064 -0.0677864 0.9977 79.1216 100.579)" fill="#FDCAA5"/>
<rect width="27.9431" height="24.2034" transform="matrix(-0.997589 -0.0694064 -0.0677864 0.9977 95.6406 101.729)" fill="#FDCAA5"/>
<ellipse cx="16.6438" cy="14.2146" rx="16.6438" ry="14.2146" transform="matrix(-0.902278 0.431154 0.435416 0.90023 76.4365 6.17773)" fill="#FDCAA5"/>
<ellipse cx="16.6438" cy="14.2146" rx="16.6438" ry="14.2146" transform="matrix(-0.902205 0.431306 0.435099 0.900381 39.5786 23.7979)" fill="#FDCAA5"/>
<rect width="40.853" height="28.4291" transform="matrix(-0.902205 0.431306 0.435099 0.900381 61.4199 13.3564)" fill="#FDCAA5"/>
<ellipse cx="10.8977" cy="13.9298" rx="10.8977" ry="13.9298" transform="matrix(0.949939 -0.312435 -0.313449 -0.949605 66.103 41.374)" fill="#FDCAA5"/>
<ellipse cx="10.8977" cy="13.9298" rx="10.8977" ry="13.9298" transform="matrix(0.949924 -0.312482 -0.31341 -0.949618 91.5127 33.0156)" fill="#FDCAA5"/>
<rect width="26.7488" height="27.8596" transform="matrix(0.949924 -0.312482 -0.31341 -0.949618 76.4556 37.9688)" fill="#FDCAA5"/>
<path d="M110.944 89.4667C104.141 93.3451 89.4495 95.0883 82.2372 90.7672C73.9829 85.8218 98.3485 87.8057 110.944 89.4667Z" fill="#E2A97F"/>
<path d="M103.795 107.491C96.9921 111.37 82.3006 113.113 75.0883 108.792C66.834 103.846 91.1996 105.83 103.795 107.491Z" fill="#E2A97F"/>
</g>
</svg>
