<svg width="173" height="129" viewBox="0 0 173 129" fill="none" xmlns="http://www.w3.org/2000/svg">
<mask id="mask0_202_397" style="mask-type:alpha" maskUnits="userSpaceOnUse" x="0" y="0" width="173" height="129">
<rect width="173" height="129" transform="matrix(1 0 0 -1 0 129)" fill="#D9D9D9"/>
</mask>
<g mask="url(#mask0_202_397)">
<path d="M131.562 118.857C77.8511 132.22 113.61 123.174 86.0367 77.7744C60.3935 58.262 51.1606 74.1546 49.756 55.3141C48.65 40.4777 82.7122 39.5852 131.67 31.3769C180.628 23.1685 185.273 105.493 131.562 118.857Z" fill="#FDCAA5"/>
<circle cx="39.4329" cy="56.0575" r="13.1219" transform="rotate(-4.54045 39.4329 56.0575)" fill="#FDCAA5"/>
<circle cx="71.5399" cy="53.5087" r="13.1219" transform="rotate(-4.54045 71.5399 53.5087)" fill="#FDCAA5"/>
<rect x="38.3945" y="42.9775" width="32.2082" height="26.2437" transform="rotate(-4.54045 38.3945 42.9775)" fill="#FDCAA5"/>
<circle cx="15.9271" cy="56.5157" r="13.1219" transform="rotate(-1.78757 15.9271 56.5157)" fill="#FDCAA5"/>
<circle cx="48.1195" cy="55.5108" r="13.1219" transform="rotate(-1.78757 48.1195 55.5108)" fill="#FDCAA5"/>
<rect x="15.5176" y="43.4004" width="32.2082" height="26.2437" transform="rotate(-1.78757 15.5176 43.4004)" fill="#FDCAA5"/>
<path d="M43.4242 42.2724C54.1565 48.6537 111 45.7301 106.169 39.7983C101.338 33.8665 64.0956 39.9985 43.4242 42.2724Z" fill="#E2A97F"/>
<ellipse cx="55.2496" cy="76.5433" rx="9.89082" ry="13.1219" transform="rotate(-4.76356 55.2496 76.5433)" fill="#FDCAA5"/>
<ellipse cx="79.4429" cy="74.5276" rx="9.89082" ry="13.1219" transform="rotate(-4.76356 79.4429 74.5276)" fill="#FDCAA5"/>
<rect x="54.1597" y="63.4668" width="24.2775" height="26.2437" transform="rotate(-4.76356 54.1597 63.4668)" fill="#FDCAA5"/>
<path d="M58.1682 68.205C64.9707 72.0834 79.6623 73.8266 86.8746 69.5054C95.1289 64.5601 70.7633 66.544 58.1682 68.205Z" fill="#E2A97F"/>
<ellipse cx="10.8638" cy="13.1229" rx="10.8638" ry="13.1229" transform="matrix(0.994829 -0.101567 0.106603 0.994302 53.9399 83.6895)" fill="#FDCAA5"/>
<ellipse cx="10.8638" cy="13.1229" rx="10.8638" ry="13.1229" transform="matrix(0.994829 -0.101567 0.106603 0.994302 80.4683 80.9814)" fill="#FDCAA5"/>
<rect width="26.6658" height="26.2459" transform="matrix(0.994829 -0.101567 0.106603 0.994302 64.748 82.5859)" fill="#FDCAA5"/>
<ellipse cx="11.3842" cy="12.1017" rx="11.3842" ry="12.1017" transform="matrix(0.997586 -0.0694455 0.0677341 0.997704 66.0024 102.519)" fill="#FDCAA5"/>
<ellipse cx="11.3842" cy="12.1017" rx="11.3842" ry="12.1017" transform="matrix(0.997589 -0.0694064 0.0677864 0.9977 93.8784 100.579)" fill="#FDCAA5"/>
<rect width="27.9431" height="24.2034" transform="matrix(0.997589 -0.0694064 0.0677864 0.9977 77.3594 101.729)" fill="#FDCAA5"/>
<ellipse cx="16.6438" cy="14.2146" rx="16.6438" ry="14.2146" transform="matrix(0.902278 0.431154 -0.435416 0.90023 96.563 6.17773)" fill="#FDCAA5"/>
<ellipse cx="16.6438" cy="14.2146" rx="16.6438" ry="14.2146" transform="matrix(0.902205 0.431306 -0.435099 0.900381 133.421 23.7979)" fill="#FDCAA5"/>
<rect width="40.853" height="28.4291" transform="matrix(0.902205 0.431306 -0.435099 0.900381 111.58 13.3564)" fill="#FDCAA5"/>
<ellipse cx="10.8977" cy="13.9298" rx="10.8977" ry="13.9298" transform="matrix(-0.949939 -0.312435 0.313449 -0.949605 106.897 41.374)" fill="#FDCAA5"/>
<ellipse cx="10.8977" cy="13.9298" rx="10.8977" ry="13.9298" transform="matrix(-0.949924 -0.312482 0.31341 -0.949618 81.4873 33.0156)" fill="#FDCAA5"/>
<rect width="26.7488" height="27.8596" transform="matrix(-0.949924 -0.312482 0.31341 -0.949618 96.5444 37.9688)" fill="#FDCAA5"/>
<path d="M62.0563 89.4667C68.8589 93.3451 83.5505 95.0883 90.7628 90.7672C99.0171 85.8218 74.6515 87.8057 62.0563 89.4667Z" fill="#E2A97F"/>
<path d="M69.2053 107.491C76.0079 111.37 90.6994 113.113 97.9117 108.792C106.166 103.846 81.8004 105.83 69.2053 107.491Z" fill="#E2A97F"/>
</g>
</svg>
